<?xml version="1.0" encoding="UTF-8" standalone="no"?>
<svg
   xmlns:dc="http://purl.org/dc/elements/1.1/"
   xmlns:cc="http://creativecommons.org/ns#"
   xmlns:rdf="http://www.w3.org/1999/02/22-rdf-syntax-ns#"
   xmlns:svg="http://www.w3.org/2000/svg"
   xmlns="http://www.w3.org/2000/svg"
   xmlns:sodipodi="http://sodipodi.sourceforge.net/DTD/sodipodi-0.dtd"
   xmlns:inkscape="http://www.inkscape.org/namespaces/inkscape"
   width="210mm"
   height="148mm"
   viewBox="0 0 210 148"
   version="1.1"
   id="svg8"
   sodipodi:docname="2021-04-14_14-06.svg"
   inkscape:version="1.0.2 (e86c870879, 2021-01-15, custom)">
  <defs
     id="defs2">
    <marker
       style="overflow:visible;"
       id="marker1129"
       refX="0.0"
       refY="0.0"
       orient="auto"
       inkscape:stockid="Arrow1Lend"
       inkscape:isstock="true">
      <path
         transform="scale(0.8) rotate(180) translate(12.5,0)"
         style="fill-rule:evenodd;stroke:#000000;stroke-width:1pt;stroke-opacity:1;fill:#000000;fill-opacity:1"
         d="M 0.0,0.0 L 5.0,-5.0 L -12.5,0.0 L 5.0,5.0 L 0.0,0.0 z "
         id="path869" />
    </marker>
    <marker
       style="overflow:visible;"
       id="Arrow1Lend"
       refX="0.0"
       refY="0.0"
       orient="auto"
       inkscape:stockid="Arrow1Lend"
       inkscape:isstock="true">
      <path
         transform="scale(0.8) rotate(180) translate(12.5,0)"
         style="fill-rule:evenodd;stroke:#000000;stroke-width:1pt;stroke-opacity:1;fill:#000000;fill-opacity:1"
         d="M 0.0,0.0 L 5.0,-5.0 L -12.5,0.0 L 5.0,5.0 L 0.0,0.0 z "
         id="path882" />
    </marker>
    <marker
       style="overflow:visible"
       id="Arrow1Lstart"
       refX="0.0"
       refY="0.0"
       orient="auto"
       inkscape:stockid="Arrow1Lstart"
       inkscape:isstock="true">
      <path
         transform="scale(0.8) translate(12.5,0)"
         style="fill-rule:evenodd;stroke:#000000;stroke-width:1pt;stroke-opacity:1;fill:#000000;fill-opacity:1"
         d="M 0.0,0.0 L 5.0,-5.0 L -12.5,0.0 L 5.0,5.0 L 0.0,0.0 z "
         id="path879" />
    </marker>
    <marker
       style="overflow:visible"
       id="marker1129-3"
       refX="0"
       refY="0"
       orient="auto"
       inkscape:stockid="Arrow1Lend"
       inkscape:isstock="true">
      <path
         transform="matrix(-0.8,0,0,-0.8,-10,0)"
         style="fill:#000000;fill-opacity:1;fill-rule:evenodd;stroke:#000000;stroke-width:1pt;stroke-opacity:1"
         d="M 0,0 5,-5 -12.5,0 5,5 Z"
         id="path869-6" />
    </marker>
    <marker
       style="overflow:visible"
       id="marker1129-5"
       refX="0"
       refY="0"
       orient="auto"
       inkscape:stockid="Arrow1Lend"
       inkscape:isstock="true">
      <path
         transform="matrix(-0.8,0,0,-0.8,-10,0)"
         style="fill:#000000;fill-opacity:1;fill-rule:evenodd;stroke:#000000;stroke-width:1pt;stroke-opacity:1"
         d="M 0,0 5,-5 -12.5,0 5,5 Z"
         id="path869-3" />
    </marker>
    <marker
       style="overflow:visible"
       id="marker1129-6"
       refX="0"
       refY="0"
       orient="auto"
       inkscape:stockid="Arrow1Lend"
       inkscape:isstock="true">
      <path
         transform="matrix(-0.8,0,0,-0.8,-10,0)"
         style="fill:#000000;fill-opacity:1;fill-rule:evenodd;stroke:#000000;stroke-width:1pt;stroke-opacity:1"
         d="M 0,0 5,-5 -12.5,0 5,5 Z"
         id="path869-2" />
    </marker>
    <marker
       style="overflow:visible"
       id="marker1129-1"
       refX="0"
       refY="0"
       orient="auto"
       inkscape:stockid="Arrow1Lend"
       inkscape:isstock="true">
      <path
         transform="matrix(-0.8,0,0,-0.8,-10,0)"
         style="fill:#000000;fill-opacity:1;fill-rule:evenodd;stroke:#000000;stroke-width:1pt;stroke-opacity:1"
         d="M 0,0 5,-5 -12.5,0 5,5 Z"
         id="path869-27" />
    </marker>
    <marker
       style="overflow:visible"
       id="marker1129-9"
       refX="0"
       refY="0"
       orient="auto"
       inkscape:stockid="Arrow1Lend"
       inkscape:isstock="true">
      <path
         transform="matrix(-0.8,0,0,-0.8,-10,0)"
         style="fill:#000000;fill-opacity:1;fill-rule:evenodd;stroke:#000000;stroke-width:1pt;stroke-opacity:1"
         d="M 0,0 5,-5 -12.5,0 5,5 Z"
         id="path869-36" />
    </marker>
  </defs>
  <sodipodi:namedview
     id="base"
     pagecolor="#ffffff"
     bordercolor="#000000"
     borderopacity="1"
     inkscape:pageopacity="0.0"
     inkscape:pageshadow="2"
     inkscape:zoom="1.9436789"
     inkscape:cx="61.599682"
     inkscape:cy="564.69204"
     inkscape:document-units="mm"
     inkscape:current-layer="layer1"
     inkscape:document-rotation="0"
     showgrid="true"
     showborder="true"
     borderlayer="true"
     inkscape:showpageshadow="false"
     objecttolerance="10000"
     guidetolerance="10000"
     inkscape:snap-perpendicular="true"
     inkscape:snap-tangential="true"
     inkscape:window-width="1920"
     inkscape:window-height="1080"
     inkscape:window-x="0"
     inkscape:window-y="0"
     inkscape:window-maximized="0">
    <sodipodi:guide
       position="0,148"
       orientation="0,793.70079"
       id="guide10" />
    <sodipodi:guide
       position="210,148"
       orientation="559.37008,0"
       id="guide12" />
    <sodipodi:guide
       position="210,0"
       orientation="0,-793.70079"
       id="guide14" />
    <sodipodi:guide
       position="0,0"
       orientation="-559.37008,0"
       id="guide16" />
    <inkscape:grid
       type="xygrid"
       id="grid20"
       dotted="true"
       units="px"
       originx="105"
       originy="74.000003" />
  </sodipodi:namedview>
  <metadata
     id="metadata5">
    <rdf:RDF>
      <cc:Work
         rdf:about="">
        <dc:format>image/svg+xml</dc:format>
        <dc:type
           rdf:resource="http://purl.org/dc/dcmitype/StillImage" />
        <dc:title />
        <cc:license
           rdf:resource="" />
      </cc:Work>
    </rdf:RDF>
  </metadata>
  <g
     inkscape:label="Layer 1"
     inkscape:groupmode="layer"
     id="layer1">
    <path
       style="fill:#f5e7e7;stroke:#000000;stroke-width:0.264583px;stroke-linecap:butt;stroke-linejoin:miter;stroke-opacity:1"
       d="m -96.083333,116.33333 c 0.03746,0.2325 0.170667,0.46932 0.112384,0.69749 -0.338232,1.32415 -0.941374,2.57066 -1.285052,3.8934 -1.039392,4.00041 -1.533451,8.56771 -1.663012,12.68139 -0.466767,14.82018 4.203658,38.324 15.571809,48.76026 4.035496,3.7047 11.649334,4.43472 16.516699,5.67325 5.412004,1.37711 10.807017,2.87239 15.53401,5.96989 6.938555,4.5467 12.24389,11.07695 17.877348,17.01975 9.117098,9.61773 19.284129,20.00229 31.8617255,24.8807 11.6449415,4.51667 30.3302525,3.36811 42.3311305,1.6686 6.506501,-0.92142 11.390913,-2.79814 17.537192,-5.00581 6.551387,-2.35318 13.02313,-4.92464 19.578148,-7.26769 6.604645,-2.36079 14.152387,-3.74896 20.182874,-7.49015 16.286987,-10.10411 22.879027,-29.57816 28.838077,-46.60963 5.63449,-16.10383 12.2607,-32.77902 11.67885,-50.13223 -0.35623,-10.62429 -6.60958,-16.58153 -15.91196,-20.83899 C 109.33084,94.125403 81.97788,96.389906 67.79761,98.639118 64.423734,99.17427 57.3641,100.70727 54.22897,100.97516 42.830014,101.94917 37.764886,90.200577 30.946846,83.399208 25.512568,77.978219 17.798775,74.247752 10.423805,72.497685 5.1828194,71.254008 -0.20881673,70.987541 -5.5637522,70.680762 -24.650208,69.587315 -43.975533,73.19673 -60.820998,82.50929 c -1.998816,1.104993 -3.73916,2.623741 -5.707142,3.782174 -2.942388,1.732005 -6.195538,2.941598 -8.995362,4.931637 -1.747512,1.242084 -3.228546,2.690723 -4.875641,4.041733 -2.297454,1.884452 -4.753991,3.530499 -6.841014,5.673236 -1.550188,1.59158 -1.837377,4.07392 -3.137037,5.74742 -2.304404,2.96725 -3.107084,6.95662 -5.706139,9.64784 z"
       id="path835" />
    <path
       style="fill:#f5e7e7;stroke:#000000;stroke-width:0.264583px;stroke-linecap:butt;stroke-linejoin:miter;stroke-opacity:1"
       d="m 179.08333,79.29167 c 0.0375,0.2325 0.17067,0.46932 0.11239,0.69749 -0.33823,1.32415 -0.94138,2.57066 -1.28505,3.8934 -1.0394,4.00041 -1.53346,8.56771 -1.66302,12.681389 -0.46676,14.820181 4.20366,38.324001 15.57181,48.760261 4.0355,3.7047 11.64934,4.43472 16.51671,5.67325 5.412,1.37711 10.80701,2.87239 15.53401,5.96989 6.93855,4.5467 12.24389,11.07695 17.87734,17.01975 9.1171,9.61773 19.28413,20.00229 31.86173,24.8807 11.64494,4.51667 30.33025,3.36811 42.33113,1.6686 6.5065,-0.92142 11.39091,-2.79814 17.53719,-5.00581 6.55139,-2.35318 13.02313,-4.92464 19.57815,-7.26769 6.60464,-2.36079 14.15239,-3.74896 20.18287,-7.49015 16.28699,-10.10411 22.87903,-29.57816 28.83808,-46.60963 5.63449,-16.10383 12.2607,-32.77902 11.67885,-50.13223 C 413.39929,73.4066 407.14594,67.44936 397.84356,63.1919 384.49751,57.083743 357.14455,59.348246 342.96428,61.597458 339.5904,62.13261 332.53077,63.66561 329.39564,63.9335 317.99668,64.90751 312.93156,53.158917 306.11352,46.357548 c -5.43428,-5.420989 -13.14808,-9.151456 -20.52305,-10.901523 -5.24098,-1.243677 -10.63262,-1.510144 -15.98755,-1.816923 -19.08646,-1.093447 -38.41178,2.515968 -55.25725,11.828528 -1.99881,1.104993 -3.73916,2.623741 -5.70714,3.782174 -2.94239,1.732005 -6.19554,2.941598 -8.99537,4.931637 -1.74751,1.242084 -3.22854,2.690723 -4.87564,4.041733 -2.29745,1.884452 -4.75399,3.530499 -6.84101,5.673236 -1.55019,1.59158 -1.83738,4.07392 -3.13704,5.74742 -2.3044,2.96725 -3.10708,6.95662 -5.70614,9.64784 z"
       id="path835-3" />
    <circle
       style="opacity:0.626962;fill:#bc2122;fill-opacity:0.881213;fill-rule:evenodd;stroke:#f5e7e7;stroke-width:1;stroke-linejoin:round"
       id="path857"
       sodipodi:type="arc"
       sodipodi:cx="292.85416"
       sodipodi:cy="108.39584"
       sodipodi:rx="2.6458333"
       sodipodi:ry="2.6458333"
       sodipodi:start="5.0507036"
       sodipodi:end="5.0265308"
       sodipodi:open="true"
       sodipodi:arc-type="arc"
       d="m 293.7323,105.89999 a 2.6458333,2.6458333 0 0 1 1.62297,3.3589 2.6458333,2.6458333 0 0 1 -3.34903,1.64324 2.6458333,2.6458333 0 0 1 -1.66345,-3.33904 2.6458333,2.6458333 0 0 1 3.32893,-1.6836" />
    <text
       xml:space="preserve"
       style="font-size:10.5833px;line-height:1.25;font-family:sans-serif;word-spacing:0px;stroke-width:0.264583"
       x="316.66666"
       y="111.04167"
       id="text861"><tspan
         sodipodi:role="line"
         id="tspan859"
         x="316.66666"
         y="111.04167"
         style="stroke-width:0.264583">$p$</tspan></text>
    <path
       style="fill:#cd8282;stroke:#000000;stroke-width:0.264583px;stroke-linecap:butt;stroke-linejoin:miter;stroke-opacity:1"
       d="m 9.75,132.20833 c -0.5187122,0.58936 -0.8533001,1.41818 -1.5561366,1.76808 -0.9178173,0.45692 -2.0378491,-0.35504 -3.0614479,-0.29666 -2.986426,0.17033 -6.594465,1.28611 -8.9575673,3.1889 -9.8459872,7.92809 -1.0748891,19.11751 1.0582711,28.36623 1.92749114,8.35701 0.7734919,17.69488 8.881979,23.39752 1.2814279,0.90122 2.6624005,1.68704 4.1197307,2.26188 3.223224,1.2714 7.592232,0.95139 10.960732,0.927 5.438246,-0.0394 11.643098,0.27986 16.894665,-1.52028 3.802165,-1.30331 7.119929,-3.84308 10.847355,-5.37661 9.662263,-3.97523 21.681305,-7.50667 27.288456,-17.16807 1.102884,-1.90032 1.608754,-4.67136 1.05828,-6.82272 -2.975811,-11.63005 -16.30032,-17.22937 -27.137278,-18.35463 -4.96167,-0.51521 -10.072888,1.27163 -14.967084,-0.11122 -5.147786,-1.4545 -9.145955,-6.38327 -13.455252,-9.30711 -2.538514,-1.72238 -7.585903,-4.75011 -10.922945,-3.89341 -0.8791669,0.22571 -1.7520252,0.53744 -2.5323063,1.00116 -0.9032846,0.53683 -2.1165537,1.28529 -2.1165537,2.33605 0,0.27338 0.4787453,-0.26407 0.7181181,-0.39611"
       id="path863" />
    <text
       xml:space="preserve"
       style="font-size:10.5833px;line-height:1.25;font-family:sans-serif;word-spacing:0px;stroke-width:0.264583"
       x="30.916664"
       y="169.25"
       id="text867"><tspan
         sodipodi:role="line"
         id="tspan865"
         x="30.916664"
         y="169.25"
         style="stroke-width:0.264583">$\CP^1$</tspan></text>
    <text
       xml:space="preserve"
       style="font-size:10.5833px;line-height:1.25;font-family:sans-serif;word-spacing:0px;stroke-width:0.264583"
       x="20.333334"
       y="52.833332"
       id="text871"><tspan
         sodipodi:role="line"
         id="tspan869"
         x="20.333334"
         y="52.833332"
         style="stroke-width:0.264583">$\Bl_p(S)$</tspan></text>
    <text
       xml:space="preserve"
       style="font-size:10.5833px;line-height:1.25;font-family:sans-serif;word-spacing:0px;stroke-width:0.264583"
       x="269.04166"
       y="21.083336"
       id="text875"><tspan
         sodipodi:role="line"
         id="tspan873"
         x="269.04166"
         y="21.083336"
         style="stroke-width:0.264583">$S$</tspan></text>
    <path
       style="fill:none;stroke:#000000;stroke-width:0.6;stroke-linecap:butt;stroke-linejoin:miter;stroke-opacity:1;stroke-miterlimit:4;stroke-dasharray:none;marker-end:url(#Arrow1Lend)"
       d="M 263.75,15.79167 83.833331,47.541669"
       id="path877" />
    <path
       style="fill:none;stroke:#000000;stroke-width:0.664211;stroke-linecap:butt;stroke-linejoin:miter;stroke-miterlimit:4;stroke-dasharray:none;stroke-opacity:1;marker-end:url(#marker1129)"
       d="M 292.98253,64.739586 V 104.42708"
       id="path864" />
    <path
       style="fill:none;stroke:#000000;stroke-width:0.664211;stroke-linecap:butt;stroke-linejoin:miter;stroke-miterlimit:4;stroke-dasharray:none;stroke-opacity:1;marker-end:url(#marker1129-3)"
       d="m 274.85554,67.302166 14.02988,37.124924"
       id="path864-7" />
    <path
       style="fill:none;stroke:#000000;stroke-width:0.664211;stroke-linecap:butt;stroke-linejoin:miter;stroke-miterlimit:4;stroke-dasharray:none;stroke-opacity:1;marker-end:url(#marker1129-5)"
       d="m 251.09939,88.62668 35.14019,18.44624"
       id="path864-5" />
    <path
       style="fill:none;stroke:#000000;stroke-width:0.664211;stroke-linecap:butt;stroke-linejoin:miter;stroke-miterlimit:4;stroke-dasharray:none;stroke-opacity:1;marker-end:url(#marker1129-6)"
       d="m 61.34375,104.42709 v 39.68749"
       id="path864-9" />
    <path
       style="fill:none;stroke:#000000;stroke-width:0.664211;stroke-linecap:butt;stroke-linejoin:miter;stroke-miterlimit:4;stroke-dasharray:none;stroke-opacity:1;marker-end:url(#marker1129-1)"
       d="m 49.4375,101.78125 v 39.68749"
       id="path864-0" />
    <path
       style="fill:none;stroke:#000000;stroke-width:0.664211;stroke-linecap:butt;stroke-linejoin:miter;stroke-miterlimit:4;stroke-dasharray:none;stroke-opacity:1;marker-end:url(#marker1129-9)"
       d="m 30.916667,99.13542 v 39.68749"
       id="path864-06" />
  </g>
</svg>
