<?xml version="1.0" encoding="UTF-8" standalone="no"?>
<svg
   xmlns:dc="http://purl.org/dc/elements/1.1/"
   xmlns:cc="http://creativecommons.org/ns#"
   xmlns:rdf="http://www.w3.org/1999/02/22-rdf-syntax-ns#"
   xmlns:svg="http://www.w3.org/2000/svg"
   xmlns="http://www.w3.org/2000/svg"
   xmlns:sodipodi="http://sodipodi.sourceforge.net/DTD/sodipodi-0.dtd"
   xmlns:inkscape="http://www.inkscape.org/namespaces/inkscape"
   width="210mm"
   height="148mm"
   viewBox="0 0 210 148"
   version="1.1"
   id="svg8"
   sodipodi:docname="2021-04-07_14-31.svg"
   inkscape:version="1.0.2 (e86c870879, 2021-01-15)">
  <defs
     id="defs2" />
  <sodipodi:namedview
     id="base"
     pagecolor="#ffffff"
     bordercolor="#000000"
     borderopacity="1"
     inkscape:pageopacity="0.0"
     inkscape:pageshadow="2"
     inkscape:zoom="2.6317852"
     inkscape:cx="475.05533"
     inkscape:cy="79.572155"
     inkscape:document-units="mm"
     inkscape:current-layer="layer1"
     inkscape:document-rotation="0"
     showgrid="true"
     showborder="true"
     borderlayer="true"
     inkscape:showpageshadow="false"
     objecttolerance="10000"
     guidetolerance="10000"
     inkscape:snap-perpendicular="true"
     inkscape:snap-tangential="true"
     inkscape:window-width="1920"
     inkscape:window-height="1080"
     inkscape:window-x="0"
     inkscape:window-y="0"
     inkscape:window-maximized="0">
    <sodipodi:guide
       position="0,148"
       orientation="0,793.70079"
       id="guide10" />
    <sodipodi:guide
       position="210,148"
       orientation="559.37008,0"
       id="guide12" />
    <sodipodi:guide
       position="210,0"
       orientation="0,-793.70079"
       id="guide14" />
    <sodipodi:guide
       position="0,0"
       orientation="-559.37008,0"
       id="guide16" />
    <inkscape:grid
       type="xygrid"
       id="grid20"
       dotted="true"
       units="px"
       originx="105"
       originy="74.000003" />
  </sodipodi:namedview>
  <metadata
     id="metadata5">
    <rdf:RDF>
      <cc:Work
         rdf:about="">
        <dc:format>image/svg+xml</dc:format>
        <dc:type
           rdf:resource="http://purl.org/dc/dcmitype/StillImage" />
        <dc:title />
        <cc:license
           rdf:resource="" />
      </cc:Work>
    </rdf:RDF>
  </metadata>
  <g
     inkscape:label="Layer 1"
     inkscape:groupmode="layer"
     id="layer1">
    <path
       style="fill:none;stroke:#000000;stroke-width:0.264583px;stroke-linecap:butt;stroke-linejoin:miter;stroke-opacity:1"
       d="m 99.708331,-10.666663 c 0,179.916663 0,179.916663 0,179.916663"
       id="path835" />
    <path
       style="fill:none;stroke:#000000;stroke-width:0.264583px;stroke-linecap:butt;stroke-linejoin:miter;stroke-opacity:1"
       d="m -27.291667,74.000002 c 285.749997,0 285.749997,0 285.749997,0"
       id="path837" />
    <path
       style="fill:none;stroke:#000000;stroke-width:0.264583px;stroke-linecap:butt;stroke-linejoin:miter;stroke-opacity:1"
       d="m 73.806933,5.5036092 c -4.22714,2.5343443 -12.766839,6.0794128 -8.088262,12.1993348 3.169205,4.145551 18.161476,4.682202 22.828572,4.746244 9.339146,0.12815 18.335577,0.430172 27.590807,-1.07532 4.89468,-0.796187 17.2661,-2.578837 18.29311,-8.899212 0.4022,-2.4752053 -2.34345,-4.4633707 -4.11974,-5.5620048 C 95.891303,-8.4383568 79.688842,2.0405127 73.806933,5.5036092 Z"
       id="path839"
       sodipodi:nodetypes="csssscc" />
    <path
       style="fill:none;stroke:#000000;stroke-width:0.264583px;stroke-linecap:butt;stroke-linejoin:miter;stroke-opacity:1"
       d="m 15.601634,54.745918 c -2.783777,5.120765 -4.722674,10.572928 -5.6315547,16.352293 -0.9558128,6.077794 -0.8947044,12.111556 0.1133887,18.169225 1.282632,7.707392 4.224818,15.280994 13.152886,15.165744 2.714755,-0.035 4.938027,-0.8027 6.916602,-2.70684 C 54.113188,87.295314 24.484414,39.155396 15.601634,54.745918 Z"
       id="path841"
       sodipodi:nodetypes="cssccc" />
    <path
       style="fill:none;stroke:#000000;stroke-width:0.264583px;stroke-linecap:butt;stroke-linejoin:miter;stroke-opacity:1"
       d="m 74.714038,148.66968 c 2.149274,4.38723 7.565356,6.64657 11.943416,7.93512 10.814031,3.1828 23.031296,1.83795 34.091686,0.81578 4.12746,-0.38145 15.97955,-1.73655 17.00802,-7.60142 1.002,-5.71389 -11.11944,-8.78391 -14.66471,-10.04869 -7.13019,-2.54371 -13.97918,-5.90908 -21.35452,-7.74974 -10.27558,-3.3043 -32.168643,4.43305 -27.023892,16.64895 z"
       id="path843"
       sodipodi:nodetypes="csssscc" />
    <path
       style="fill:none;stroke:#000000;stroke-width:0.264583px;stroke-linecap:butt;stroke-linejoin:miter;stroke-opacity:1"
       d="m 168.63621,59.67756 c -4.8472,12.08138 -5.15805,25.637018 0.0756,37.636256 1.40791,3.227934 2.89868,5.761454 6.16068,7.416004 10.07791,5.11171 25.19976,-7.5486 29.6318,-15.684855 1.38498,-2.542527 2.0171,-5.622877 2.04096,-8.491339 C 203.33287,60.286684 179.21159,32.599262 168.63621,59.67756 Z"
       id="path845"
       sodipodi:nodetypes="cssscc" />
  </g>
</svg>
