<?xml version="1.0" encoding="UTF-8" standalone="no"?>
<svg
   xmlns:dc="http://purl.org/dc/elements/1.1/"
   xmlns:cc="http://creativecommons.org/ns#"
   xmlns:rdf="http://www.w3.org/1999/02/22-rdf-syntax-ns#"
   xmlns:svg="http://www.w3.org/2000/svg"
   xmlns="http://www.w3.org/2000/svg"
   xmlns:sodipodi="http://sodipodi.sourceforge.net/DTD/sodipodi-0.dtd"
   xmlns:inkscape="http://www.inkscape.org/namespaces/inkscape"
   width="260.53824mm"
   height="106.047mm"
   viewBox="0 0 260.53824 106.047"
   version="1.1"
   id="svg8"
   sodipodi:docname="2021-02-26_15-58.svg"
   inkscape:version="1.0.2 (e86c870879, 2021-01-15)">
  <defs
     id="defs2" />
  <sodipodi:namedview
     id="base"
     pagecolor="#ffffff"
     bordercolor="#000000"
     borderopacity="1"
     inkscape:pageopacity="0.0"
     inkscape:pageshadow="2"
     inkscape:zoom="0.35"
     inkscape:cx="1365.7704"
     inkscape:cy="-5.3120005"
     inkscape:document-units="mm"
     inkscape:current-layer="layer1"
     inkscape:document-rotation="0"
     showgrid="true"
     showborder="true"
     borderlayer="true"
     inkscape:showpageshadow="false"
     objecttolerance="10000"
     guidetolerance="10000"
     inkscape:snap-perpendicular="true"
     inkscape:snap-tangential="true"
     inkscape:window-width="1920"
     inkscape:window-height="1080"
     inkscape:window-x="3000"
     inkscape:window-y="485"
     inkscape:window-maximized="0">
    <sodipodi:guide
       position="-2.3947849,121.66735"
       orientation="0,793.70079"
       id="guide10" />
    <sodipodi:guide
       position="207.60522,121.66735"
       orientation="559.37008,0"
       id="guide12" />
    <sodipodi:guide
       position="207.60522,-26.332647"
       orientation="0,-793.70079"
       id="guide14" />
    <inkscape:grid
       type="xygrid"
       id="grid20"
       dotted="true"
       units="px"
       originx="102.60522"
       originy="58.379647" />
  </sodipodi:namedview>
  <metadata
     id="metadata5">
    <rdf:RDF>
      <cc:Work
         rdf:about="">
        <dc:format>image/svg+xml</dc:format>
        <dc:type
           rdf:resource="http://purl.org/dc/dcmitype/StillImage" />
        <dc:title />
        <cc:license
           rdf:resource="" />
      </cc:Work>
    </rdf:RDF>
  </metadata>
  <g
     inkscape:label="Layer 1"
     inkscape:groupmode="layer"
     id="layer1"
     transform="translate(-2.3947848,-15.620356)">
    <path
       id="path835-3"
       style="fill:none;stroke:#000000;stroke-width:1;stroke-linecap:butt;stroke-linejoin:miter;stroke-miterlimit:4;stroke-dasharray:none;stroke-opacity:1"
       d="M 29.319642,22.41831 C 5.2807523,30.2888 -1.1302777,61.98014 5.1677083,84.97071 c 4.75844,17.37051 18.4324917,35.79787 37.3065537,36.18707 24.611682,0.50752 36.012444,-19.31289 61.458718,-15.75188 29.42696,4.11807 68.93105,16.44151 98.63699,8.84719 13.01307,-3.32679 26.24202,-6.69142 37.80165,-14.11825 13.65171,-8.77096 25.8271,-24.73752 20.97653,-41.56785 C 257.57161,45.46331 250.62429,32.64624 238.66806,25.10276 222.86199,15.130324 207.04828,13.749781 185.56944,19.495441 164.0906,25.2411 132.80202,34.69457 107.0619,27.37989 81.321774,20.065204 54.392056,14.20944 29.319642,22.41831 Z"
       sodipodi:nodetypes="sssssssszzs" />
    <path
       style="fill:#f4cece;fill-rule:evenodd;stroke:none;stroke-width:2.69966;stroke-linejoin:round;stroke-miterlimit:4;stroke-dasharray:none;stroke-opacity:1"
       d="M 144.12243,454.01076 C 84.533368,443.09877 31.426245,378.19155 17.139368,298.81276 13.518809,278.6967 12.799726,238.83303 15.724672,220.38647 21.228806,185.67391 33.056851,154.8755 49.472014,132.51357 57.147125,122.05798 75.950444,104.89662 86.742471,98.497687 112.9753,82.94341 151.72521,74.226088 200.36717,72.936254 c 55.78678,-1.479291 106.14178,6.20503 189.09328,28.856196 44.39191,12.12188 49.60405,12.83267 94.28571,12.85793 29.33276,0.0166 43.19076,-0.59945 57.85714,-2.57192 26.87989,-3.61507 69.56045,-12.349025 105,-21.486723 16.5,-4.254342 41.25,-10.64239 55,-14.195661 35.4953,-9.172685 48.66793,-11.223981 77.42423,-12.056822 44.82289,-1.298163 75.70312,6.176714 112.27728,27.177866 42.83331,24.59521 70.46401,60.82352 90.11481,118.15507 l 6.61033,19.28571 -0.0114,21.42857 c -0.01,20.53939 -0.20639,21.99049 -4.72431,34.97019 -8.0068,23.00299 -19.4256,40.59927 -39.52229,60.90356 -35.45554,35.8218 -77.24093,56.45527 -157.16923,77.60963 -39.6745,10.50051 -56.2294,13.0499 -90.75917,13.97657 -53.38427,1.43267 -95.73509,-3.63253 -205.6694,-24.5983 -86.65503,-16.52613 -98.48233,-18.33119 -120,-18.31416 -31.88352,0.0253 -50.10342,5.20323 -97.31626,27.65671 -54.1982,25.7756 -71.63693,31.22903 -102.68374,32.1112 -10.60715,0.30139 -22.33068,-0.01 -26.05231,-0.69111 z"
       id="path2319"
       transform="scale(0.26458333)" />
    <g
       id="g2317"
       transform="translate(-1.5875,1.5874997)">
      <path
         style="fill:none;stroke:#000000;stroke-width:0.5;stroke-linecap:butt;stroke-linejoin:miter;stroke-miterlimit:4;stroke-dasharray:none;stroke-opacity:1"
         d="m 164.26667,47.012503 c 9.92169,-5.112785 20.25133,-9.187991 31.81567,-9.534493 16.36393,-0.490312 31.25057,5.75648 46.50099,10.06366"
         id="path2282"
         sodipodi:nodetypes="csc" />
      <path
         style="fill:none;stroke:#000000;stroke-width:0.5;stroke-linecap:butt;stroke-linejoin:miter;stroke-miterlimit:4;stroke-dasharray:none;stroke-opacity:1"
         d="m 22.979166,100.45833 c 1.091916,-16.8571 4.932204,-35.305984 17.706662,-47.28758 6.16022,-5.777879 16.691238,-9.877697 23.912848,-5.41476 13.649152,8.43514 23.379182,24.48741 40.191544,27.11221 12.84969,1.50172 23.06595,-6.87582 33.54728,-13.03903"
         id="path2251"
         sodipodi:nodetypes="csscc" />
      <g
         id="g2306">
        <path
           style="fill:none;stroke:#00c100;stroke-width:0.5;stroke-linecap:butt;stroke-linejoin:miter;stroke-miterlimit:4;stroke-dasharray:none;stroke-opacity:1"
           d="m 138.3375,61.82917 c 8.46505,-6.265884 17.48578,-10.630963 25.92917,-14.816667"
           id="path2280"
           sodipodi:nodetypes="cc" />
        <g
           id="g2261"
           transform="translate(47.625002,-76.729171)">
          <circle
             style="fill:#a51d1e;fill-rule:evenodd;stroke:#a51d1e;stroke-width:0.0543335;stroke-linejoin:round"
             id="path835"
             sodipodi:type="arc"
             sodipodi:cx="103.77233"
             sodipodi:cy="130.8013"
             sodipodi:rx="3.9730289"
             sodipodi:ry="4.0845165"
             sodipodi:start="5.0507036"
             sodipodi:end="5.0265308"
             sodipodi:open="true"
             sodipodi:arc-type="arc"
             d="m 105.09097,126.94831 a 3.9730289,4.0845165 0 0 1 2.43708,5.18532 3.9730289,4.0845165 0 0 1 -5.02897,2.53676 3.9730289,4.0845165 0 0 1 -2.49786,-5.15466 A 3.9730289,4.0845165 0 0 1 105,126.91667" />
          <circle
             style="fill:none;fill-rule:evenodd;stroke:#a51d1e;stroke-width:0.200626;stroke-linejoin:round"
             id="path835-6"
             sodipodi:type="arc"
             sodipodi:cx="104.00243"
             sodipodi:cy="131.60478"
             sodipodi:rx="14.963387"
             sodipodi:ry="14.786703"
             sodipodi:start="5.0268243"
             sodipodi:end="5.0265308"
             sodipodi:open="true"
             sodipodi:arc-type="arc"
             d="m 108.6303,117.54305 a 14.963387,14.786703 0 0 1 9.60222,18.63392 14.963387,14.786703 0 0 1 -18.855867,9.49021 14.963387,14.786703 0 0 1 -9.604987,-18.63253 14.963387,14.786703 0 0 1 18.854464,-9.49294" />
        </g>
        <path
           style="fill:#2b5d0a;fill-rule:evenodd;stroke:#00c100;stroke-width:0.954475;stroke-linejoin:round;stroke-miterlimit:4;stroke-dasharray:none;stroke-opacity:1"
           d="m 565.94443,262.30415 c -7.98674,-1.03731 -17.28113,-4.46285 -23.89197,-8.80561 -4.69345,-3.0832 -12.66233,-11.00883 -15.74028,-15.65486 l -2.34226,-3.53553 1.11038,-0.88877 c 2.50452,-2.00468 20.74877,-14.12562 26.73987,-17.76518 l 6.4366,-3.91019 2.60588,2.85125 c 3.83838,4.1998 5.75331,5.05806 11.28997,5.06013 3.49159,10e-4 4.95561,-0.21886 6.31345,-0.94946 7.23487,-3.89279 10.66757,-11.89143 8.21037,-19.13121 l -0.98889,-2.91363 10.21691,-5.29738 c 16.84415,-8.73355 25.07868,-12.51183 25.61525,-11.75313 0.9862,1.39444 3.87255,7.88143 4.89817,11.00847 3.00247,9.15432 3.33017,21.03075 0.84281,30.54525 -2.48832,9.51823 -8.55891,19.80597 -15.45389,26.1895 -12.4091,11.48864 -29.53398,17.07106 -45.86237,14.95035 z"
           id="path2292"
           transform="scale(0.26458333)" />
        <path
           style="fill:#2b5d0a;fill-rule:evenodd;stroke:none;stroke-width:0.954475;stroke-linejoin:round;stroke-miterlimit:4;stroke-dasharray:none;stroke-opacity:1"
           d="m 522.24461,230.68579 c -1.46835,-2.87387 -3.3543,-8.7999 -4.18184,-13.14012 -0.99184,-5.20197 -1.09891,-14.57377 -0.22083,-19.32816 3.69452,-20.00407 17.21039,-35.97796 36.1778,-42.75717 7.21244,-2.57783 12.7336,-3.38338 21.16334,-3.08777 10.19599,0.35754 17.74885,2.47905 26.26396,7.37726 6.12133,3.52121 13.09703,9.71136 16.88011,14.97922 l 1.59987,2.22778 -17.76848,8.88706 -17.76849,8.88707 -1.82557,-1.77849 c -4.39563,-4.28228 -11.32789,-5.38753 -16.83362,-2.68387 -3.5532,1.74485 -6.61512,5.12255 -7.79423,8.59808 -0.89296,2.63207 -1.1617,7.09559 -0.56776,9.43004 0.29607,1.16369 -0.0796,1.50031 -4.79128,4.29315 -4.17027,2.47193 -25.23701,16.31568 -28.69039,18.85354 -0.80569,0.59209 -0.9984,0.50321 -1.64259,-0.75762 z"
           id="path2294"
           transform="scale(0.26458333)" />
      </g>
    </g>
  </g>
</svg>
