<?xml version="1.0" encoding="UTF-8" standalone="no"?>
<svg
   xmlns:dc="http://purl.org/dc/elements/1.1/"
   xmlns:cc="http://creativecommons.org/ns#"
   xmlns:rdf="http://www.w3.org/1999/02/22-rdf-syntax-ns#"
   xmlns:svg="http://www.w3.org/2000/svg"
   xmlns="http://www.w3.org/2000/svg"
   xmlns:sodipodi="http://sodipodi.sourceforge.net/DTD/sodipodi-0.dtd"
   xmlns:inkscape="http://www.inkscape.org/namespaces/inkscape"
   width="292.71716mm"
   height="190.10254mm"
   viewBox="0 0 292.71716 190.10254"
   version="1.1"
   id="svg8"
   sodipodi:docname="2021-04-19_14-07.svg"
   inkscape:version="1.0.2 (e86c870879, 2021-01-15, custom)">
  <defs
     id="defs2">
    <marker
       style="overflow:visible"
       id="Arrow1Lend"
       refX="0"
       refY="0"
       orient="auto"
       inkscape:stockid="Arrow1Lend"
       inkscape:isstock="true">
      <path
         transform="matrix(-0.8,0,0,-0.8,-10,0)"
         style="fill:#000000;fill-opacity:1;fill-rule:evenodd;stroke:#000000;stroke-width:1pt;stroke-opacity:1"
         d="M 0,0 5,-5 -12.5,0 5,5 Z"
         id="path977" />
    </marker>
  </defs>
  <sodipodi:namedview
     id="base"
     pagecolor="#ffffff"
     bordercolor="#000000"
     borderopacity="1"
     inkscape:pageopacity="0.0"
     inkscape:pageshadow="2"
     inkscape:zoom="0.5713397"
     inkscape:cx="436.06281"
     inkscape:cy="410.02528"
     inkscape:document-units="mm"
     inkscape:current-layer="layer1"
     inkscape:document-rotation="0"
     showgrid="true"
     showborder="true"
     borderlayer="true"
     inkscape:showpageshadow="false"
     objecttolerance="10000"
     guidetolerance="10000"
     inkscape:snap-perpendicular="true"
     inkscape:snap-tangential="true"
     inkscape:window-width="1920"
     inkscape:window-height="1080"
     inkscape:window-x="-1"
     inkscape:window-y="-1"
     inkscape:window-maximized="0">
    <sodipodi:guide
       position="54.112216,166.11959"
       orientation="0,793.70079"
       id="guide10" />
    <sodipodi:guide
       position="264.11221,166.11959"
       orientation="559.37008,0"
       id="guide12" />
    <sodipodi:guide
       position="264.11221,18.119593"
       orientation="0,-793.70079"
       id="guide14" />
    <sodipodi:guide
       position="54.112216,18.119593"
       orientation="-559.37008,0"
       id="guide16" />
    <inkscape:grid
       type="xygrid"
       id="grid20"
       dotted="true"
       units="px"
       originx="159.11221"
       originy="97.982946" />
  </sodipodi:namedview>
  <metadata
     id="metadata5">
    <rdf:RDF>
      <cc:Work
         rdf:about="">
        <dc:format>image/svg+xml</dc:format>
        <dc:type
           rdf:resource="http://purl.org/dc/dcmitype/StillImage" />
        <dc:title />
        <cc:license
           rdf:resource="" />
      </cc:Work>
    </rdf:RDF>
  </metadata>
  <g
     inkscape:label="Layer 1"
     inkscape:groupmode="layer"
     id="layer1"
     transform="translate(54.112218,23.982945)">
    <path
       id="path835-3-3"
       style="fill:#e9e9f2;stroke:#000000;stroke-width:0.264583px;stroke-linecap:butt;stroke-linejoin:miter;stroke-opacity:1"
       d="m 157.91667,58.125003 c -9.34384,5.452795 -6.6546,16.627283 -10.63358,24.671898 -5.50628,11.132483 -18.09571,10.439465 -27.60888,14.981871 -36.165396,17.268478 -18.69219,61.548658 11.86566,66.565198 23.1129,3.79434 46.79786,0.77285 68.65947,-6.54312 14.23983,-5.81213 28.94651,-14.32897 36.36487,-28.34012 6.46142,-12.23696 -4.57615,-26.90283 -16.65878,-28.73534 C 210.2443,99.260133 203.09507,91.719097 202.1312,81.633715 200.24788,61.927803 174.21512,48.613702 157.91667,58.125003 Z"
       sodipodi:nodetypes="ssssccsss" />
    <path
       id="path846"
       style="fill:none;stroke:#000000;stroke-width:0.264583px;stroke-linecap:butt;stroke-linejoin:miter;stroke-opacity:1"
       d="m 126.16666,145.4375 c -1.51347,-8.86759 2.33938,-18.32612 9.72566,-23.49327 28.23148,-17.50657 77.2255,26.95161 89.25864,-8.80075 0.52104,-1.53919 0.86387,-3.13579 1.06252,-4.74765"
       sodipodi:nodetypes="cccc" />
    <path
       id="path848"
       style="fill:none;stroke:#000000;stroke-width:0.264583px;stroke-linecap:butt;stroke-linejoin:miter;stroke-opacity:1"
       d="m 131.45833,97.812502 c 1.80522,78.426728 40.98686,-8.305109 54.49909,9.037528 8.23894,15.42607 -0.47864,36.59347 14.29256,49.1708"
       sodipodi:nodetypes="ccc" />
    <text
       xml:space="preserve"
       style="font-size:10.5833px;line-height:1.25;font-family:sans-serif;word-spacing:0px;stroke-width:0.264583"
       x="161.80551"
       y="49.732655"
       id="text852"><tspan
         sodipodi:role="line"
         id="tspan850"
         x="161.80551"
         y="49.732655"
         style="stroke-width:0.264583">$S$</tspan></text>
    <text
       xml:space="preserve"
       style="font-size:10.5833px;line-height:1.25;font-family:sans-serif;word-spacing:0px;stroke-width:0.264583"
       x="124.39778"
       y="156.9183"
       id="text856"><tspan
         sodipodi:role="line"
         id="tspan854"
         x="124.39778"
         y="156.9183"
         style="stroke-width:0.264583">$\Sigma_1$</tspan></text>
    <text
       xml:space="preserve"
       style="font-size:10.5833px;line-height:1.25;font-family:sans-serif;word-spacing:0px;stroke-width:0.264583"
       x="123.75967"
       y="90.270706"
       id="text860"><tspan
         sodipodi:role="line"
         id="tspan858"
         x="123.75967"
         y="90.270706"
         style="stroke-width:0.264583">$\Sigma_2$</tspan></text>
    <circle
       style="opacity:1;fill:#f5e7e7;fill-rule:evenodd;stroke:#d6d7ef;stroke-width:1;stroke-linejoin:round"
       id="path862"
       cx="161.88542"
       cy="117.65625"
       r="3.96875" />
    <text
       xml:space="preserve"
       style="font-size:10.5833px;line-height:1.25;font-family:sans-serif;word-spacing:0px;stroke-width:0.264583"
       x="161.05664"
       y="131.80055"
       id="text866"><tspan
         sodipodi:role="line"
         id="tspan864"
         x="161.05664"
         y="131.80055"
         style="stroke-width:0.264583">$p_0$</tspan></text>
    <path
       id="path835-3"
       style="fill:#e9e9f2;stroke:#000000;stroke-width:0.264583px;stroke-linecap:butt;stroke-linejoin:miter;stroke-opacity:1"
       d="m 4.5089967,-4.5091773 c -9.34384,5.45279497 -6.6546,16.6272833 -10.63358,24.6718983 -5.5062797,11.132483 -18.0957097,10.439465 -27.6088797,14.981871 -36.16539,17.268477 -18.69218,61.548658 11.86566,66.565198 23.1128997,3.79434 46.79786,0.77285 68.65947,-6.54312 14.23983,-5.81213 28.94651,-14.328974 36.36487,-28.340124 6.46142,-12.23696 -4.57615,-26.902829 -16.65878,-28.735339 -9.66113,-1.465254 -16.81036,-9.00629 -17.77423,-19.091672 C 46.840207,-0.70637733 20.807447,-14.020478 4.5089967,-4.5091773 Z"
       sodipodi:nodetypes="ssssccsss" />
    <path
       id="path846-6"
       style="fill:none;stroke:#000000;stroke-width:0.264583px;stroke-linecap:butt;stroke-linejoin:miter;stroke-opacity:1"
       d="M -32.856447,75.177516 C -24.884324,59.016596 -15.320735,47.961213 2.0735378,53.889646 18.944336,60.89976 46.251118,67.049614 56.772375,61.021165 67.293632,54.992716 68.946924,51.678397 67.95836,44.895836"
       sodipodi:nodetypes="cczc" />
    <path
       id="path908"
       style="fill:none;stroke:#000000;stroke-width:0.264583px;stroke-linecap:butt;stroke-linejoin:miter;stroke-opacity:1"
       d="M -37.875001,44.895836 C -31.951154,58.16135 -20.647377,100.807 -1.501172,82.917864 18.48588,62.20865 14.892786,-11.622013 32.239583,7.8541697 44.849851,22.012396 68.42821,86.665958 75.895831,71.354169"
       sodipodi:nodetypes="ccsc" />
    <path
       id="path910"
       style="fill:none;stroke:#bc2122;stroke-width:0.75;stroke-linecap:butt;stroke-linejoin:miter;stroke-miterlimit:4;stroke-dasharray:none;stroke-opacity:1"
       d="m 15.993455,49.097374 c 1.454347,-3.498388 2.668158,-7.933407 6.629414,-9.346205 4.631001,-1.452348 9.56673,2.32531 14.023951,-0.278013 2.811861,-1.676625 3.303354,-5.192435 4.85318,-7.806486" />
    <text
       xml:space="preserve"
       style="font-size:5.61435px;line-height:1.25;font-family:sans-serif;word-spacing:0px;stroke-width:0.140359"
       x="-45.873451"
       y="83.158821"
       id="text856-7"
       transform="scale(0.91241492,1.0959926)"><tspan
         sodipodi:role="line"
         id="tspan854-5"
         x="-45.873451"
         y="83.158821"
         style="stroke-width:0.140359">$\pi\inv\Sigma_1$</tspan></text>
    <text
       xml:space="preserve"
       style="font-size:5.59836px;line-height:1.25;font-family:sans-serif;word-spacing:0px;stroke-width:0.139959"
       x="-58.553226"
       y="27.50943"
       id="text962"
       transform="scale(0.83471931,1.1980075)"><tspan
         sodipodi:role="line"
         id="tspan960"
         x="-58.553226"
         y="27.50943"
         style="stroke-width:0.139959">$\pi\inv\Sigma_2$</tspan></text>
    <text
       xml:space="preserve"
       style="font-size:10.5833px;line-height:1.25;font-family:sans-serif;word-spacing:0px;stroke-width:0.264583"
       x="27.138338"
       y="54.812351"
       id="text966"><tspan
         sodipodi:role="line"
         id="tspan964"
         x="27.138338"
         y="54.812351"
         style="stroke-width:0.264583">$E$</tspan></text>
    <text
       xml:space="preserve"
       style="font-size:10.5833px;line-height:1.25;font-family:sans-serif;word-spacing:0px;stroke-width:0.264583"
       x="73.970833"
       y="106.78206"
       id="text970"><tspan
         sodipodi:role="line"
         id="tspan968"
         x="73.970833"
         y="106.78206"
         style="stroke-width:0.264583">$\pi$</tspan></text>
    <path
       style="fill:none;stroke:#000000;stroke-width:0.264583px;stroke-linecap:butt;stroke-linejoin:miter;stroke-opacity:1;marker-end:url(#Arrow1Lend)"
       d="M 81.187498,84.583335 102.35416,97.812502"
       id="path972" />
    <text
       xml:space="preserve"
       style="font-size:10.5833px;line-height:1.25;font-family:sans-serif;word-spacing:0px;stroke-width:0.264583"
       x="-5.5853562"
       y="-15.942118"
       id="text1258"><tspan
         sodipodi:role="line"
         id="tspan1256"
         x="-5.5853562"
         y="-15.942118"
         style="stroke-width:0.264583">$\hat{S}$</tspan></text>
  </g>
</svg>
