<?xml version="1.0" encoding="UTF-8" standalone="no"?>
<svg
   xmlns:dc="http://purl.org/dc/elements/1.1/"
   xmlns:cc="http://creativecommons.org/ns#"
   xmlns:rdf="http://www.w3.org/1999/02/22-rdf-syntax-ns#"
   xmlns:svg="http://www.w3.org/2000/svg"
   xmlns="http://www.w3.org/2000/svg"
   xmlns:sodipodi="http://sodipodi.sourceforge.net/DTD/sodipodi-0.dtd"
   xmlns:inkscape="http://www.inkscape.org/namespaces/inkscape"
   width="210mm"
   height="148mm"
   viewBox="0 0 210 148"
   version="1.1"
   id="svg8"
   sodipodi:docname="2021-03-31_13-58.svg"
   inkscape:version="1.0.2 (e86c870879, 2021-01-15)">
  <defs
     id="defs2" />
  <sodipodi:namedview
     id="base"
     pagecolor="#ffffff"
     bordercolor="#000000"
     borderopacity="1"
     inkscape:pageopacity="0.0"
     inkscape:pageshadow="2"
     inkscape:zoom="0.7"
     inkscape:cx="489.35776"
     inkscape:cy="501.819"
     inkscape:document-units="mm"
     inkscape:current-layer="layer1"
     inkscape:document-rotation="0"
     showgrid="true"
     showborder="true"
     borderlayer="true"
     inkscape:showpageshadow="false"
     objecttolerance="10000"
     guidetolerance="10000"
     inkscape:snap-perpendicular="true"
     inkscape:snap-tangential="true"
     inkscape:window-width="1920"
     inkscape:window-height="1080"
     inkscape:window-x="1920"
     inkscape:window-y="0"
     inkscape:window-maximized="0">
    <sodipodi:guide
       position="0,148"
       orientation="0,793.70079"
       id="guide10" />
    <sodipodi:guide
       position="210,148"
       orientation="559.37008,0"
       id="guide12" />
    <sodipodi:guide
       position="210,0"
       orientation="0,-793.70079"
       id="guide14" />
    <sodipodi:guide
       position="0,0"
       orientation="-559.37008,0"
       id="guide16" />
    <inkscape:grid
       type="xygrid"
       id="grid20"
       dotted="true"
       units="px"
       originx="105"
       originy="74.000003" />
  </sodipodi:namedview>
  <metadata
     id="metadata5">
    <rdf:RDF>
      <cc:Work
         rdf:about="">
        <dc:format>image/svg+xml</dc:format>
        <dc:type
           rdf:resource="http://purl.org/dc/dcmitype/StillImage" />
        <dc:title />
        <cc:license
           rdf:resource="" />
      </cc:Work>
    </rdf:RDF>
  </metadata>
  <g
     inkscape:label="Layer 1"
     inkscape:groupmode="layer"
     id="layer1">
    <path
       style="fill:none;stroke:#000000;stroke-width:0.264583px;stroke-linecap:butt;stroke-linejoin:miter;stroke-opacity:1"
       d="m -27.291667,79.291668 c -0.568516,0.964494 -0.91997,2.095781 -1.705547,2.893478 -1.021236,1.036993 -2.418307,1.621801 -3.590589,2.484369 -2.523683,1.856928 -4.418025,3.467645 -6.652051,5.710325 -7.03635,7.063621 -11.721245,15.19541 -14.589085,24.7324 -3.43368,11.41868 -0.635389,23.42755 2.985789,34.44736 2.959965,9.00764 8.997399,15.91306 16.894688,20.98732 13.95109,8.96401 32.9279896,5.90149 47.924907,1.48321 7.975465,-2.34968 15.519765,-5.50496 23.168665,-8.71383 8.14042,-3.41507 9.71418,-3.76446 16.894688,-7.0452 8.785829,-4.0142 17.506246,-8.28443 26.419207,-12.01394 8.58148,-3.59081 18.087676,-5.78818 27.250645,-7.41601 6.54988,-1.1636 12.69046,-1.93149 19.27577,-0.77868 3.47222,0.60785 6.26254,1.64571 9.63784,2.59559 4.5063,1.26817 7.50697,1.89012 12.28367,3.15181 8.53241,2.25368 16.76725,5.01077 25.701,5.19122 9.65625,0.19504 18.96401,-1.57271 28.23332,-4.11589 3.57456,-0.98074 7.18194,-1.86186 10.69619,-3.04056 16.87543,-5.66014 35.9394,-18.78144 47.20679,-32.66754 10.8464,-13.367255 16.52897,-26.407744 13.03943,-43.64321 -4.65831,-23.008471 -27.31798,-36.4916 -47.39567,-44.384825 -20.43635,-8.034224 -41.88075,-9.6599021 -63.61009,-9.752052 -12.14359,-0.051498 -24.30343,0.5721143 -36.35945,2.039402 -9.65962,1.175634 -19.1664,3.583847 -28.686874,5.524926 -7.142358,1.456216 -10.456169,1.862938 -17.385982,3.967568 -3.941689,1.197116 -7.799044,2.656947 -11.716708,3.930483 -4.759494,1.547192 -9.632857,2.738597 -14.362266,4.375441 -7.37994,2.554193 -14.649664,5.737567 -21.883676,8.676738 -5.088141,2.067309 -9.636456,5.0164 -14.626922,7.267692 -5.814952,2.623232 -2.823561,0.664847 -9.4112011,4.190047 -0.8769958,0.469299 -6.3170837,4.14828 -6.7276254,4.41252 -1.59260527,1.025062 -3.5823899,1.860481 -4.9134135,3.263045 -1.1543149,1.216356 -1.7081214,2.898465 -2.6456489,4.264205 -1.3287695,1.935678 -3.1664944,3.14919 -4.5355291,5.005808 -1.363283,1.848816 -2.051425,4.059407 -3.515013,5.821569 -2.237477,2.693924 -9.525256,3.372678 -10.847344,5.858655 -0.742536,1.39622 0.736683,0.225124 0.188988,1.296556"
       id="path835" />
    <path
       style="fill:none;stroke:#000000;stroke-width:0.264583px;stroke-linecap:butt;stroke-linejoin:miter;stroke-opacity:1"
       d="M -27.291667,121.625 C 15.041667,95.166668 15.041667,95.166668 15.041667,95.166668"
       id="path837" />
    <path
       style="fill:none;stroke:#000000;stroke-width:0.264583px;stroke-linecap:butt;stroke-linejoin:miter;stroke-opacity:1"
       d="M 9.75,137.5 C 62.666665,105.75 62.666665,105.75 62.666665,105.75"
       id="path839" />
    <path
       style="fill:none;stroke:#000000;stroke-width:0.264583px;stroke-linecap:butt;stroke-linejoin:miter;stroke-opacity:1"
       d="M 57.374998,84.583335 C 94.416664,63.416669 94.416664,63.416669 94.416664,63.416669"
       id="path841" />
    <text
       xml:space="preserve"
       style="font-size:10.5833px;line-height:1.25;font-family:sans-serif;word-spacing:0px;stroke-width:0.264583"
       x="-16.708332"
       y="15.79167"
       id="text845"><tspan
         sodipodi:role="line"
         id="tspan843"
         x="-16.708332"
         y="15.79167"
         style="stroke-width:0.264583">$\Wedge^1 T = T$</tspan></text>
  </g>
</svg>
