<?xml version="1.0" encoding="UTF-8" standalone="no"?>
<svg
   xmlns:dc="http://purl.org/dc/elements/1.1/"
   xmlns:cc="http://creativecommons.org/ns#"
   xmlns:rdf="http://www.w3.org/1999/02/22-rdf-syntax-ns#"
   xmlns:svg="http://www.w3.org/2000/svg"
   xmlns="http://www.w3.org/2000/svg"
   xmlns:sodipodi="http://sodipodi.sourceforge.net/DTD/sodipodi-0.dtd"
   xmlns:inkscape="http://www.inkscape.org/namespaces/inkscape"
   width="219.03871mm"
   height="148.50587mm"
   viewBox="0 0 219.03871 148.50587"
   version="1.1"
   id="svg8"
   sodipodi:docname="2021-02-22_14-23.svg"
   inkscape:version="1.0.2 (e86c870879, 2021-01-15)">
  <defs
     id="defs2" />
  <sodipodi:namedview
     id="base"
     pagecolor="#ffffff"
     bordercolor="#000000"
     borderopacity="1"
     inkscape:pageopacity="0.0"
     inkscape:pageshadow="2"
     inkscape:zoom="0.81546033"
     inkscape:cx="329.91029"
     inkscape:cy="355.58335"
     inkscape:document-units="mm"
     inkscape:current-layer="layer1"
     inkscape:document-rotation="0"
     showgrid="true"
     showborder="true"
     borderlayer="true"
     inkscape:showpageshadow="false"
     objecttolerance="10000"
     guidetolerance="10000"
     inkscape:snap-perpendicular="true"
     inkscape:snap-tangential="true"
     inkscape:window-width="1920"
     inkscape:window-height="1080"
     inkscape:window-x="0"
     inkscape:window-y="0"
     inkscape:window-maximized="0">
    <sodipodi:guide
       position="-15.23663,196.42971"
       orientation="0,793.70079"
       id="guide10" />
    <sodipodi:guide
       position="194.76336,196.42971"
       orientation="559.37008,0"
       id="guide12" />
    <sodipodi:guide
       position="194.76336,48.429711"
       orientation="0,-793.70079"
       id="guide14" />
    <sodipodi:guide
       position="-15.23663,48.429711"
       orientation="-559.37008,0"
       id="guide16" />
    <inkscape:grid
       type="xygrid"
       id="grid20"
       dotted="true"
       units="px"
       originx="89.763369"
       originy="26.076165" />
  </sodipodi:namedview>
  <metadata
     id="metadata5">
    <rdf:RDF>
      <cc:Work
         rdf:about="">
        <dc:format>image/svg+xml</dc:format>
        <dc:type
           rdf:resource="http://purl.org/dc/dcmitype/StillImage" />
        <dc:title />
        <cc:license
           rdf:resource="" />
      </cc:Work>
    </rdf:RDF>
  </metadata>
  <g
     inkscape:label="Layer 1"
     inkscape:groupmode="layer"
     id="layer1"
     transform="translate(-15.23663,-47.923837)">
    <path
       id="path835"
       style="fill:none;stroke:#000000;stroke-width:0.264583px;stroke-linecap:butt;stroke-linejoin:miter;stroke-opacity:1"
       d="m 52.434212,78.57295 c -68.714666,42.96776 -26.659844,106.92721 37.251617,115.949 39.927271,5.63617 81.359301,-2.25813 116.227291,-22.09812 22.46868,-12.78474 37.63419,-44.08836 21.51619,-67.17337 C 187.02426,61.216331 98.364577,51.176661 52.434212,78.57295 Z"
       sodipodi:nodetypes="csscc" />
    <path
       style="fill:none;stroke:#000000;stroke-width:0.264583px;stroke-linecap:butt;stroke-linejoin:miter;stroke-opacity:1"
       d="m 67.958331,121.625 c 26.659636,36.57346 74.227809,19.31711 102.156899,0.90186"
       id="path837"
       sodipodi:nodetypes="cc" />
    <path
       style="fill:none;stroke:#000000;stroke-width:0.264583px;stroke-linecap:butt;stroke-linejoin:miter;stroke-opacity:1"
       d="m 78.0125,132.20834 c 26.5125,-20.733 52.2911,-18.00341 84.1375,-4.7625"
       id="path839"
       sodipodi:nodetypes="cc" />
    <text
       xml:space="preserve"
       style="font-size:10.5833px;line-height:1.25;font-family:sans-serif;word-spacing:0px;stroke-width:0.264583"
       x="14.358133"
       y="77.385078"
       id="text843"><tspan
         sodipodi:role="line"
         id="tspan841"
         x="14.358133"
         y="77.385078"
         style="stroke-width:0.264583">$C$</tspan></text>
    <text
       xml:space="preserve"
       style="font-size:10.5833px;line-height:1.25;font-family:sans-serif;word-spacing:0px;stroke-width:0.264583"
       x="88.699005"
       y="55.964664"
       id="text847"><tspan
         sodipodi:role="line"
         id="tspan845"
         x="88.699005"
         y="55.964664"
         style="stroke-width:0.264583">$g(C) = 1$</tspan></text>
    <path
       style="fill:#d6d7ef;fill-rule:evenodd;stroke:#000000;stroke-width:1.88976;stroke-linejoin:round;stroke-miterlimit:4;stroke-dasharray:none"
       d="M 403.50309,740.45142 C 364.13727,737.89063 343.6501,735.61518 319.97868,731.17461 196.37734,707.98794 95.275814,628.13687 71.321001,534.78211 c -4.27726,-16.66899 -5.369273,-25.6974 -5.328563,-44.05476 0.02957,-13.33344 0.35163,-18.04069 1.799039,-26.29472 10.52056,-59.99481 50.631253,-113.4508 119.756323,-159.60065 54.26412,-36.22826 129.64808,-58.24288 217.50204,-63.51781 16.46772,-0.98876 57.09959,-0.98491 73.47055,0.007 128.02277,7.75647 244.43809,46.96603 329.27207,110.90132 22.44117,16.91282 46.89944,39.73337 53.96368,50.35019 8.84314,13.29042 16.33126,31.86125 19.8498,49.22787 1.56686,7.73374 1.77505,10.99505 1.76956,27.71292 -0.008,16.59792 -0.22513,20.05062 -1.7711,27.84147 -3.72217,18.75762 -8.6123,33.17117 -17.18631,50.65601 -16.79668,34.25311 -44.11851,65.38693 -75.38797,85.90621 -25.05294,16.43995 -69.7664,38.04542 -109.43245,52.87756 -60.99081,22.80603 -122.84313,36.4883 -191.02342,42.25605 -13.33731,1.12827 -73.92397,2.12584 -85.07116,1.4007 z m 50.26932,-200.94715 c 47.18432,-6.63606 96.18296,-23.28528 144.59157,-49.13068 25.14052,-13.42255 48.22817,-27.8744 44.53093,-27.8744 -0.1948,0 -4.11,2.37161 -8.70046,5.27023 -4.59045,2.89862 -11.30444,7.01612 -14.91996,9.14998 l -6.57368,3.87977 -5.41362,-2.24434 c -20.68166,-8.57406 -48.78786,-18.30574 -68.52504,-23.72658 -71.17647,-19.5487 -129.02907,-17.16862 -184.58504,7.59389 -17.99502,8.02078 -38.05796,20.10984 -55.96062,33.71945 l -3.5879,2.72752 -7.29541,-6.49533 c -8.52069,-7.58626 -18.06074,-17.81719 -24.67119,-26.45786 -4.59762,-6.00965 -6.09999,-7.44482 -6.09999,-5.82717 0,1.67809 13.0873,17.07236 22.431,26.38504 30.4483,30.3472 67.51086,48.07168 112.36994,53.73882 11.75046,1.48446 49.89646,1.05151 62.40947,-0.70834 z"
       id="path845"
       transform="scale(0.26458333)" />
  </g>
</svg>
