<?xml version="1.0" encoding="UTF-8" standalone="no"?>
<svg
   xmlns:dc="http://purl.org/dc/elements/1.1/"
   xmlns:cc="http://creativecommons.org/ns#"
   xmlns:rdf="http://www.w3.org/1999/02/22-rdf-syntax-ns#"
   xmlns:svg="http://www.w3.org/2000/svg"
   xmlns="http://www.w3.org/2000/svg"
   xmlns:sodipodi="http://sodipodi.sourceforge.net/DTD/sodipodi-0.dtd"
   xmlns:inkscape="http://www.inkscape.org/namespaces/inkscape"
   width="210mm"
   height="148mm"
   viewBox="0 0 210 148"
   version="1.1"
   id="svg8"
   sodipodi:docname="2021-02-15_14-16.svg"
   inkscape:version="1.0.2 (e86c870879, 2021-01-15)">
  <defs
     id="defs2">
    <marker
       style="overflow:visible;"
       id="Arrow1Lend"
       refX="0.0"
       refY="0.0"
       orient="auto"
       inkscape:stockid="Arrow1Lend"
       inkscape:isstock="true">
      <path
         transform="scale(0.8) rotate(180) translate(12.5,0)"
         style="fill-rule:evenodd;stroke:#000000;stroke-width:1pt;stroke-opacity:1;fill:#000000;fill-opacity:1"
         d="M 0.0,0.0 L 5.0,-5.0 L -12.5,0.0 L 5.0,5.0 L 0.0,0.0 z "
         id="path961" />
    </marker>
  </defs>
  <sodipodi:namedview
     id="base"
     pagecolor="#ffffff"
     bordercolor="#000000"
     borderopacity="1"
     inkscape:pageopacity="0.0"
     inkscape:pageshadow="2"
     inkscape:zoom="1.2623079"
     inkscape:cx="443.16174"
     inkscape:cy="587.97623"
     inkscape:document-units="mm"
     inkscape:current-layer="layer1"
     inkscape:document-rotation="0"
     showgrid="true"
     showborder="true"
     borderlayer="true"
     inkscape:showpageshadow="false"
     objecttolerance="10000"
     guidetolerance="10000"
     inkscape:snap-perpendicular="true"
     inkscape:snap-tangential="true"
     inkscape:window-width="1080"
     inkscape:window-height="1080"
     inkscape:window-x="3419"
     inkscape:window-y="484"
     inkscape:window-maximized="0">
    <sodipodi:guide
       position="0,148"
       orientation="0,793.70079"
       id="guide10" />
    <sodipodi:guide
       position="210,148"
       orientation="559.37008,0"
       id="guide12" />
    <sodipodi:guide
       position="210,0"
       orientation="0,-793.70079"
       id="guide14" />
    <sodipodi:guide
       position="0,0"
       orientation="-559.37008,0"
       id="guide16" />
    <inkscape:grid
       type="xygrid"
       id="grid20"
       dotted="true"
       units="px"
       originx="105"
       originy="74.000003" />
  </sodipodi:namedview>
  <metadata
     id="metadata5">
    <rdf:RDF>
      <cc:Work
         rdf:about="">
        <dc:format>image/svg+xml</dc:format>
        <dc:type
           rdf:resource="http://purl.org/dc/dcmitype/StillImage" />
        <dc:title />
        <cc:license
           rdf:resource="" />
      </cc:Work>
    </rdf:RDF>
  </metadata>
  <g
     inkscape:label="Layer 1"
     inkscape:groupmode="layer"
     id="layer1">
    <circle
       style="fill:#252b82;fill-rule:evenodd;stroke:#181c57;stroke-width:1;stroke-linejoin:round"
       id="path847"
       sodipodi:type="arc"
       sodipodi:cx="24.302084"
       sodipodi:cy="72.677086"
       sodipodi:rx="1.3229166"
       sodipodi:ry="1.3229166"
       sodipodi:start="5.0276603"
       sodipodi:end="5.0265308"
       sodipodi:open="true"
       sodipodi:arc-type="arc"
       d="m 24.712287,71.419373 a 1.3229166,1.3229166 0 0 1 0.847626,1.66756 1.3229166,1.3229166 0 0 1 -1.667321,0.848097 1.3229166,1.3229166 0 0 1 -0.848568,-1.667081 1.3229166,1.3229166 0 0 1 1.666842,-0.849039" />
    <path
       style="fill:none;stroke:#000000;stroke-width:0.264583px;stroke-linecap:butt;stroke-linejoin:miter;stroke-opacity:1"
       d="m -16.708333,89.875002 c 0,111.124998 0,111.124998 0,111.124998"
       id="path849" />
    <circle
       style="fill:#ff1c57;fill-rule:evenodd;stroke:#181c57;stroke-width:0.6;stroke-linejoin:round;stroke-opacity:0.67076945;fill-opacity:0.18320075;stroke-miterlimit:4;stroke-dasharray:none"
       id="path853"
       sodipodi:type="arc"
       sodipodi:cx="-18.03125"
       sodipodi:cy="159.98959"
       sodipodi:rx="30.427082"
       sodipodi:ry="30.427082"
       sodipodi:start="5.0265338"
       sodipodi:end="5.0265308"
       sodipodi:open="true"
       sodipodi:arc-type="arc"
       d="m -8.6291826,131.05158 a 30.427082,30.427082 0 0 1 19.5359506,38.34006 30.427082,30.427082 0 0 1 -38.340042,19.53598 30.427082,30.427082 0 0 1 -19.536008,-38.34003 30.427082,30.427082 0 0 1 38.3400126,-19.53604" />
    <path
       style="fill:none;stroke:#000000;stroke-width:0.264583px;stroke-linecap:butt;stroke-linejoin:miter;stroke-opacity:1"
       d="m -78.885415,159.98959 c 132.291665,0 132.291665,0 132.291665,0"
       id="path851" />
    <text
       xml:space="preserve"
       style="font-size:10.5833px;line-height:1.25;font-family:sans-serif;word-spacing:0px;stroke-width:0.264583"
       x="171.14583"
       y="84.583336"
       id="text859"><tspan
         sodipodi:role="line"
         id="tspan857"
         x="171.14583"
         y="84.583336"
         style="stroke-width:0.264583">$C$</tspan></text>
    <text
       xml:space="preserve"
       style="font-size:10.5833px;line-height:1.25;font-family:sans-serif;word-spacing:0px;stroke-width:0.264583"
       x="12.704993"
       y="53.351952"
       id="text863"><tspan
         sodipodi:role="line"
         id="tspan861"
         x="12.704993"
         y="53.351952"
         style="stroke-width:0.264583">$p$</tspan></text>
    <text
       xml:space="preserve"
       style="font-size:10.5833px;line-height:1.25;font-family:sans-serif;word-spacing:0px;stroke-width:0.264583"
       x="17.6875"
       y="182.47917"
       id="text867"><tspan
         sodipodi:role="line"
         id="tspan865"
         x="17.6875"
         y="182.47917"
         style="stroke-width:0.264583">$\DD \da \ts{z\in \CC\st \abs{z} \leq 1}$</tspan></text>
    <g
       id="g950">
      <path
         id="path837"
         style="fill:none;stroke:#000000;stroke-width:0.5;stroke-linecap:butt;stroke-linejoin:miter;stroke-opacity:1;stroke-miterlimit:4;stroke-dasharray:none"
         d="m 15.107647,67.117618 c -8.0623817,12.269686 2.919575,37.278282 17.104894,47.256822 20.826716,11.04947 45.357256,2.67758 65.693345,-5.35619 25.930094,-12.072755 49.181274,-29.785058 76.932854,-37.880205 16.28446,-4.0052 28.83168,-24.020081 17.7889,-38.986727 -12.7095,-17.18561 -36.60018,-19.482376 -56.39284,-19.43976 -34.77635,1.654037 -68.187477,16.494429 -93.894025,39.85865 -7.754453,7.047883 -19.170746,2.277724 -27.233128,14.54741 z"
         sodipodi:nodetypes="zcccccsz" />
      <g
         id="g939"
         style="stroke:#2b5d0a;stroke-width:0.5;stroke-miterlimit:4;stroke-dasharray:none">
        <g
           id="g926"
           style="stroke:#2b5d0a;stroke-width:0.5;stroke-miterlimit:4;stroke-dasharray:none">
          <path
             id="path839"
             style="fill:none;stroke:#2b5d0a;stroke-width:0.5;stroke-linecap:butt;stroke-linejoin:miter;stroke-opacity:1;stroke-miterlimit:4;stroke-dasharray:none"
             d="M 29.59375,81.937503 C 30.575834,94.137078 49.360644,95.658748 58.066211,94.230907 65.636082,92.690889 67.104784,91.86977 73.25,87.22917"
             sodipodi:nodetypes="ccc" />
          <path
             id="path841"
             style="fill:none;stroke:#2b5d0a;stroke-width:0.5;stroke-linecap:butt;stroke-linejoin:miter;stroke-opacity:1;stroke-miterlimit:4;stroke-dasharray:none"
             d="m 33.5625,89.61042 c 8.189012,-10.119589 23.552309,-0.636245 31.485417,2.645833"
             sodipodi:nodetypes="cc" />
        </g>
        <g
           id="g930"
           style="stroke:#2b5d0a;stroke-width:0.5;stroke-miterlimit:4;stroke-dasharray:none">
          <path
             id="path843"
             style="fill:none;stroke:#2b5d0a;stroke-width:0.5;stroke-linecap:butt;stroke-linejoin:miter;stroke-opacity:1;stroke-miterlimit:4;stroke-dasharray:none"
             d="m 131.38925,40.88004 c 4.83897,5.484345 10.95382,10.468809 18.41841,11.530392 5.33344,0.959621 10.92939,-0.220337 15.45929,-3.181652 3.90546,-2.218949 7.57194,-4.827856 11.17055,-7.507944" />
          <path
             id="path845"
             style="fill:none;stroke:#2b5d0a;stroke-width:0.5;stroke-linecap:butt;stroke-linejoin:miter;stroke-opacity:1;stroke-miterlimit:4;stroke-dasharray:none"
             d="m 136.48542,45.95417 c 10.27617,-6.711785 27.77198,-9.103725 33.86666,0"
             sodipodi:nodetypes="cc" />
        </g>
        <path
           id="path869"
           style="fill:none;stroke:#2b5d0a;stroke-width:0.5;stroke-linecap:butt;stroke-linejoin:miter;stroke-opacity:1;stroke-miterlimit:4;stroke-dasharray:none"
           d="m 24.302083,64.739586 c -4.926398,3.349036 -13.539875,10.993306 -6.679247,16.587376 8.076989,3.923983 12.452313,-8.725336 20.787328,-6.977693 8.474426,0.01548 10.33821,-12.54906 1.248644,-13.189354 -5.132476,-0.193854 -11.091481,0.541971 -15.356725,3.579671 z" />
      </g>
    </g>
    <text
       xml:space="preserve"
       style="font-size:10.5833px;line-height:1.25;font-family:sans-serif;word-spacing:0px;stroke-width:0.264583"
       x="4.458333"
       y="74.000008"
       id="text873"><tspan
         sodipodi:role="line"
         id="tspan871"
         x="4.458333"
         y="74.000008"
         style="stroke-width:0.264583" /></text>
    <text
       xml:space="preserve"
       style="font-size:10.5833px;line-height:1.25;font-family:sans-serif;word-spacing:0px;stroke-width:0.264583"
       x="-41.961277"
       y="151.43658"
       id="text877"><tspan
         sodipodi:role="line"
         id="tspan875"
         x="-41.961277"
         y="151.43658"
         style="stroke-width:0.264583">$U$</tspan></text>
    <text
       xml:space="preserve"
       style="font-size:10.5833px;line-height:1.25;font-family:sans-serif;word-spacing:0px;stroke-width:0.264583"
       x="41.499996"
       y="140.14584"
       id="text881"><tspan
         sodipodi:role="line"
         id="tspan879"
         x="41.499996"
         y="140.14584"
         style="stroke-width:0.264583">$V=\CC\sm U$</tspan></text>
    <path
       style="fill:#8aa678;fill-rule:evenodd;stroke:#2b5d0a;stroke-width:0.748535;stroke-linejoin:round;stroke-miterlimit:4;stroke-dasharray:none"
       d="m 198.0794,451.02077 c -24.48081,-0.93623 -47.33041,-6.26733 -67.98118,-15.86094 -6.42047,-2.98271 -8.89681,-4.47792 -13.50808,-8.15614 C 101.12992,414.67173 86.690277,397.74314 74.915533,378.1457 53.332337,342.22344 43.817382,303.83197 49.53585,275.74233 c 2.345692,-11.52225 6.60125,-20.11411 14.842605,-29.96684 6.568191,-7.85242 13.461322,-13.26704 22.991027,-18.05968 8.829315,-4.4404 12.724508,-5.64911 37.233388,-11.55386 18.6093,-4.4834 27.76029,-8.99843 39.11409,-19.29859 6.41399,-5.81876 16.96766,-14.75259 25.50332,-21.58891 89.53737,-71.71159 197.75357,-115.763699 306.72622,-124.860567 18.36062,-1.532715 27.04836,-1.630683 52.28519,-0.589601 37.56048,1.549465 69.31118,6.705926 96.26957,15.634637 34.20061,11.327346 60.96302,29.136014 80.03373,53.257341 3.85666,4.87808 7.54934,10.63628 10.15738,15.83903 6.53525,12.84215 8.57205,25.36257 8.15803,35.12976 0,9 -2,20 -5.88512,30.03364 l -1.98422,4.55515 c -3.52291,8.08756 -9.03718,17.17405 -14.90346,24.55819 -3.72329,4.6867 -13.81275,14.72506 -18.55838,18.46444 -10.23447,8.06434 -21.44386,14.23765 -32.6016,17.95452 -2.54617,0.84819 -8.37256,2.64727 -12.94751,3.99796 -28.68001,8.4674 -58.6193,20.74486 -95.26202,39.06489 -24.85935,12.42878 -39.26126,20.24799 -83.77513,45.48402 -48.94464,27.74794 -66.67014,37.34436 -92.23194,49.93351 -13.82908,6.81079 -20.51738,9.62716 -40.79762,17.17937 -45.10886,16.79823 -80.64824,25.95328 -113.12332,29.14093 -5.50441,0.54032 -8.56643,0.70205 -21.41258,1.13118 -2.06962,0.0692 -7.1496,-0.004 -11.28885,-0.16208 z m 12.27909,-92.69246 c 6.44123,-0.56415 12.49561,-1.63608 20.9933,-3.71688 16.35366,-4.00446 24.57286,-8.02329 40.28452,-19.69739 5.17937,-3.84839 5.80718,-4.4372 5.44753,-5.10921 -0.22357,-0.41774 -0.57736,-0.75953 -0.78619,-0.75953 -0.20884,0 -2.56431,1.63293 -5.23439,3.62874 -7.36044,5.50172 -14.91769,10.38641 -19.92,12.87545 l -4.50078,2.23949 -2.97014,-1.24676 c -1.63358,-0.68572 -7.62731,-3.39201 -13.3194,-6.01399 -23.65708,-10.89727 -36.41903,-15.59621 -49.48584,-18.22066 -21.82953,-4.38443 -38.06468,-0.81786 -50.46404,11.08602 -1.82042,1.74768 -3.49791,3.1776 -3.72774,3.1776 -0.58683,0 -5.03861,-4.91427 -6.81762,-7.52589 -3.68175,-5.40488 -6.74173,-13.68672 -6.74173,-18.2465 0,-1.02749 -0.13791,-1.1624 -1.1883,-1.1624 -1.43973,0 -1.44119,0.021 -0.36904,5.28205 3.83943,18.84041 19.68331,32.22549 46.51794,39.29883 7.4549,1.96504 14.97303,3.16809 26.73348,4.2779 3.44277,0.32488 21.26266,0.20849 25.54844,-0.16687 z M 84.711059,310.45003 c 6.348984,-1.6238 11.954376,-4.93591 23.453671,-13.8583 12.01972,-9.3262 17.56725,-12.57011 24.36014,-14.24457 2.92882,-0.72197 4.37172,-0.81731 11.09079,-0.73287 7.17163,0.0901 7.92222,0.0312 10.49665,-0.8241 7.79732,-2.59048 14.35917,-8.67961 17.38913,-16.13637 1.21538,-2.99109 2.21781,-7.81357 2.21781,-10.66945 0,-2.94436 -1.01091,-7.69637 -2.21787,-10.4255 -2.61418,-5.91113 -8.30542,-10.54567 -15.40857,-12.54764 -5.28715,-1.49015 -22.28429,-1.17306 -32.89827,0.61373 -18.15227,3.0558 -30.169414,9.14955 -46.519755,23.58958 -9.519138,8.40696 -16.061911,17.04017 -19.08024,25.17644 -1.462935,3.94352 -1.959512,9.99806 -1.126911,13.73992 1.305487,5.86708 6.709445,12.99251 11.358994,14.97748 5.142875,2.19558 11.553795,2.705 16.884431,1.34165 z M 590.29702,199.71331 c 9.1829,-1.17776 18.44466,-3.98662 26.51793,-8.04225 9.72065,-4.8832 27.55101,-16.27848 42.77095,-27.33466 7.82305,-5.68289 7.96113,-5.80795 7.38429,-6.6883 l -0.58781,-0.89713 -2.23504,1.60439 c -1.22925,0.88241 -5.79989,4.17092 -10.15699,7.30779 -10.08815,7.26292 -9.47257,6.94205 -10.55257,5.50025 -0.47469,-0.63371 -2.48434,-2.77661 -4.46591,-4.76198 -9.49713,-9.51537 -22.10657,-14.51653 -40.4355,-16.03753 -24.03435,-1.99445 -55.70416,5.92729 -78.91751,19.74006 l -3.6585,2.17695 -2.73646,-2.42603 c -1.50506,-1.33432 -5.69326,-5.46232 -9.30716,-9.17333 -5.86382,-6.02136 -6.65669,-6.7013 -7.36951,-6.31981 -0.43932,0.23513 -0.79878,0.58993 -0.79878,0.78846 0,0.61751 15.4534,15.96719 19.21085,19.08191 17.53359,14.53439 33.01076,22.08458 50.94648,24.85313 7.33284,1.13189 6.98332,1.10208 13.69654,1.16826 3.43169,0.0338 8.03013,-0.19843 10.6947,-0.54018 z"
       id="path952"
       transform="scale(0.26458333)"
       sodipodi:nodetypes="cssssssssssssscccsssssssssssccssssssscssssssssssssssssssssssssssssssscsssssscssssssss" />
    <path
       style="fill:#cd8282;fill-rule:evenodd;stroke:#2b5d0a;stroke-width:0.748535;stroke-linejoin:round;stroke-miterlimit:4;stroke-dasharray:none"
       d="m 74.471284,308.86399 c -5.803644,-1.04611 -9.355825,-3.34722 -12.669224,-8.20715 -2.754188,-4.03971 -3.563384,-6.63511 -3.555278,-11.40314 0.0079,-4.67462 1.070307,-8.41285 3.795698,-13.35632 5.291451,-9.59793 16.829434,-21.08564 30.303619,-30.17159 10.643911,-7.17744 21.499151,-10.92744 36.936671,-12.75999 8.03873,-0.95426 21.75585,-0.97155 25.50865,-0.0322 11.44853,2.86578 18.11329,12.568 16.48529,23.99844 -1.48841,10.45036 -8.14348,18.65842 -17.54883,21.64391 -3.41498,1.084 -4.67394,1.16969 -14.34457,0.97626 -9.8591,-0.1972 -16.43982,2.89208 -32.38896,15.2048 -14.285578,11.02845 -19.644386,13.80115 -27.591216,14.27597 -1.649835,0.0986 -3.869168,0.0225 -4.93185,-0.16903 z"
       id="path954"
       transform="scale(0.26458333)"
       sodipodi:nodetypes="sssssscsssssss" />
    <path
       style="fill:none;stroke:#000000;stroke-width:0.264583px;stroke-linecap:butt;stroke-linejoin:miter;stroke-opacity:1;marker-end:url(#Arrow1Lend)"
       d="M 24.302083,72.677085 C -8.8013784,107.30301 -9.5035134,123.47163 -8.7708331,138.82292"
       id="path956"
       sodipodi:nodetypes="cc" />
    <circle
       style="fill:#181c57;fill-opacity:0.183201;fill-rule:evenodd;stroke:#181c57;stroke-width:0.600001;stroke-linejoin:round;stroke-miterlimit:4;stroke-dasharray:none;stroke-opacity:1;opacity:1"
       id="path1246"
       sodipodi:type="arc"
       sodipodi:cx="24.302084"
       sodipodi:cy="72.677086"
       sodipodi:rx="0.79375064"
       sodipodi:ry="0.79374957"
       sodipodi:start="5.0507036"
       sodipodi:end="5.0503703"
       sodipodi:open="true"
       sodipodi:arc-type="arc"
       d="m 24.565528,71.92833 a 0.79375064,0.79374957 0 0 1 0.485335,1.012137 0.79375064,0.79374957 0 0 1 -1.012098,0.485419 0.79375064,0.79374957 0 0 1 -0.485504,-1.012057 0.79375064,0.79374957 0 0 1 1.012017,-0.485587" />
  </g>
</svg>
