<?xml version="1.0" encoding="UTF-8" standalone="no"?>
<svg
   xmlns:dc="http://purl.org/dc/elements/1.1/"
   xmlns:cc="http://creativecommons.org/ns#"
   xmlns:rdf="http://www.w3.org/1999/02/22-rdf-syntax-ns#"
   xmlns:svg="http://www.w3.org/2000/svg"
   xmlns="http://www.w3.org/2000/svg"
   xmlns:sodipodi="http://sodipodi.sourceforge.net/DTD/sodipodi-0.dtd"
   xmlns:inkscape="http://www.inkscape.org/namespaces/inkscape"
   width="210mm"
   height="148mm"
   viewBox="0 0 210 148"
   version="1.1"
   id="svg8"
   sodipodi:docname="2021-02-08_21-16.svg"
   inkscape:version="1.0.1 (3bc2e813f5, 2020-09-07, custom)">
  <defs
     id="defs2" />
  <sodipodi:namedview
     id="base"
     pagecolor="#ffffff"
     bordercolor="#000000"
     borderopacity="1"
     inkscape:pageopacity="0.0"
     inkscape:pageshadow="2"
     inkscape:zoom="1.4"
     inkscape:cx="330.0195"
     inkscape:cy="486.39289"
     inkscape:document-units="mm"
     inkscape:current-layer="layer1"
     inkscape:document-rotation="0"
     showgrid="true"
     showborder="true"
     borderlayer="true"
     inkscape:showpageshadow="false"
     objecttolerance="10000"
     guidetolerance="10000"
     inkscape:snap-perpendicular="true"
     inkscape:snap-tangential="true"
     inkscape:window-width="1920"
     inkscape:window-height="1080"
     inkscape:window-x="3000"
     inkscape:window-y="485"
     inkscape:window-maximized="0">
    <sodipodi:guide
       position="0,148"
       orientation="0,793.70079"
       id="guide10" />
    <sodipodi:guide
       position="210,148"
       orientation="559.37008,0"
       id="guide12" />
    <sodipodi:guide
       position="210,0"
       orientation="0,-793.70079"
       id="guide14" />
    <sodipodi:guide
       position="0,0"
       orientation="-559.37008,0"
       id="guide16" />
    <inkscape:grid
       type="xygrid"
       id="grid20"
       dotted="true"
       units="px"
       originx="105"
       originy="74.000003" />
  </sodipodi:namedview>
  <metadata
     id="metadata5">
    <rdf:RDF>
      <cc:Work
         rdf:about="">
        <dc:format>image/svg+xml</dc:format>
        <dc:type
           rdf:resource="http://purl.org/dc/dcmitype/StillImage" />
        <dc:title />
        <cc:license
           rdf:resource="" />
      </cc:Work>
    </rdf:RDF>
  </metadata>
  <g
     inkscape:label="Layer 1"
     inkscape:groupmode="layer"
     id="layer1">
    <path
       id="path849"
       style="fill:#cd8282;stroke:#181c57;stroke-width:0.264583px;stroke-linecap:butt;stroke-linejoin:miter;stroke-opacity:1"
       d="M 113.68677,55.165137 C 96.459637,88.934957 24.103179,67.492712 -4.8397436,95.24328 -33.782667,122.99385 -18.216469,146.22174 33.787141,155.74072 85.790751,165.2597 206.16636,139.86856 240.08387,88.761038 274.00138,37.653515 206.35937,13.312761 174.17546,18.054942 141.99155,22.797123 130.9139,21.395317 113.68677,55.165137 Z"
       sodipodi:nodetypes="szszzs" />
    <path
       id="path868"
       style="fill:none;stroke:#000000;stroke-width:0.264583px;stroke-linecap:butt;stroke-linejoin:miter;stroke-opacity:1"
       d="m 24.691283,120.01511 c 9.62293,7.67467 22.528571,11.01645 34.653257,8.66893 10.297813,-1.77097 20.854007,-4.35988 29.195773,-11.01058 5.585696,-4.30282 10.816496,-9.40643 14.409397,-15.48486 l -0.59555,0.91557"
       sodipodi:nodetypes="ccccc" />
    <path
       id="path872"
       style="fill:none;stroke:#000000;stroke-width:0.264583px;stroke-linecap:butt;stroke-linejoin:miter;stroke-opacity:1"
       d="M 28.8,122.94792 C 46.170125,99.521029 88.066667,108.39584 96.004167,111.04167"
       sodipodi:nodetypes="cc" />
    <path
       id="path874"
       style="fill:none;stroke:#000000;stroke-width:0.264583px;stroke-linecap:butt;stroke-linejoin:miter;stroke-opacity:1"
       d="m 144.6875,55.479169 c 20.97448,12.805097 60.4405,16.966002 77.53292,2.479294"
       sodipodi:nodetypes="cc" />
    <path
       id="path876"
       style="fill:none;stroke:#000000;stroke-width:0.264583px;stroke-linecap:butt;stroke-linejoin:miter;stroke-opacity:1"
       d="m 151.83125,59.183336 c 24.29642,-6.232731 43.93703,-3.330911 65.0875,2.38125"
       sodipodi:nodetypes="cc" />
    <path
       style="fill:#8aa678;fill-rule:evenodd;stroke:#181c57;stroke-width:2.69966;stroke-linejoin:round"
       d="m 213.48525,487.23341 c -20.33382,2.5062 -41.82978,0.77897 -62.1734,-4.99569 -14.10571,-4.004 -27.61889,-9.65933 -37.46425,-15.67897 l -3.83684,-2.34592 3.6985,-4.48368 c 29.74203,-36.05618 80.77127,-54.44864 149.10331,-53.74125 29.91532,0.30969 62.70245,4.49182 88.61116,11.30273 l 10.29036,2.70514 -3.03225,2.99752 c -9.3462,9.23916 -25.13348,22.22067 -34.76422,28.58581 -13.11259,8.66636 -29.45368,16.26545 -46.8987,21.80927 -17.58907,5.58961 -44.97697,11.55788 -63.53367,13.84504 z"
       id="path900"
       transform="scale(0.26458333)" />
    <path
       style="fill:#8aa678;fill-rule:evenodd;stroke:#181c57;stroke-width:2.69966;stroke-linejoin:round"
       d="m 748.27216,251.51484 c -51.05903,4.94606 -111.15905,-3.70861 -161.49707,-23.25631 l -10.51244,-4.08228 5.15348,-1.57877 c 7.45209,-2.28297 45.50816,-8.63825 58.48947,-9.76762 44.48913,-3.87055 87.83401,-0.61649 138.26869,10.38032 15.66186,3.41492 38.4439,9.15683 38.54969,9.71593 0.12356,0.65304 -9.97421,5.06005 -18.80224,8.20594 -8.58417,3.05898 -38.39049,9.29212 -49.64958,10.38279 z"
       id="path902"
       transform="scale(0.26458333)" />
  </g>
</svg>
