<?xml version="1.0" encoding="UTF-8" standalone="no"?>
<svg
   xmlns:dc="http://purl.org/dc/elements/1.1/"
   xmlns:cc="http://creativecommons.org/ns#"
   xmlns:rdf="http://www.w3.org/1999/02/22-rdf-syntax-ns#"
   xmlns:svg="http://www.w3.org/2000/svg"
   xmlns="http://www.w3.org/2000/svg"
   xmlns:sodipodi="http://sodipodi.sourceforge.net/DTD/sodipodi-0.dtd"
   xmlns:inkscape="http://www.inkscape.org/namespaces/inkscape"
   width="208.70737mm"
   height="145.79141mm"
   viewBox="0 0 208.70737 145.79141"
   version="1.1"
   id="svg8"
   sodipodi:docname="2021-02-22_14-03.svg"
   inkscape:version="1.0.2 (e86c870879, 2021-01-15)">
  <defs
     id="defs2" />
  <sodipodi:namedview
     id="base"
     pagecolor="#ffffff"
     bordercolor="#000000"
     borderopacity="1"
     inkscape:pageopacity="0.0"
     inkscape:pageshadow="2"
     inkscape:zoom="1.0170197"
     inkscape:cx="327.10132"
     inkscape:cy="304.8933"
     inkscape:document-units="mm"
     inkscape:current-layer="layer1"
     inkscape:document-rotation="0"
     showgrid="true"
     showborder="true"
     borderlayer="true"
     inkscape:showpageshadow="false"
     objecttolerance="10000"
     guidetolerance="10000"
     inkscape:snap-perpendicular="true"
     inkscape:snap-tangential="true"
     inkscape:window-width="1920"
     inkscape:window-height="1080"
     inkscape:window-x="-1"
     inkscape:window-y="-1"
     inkscape:window-maximized="0">
    <sodipodi:guide
       position="0.19023964,147.47155"
       orientation="0,793.70079"
       id="guide10" />
    <sodipodi:guide
       position="210.19024,147.47155"
       orientation="559.37008,0"
       id="guide12" />
    <sodipodi:guide
       position="210.19024,-0.52845309"
       orientation="0,-793.70079"
       id="guide14" />
    <sodipodi:guide
       position="0.19023964,-0.52845309"
       orientation="-559.37008,0"
       id="guide16" />
    <inkscape:grid
       type="xygrid"
       id="grid20"
       dotted="true"
       units="px"
       originx="105.19024"
       originy="72.319867" />
  </sodipodi:namedview>
  <metadata
     id="metadata5">
    <rdf:RDF>
      <cc:Work
         rdf:about="">
        <dc:format>image/svg+xml</dc:format>
        <dc:type
           rdf:resource="http://purl.org/dc/dcmitype/StillImage" />
        <dc:title />
        <cc:license
           rdf:resource="" />
      </cc:Work>
    </rdf:RDF>
  </metadata>
  <g
     inkscape:label="Layer 1"
     inkscape:groupmode="layer"
     id="layer1"
     transform="translate(0.19023983,-1.6801349)">
    <path
       id="path835"
       style="fill:none;stroke:#000000;stroke-width:0.498655;stroke-linecap:butt;stroke-linejoin:miter;stroke-miterlimit:4;stroke-dasharray:none;stroke-opacity:1"
       d="M 132.55658,5.2083357 C 111.32063,12.736164 94.480768,33.144337 78.14548,49.65679 54.750757,69.156103 14.121253,59.94651 2.1259152,96.081853 -8.6577462,136.82402 24.039339,150.32106 62.395682,146.61592 100.75202,142.91077 159.97068,120.4823 197.85443,84.23853 221.15652,57.045891 202.07979,14.771404 173.5416,6.1572577 160.41686,0.8693266 145.61988,0.57759054 132.55658,5.2083357 Z"
       sodipodi:nodetypes="acczcca" />
    <path
       style="fill:none;stroke:#000000;stroke-width:0.498655;stroke-linecap:butt;stroke-linejoin:miter;stroke-miterlimit:4;stroke-dasharray:none;stroke-opacity:1"
       d="m 78.14548,49.65679 c -21.949082,22.914921 -43.560713,93.91654 4.820513,93.6748"
       id="path837"
       sodipodi:nodetypes="cc" />
    <path
       style="fill:none;stroke:#000000;stroke-width:0.498655;stroke-linecap:butt;stroke-linejoin:miter;stroke-miterlimit:4;stroke-dasharray:0.498655, 0.498655;stroke-dashoffset:0;stroke-opacity:1"
       d="M 78.056032,49.736779 C 104.32432,36.406608 121.88084,121.66766 82.965993,143.33159"
       id="path837-3"
       sodipodi:nodetypes="cc" />
    <path
       id="path1481"
       style="fill:#bec1fc;fill-rule:evenodd;stroke:#000000;stroke-width:0.174184;stroke-linejoin:round;stroke-miterlimit:4;stroke-dasharray:none;stroke-dashoffset:0"
       d="m 152.28446,2.336263 c -1.18699,-0.009 -2.38759,0.016495 -3.60863,0.074783 -17.36699,0.8290379 -32.14656,8.934259 -51.744454,28.377022 -6.075784,6.027691 -17.504366,17.671726 -17.24361,17.735841 -1.158026,1.194253 -2.133237,2.216271 -3.294313,3.578916 -9.670146,11.374504 -18.100518,30.306799 -21.118579,47.426692 -1.853201,10.512233 -1.430502,20.153833 1.191048,27.178833 3.516076,9.42208 10.832535,14.78894 21.611974,16.03786 1.512201,0.25076 3.169612,0.30177 4.598489,0.24421 2.207491,-0.0889 4.428489,-1.02751 6.808538,-1.64957 10.085143,-2.56519 18.624507,-5.30768 29.285707,-9.4049 20.6374,-7.93119 38.85237,-17.46086 55.65947,-29.12042 9.82126,-6.813281 21.36185,-16.412003 24.41986,-20.310454 5.05103,-6.43921 8.11341,-14.109283 8.9228,-22.348973 0.30491,-3.104084 0.11551,-8.873163 -0.39318,-11.970233 -1.34642,-8.197394 -4.53194,-16.041204 -9.33708,-22.991556 -1.70765,-2.470026 -5.23844,-6.556836 -7.34959,-8.50751 C 186.82886,13.116493 181.70879,9.7205575 177.66617,8.0468984 168.24201,4.1452642 160.59337,2.399304 152.28446,2.336263 Z m -7.99834,26.580573 c 2.77096,-0.03234 5.5404,0.579099 8.14314,1.870123 5.18491,2.571838 9.20743,8.054237 10.9146,14.875683 0.84395,3.372252 0.9744,4.683978 0.96664,9.720102 -0.0109,7.056318 -0.48133,9.652701 -2.65588,14.658534 -3.98347,9.16997 -10.17001,14.943074 -17.22802,16.077193 -2.45708,0.39482 -5.36022,0.183645 -7.64064,-0.55561 -7.69305,-2.493887 -13.24226,-10.198701 -14.87133,-20.647252 -0.35767,-2.294015 -0.48549,-7.738227 -0.23926,-10.195939 0.72544,-7.24088 3.67772,-14.312445 7.8636,-18.836955 4.16044,-4.496996 9.45711,-6.904127 14.74715,-6.965879 z m -2.64611,17.983736 c -1.55475,-0.377204 -3.4046,0.706905 -4.41896,1.985345 -2.37959,2.023199 -2.2071,7.28727 -0.31138,11.754899 1.05101,2.476927 2.99172,4.665265 4.97133,5.605938 1.79319,0.852085 3.65912,0.469656 4.67837,-0.958881 0.81943,-1.14848 1.25537,-2.535725 1.14251,-5.466139 -0.10239,-2.658691 -0.52388,-4.308813 -1.20005,-6.682463 -0.89293,-3.134578 -1.63022,-4.816202 -3.14333,-5.671457 -0.47006,-0.437726 -0.72835,-0.24213 -1.71849,-0.567242 z m -58.869842,1.098616 c 0.134832,0 0.243102,0.166219 0.243102,0.373914 0,0.207696 -0.10827,0.373914 -0.243102,0.373914 -0.134833,0 -0.242621,-0.166218 -0.242621,-0.373914 0,-0.207695 0.107788,-0.373914 0.242621,-0.373914 z m 0.88993,0 c 0.215731,0 0.323655,0.12468 0.323655,0.373914 0,0.360241 -0.316695,0.506592 -0.539423,0.249277 -0.222728,-0.257315 -0.09605,-0.623191 0.215768,-0.623191 z m 0.802665,0.02991 c 0.03586,-0.0076 0.07836,-0.0055 0.128023,0.0055 0.155731,0.03465 0.282897,0.187062 0.282897,0.338462 0,0.151399 -0.127166,0.303261 -0.282897,0.337908 -0.198667,0.0442 -0.283379,-0.05637 -0.283379,-0.337908 0,-0.211153 0.04778,-0.321064 0.155356,-0.344001 z m 1.058229,0.156768 c 0.134833,0 0.242621,0.166219 0.242621,0.373914 0,0.3724 -0.172227,0.486257 -0.377357,0.249274 -0.197062,-0.227662 -0.111591,-0.623188 0.134736,-0.623188 z m -3.698771,0.03545 c 0.138965,0.01384 0.290427,0.115079 0.341395,0.291928 0.0395,0.137051 -0.07176,0.233765 -0.269471,0.233765 -0.198743,0 -0.337081,-0.120748 -0.337081,-0.294145 0,-0.171772 0.126193,-0.245389 0.265157,-0.231548 z m 4.602607,0.151226 c 0.157317,-0.0085 0.309749,0.132596 0.309749,0.374467 0,0.205617 -0.105277,0.373362 -0.23351,0.373362 -0.285836,0 -0.468199,-0.307428 -0.332765,-0.560594 0.06598,-0.123344 0.162136,-0.18211 0.256526,-0.187235 z m -5.515074,5.67e-4 c 0.177979,0 0.323655,0.117141 0.323655,0.260356 0,0.281964 -0.392998,0.531448 -0.550453,0.34954 -0.213075,-0.246161 -0.0778,-0.609896 0.226798,-0.609896 z m 6.360893,0.269772 c 0.206552,-0.03026 0.471614,0.257505 0.364888,0.457006 -0.160538,0.300094 -0.577303,0.255713 -0.577303,-0.06149 0,-0.148146 0.05799,-0.311038 0.128982,-0.361727 0.02587,-0.01846 0.05392,-0.02947 0.08343,-0.03379 z m 0.845335,0.366713 c 0.176967,0.0067 0.398456,0.200111 0.398456,0.411585 0,0.143214 -0.145674,0.260352 -0.323655,0.260352 -0.304602,0 -0.439874,-0.364285 -0.226798,-0.610448 0.03937,-0.04548 0.09301,-0.06373 0.151997,-0.06149 z m 0.978636,0.491906 c 0.124303,0.01325 0.228716,0.103972 0.228716,0.26257 0,0.148147 -0.05799,0.310485 -0.128982,0.361174 -0.206989,0.147792 -0.570771,-0.195213 -0.4488,-0.423216 0.08027,-0.150046 0.224763,-0.213773 0.349066,-0.200528 z m 0.770059,0.424322 c 0.136673,0.01699 0.267556,0.181021 0.267556,0.421001 0,0.284128 -0.410159,0.374396 -0.546138,0.120207 -0.04387,-0.08201 -0.01996,-0.260962 0.05322,-0.397736 0.05919,-0.110649 0.143356,-0.15366 0.22536,-0.143472 z m 0.808896,0.561149 c 0.136671,0.01699 0.267556,0.180468 0.267556,0.420445 0,0.284128 -0.410156,0.374396 -0.546137,0.120207 -0.04388,-0.08202 -0.01994,-0.260962 0.05322,-0.397735 0.05919,-0.110647 0.143359,-0.153107 0.22536,-0.142917 z m 0.743208,0.611004 c 0.03295,-0.0039 0.0677,0.0011 0.10405,0.01716 0.126119,0.05591 0.229194,0.214054 0.229194,0.351202 0,0.33254 -0.211384,0.466842 -0.457913,0.290822 -0.23486,-0.167699 -0.105991,-0.632091 0.124669,-0.659194 z m 0.681832,0.67249 c 0.02941,-0.0054 0.06151,-0.005 0.09638,0.0028 0.155734,0.03465 0.283378,0.180931 0.283378,0.325169 0,0.29513 -0.285435,0.461828 -0.455035,0.265894 -0.194501,-0.224707 -0.13059,-0.55597 0.07528,-0.593831 z m 0.879381,0.721792 c 0.124303,0.01325 0.228237,0.103973 0.228237,0.26257 0,0.148147 -0.05799,0.310486 -0.128982,0.361174 -0.20699,0.147792 -0.570292,-0.194666 -0.448321,-0.42266 0.08027,-0.150046 0.224763,-0.214329 0.349066,-0.201084 z M 75.110058,52.289379 c -0.181231,0.03971 -0.918084,0.668752 -1.626618,1.130191 -3.15937,2.057566 -7.503619,4.108288 -12.798981,6.043004 -3.948177,1.442509 -5.356445,1.879781 -13.995303,4.341835 -8.767693,2.498772 -12.925599,3.800605 -16.436856,5.14727 -10.99749,4.217844 -18.189818,9.591251 -23.1516122,17.29643 -2.0182771,3.134187 -3.8750667,7.177854 -4.8030339,10.458512 -0.5644927,1.995657 -1.36792244,6.181709 -1.66526298,8.678679 -0.3063179,2.57236 -0.26931988,8.63336 0.0661696,10.84184 0.35750178,2.3534 1.06560188,5.14869 1.79808078,7.09994 5.1850015,13.8123 19.9855267,22.01619 42.1695547,23.37377 3.466508,0.21214 12.026731,0.058 16.018263,-0.28805 5.322473,-0.46146 12.967508,-1.55521 17.393437,-2.48833 l 2.247254,-0.35653 c -14.496391,-0.26527 -24.486917,-11.01388 -26.459972,-25.37816 -0.327298,-2.51405 -0.278427,-10.74287 0.08151,-13.73899 1.140203,-9.490964 3.747649,-18.974541 7.940325,-28.880004 3.685787,-8.707894 8.511668,-17.188725 12.523275,-22.006634 0.753163,-1.017932 2.853664,-3.102853 0.699767,-1.274773 z m 18.530589,0.853219 c 0.06326,0.0068 0.123215,0.05863 0.193712,0.156765 0.140997,0.196274 0.131533,0.30907 -0.03836,0.471965 -0.169889,0.162892 -0.267526,0.152511 -0.408523,-0.04376 -0.140997,-0.196274 -0.13153,-0.30907 0.03836,-0.471961 0.08495,-0.08145 0.151548,-0.119799 0.214811,-0.113006 z m 0.647309,0.747828 c 0.06326,0.0068 0.122735,0.05863 0.193234,0.156766 0.141,0.196274 0.132012,0.309072 -0.03788,0.471964 -0.169892,0.162884 -0.267527,0.151956 -0.408524,-0.04432 -0.140999,-0.196266 -0.132011,-0.308514 0.03788,-0.471406 0.08495,-0.08145 0.152029,-0.119799 0.215289,-0.113006 z m 0.667448,0.715144 c 0.05137,0.01203 0.08883,0.07964 0.131381,0.207729 0.145153,0.437017 -0.158946,0.751646 -0.400854,0.414909 -0.146926,-0.204525 -0.134732,-0.31567 0.0537,-0.496336 0.09904,-0.09496 0.164396,-0.138325 0.215771,-0.126302 z m 0.521204,0.915675 c 0.19182,0.0064 0.37151,0.265341 0.246456,0.499104 -0.05979,0.111767 -0.172764,0.203299 -0.25125,0.203299 -0.249917,0 -0.366995,-0.398628 -0.180289,-0.614328 0.0558,-0.06446 0.121143,-0.09019 0.185083,-0.08807 z m 0.591209,0.799345 c 0.06326,0.0068 0.122734,0.05807 0.193234,0.156213 0.140996,0.196274 0.132011,0.309069 -0.03788,0.471961 -0.169892,0.162895 -0.267526,0.152512 -0.408523,-0.04376 -0.140997,-0.196274 -0.132012,-0.30907 0.03788,-0.471962 0.08495,-0.08145 0.152027,-0.119243 0.21529,-0.11245 z m 0.541342,0.88299 c 0.19182,0.0064 0.37151,0.265345 0.246456,0.499105 -0.05979,0.111766 -0.172764,0.203299 -0.25125,0.203299 -0.249915,0 -0.366993,-0.398626 -0.180289,-0.614325 0.0558,-0.06447 0.121143,-0.09019 0.185083,-0.08808 z m 0.573469,0.825935 c 0.06862,0.0011 0.137896,0.03135 0.198028,0.100819 0.135977,0.157072 0.138726,0.282667 0.0091,0.463098 -0.230115,0.320341 -0.405302,0.313676 -0.515931,-0.0194 -0.09426,-0.283768 0.102915,-0.547524 0.308793,-0.544529 z m 0.502981,0.907918 c 0.06326,0.0068 0.123216,0.05863 0.193715,0.156766 0.140997,0.196274 0.132012,0.309072 -0.03788,0.471964 -0.16989,0.162892 -0.267527,0.151959 -0.408523,-0.04432 -0.140997,-0.196274 -0.132015,-0.308517 0.03788,-0.471409 0.08495,-0.08145 0.151551,-0.119799 0.214811,-0.113006 z m 0.470379,0.890745 c 0.187266,-0.01078 0.400589,0.336399 0.288652,0.545638 -0.04388,0.08201 -0.184394,0.149011 -0.312627,0.149011 -0.274563,0 -0.313459,-0.481483 -0.0537,-0.666951 0.02467,-0.01761 0.05093,-0.02615 0.07768,-0.02771 z m 0.48572,0.93451 c 0.187266,-0.01078 0.400111,0.336397 0.288173,0.545638 -0.04387,0.08201 -0.184391,0.149564 -0.312624,0.149564 -0.274563,0 -0.312981,-0.482038 -0.05322,-0.667507 0.02467,-0.01761 0.05093,-0.02615 0.07767,-0.02771 z m 0.455036,1.008181 c 0.07371,0.0042 0.148065,0.03265 0.210495,0.09251 0.11325,0.108579 0.165762,0.272228 0.116994,0.363389 -0.124148,0.232078 -0.513721,0.206708 -0.646828,-0.0421 -0.118399,-0.221326 0.09821,-0.42633 0.319339,-0.413799 z m 0.530794,0.891856 c 0.02951,0.0043 0.05756,0.01478 0.08343,0.03323 0.07099,0.05069 0.129463,0.21358 0.129463,0.361727 0,0.317195 -0.417246,0.361579 -0.577784,0.06149 -0.106723,-0.199502 0.158338,-0.486722 0.364891,-0.456451 z m 0.383592,0.986024 c 0.15922,0.01809 0.30708,0.20706 0.31214,0.452574 0.001,0.06611 -0.1096,0.169772 -0.24645,0.230442 -0.321425,0.142496 -0.520987,-0.427703 -0.223923,-0.639809 0.05071,-0.03621 0.105157,-0.04924 0.158233,-0.04321 z m 0.31454,0.986578 c 0.17798,0 0.32366,0.117144 0.32366,0.260355 0,0.373795 -0.4408,0.517384 -0.55285,0.180034 -0.138107,-0.415777 -0.125491,-0.440389 0.22919,-0.440389 z m 0.37832,0.968854 c 0.26459,2.83e-4 0.46196,0.387939 0.22008,0.565579 -0.28584,0.20993 -0.39145,0.180309 -0.4977,-0.139595 -0.0558,-0.167995 0.0113,-0.334656 0.1611,-0.401057 0.0395,-0.0175 0.0787,-0.02499 0.11652,-0.02493 z m 0.36441,0.952786 c 0.18727,-0.01078 0.40059,0.336953 0.28865,0.546194 -0.0439,0.08202 -0.18439,0.149012 -0.31263,0.149012 -0.27456,0 -0.31345,-0.481486 -0.0537,-0.666954 0.0247,-0.01761 0.0509,-0.02672 0.0777,-0.02825 z m 0.47038,0.967745 c 0.15542,0.0058 0.2431,0.149556 0.2431,0.413247 0,0.137071 -0.14568,0.249274 -0.32366,0.249274 -0.3679,0 -0.44101,-0.468961 -0.0969,-0.621526 0.0662,-0.02933 0.1256,-0.04292 0.17741,-0.041 z m 0.10597,1.068564 c 0.0294,-0.0054 0.062,-0.0044 0.0969,0.0033 0.15573,0.03465 0.2829,0.180936 0.2829,0.325165 0,0.295128 -0.28543,0.461828 -0.45503,0.265895 -0.19451,-0.224701 -0.1306,-0.556523 0.0753,-0.594384 z m 0.49866,0.95168 c 0.1506,0.02065 0.28578,0.188917 0.28578,0.428755 0,0.314711 -0.41679,0.362941 -0.57539,0.06647 -0.0598,-0.111766 -0.0337,-0.289508 0.0575,-0.394961 0.051,-0.05896 0.10875,-0.09093 0.16686,-0.09971 0.0218,-0.0033 0.0437,-0.0035 0.0652,-5.67e-4 z m 0.16351,1.08629 c 0.18508,0.0096 0.44592,0.174957 0.44592,0.334029 h -4.9e-4 c 0,0.313239 -0.49407,0.403356 -0.59217,0.108019 -0.052,-0.156913 -0.0526,-0.334181 -9.8e-4,-0.393855 0.0324,-0.03742 0.086,-0.05139 0.14768,-0.04819 z m 0.34763,0.920658 c 0.24406,0 0.46001,0.454026 0.30255,0.635932 -0.21307,0.246165 -0.52791,0.08933 -0.52791,-0.262571 0,-0.205619 0.1014,-0.373361 0.22536,-0.373361 z m 0.25988,1.12119 c 0.17798,0 0.32365,0.117141 0.32365,0.260355 0,0.373795 -0.44079,0.517381 -0.55285,0.180031 -0.1381,-0.415774 -0.12548,-0.440386 0.2292,-0.440386 z m 0.3227,1.035326 c 0.12605,-0.01551 0.24357,0.07054 0.24357,0.27088 0,0.152806 -0.13394,0.307553 -0.29776,0.344001 -0.21623,0.04811 -0.28234,-0.02828 -0.2407,-0.278082 0.0341,-0.204536 0.16883,-0.321282 0.29489,-0.336799 z m 0.17788,1.020923 c 0.16965,0 0.30832,0.117141 0.30832,0.260356 0,0.420728 -0.44376,0.504388 -0.53511,0.100815 -0.0596,-0.26339 0.002,-0.361171 0.22679,-0.361171 z m 0.30832,1.028125 c 0.13104,0 0.26297,0.147463 0.29296,0.327381 0.0383,0.229514 -0.0493,0.32683 -0.29296,0.32683 -0.2437,0 -0.33075,-0.09732 -0.29249,-0.32683 0.03,-0.179918 0.16144,-0.327381 0.29249,-0.327381 z m 0.16206,1.028125 c 0.17798,0 0.32366,0.117144 0.32366,0.260355 0,0.373795 -0.44128,0.517381 -0.55333,0.180032 -0.13811,-0.415777 -0.12501,-0.440387 0.22967,-0.440387 z m 0.38312,0.949463 c 0.0941,0.0014 0.10212,0.102858 0.10212,0.358959 0,0.205619 -0.10139,0.373914 -0.22535,0.373914 -0.32356,0 -0.44784,-0.509255 -0.15584,-0.6387 0.13496,-0.05983 0.22263,-0.09499 0.27907,-0.09417 z m 0.004,1.106787 c 0.24407,0 0.4605,0.454028 0.30304,0.635931 -0.21307,0.246158 -0.52839,0.08989 -0.52839,-0.262017 0,-0.205619 0.10139,-0.373914 0.22535,-0.373914 z m 0.20187,1.157195 c 0.13896,0.01384 0.29042,0.114526 0.3414,0.291375 0.0395,0.137051 -0.0718,0.233766 -0.26948,0.233766 -0.19874,0 -0.33708,-0.120749 -0.33708,-0.294146 0,-0.171775 0.1262,-0.244836 0.26516,-0.230995 z m 0.22008,0.992116 c 0.13105,0 0.26298,0.147469 0.29297,0.327384 0.0383,0.229517 -0.0493,0.327383 -0.29297,0.327383 -0.24369,0 -0.33122,-0.09787 -0.29296,-0.327383 0.03,-0.179915 0.16192,-0.327384 0.29296,-0.327384 z m 0.0638,1.028125 c 0.24406,0 0.46001,0.454029 0.30255,0.635932 -0.21307,0.246165 -0.52839,0.08989 -0.52839,-0.262018 0,-0.205619 0.10187,-0.373914 0.22584,-0.373914 z m 0.16158,1.121743 c 0.12397,0 0.26716,0.126083 0.31839,0.280296 0.0633,0.190721 -0.009,0.280297 -0.22536,0.280297 -0.17527,0 -0.31839,-0.126016 -0.31839,-0.280297 0,-0.154213 0.1014,-0.280296 0.22536,-0.280296 z m 0.20618,0.934507 c 0.11866,0 0.21577,0.168298 0.21577,0.373914 0,0.42504 -0.40592,0.509499 -0.53798,0.111897 -0.10155,-0.305703 0.0179,-0.485811 0.32221,-0.485811 z m 0.0657,1.121742 c 0.2262,0 0.31866,0.101752 0.28338,0.311873 -0.0945,0.562972 -0.61902,0.509913 -0.61902,-0.0626 0,-0.137077 0.15114,-0.249278 0.33564,-0.249278 z m 0.0916,1.157195 c 0.13896,0.01384 0.29042,0.114526 0.34139,0.291375 0.0395,0.137051 -0.0717,0.233766 -0.26947,0.233766 -0.19874,0 -0.33708,-0.120749 -0.33708,-0.294146 0,-0.171772 0.12619,-0.244835 0.26516,-0.230995 z m 0.21577,0.914566 c 0.11952,-0.0108 0.16638,0.104759 0.16638,0.358403 0,0.20562 -0.10528,0.373915 -0.23351,0.373915 -0.33779,0 -0.49361,-0.387852 -0.23255,-0.578876 0.12986,-0.09503 0.22797,-0.146958 0.29968,-0.153442 z m -0.094,1.105679 c 0.24406,0 0.46049,0.454578 0.30303,0.636484 -0.21307,0.246163 -0.52839,0.08932 -0.52839,-0.26257 0,-0.205617 0.10139,-0.373914 0.22536,-0.373914 z m 0.0983,1.121739 c 0.17798,0 0.32366,0.117141 0.32366,0.260355 0,0.281965 -0.393,0.532005 -0.55046,0.350096 -0.21307,-0.24616 -0.0778,-0.610451 0.2268,-0.610451 z m 0.081,1.121743 c 0.13349,0 0.24263,0.126083 0.24263,0.280296 0,0.154216 -0.10914,0.280297 -0.24263,0.280297 -0.13348,0 -0.24262,-0.126081 -0.24262,-0.280297 0,-0.154213 0.10914,-0.280296 0.24262,-0.280296 z m -0.0173,0.934507 c 0.24406,0 0.46001,0.454026 0.30255,0.635931 -0.21307,0.246163 -0.52791,0.08988 -0.52791,-0.262017 0,-0.205616 0.10139,-0.373914 0.22536,-0.373914 z m 0.1098,1.121742 c 0.23154,0 0.31885,0.100303 0.28146,0.324613 -0.0812,0.487266 -0.61662,0.541622 -0.61662,0.0626 0,-0.267509 0.10361,-0.387211 0.33516,-0.387211 z m -0.0115,1.12119 c 0.17977,0 0.32317,0.125079 0.32317,0.280849 0,0.155773 -0.1434,0.280297 -0.32317,0.280297 -0.17978,0 -0.32366,-0.124524 -0.32366,-0.280297 0,-0.15577 0.14388,-0.280849 0.32366,-0.280849 z m 0,1.121742 c 0.17977,0 0.32317,0.124524 0.32317,0.280297 0,0.15577 -0.1434,0.280296 -0.32317,0.280296 -0.17978,0 -0.32366,-0.124526 -0.32366,-0.280296 0,-0.155773 0.14388,-0.2803 0.32366,-0.280297 z m -0.046,0.963865 c 0.14403,0.01461 0.29838,0.14967 0.33899,0.393302 0.0374,0.22431 -0.0499,0.325169 -0.28145,0.325169 -0.23156,0 -0.33517,-0.120255 -0.33517,-0.387764 0,-0.239512 0.13359,-0.345322 0.27763,-0.330707 z m -0.035,1.092385 c 0.13484,-3e-6 0.24262,0.166216 0.24262,0.373911 0,0.207696 -0.10778,0.373914 -0.24262,0.373914 -0.13483,0 -0.24262,-0.166218 -0.24262,-0.373914 0,-0.207695 0.10779,-0.373914 0.24262,-0.373911 z m 0,1.121739 c 0.13349,0 0.24262,0.126081 0.24262,0.280297 0,0.154213 -0.10913,0.2803 -0.24262,0.2803 -0.13348,0 -0.24262,-0.126087 -0.24262,-0.2803 0,-0.154216 0.10914,-0.280297 0.24262,-0.280297 z m -0.081,1.027572 c 0.13105,0 0.26297,0.147469 0.29297,0.327384 0.0383,0.229517 -0.0493,0.32738 -0.29297,0.32738 -0.2437,0 -0.33123,-0.09786 -0.29297,-0.32738 0.03,-0.179915 0.16192,-0.327384 0.29297,-0.327384 z m -0.10789,1.028125 c 0.30434,0 0.42376,0.1801 0.32222,0.48581 -0.13207,0.3976 -0.53799,0.31314 -0.53799,-0.1119 0,-0.20562 0.0971,-0.37391 0.21577,-0.37391 z m -0.0537,1.12174 c 0.17798,0 0.32366,0.12107 0.32366,0.26922 0,0.32511 -0.17125,0.45744 -0.44497,0.344 -0.32641,-0.13527 -0.23185,-0.61322 0.12131,-0.61322 z m -0.081,1.12174 c 0.13348,0 0.24262,0.12609 0.24262,0.2803 0,0.15421 -0.10914,0.2803 -0.24262,0.2803 -0.13349,0 -0.24262,-0.12609 -0.24262,-0.2803 0,-0.15421 0.10913,-0.2803 0.24262,-0.2803 z m -0.12659,0.96332 c 0.14404,0.0146 0.29839,0.15022 0.339,0.39385 0.0374,0.22431 -0.0499,0.32517 -0.28146,0.32517 -0.23155,0 -0.33564,-0.12025 -0.33564,-0.38776 0,-0.23951 0.13407,-0.34588 0.2781,-0.33126 z m -0.10213,1.09238 c 0.15732,-0.009 0.30975,0.13204 0.30975,0.37391 0,0.20562 -0.10528,0.37392 -0.23351,0.37392 -0.28583,0 -0.4682,-0.30743 -0.33276,-0.5606 0.066,-0.12334 0.16213,-0.18211 0.25652,-0.18723 z m -0.0125,1.15165 c 0.0983,0.0199 0.16015,0.10654 0.16015,0.23709 0,0.1734 -0.13833,0.29415 -0.33708,0.29415 -0.39431,0 -0.33831,-0.43696 0.0676,-0.52791 0.0399,-0.009 0.0765,-0.01 0.10932,-0.003 z m -0.22104,0.91457 c 0.11795,0.0245 0.2196,0.15143 0.2196,0.36394 0,0.20562 -0.0971,0.37392 -0.21577,0.37392 -0.30433,0 -0.42376,-0.17955 -0.32221,-0.48526 0.066,-0.1988 0.20042,-0.2771 0.31838,-0.2526 z m -0.16207,1.12119 c 0.11827,0.0231 0.2196,0.15024 0.2196,0.3645 0,0.20561 -0.0546,0.36707 -0.12131,0.35895 -0.3341,-0.0406 -0.49874,-0.22347 -0.41859,-0.46476 0.0668,-0.20119 0.20203,-0.28181 0.3203,-0.25869 z m -0.40805,0.9899 c 0.037,-0.01 0.12333,0.0105 0.22345,0.0548 0.13348,0.0592 0.24262,0.22461 0.24262,0.36782 0,0.14321 -0.15341,0.26036 -0.34092,0.26036 -0.24442,0 -0.31303,-0.0838 -0.24262,-0.29581 0.054,-0.16262 0.0983,-0.32805 0.0983,-0.36782 0,-0.01 0.007,-0.0162 0.0192,-0.0194 z m 0.071,1.05693 c 0.12823,0 0.23303,0.1683 0.23303,0.37391 0,0.387 -0.39032,0.5156 -0.56628,0.18668 -0.13542,-0.25316 0.0474,-0.56059 0.33325,-0.56059 z m -0.25221,1.12174 c 0.17798,0 0.32273,0.063 0.32126,0.14015 -0.005,0.29057 -0.2478,0.54832 -0.44257,0.4703 -0.32689,-0.13094 -0.2316,-0.61045 0.12131,-0.61045 z m -0.26756,0.99212 c 0.13668,0.017 0.26756,0.18047 0.26756,0.42045 0,0.28413 -0.41016,0.37439 -0.54614,0.1202 -0.0439,-0.082 -0.0199,-0.26096 0.0532,-0.39773 0.0592,-0.11065 0.14336,-0.15311 0.22536,-0.14292 z m -0.21768,1.06413 c 0.17798,0 0.32365,0.12107 0.32365,0.26922 0,0.32511 -0.17124,0.45744 -0.44496,0.344 -0.32641,-0.13526 -0.23186,-0.61322 0.12131,-0.61322 z m -0.26756,0.99212 c 0.13667,0.017 0.26756,0.18047 0.26756,0.42045 0,0.28413 -0.41016,0.37439 -0.54614,0.1202 -0.0439,-0.082 -0.0199,-0.26096 0.0532,-0.39773 0.0592,-0.11065 0.14336,-0.15311 0.22536,-0.14292 z m -0.21817,1.06358 c 0.35631,0 0.3683,0.0231 0.22584,0.45202 -0.10424,0.31383 -0.26394,0.37587 -0.44113,0.17117 -0.22272,-0.25731 -0.0965,-0.62319 0.21529,-0.62319 z m -0.32413,1.03588 c 0.12606,-0.0155 0.24358,0.07 0.24358,0.27033 0,0.15279 -0.13395,0.30755 -0.29776,0.344 -0.21623,0.0481 -0.28235,-0.0277 -0.2407,-0.27753 0.0341,-0.20453 0.16882,-0.32128 0.29488,-0.3368 z m -0.32269,1.02037 c 0.17798,0 0.32365,0.12162 0.32365,0.26977 0,0.32511 -0.17124,0.45744 -0.44497,0.344 -0.3264,-0.13527 -0.23185,-0.61377 0.12132,-0.61377 z m -0.31886,0.97993 c 0.19182,0.006 0.3715,0.26535 0.24645,0.49911 -0.0598,0.11176 -0.17276,0.2033 -0.25125,0.2033 -0.24991,0 -0.36699,-0.39864 -0.18029,-0.61433 0.0558,-0.0645 0.12115,-0.0902 0.18509,-0.0881 z m -0.43922,0.97273 c 0.20656,-0.0303 0.47114,0.25695 0.36441,0.45645 -0.16053,0.30009 -0.5773,0.25571 -0.5773,-0.0615 0,-0.14814 0.058,-0.31048 0.12898,-0.36117 0.0259,-0.0185 0.0544,-0.0295 0.0839,-0.0338 z m -0.21289,1.0381 c 0.17798,0 0.32273,0.063 0.32126,0.14014 -0.005,0.29057 -0.24779,0.54888 -0.44257,0.47086 -0.32689,-0.13093 -0.2316,-0.611 0.12131,-0.611 z m -0.37831,0.96885 c 0.0378,-6e-5 0.077,0.007 0.11651,0.0249 0.14979,0.0664 0.21691,0.23306 0.16111,0.40106 -0.10625,0.3199 -0.21187,0.34952 -0.49771,0.13959 -0.24188,-0.17764 -0.0445,-0.56516 0.22009,-0.56558 z m -0.42579,0.94559 c 0.19182,0.006 0.37151,0.26589 0.24646,0.49966 -0.0598,0.11176 -0.17277,0.20329 -0.25126,0.20329 -0.24991,0 -0.36699,-0.39919 -0.18028,-0.61488 0.0558,-0.0645 0.12114,-0.0902 0.18508,-0.0881 z m -0.48572,0.90514 c 0.0717,0.006 0.16934,0.0584 0.2992,0.15345 0.12265,0.0897 0.17287,0.25684 0.11172,0.37114 -0.18502,0.34586 -0.5773,0.23287 -0.5773,-0.16618 0,-0.25365 0.0469,-0.36921 0.16638,-0.35841 z m -0.439214,1.00209 c 0.206555,-0.0303 0.471614,0.25751 0.364894,0.45701 -0.160541,0.30009 -0.577306,0.25571 -0.577306,-0.0615 0,-0.14814 0.05799,-0.31104 0.128982,-0.36172 0.02587,-0.0185 0.05392,-0.0295 0.08343,-0.0338 z m -0.324612,0.89407 c 0.03032,0.003 0.06205,0.0154 0.09398,0.0382 0.09894,0.0706 0.179808,0.24457 0.179808,0.38665 0,0.37429 -0.259263,0.50198 -0.45791,0.22546 -0.181345,-0.25244 -0.02814,-0.67172 0.184123,-0.65034 z m -0.438732,1.01871 c 0.221128,-0.0125 0.437738,0.19192 0.319339,0.41325 -0.133104,0.2488 -0.523156,0.27417 -0.647309,0.0421 -0.04877,-0.0912 0.0042,-0.25426 0.117475,-0.36284 0.06243,-0.0599 0.136784,-0.0883 0.210495,-0.0925 z m -0.485723,0.93451 c 0.22113,-0.0125 0.438219,0.19247 0.31982,0.4138 -0.133106,0.24881 -0.523153,0.27362 -0.647309,0.0415 -0.04877,-0.0911 0.0042,-0.25425 0.117473,-0.36283 0.06243,-0.0599 0.136308,-0.0883 0.210016,-0.0925 z m -0.56148,0.88465 c 0.02621,-0.003 0.05296,-0.003 0.07959,5.7e-4 0.177561,0.0237 0.346886,0.19608 0.277145,0.40604 -0.095,0.28602 -0.469581,0.35838 -0.599361,0.11578 -0.04388,-0.082 -0.02386,-0.25348 0.04411,-0.38056 0.04666,-0.0872 0.119889,-0.13134 0.198508,-0.14181 z m -0.485721,0.93507 c 0.02621,-0.003 0.05296,-0.003 0.0796,5.6e-4 0.177559,0.0237 0.34736,0.19552 0.277623,0.40549 -0.095,0.28602 -0.469581,0.35837 -0.599361,0.11578 -0.04387,-0.082 -0.02435,-0.25293 0.04363,-0.38001 0.04666,-0.0872 0.119891,-0.13134 0.198509,-0.14181 z m -0.409962,0.8647 c 0.124296,0.0132 0.228716,0.10398 0.228716,0.26257 0,0.14815 -0.05847,0.31049 -0.129463,0.36118 -0.20699,0.14779 -0.570292,-0.19466 -0.448321,-0.42266 0.08027,-0.15005 0.224765,-0.21433 0.349068,-0.20109 z m -0.691423,0.82428 c 0.206555,-0.0303 0.471617,0.25695 0.364891,0.45645 -0.160538,0.30009 -0.577784,0.25571 -0.577784,-0.0615 0,-0.14815 0.05848,-0.31104 0.129461,-0.36173 0.02587,-0.0185 0.05392,-0.0289 0.08343,-0.0332 z m -0.531272,0.89628 c 0.191817,0.006 0.37151,0.26534 0.246455,0.49911 -0.05979,0.11177 -0.172771,0.2033 -0.25125,0.2033 -0.249914,0 -0.366995,-0.39863 -0.180288,-0.61433 0.0558,-0.0645 0.121143,-0.0902 0.185083,-0.0881 z m -0.556208,0.82926 c 0.22113,-0.0125 0.438219,0.19192 0.31982,0.41325 -0.133104,0.2488 -0.523156,0.27417 -0.647309,0.0421 -0.04877,-0.0912 0.0042,-0.25482 0.117473,-0.36339 0.06243,-0.0599 0.136308,-0.0878 0.210016,-0.092 z m -0.576346,0.85308 c 0.191823,0.006 0.371513,0.26534 0.246458,0.49911 -0.05979,0.11176 -0.173245,0.20329 -0.251731,0.20329 -0.249914,0 -0.366511,-0.39862 -0.179807,-0.61432 0.0558,-0.0645 0.121145,-0.0902 0.18508,-0.0881 z m -0.647307,0.74727 c 0.191818,0.006 0.37151,0.2659 0.246456,0.49966 -0.05979,0.11176 -0.172772,0.2033 -0.25125,0.2033 -0.249915,0 -0.366993,-0.39863 -0.180289,-0.61433 0.0558,-0.0645 0.121144,-0.0907 0.185083,-0.0886 z m -0.593128,0.74838 c 0.03012,0.005 0.06015,0.0178 0.08871,0.0382 0.09674,0.0691 0.175973,0.24682 0.175973,0.39496 0,0.31471 -0.41631,0.36238 -0.574907,0.0659 -0.123552,-0.23095 0.09941,-0.53582 0.310228,-0.49911 z m -0.64683,0.74783 c 0.03012,0.005 0.05967,0.0173 0.08823,0.0377 0.09674,0.0691 0.175973,0.24682 0.175973,0.39497 0,0.31471 -0.416308,0.36294 -0.574907,0.0665 -0.12355,-0.23095 0.0999,-0.53582 0.310707,-0.49911 z m -0.701491,0.74728 c 0.191822,0.006 0.371509,0.26589 0.246458,0.49966 -0.05979,0.11176 -0.173246,0.20274 -0.251731,0.20274 -0.249915,0 -0.366512,-0.39863 -0.179808,-0.61433 0.0558,-0.0645 0.121141,-0.0902 0.185081,-0.0881 z m -0.64731,0.74727 c 0.19182,0.006 0.371512,0.2659 0.246458,0.49966 -0.05979,0.11177 -0.172767,0.2033 -0.251252,0.2033 -0.249915,0 -0.36699,-0.39863 -0.180287,-0.61433 0.0558,-0.0645 0.121141,-0.0908 0.185081,-0.0886 z m -0.782524,0.74173 c 0.276474,-0.0292 0.519252,0.24858 0.381673,0.50576 -0.14931,0.2791 -0.336715,0.25478 -0.573469,-0.0748 -0.162264,-0.22587 -0.148774,-0.301 0.07192,-0.39884 0.03985,-0.0177 0.08038,-0.028 0.119872,-0.0321 z m -0.590249,0.61101 c 0.05927,-0.005 0.114861,0.0241 0.154394,0.0981 0.06031,0.11272 0.06877,0.3271 0.01917,0.47639 -0.115185,0.34677 -0.363135,0.34895 -0.477569,0.004 -0.08526,-0.25667 0.126188,-0.56534 0.303995,-0.57887 z m -0.801705,0.71126 c 0.187265,-0.0108 0.400588,0.33696 0.288651,0.5462 -0.04387,0.082 -0.184872,0.14901 -0.313106,0.14901 -0.274562,0 -0.312978,-0.48149 -0.05322,-0.66695 0.02467,-0.0176 0.05092,-0.0267 0.07768,-0.0282 z m -0.689504,0.60215 c 0.02082,-0.002 0.04093,-8.6e-4 0.05994,0.002 0.126697,0.0207 0.210016,0.1492 0.210016,0.36228 0,0.13715 -0.111522,0.29884 -0.248375,0.35952 -0.319194,0.1415 -0.52238,-0.42722 -0.227758,-0.63759 0.0739,-0.0528 0.143739,-0.081 0.206181,-0.0864 z m -0.729782,0.66806 c 0.168463,0.005 0.226779,0.16915 0.135216,0.44481 v 5.7e-4 c -0.122821,0.36964 -0.367859,0.36983 -0.490515,5.7e-4 -0.05498,-0.16553 0.0093,-0.33358 0.151516,-0.39662 0.07914,-0.0351 0.147631,-0.0511 0.203783,-0.0493 z m -0.799786,0.62318 c 0.07862,0.0105 0.151851,0.0546 0.198508,0.14181 0.06799,0.12709 0.08799,0.298 0.04411,0.38001 -0.12978,0.2426 -0.504839,0.17024 -0.59984,-0.11577 -0.06974,-0.20997 0.100063,-0.38179 0.277624,-0.40549 0.02663,-0.004 0.05339,-0.004 0.0796,-5.7e-4 z m -0.854927,0.53678 c 0.187266,-0.0108 0.400108,0.33695 0.288173,0.54619 -0.04387,0.082 -0.184393,0.14901 -0.312627,0.14901 -0.27456,0 -0.312978,-0.48203 -0.05322,-0.6675 0.02467,-0.0176 0.05093,-0.0262 0.07768,-0.0277 z m -0.737932,0.55284 c 0.19182,0.006 0.371509,0.26589 0.246455,0.49966 -0.05979,0.11176 -0.173245,0.2033 -0.251731,0.2033 -0.249914,0 -0.366511,-0.39863 -0.179808,-0.61433 0.0558,-0.0645 0.121144,-0.0908 0.185084,-0.0886 z"
       sodipodi:nodetypes="sssccsscscssssssssssssssssssssccsssssccsssssssssssssssssssssssssssssssssssssssssssssssssssssssssssssssssssssssscssssssssssscccssccssssssssssssssssssssssssssssssssssssssssssssssssssssssssssssssssssssssssssssssssssssssssssssssssscsscccssssssssssssssssssssssssssssssssssssssssssssssssssssssssssssssssssssssssssssssssssssssssssssssssssssssssssssssssssssssssssssssssssssssssssssssssssssssssssssssssssssssssssscssscsssssssssssssssssssssssssssssssssssssssscsssssssssssssssssssssssssssssssssssssssssssssssssssssssssssssssssssssssssssssssssssssssssssssssssssssssssssssssssssssssssscssssssssssssssssssscssssssssssssssssssssss" />
    <path
       id="path845"
       style="fill:none;stroke:#000000;stroke-width:0.307595px;stroke-linecap:butt;stroke-linejoin:miter;stroke-opacity:1"
       d="m 135.60101,52.005745 c -0.86812,4.976428 1.05382,10.154382 3.74484,12.704683 1.93014,1.91781 4.51894,3.163544 6.69101,1.533012 1.52611,-1.173937 1.96231,-4.001056 1.78714,-6.451522 -0.20089,-3.652927 -0.98372,-7.34987 -2.4629,-10.223411 -1.61259,-3.098638 -4.55133,-3.397094 -6.80852,-2.12377 -1.31575,0.78525 -2.56974,2.351424 -2.95157,4.561008 z" />
    <path
       id="path847"
       style="fill:none;stroke:#000000;stroke-width:0.263871px;stroke-linecap:butt;stroke-linejoin:miter;stroke-opacity:1"
       d="M 121.85487,54.521969 C 118.84524,89.39434 153.1119,99.134204 163.3914,64.773662 171.07623,20.650109 126.28959,17.711528 121.85487,54.521969 Z"
       sodipodi:nodetypes="ccc" />
    <text
       xml:space="preserve"
       style="font-size:10.5548px;line-height:1.25;font-family:sans-serif;word-spacing:0px;stroke-width:0.263871"
       x="50.94558"
       y="36.664867"
       id="text857"
       transform="scale(0.93036859,1.0748428)"><tspan
         sodipodi:role="line"
         id="tspan855"
         x="50.94558"
         y="36.664867"
         style="stroke-width:0.263871">$X$</tspan></text>
    <path
       style="fill:#df8f87;fill-rule:evenodd;stroke:#000000;stroke-width:0.264286;stroke-linejoin:round;stroke-miterlimit:4;stroke-dasharray:none;stroke-dashoffset:0"
       d="m 139.39583,85.750179 c -5.49968,-0.830881 -10.64565,-4.741619 -13.74226,-10.443571 -3.95553,-7.283566 -4.8997,-17.820479 -2.40502,-26.84024 2.44307,-8.833164 7.69887,-15.201656 14.79857,-17.931525 5.99372,-2.304613 12.62614,-1.245111 17.55502,2.804342 6.94909,5.709213 9.7636,16.239433 7.8902,29.520447 -0.58004,4.112079 -3.21991,10.124205 -6.27216,14.284401 -4.64014,6.324485 -11.38165,9.579495 -17.82435,8.606146 z m 5.72798,-18.788485 c 1.09482,-0.375616 1.9699,-1.378723 2.45909,-2.818855 0.72495,-2.134223 0.44737,-7.154013 -0.6015,-10.877519 -0.92718,-3.291488 -2.13634,-5.320618 -3.7004,-6.20976 -1.18857,-0.675684 -3.18797,-0.658327 -4.47528,0.03885 -2.04858,1.109467 -3.24867,3.127794 -3.51136,5.905447 -0.27085,2.864075 0.15788,5.376001 1.38841,8.134612 1.1954,2.679835 3.38404,4.970223 5.49341,5.748795 1.17294,0.432933 1.86098,0.451238 2.94763,0.07843 z"
       id="path1492" />
    <circle
       style="fill:#a51d1e;fill-rule:evenodd;stroke:#a51d1e;stroke-width:0.264286;stroke-linejoin:round;stroke-miterlimit:4;stroke-dasharray:none;stroke-dashoffset:0"
       id="path1498"
       sodipodi:type="arc"
       sodipodi:cx="141.14902"
       sodipodi:cy="56.260048"
       sodipodi:rx="1.2274899"
       sodipodi:ry="1.4181032"
       sodipodi:start="5.0507036"
       sodipodi:end="5.0265308"
       sodipodi:open="true"
       sodipodi:arc-type="arc"
       d="m 141.55642,54.922329 a 1.2274899,1.4181032 0 0 1 0.75295,1.800291 1.2274899,1.4181032 0 0 1 -1.55373,0.880737 1.2274899,1.4181032 0 0 1 -0.77173,-1.789646 1.2274899,1.4181032 0 0 1 1.5444,-0.902367" />
    <text
       xml:space="preserve"
       style="font-size:10.5548px;line-height:1.25;font-family:sans-serif;word-spacing:0px;stroke-width:0.263871"
       x="123.76729"
       y="43.338959"
       id="text853"
       transform="scale(0.9303686,1.0748428)"><tspan
         sodipodi:role="line"
         id="tspan851"
         x="123.76729"
         y="43.338959"
         style="stroke-width:0.263871">$z$</tspan></text>
  </g>
</svg>
