<?xml version="1.0" encoding="UTF-8" standalone="no"?>
<svg
   xmlns:dc="http://purl.org/dc/elements/1.1/"
   xmlns:cc="http://creativecommons.org/ns#"
   xmlns:rdf="http://www.w3.org/1999/02/22-rdf-syntax-ns#"
   xmlns:svg="http://www.w3.org/2000/svg"
   xmlns="http://www.w3.org/2000/svg"
   xmlns:sodipodi="http://sodipodi.sourceforge.net/DTD/sodipodi-0.dtd"
   xmlns:inkscape="http://www.inkscape.org/namespaces/inkscape"
   width="210mm"
   height="148mm"
   viewBox="0 0 210 148"
   version="1.1"
   id="svg8"
   sodipodi:docname="2021-03-19_14-40.svg"
   inkscape:version="1.0.2 (e86c870879, 2021-01-15)">
  <defs
     id="defs2">
    <marker
       style="overflow:visible;"
       id="Arrow1Lend"
       refX="0.0"
       refY="0.0"
       orient="auto"
       inkscape:stockid="Arrow1Lend"
       inkscape:isstock="true">
      <path
         transform="scale(0.8) rotate(180) translate(12.5,0)"
         style="fill-rule:evenodd;stroke:#000000;stroke-width:1pt;stroke-opacity:1;fill:#000000;fill-opacity:1"
         d="M 0.0,0.0 L 5.0,-5.0 L -12.5,0.0 L 5.0,5.0 L 0.0,0.0 z "
         id="path966" />
    </marker>
  </defs>
  <sodipodi:namedview
     id="base"
     pagecolor="#ffffff"
     bordercolor="#000000"
     borderopacity="1"
     inkscape:pageopacity="0.0"
     inkscape:pageshadow="2"
     inkscape:zoom="0.8758899"
     inkscape:cx="1068.8489"
     inkscape:cy="1618.7482"
     inkscape:document-units="mm"
     inkscape:current-layer="layer1"
     inkscape:document-rotation="0"
     showgrid="true"
     showborder="true"
     borderlayer="true"
     inkscape:showpageshadow="false"
     objecttolerance="10000"
     guidetolerance="10000"
     inkscape:snap-perpendicular="true"
     inkscape:snap-tangential="true"
     inkscape:window-width="1920"
     inkscape:window-height="1080"
     inkscape:window-x="0"
     inkscape:window-y="0"
     inkscape:window-maximized="0">
    <sodipodi:guide
       position="0,148"
       orientation="0,793.70079"
       id="guide10" />
    <sodipodi:guide
       position="210,148"
       orientation="559.37008,0"
       id="guide12" />
    <sodipodi:guide
       position="210,0"
       orientation="0,-793.70079"
       id="guide14" />
    <sodipodi:guide
       position="0,0"
       orientation="-559.37008,0"
       id="guide16" />
    <inkscape:grid
       type="xygrid"
       id="grid20"
       dotted="true"
       units="px"
       originx="105"
       originy="74.000003" />
  </sodipodi:namedview>
  <metadata
     id="metadata5">
    <rdf:RDF>
      <cc:Work
         rdf:about="">
        <dc:format>image/svg+xml</dc:format>
        <dc:type
           rdf:resource="http://purl.org/dc/dcmitype/StillImage" />
        <dc:title />
        <cc:license
           rdf:resource="" />
      </cc:Work>
    </rdf:RDF>
  </metadata>
  <g
     inkscape:label="Layer 1"
     inkscape:groupmode="layer"
     id="layer1">
    <circle
       style="fill:#f4cece;fill-rule:evenodd;stroke-width:0.264999;stroke-linejoin:round"
       id="path835"
       sodipodi:type="arc"
       sodipodi:cx="112.9375"
       sodipodi:cy="97.812508"
       sodipodi:rx="108.47916"
       sodipodi:ry="108.47916"
       sodipodi:start="5.0507036"
       sodipodi:end="5.0265308"
       sodipodi:open="true"
       sodipodi:arc-type="arc"
       d="M 148.94148,-4.517549 A 108.47916,108.47916 0 0 1 215.48327,133.19744 108.47916,108.47916 0 0 1 78.172917,200.57024 108.47916,108.47916 0 0 1 9.9715579,63.669541 108.47916,108.47916 0 0 1 146.4576,-5.3578858" />
    <circle
       style="fill:#6dcece;fill-opacity:1;fill-rule:evenodd;stroke-width:0.264999;stroke-linejoin:round"
       id="path839"
       sodipodi:type="arc"
       sodipodi:cx="113.82704"
       sodipodi:cy="26.075047"
       sodipodi:rx="5.2916665"
       sodipodi:ry="5.2916665"
       sodipodi:start="5.0507036"
       sodipodi:end="5.0265308"
       sodipodi:open="true"
       sodipodi:arc-type="arc"
       d="m 115.58333,21.083336 a 5.2916665,5.2916665 0 0 1 3.24594,6.717805 5.2916665,5.2916665 0 0 1 -6.69806,3.286478 5.2916665,5.2916665 0 0 1 -3.3269,-6.678083 5.2916665,5.2916665 0 0 1 6.65786,-3.367192" />
    <circle
       style="fill:#6dcece;fill-opacity:1;fill-rule:evenodd;stroke-width:0.264999;stroke-linejoin:round"
       id="path839-6"
       sodipodi:type="arc"
       sodipodi:cx="66.202042"
       sodipodi:cy="57.825047"
       sodipodi:rx="5.2916665"
       sodipodi:ry="5.2916665"
       sodipodi:start="5.0507036"
       sodipodi:end="5.0265308"
       sodipodi:open="true"
       sodipodi:arc-type="arc"
       d="m 67.958334,52.833336 a 5.2916665,5.2916665 0 0 1 3.24594,6.717805 5.2916665,5.2916665 0 0 1 -6.698066,3.286478 5.2916665,5.2916665 0 0 1 -3.326896,-6.678083 5.2916665,5.2916665 0 0 1 6.657857,-3.367192" />
    <circle
       style="fill:#6dcece;fill-opacity:1;fill-rule:evenodd;stroke-width:0.264999;stroke-linejoin:round"
       id="path839-7"
       sodipodi:type="arc"
       sodipodi:cx="172.03537"
       sodipodi:cy="63.116714"
       sodipodi:rx="5.2916665"
       sodipodi:ry="5.2916665"
       sodipodi:start="5.0507036"
       sodipodi:end="5.0265308"
       sodipodi:open="true"
       sodipodi:arc-type="arc"
       d="m 173.79166,58.125004 a 5.2916665,5.2916665 0 0 1 3.24594,6.717805 5.2916665,5.2916665 0 0 1 -6.69806,3.286478 5.2916665,5.2916665 0 0 1 -3.3269,-6.678083 5.2916665,5.2916665 0 0 1 6.65786,-3.367192" />
    <circle
       style="fill:#6dcece;fill-opacity:1;fill-rule:evenodd;stroke-width:0.264999;stroke-linejoin:round"
       id="path839-5"
       sodipodi:type="arc"
       sodipodi:cx="39.864872"
       sodipodi:cy="131.94937"
       sodipodi:rx="5.2916665"
       sodipodi:ry="5.2916665"
       sodipodi:start="5.0507036"
       sodipodi:end="5.0265308"
       sodipodi:open="true"
       sodipodi:arc-type="arc"
       d="m 41.621164,126.95766 a 5.2916665,5.2916665 0 0 1 3.245941,6.71781 5.2916665,5.2916665 0 0 1 -6.698066,3.28647 5.2916665,5.2916665 0 0 1 -3.326896,-6.67808 5.2916665,5.2916665 0 0 1 6.657856,-3.36719" />
    <circle
       style="fill:#6dcece;fill-opacity:1;fill-rule:evenodd;stroke-width:0.264999;stroke-linejoin:round"
       id="path839-3"
       sodipodi:type="arc"
       sodipodi:cx="108.53538"
       sodipodi:cy="174.24171"
       sodipodi:rx="5.2916665"
       sodipodi:ry="5.2916665"
       sodipodi:start="5.0507036"
       sodipodi:end="5.0265308"
       sodipodi:open="true"
       sodipodi:arc-type="arc"
       d="m 110.29167,169.25 a 5.2916665,5.2916665 0 0 1 3.24594,6.71781 5.2916665,5.2916665 0 0 1 -6.69807,3.28648 5.2916665,5.2916665 0 0 1 -3.32689,-6.67809 5.2916665,5.2916665 0 0 1 6.65785,-3.36719" />
    <circle
       style="fill:#6dcece;fill-opacity:1;fill-rule:evenodd;stroke-width:0.264999;stroke-linejoin:round"
       id="path839-56"
       sodipodi:type="arc"
       sodipodi:cx="172.15654"
       sodipodi:cy="142.5327"
       sodipodi:rx="5.2916665"
       sodipodi:ry="5.2916665"
       sodipodi:start="5.0507036"
       sodipodi:end="5.0265308"
       sodipodi:open="true"
       sodipodi:arc-type="arc"
       d="m 173.91283,137.54099 a 5.2916665,5.2916665 0 0 1 3.24594,6.7178 5.2916665,5.2916665 0 0 1 -6.69806,3.28648 5.2916665,5.2916665 0 0 1 -3.3269,-6.67808 5.2916665,5.2916665 0 0 1 6.65786,-3.36719" />
    <text
       xml:space="preserve"
       style="font-size:10.5833px;line-height:1.25;font-family:sans-serif;word-spacing:0px;stroke-width:0.264583"
       x="41.499996"
       y="153.375"
       id="text919"><tspan
         sodipodi:role="line"
         id="tspan917"
         x="41.499996"
         y="153.375"
         style="stroke-width:0.264583">$1$</tspan></text>
    <text
       xml:space="preserve"
       style="font-size:10.5833px;line-height:1.25;font-family:sans-serif;word-spacing:0px;stroke-width:0.264583"
       x="110.29166"
       y="190.41667"
       id="text923"><tspan
         sodipodi:role="line"
         id="tspan921"
         x="110.29166"
         y="190.41667"
         style="stroke-width:0.264583">$2$</tspan></text>
    <text
       xml:space="preserve"
       style="font-size:10.5833px;line-height:1.25;font-family:sans-serif;word-spacing:0px;stroke-width:0.264583"
       x="189.66667"
       y="153.375"
       id="text927"><tspan
         sodipodi:role="line"
         id="tspan925"
         x="189.66667"
         y="153.375"
         style="stroke-width:0.264583">$3$</tspan></text>
    <text
       xml:space="preserve"
       style="font-size:10.5833px;line-height:1.25;font-family:sans-serif;word-spacing:0px;stroke-width:0.264583"
       x="189.66667"
       y="58.125"
       id="text931"><tspan
         sodipodi:role="line"
         id="tspan929"
         x="189.66667"
         y="58.125"
         style="stroke-width:0.264583">$4$</tspan></text>
    <path
       style="fill:none;stroke:#000000;stroke-width:0.264583px;stroke-linecap:butt;stroke-linejoin:miter;stroke-opacity:1"
       d="m 41.499998,132.20833 68.791662,42.33334"
       id="path933" />
    <path
       style="fill:none;stroke:#000000;stroke-width:0.264583px;stroke-linecap:butt;stroke-linejoin:miter;stroke-opacity:1"
       d="M 173.79166,142.79167 V 63.416669"
       id="path935" />
    <path
       style="fill:none;stroke:#000000;stroke-width:0.264583px;stroke-linecap:butt;stroke-linejoin:miter;stroke-opacity:1"
       d="M 67.958331,58.125002 115.58333,26.375003"
       id="path937" />
    <path
       style="fill:none;stroke:#000000;stroke-width:0.265;stroke-linecap:butt;stroke-linejoin:miter;stroke-opacity:1;stroke-miterlimit:4;stroke-dasharray:none;marker-end:url(#Arrow1Lend)"
       d="M 126.16666,370.33334 V 227.45833"
       id="path961" />
    <text
       xml:space="preserve"
       style="font-size:10.5833px;line-height:1.25;font-family:sans-serif;word-spacing:0px;stroke-width:0.264583"
       x="152.625"
       y="264.5"
       id="text1247"><tspan
         sodipodi:role="line"
         id="tspan1245"
         x="152.625"
         y="264.5"
         style="stroke-width:0.264583">$z$</tspan></text>
    <text
       xml:space="preserve"
       style="font-size:10.5833px;line-height:1.25;font-family:sans-serif;word-spacing:0px;stroke-width:0.264583"
       x="115.58334"
       y="10.500003"
       id="text1251"><tspan
         sodipodi:role="line"
         id="tspan1249"
         x="115.58334"
         y="10.500003"
         style="stroke-width:0.264583">$5$</tspan></text>
    <text
       xml:space="preserve"
       style="font-size:10.5833px;line-height:1.25;font-family:sans-serif;word-spacing:0px;stroke-width:0.264583"
       x="20.333334"
       y="74.000008"
       id="text1255"><tspan
         sodipodi:role="line"
         id="tspan1253"
         x="20.333334"
         y="74.000008"
         style="stroke-width:0.264583">$\infty$</tspan><tspan
         sodipodi:role="line"
         x="20.333334"
         y="87.229134"
         style="stroke-width:0.264583"
         id="tspan1257" /></text>
    <circle
       style="fill:#f4cece;fill-rule:evenodd;stroke-width:0.264999;stroke-linejoin:round"
       id="path835-9"
       sodipodi:type="arc"
       sodipodi:cx="-29.9375"
       sodipodi:cy="462.93753"
       sodipodi:rx="108.47916"
       sodipodi:ry="108.47916"
       sodipodi:start="5.0507036"
       sodipodi:end="5.0265308"
       sodipodi:open="true"
       sodipodi:arc-type="arc"
       d="M 6.0664846,360.60747 A 108.47916,108.47916 0 0 1 72.608266,498.32246 108.47916,108.47916 0 0 1 -64.702083,565.69526 108.47916,108.47916 0 0 1 -132.90344,428.79456 108.47916,108.47916 0 0 1 3.582603,359.76714" />
    <circle
       style="fill:#6dcece;fill-opacity:1;fill-rule:evenodd;stroke-width:0.264999;stroke-linejoin:round"
       id="path839-1"
       sodipodi:type="arc"
       sodipodi:cx="-29.047974"
       sodipodi:cy="391.20004"
       sodipodi:rx="5.2916665"
       sodipodi:ry="5.2916665"
       sodipodi:start="5.0507036"
       sodipodi:end="5.0265308"
       sodipodi:open="true"
       sodipodi:arc-type="arc"
       d="m -27.291682,386.20833 a 5.2916665,5.2916665 0 0 1 3.245941,6.71781 5.2916665,5.2916665 0 0 1 -6.698066,3.28648 5.2916665,5.2916665 0 0 1 -3.326896,-6.67809 5.2916665,5.2916665 0 0 1 6.657856,-3.36719" />
    <circle
       style="fill:#6dcece;fill-opacity:1;fill-rule:evenodd;stroke-width:0.264999;stroke-linejoin:round"
       id="path839-6-2"
       sodipodi:type="arc"
       sodipodi:cx="-76.672951"
       sodipodi:cy="422.95007"
       sodipodi:rx="5.2916665"
       sodipodi:ry="5.2916665"
       sodipodi:start="5.0507036"
       sodipodi:end="5.0265308"
       sodipodi:open="true"
       sodipodi:arc-type="arc"
       d="m -74.916659,417.95836 a 5.2916665,5.2916665 0 0 1 3.245941,6.71781 5.2916665,5.2916665 0 0 1 -6.698066,3.28648 5.2916665,5.2916665 0 0 1 -3.326896,-6.67809 5.2916665,5.2916665 0 0 1 6.657856,-3.36719" />
    <circle
       style="fill:#6dcece;fill-opacity:1;fill-rule:evenodd;stroke-width:0.264999;stroke-linejoin:round"
       id="path839-7-7"
       sodipodi:type="arc"
       sodipodi:cx="29.16037"
       sodipodi:cy="428.24173"
       sodipodi:rx="5.2916665"
       sodipodi:ry="5.2916665"
       sodipodi:start="5.0507036"
       sodipodi:end="5.0265308"
       sodipodi:open="true"
       sodipodi:arc-type="arc"
       d="m 30.916662,423.25002 a 5.2916665,5.2916665 0 0 1 3.245941,6.7178 5.2916665,5.2916665 0 0 1 -6.698067,3.28648 5.2916665,5.2916665 0 0 1 -3.326895,-6.67808 5.2916665,5.2916665 0 0 1 6.657856,-3.36719" />
    <circle
       style="fill:#6dcece;fill-opacity:1;fill-rule:evenodd;stroke-width:0.264999;stroke-linejoin:round"
       id="path839-5-0"
       sodipodi:type="arc"
       sodipodi:cx="-103.01012"
       sodipodi:cy="497.0744"
       sodipodi:rx="5.2916665"
       sodipodi:ry="5.2916665"
       sodipodi:start="5.0507036"
       sodipodi:end="5.0265308"
       sodipodi:open="true"
       sodipodi:arc-type="arc"
       d="m -101.25382,492.08269 a 5.2916665,5.2916665 0 0 1 3.245936,6.71781 5.2916665,5.2916665 0 0 1 -6.698066,3.28647 5.2916665,5.2916665 0 0 1 -3.3269,-6.67808 5.2916665,5.2916665 0 0 1 6.65786,-3.36719" />
    <circle
       style="fill:#6dcece;fill-opacity:1;fill-rule:evenodd;stroke-width:0.264999;stroke-linejoin:round"
       id="path839-3-9"
       sodipodi:type="arc"
       sodipodi:cx="-34.33963"
       sodipodi:cy="539.3667"
       sodipodi:rx="5.2916665"
       sodipodi:ry="5.2916665"
       sodipodi:start="5.0507036"
       sodipodi:end="5.0265308"
       sodipodi:open="true"
       sodipodi:arc-type="arc"
       d="m -32.583338,534.37499 a 5.2916665,5.2916665 0 0 1 3.245941,6.7178 5.2916665,5.2916665 0 0 1 -6.698067,3.28648 5.2916665,5.2916665 0 0 1 -3.326895,-6.67808 5.2916665,5.2916665 0 0 1 6.657856,-3.36719" />
    <circle
       style="fill:#6dcece;fill-opacity:1;fill-rule:evenodd;stroke-width:0.264999;stroke-linejoin:round"
       id="path839-56-3"
       sodipodi:type="arc"
       sodipodi:cx="29.281555"
       sodipodi:cy="507.65771"
       sodipodi:rx="5.2916665"
       sodipodi:ry="5.2916665"
       sodipodi:start="5.0507036"
       sodipodi:end="5.0265308"
       sodipodi:open="true"
       sodipodi:arc-type="arc"
       d="m 31.037847,502.666 a 5.2916665,5.2916665 0 0 1 3.245941,6.71781 5.2916665,5.2916665 0 0 1 -6.698066,3.28648 5.2916665,5.2916665 0 0 1 -3.326896,-6.67809 5.2916665,5.2916665 0 0 1 6.657856,-3.36719" />
    <text
       xml:space="preserve"
       style="font-size:10.5833px;line-height:1.25;font-family:sans-serif;word-spacing:0px;stroke-width:0.264583"
       x="-101.37499"
       y="518.5"
       id="text919-6"><tspan
         sodipodi:role="line"
         id="tspan917-0"
         x="-101.37499"
         y="518.5"
         style="stroke-width:0.264583">$1$</tspan></text>
    <text
       xml:space="preserve"
       style="font-size:10.5833px;line-height:1.25;font-family:sans-serif;word-spacing:0px;stroke-width:0.264583"
       x="-32.583344"
       y="555.54169"
       id="text923-6"><tspan
         sodipodi:role="line"
         id="tspan921-2"
         x="-32.583344"
         y="555.54169"
         style="stroke-width:0.264583">$2$</tspan></text>
    <text
       xml:space="preserve"
       style="font-size:10.5833px;line-height:1.25;font-family:sans-serif;word-spacing:0px;stroke-width:0.264583"
       x="46.791687"
       y="518.5"
       id="text927-6"><tspan
         sodipodi:role="line"
         id="tspan925-1"
         x="46.791687"
         y="518.5"
         style="stroke-width:0.264583">$3$</tspan></text>
    <text
       xml:space="preserve"
       style="font-size:10.5833px;line-height:1.25;font-family:sans-serif;word-spacing:0px;stroke-width:0.264583"
       x="46.791687"
       y="423.25003"
       id="text931-8"><tspan
         sodipodi:role="line"
         id="tspan929-7"
         x="46.791687"
         y="423.25003"
         style="stroke-width:0.264583">$4$</tspan></text>
    <path
       style="fill:none;stroke:#000000;stroke-width:0.264583px;stroke-linecap:butt;stroke-linejoin:miter;stroke-opacity:1"
       d="m -101.375,497.33333 68.79166,42.33334"
       id="path933-9" />
    <path
       style="fill:none;stroke:#000000;stroke-width:0.264583px;stroke-linecap:butt;stroke-linejoin:miter;stroke-opacity:1"
       d="m 30.91666,507.91667 v -79.375"
       id="path935-2" />
    <path
       style="fill:none;stroke:#000000;stroke-width:0.264583px;stroke-linecap:butt;stroke-linejoin:miter;stroke-opacity:1"
       d="M -74.916667,423.25 -27.29167,391.5"
       id="path937-0" />
    <text
       xml:space="preserve"
       style="font-size:10.5833px;line-height:1.25;font-family:sans-serif;word-spacing:0px;stroke-width:0.264583"
       x="-27.291656"
       y="375.625"
       id="text1251-2"><tspan
         sodipodi:role="line"
         id="tspan1249-3"
         x="-27.291656"
         y="375.625"
         style="stroke-width:0.264583">$5$</tspan></text>
    <text
       xml:space="preserve"
       style="font-size:10.5833px;line-height:1.25;font-family:sans-serif;word-spacing:0px;stroke-width:0.264583"
       x="-122.54166"
       y="439.12503"
       id="text1255-7"><tspan
         sodipodi:role="line"
         x="-122.54166"
         y="439.12503"
         style="stroke-width:0.264583"
         id="tspan1257-9">$p$</tspan></text>
    <circle
       style="fill:#f4cece;fill-rule:evenodd;stroke-width:0.264999;stroke-linejoin:round"
       id="path835-2"
       sodipodi:type="arc"
       sodipodi:cx="287.5625"
       sodipodi:cy="462.9375"
       sodipodi:rx="108.47916"
       sodipodi:ry="108.47916"
       sodipodi:start="5.0507036"
       sodipodi:end="5.0265308"
       sodipodi:open="true"
       sodipodi:arc-type="arc"
       d="m 323.56648,360.60744 a 108.47916,108.47916 0 0 1 66.54179,137.71499 108.47916,108.47916 0 0 1 -137.31035,67.3728 108.47916,108.47916 0 0 1 -68.20136,-136.9007 108.47916,108.47916 0 0 1 136.48604,-69.02742" />
    <circle
       style="fill:#6dcece;fill-opacity:1;fill-rule:evenodd;stroke-width:0.264999;stroke-linejoin:round"
       id="path839-2"
       sodipodi:type="arc"
       sodipodi:cx="288.45206"
       sodipodi:cy="391.20004"
       sodipodi:rx="5.2916665"
       sodipodi:ry="5.2916665"
       sodipodi:start="5.0507036"
       sodipodi:end="5.0265308"
       sodipodi:open="true"
       sodipodi:arc-type="arc"
       d="m 290.20835,386.20833 a 5.2916665,5.2916665 0 0 1 3.24594,6.71781 5.2916665,5.2916665 0 0 1 -6.69807,3.28648 5.2916665,5.2916665 0 0 1 -3.32689,-6.67809 5.2916665,5.2916665 0 0 1 6.65785,-3.36719" />
    <circle
       style="fill:#6dcece;fill-opacity:1;fill-rule:evenodd;stroke-width:0.264999;stroke-linejoin:round"
       id="path839-6-8"
       sodipodi:type="arc"
       sodipodi:cx="240.82704"
       sodipodi:cy="422.95007"
       sodipodi:rx="5.2916665"
       sodipodi:ry="5.2916665"
       sodipodi:start="5.0507036"
       sodipodi:end="5.0265308"
       sodipodi:open="true"
       sodipodi:arc-type="arc"
       d="m 242.58333,417.95836 a 5.2916665,5.2916665 0 0 1 3.24594,6.71781 5.2916665,5.2916665 0 0 1 -6.69806,3.28648 5.2916665,5.2916665 0 0 1 -3.3269,-6.67809 5.2916665,5.2916665 0 0 1 6.65786,-3.36719" />
    <circle
       style="fill:#6dcece;fill-opacity:1;fill-rule:evenodd;stroke-width:0.264999;stroke-linejoin:round"
       id="path839-7-9"
       sodipodi:type="arc"
       sodipodi:cx="346.66037"
       sodipodi:cy="428.2417"
       sodipodi:rx="5.2916665"
       sodipodi:ry="5.2916665"
       sodipodi:start="5.0507036"
       sodipodi:end="5.0265308"
       sodipodi:open="true"
       sodipodi:arc-type="arc"
       d="m 348.41666,423.24999 a 5.2916665,5.2916665 0 0 1 3.24594,6.7178 5.2916665,5.2916665 0 0 1 -6.69806,3.28648 5.2916665,5.2916665 0 0 1 -3.3269,-6.67808 5.2916665,5.2916665 0 0 1 6.65786,-3.36719" />
    <circle
       style="fill:#6dcece;fill-opacity:1;fill-rule:evenodd;stroke-width:0.264999;stroke-linejoin:round"
       id="path839-5-7"
       sodipodi:type="arc"
       sodipodi:cx="214.48987"
       sodipodi:cy="497.07434"
       sodipodi:rx="5.2916665"
       sodipodi:ry="5.2916665"
       sodipodi:start="5.0507036"
       sodipodi:end="5.0265308"
       sodipodi:open="true"
       sodipodi:arc-type="arc"
       d="m 216.24616,492.08263 a 5.2916665,5.2916665 0 0 1 3.24594,6.71781 5.2916665,5.2916665 0 0 1 -6.69807,3.28647 5.2916665,5.2916665 0 0 1 -3.32689,-6.67808 5.2916665,5.2916665 0 0 1 6.65786,-3.36719" />
    <circle
       style="fill:#6dcece;fill-opacity:1;fill-rule:evenodd;stroke-width:0.264999;stroke-linejoin:round"
       id="path839-3-3"
       sodipodi:type="arc"
       sodipodi:cx="283.1604"
       sodipodi:cy="539.3667"
       sodipodi:rx="5.2916665"
       sodipodi:ry="5.2916665"
       sodipodi:start="5.0507036"
       sodipodi:end="5.0265308"
       sodipodi:open="true"
       sodipodi:arc-type="arc"
       d="m 284.91669,534.37499 a 5.2916665,5.2916665 0 0 1 3.24594,6.7178 5.2916665,5.2916665 0 0 1 -6.69806,3.28648 5.2916665,5.2916665 0 0 1 -3.3269,-6.67808 5.2916665,5.2916665 0 0 1 6.65786,-3.36719" />
    <circle
       style="fill:#6dcece;fill-opacity:1;fill-rule:evenodd;stroke-width:0.264999;stroke-linejoin:round"
       id="path839-56-6"
       sodipodi:type="arc"
       sodipodi:cx="346.78156"
       sodipodi:cy="507.65771"
       sodipodi:rx="5.2916665"
       sodipodi:ry="5.2916665"
       sodipodi:start="5.0507036"
       sodipodi:end="5.0265308"
       sodipodi:open="true"
       sodipodi:arc-type="arc"
       d="m 348.53785,502.666 a 5.2916665,5.2916665 0 0 1 3.24594,6.71781 5.2916665,5.2916665 0 0 1 -6.69807,3.28648 5.2916665,5.2916665 0 0 1 -3.32689,-6.67809 5.2916665,5.2916665 0 0 1 6.65785,-3.36719" />
    <text
       xml:space="preserve"
       style="font-size:10.5833px;line-height:1.25;font-family:sans-serif;word-spacing:0px;stroke-width:0.264583"
       x="216.125"
       y="518.5"
       id="text919-1"><tspan
         sodipodi:role="line"
         id="tspan917-2"
         x="216.125"
         y="518.5"
         style="stroke-width:0.264583">$1$</tspan></text>
    <text
       xml:space="preserve"
       style="font-size:10.5833px;line-height:1.25;font-family:sans-serif;word-spacing:0px;stroke-width:0.264583"
       x="284.91666"
       y="555.54169"
       id="text923-9"><tspan
         sodipodi:role="line"
         id="tspan921-3"
         x="284.91666"
         y="555.54169"
         style="stroke-width:0.264583">$2$</tspan></text>
    <path
       style="fill:none;stroke:#000000;stroke-width:0.264583px;stroke-linecap:butt;stroke-linejoin:miter;stroke-opacity:1"
       d="m 216.125,497.33333 68.79166,42.33334"
       id="path933-4" />
    <path
       style="fill:none;stroke:#000000;stroke-width:0.264583px;stroke-linecap:butt;stroke-linejoin:miter;stroke-opacity:1"
       d="m 348.41666,507.91667 v -79.375"
       id="path935-5" />
    <path
       style="fill:none;stroke:#000000;stroke-width:0.264583px;stroke-linecap:butt;stroke-linejoin:miter;stroke-opacity:1"
       d="m 242.58333,423.25 47.625,-31.75"
       id="path937-03" />
    <text
       xml:space="preserve"
       style="font-size:10.5833px;line-height:1.25;font-family:sans-serif;word-spacing:0px;stroke-width:0.264583"
       x="194.95834"
       y="439.125"
       id="text1255-0"><tspan
         sodipodi:role="line"
         x="194.95834"
         y="439.125"
         style="stroke-width:0.264583"
         id="tspan1257-3">$p$</tspan></text>
    <circle
       style="fill:#bc2122;fill-opacity:1;fill-rule:evenodd;stroke-width:0.264999;stroke-linejoin:round;stroke-miterlimit:4;stroke-dasharray:none"
       id="path1446"
       sodipodi:type="arc"
       sodipodi:cx="-52.739292"
       sodipodi:cy="407.11603"
       sodipodi:rx="5.2916665"
       sodipodi:ry="5.2916665"
       sodipodi:start="5.0507036"
       sodipodi:end="5.0265308"
       sodipodi:open="true"
       sodipodi:arc-type="arc"
       d="m -50.983,402.12432 a 5.2916665,5.2916665 0 0 1 3.245941,6.7178 5.2916665,5.2916665 0 0 1 -6.698067,3.28648 5.2916665,5.2916665 0 0 1 -3.326895,-6.67808 5.2916665,5.2916665 0 0 1 6.657856,-3.36719" />
    <text
       xml:space="preserve"
       style="font-size:10.5833px;line-height:1.25;font-family:sans-serif;word-spacing:0px;stroke-width:0.264583"
       x="-45.8125"
       y="428.54166"
       id="text1450"><tspan
         sodipodi:role="line"
         id="tspan1448"
         x="-45.8125"
         y="428.54166"
         style="stroke-width:0.264583">$x_1$</tspan></text>
    <circle
       style="fill:#3a7c0e;fill-opacity:1;fill-rule:evenodd;stroke-width:0.264999;stroke-linejoin:round;stroke-miterlimit:4;stroke-dasharray:none"
       id="path1446-2"
       sodipodi:type="arc"
       sodipodi:cx="262.11487"
       sodipodi:cy="409.76187"
       sodipodi:rx="5.2916665"
       sodipodi:ry="5.2916665"
       sodipodi:start="5.0507036"
       sodipodi:end="5.0265308"
       sodipodi:open="true"
       sodipodi:arc-type="arc"
       d="m 263.87116,404.77016 a 5.2916665,5.2916665 0 0 1 3.24594,6.71781 5.2916665,5.2916665 0 0 1 -6.69807,3.28647 5.2916665,5.2916665 0 0 1 -3.32689,-6.67808 5.2916665,5.2916665 0 0 1 6.65786,-3.36719" />
    <text
       xml:space="preserve"
       style="font-size:10.5833px;line-height:1.25;font-family:sans-serif;word-spacing:0px;stroke-width:0.264583"
       x="274.33331"
       y="428.54166"
       id="text1474"><tspan
         sodipodi:role="line"
         id="tspan1472"
         x="274.33331"
         y="428.54166"
         style="stroke-width:0.264583">$x_2$</tspan></text>
  </g>
</svg>
