<?xml version="1.0" encoding="UTF-8" standalone="no"?>
<svg
   xmlns:dc="http://purl.org/dc/elements/1.1/"
   xmlns:cc="http://creativecommons.org/ns#"
   xmlns:rdf="http://www.w3.org/1999/02/22-rdf-syntax-ns#"
   xmlns:svg="http://www.w3.org/2000/svg"
   xmlns="http://www.w3.org/2000/svg"
   xmlns:sodipodi="http://sodipodi.sourceforge.net/DTD/sodipodi-0.dtd"
   xmlns:inkscape="http://www.inkscape.org/namespaces/inkscape"
   width="210mm"
   height="148mm"
   viewBox="0 0 210 148"
   version="1.1"
   id="svg8"
   sodipodi:docname="2021-01-29_14-01.svg"
   inkscape:version="1.0.1 (3bc2e813f5, 2020-09-07, custom)">
  <defs
     id="defs2" />
  <sodipodi:namedview
     id="base"
     pagecolor="#ffffff"
     bordercolor="#000000"
     borderopacity="1"
     inkscape:pageopacity="0.0"
     inkscape:pageshadow="2"
     inkscape:zoom="5.3148808"
     inkscape:cx="262.25052"
     inkscape:cy="384.62496"
     inkscape:document-units="mm"
     inkscape:current-layer="layer1"
     inkscape:document-rotation="0"
     showgrid="true"
     showborder="true"
     borderlayer="true"
     inkscape:showpageshadow="false"
     objecttolerance="10000"
     guidetolerance="10000"
     inkscape:snap-perpendicular="true"
     inkscape:snap-tangential="true"
     inkscape:window-width="1920"
     inkscape:window-height="1080"
     inkscape:window-x="0"
     inkscape:window-y="0"
     inkscape:window-maximized="0">
    <sodipodi:guide
       position="0,148"
       orientation="0,793.70079"
       id="guide10" />
    <sodipodi:guide
       position="210,148"
       orientation="559.37008,0"
       id="guide12" />
    <sodipodi:guide
       position="210,0"
       orientation="0,-793.70079"
       id="guide14" />
    <sodipodi:guide
       position="0,0"
       orientation="-559.37008,0"
       id="guide16" />
    <inkscape:grid
       type="xygrid"
       id="grid20"
       dotted="true"
       units="px"
       originx="105"
       originy="74.000003" />
  </sodipodi:namedview>
  <metadata
     id="metadata5">
    <rdf:RDF>
      <cc:Work
         rdf:about="">
        <dc:format>image/svg+xml</dc:format>
        <dc:type
           rdf:resource="http://purl.org/dc/dcmitype/StillImage" />
        <dc:title />
        <cc:license
           rdf:resource="" />
      </cc:Work>
    </rdf:RDF>
  </metadata>
  <g
     inkscape:label="Layer 1"
     inkscape:groupmode="layer"
     id="layer1">
    <path
       style="fill:none;stroke:#000000;stroke-width:0.264583px;stroke-linecap:butt;stroke-linejoin:miter;stroke-opacity:1"
       d="m 46.791665,26.375003 c 0.0085,-1.172645 0.441889,-2.421719 0.02537,-3.517935 C 46.616402,22.329007 45.76437,22.445805 45.229605,22.263787 39.883871,20.44426 34.306613,19.500727 28.675136,19.223223 23.13457,18.950199 17.518178,18.903672 12.00725,19.631104 c -5.6028917,0.73957 -10.8221452,2.423289 -16.1387576,4.264211 -4.5089299,1.561254 -9.0808254,2.95004 -13.5308274,4.672086 -3.391541,1.312447 -7.70976,3.639203 -10.960734,5.228283 -13.790639,6.740871 -24.661363,13.585227 -31.294808,27.847125 -6.142675,13.206741 -4.470948,25.968952 -6.803213,39.861051 -1.749467,10.42068 -6.65672,20.34899 -12.548158,29.03367 -8.652957,12.75548 -19.62981,21.19903 -31.408182,30.85062 -9.96526,8.16586 -21.25261,17.3492 -25.66325,29.99775 -3.47938,9.97794 -1.69204,19.72022 1.51182,29.55281 10.74644,32.98056 47.987174,44.46636 78.199209,51.5042 10.020099,2.33415 19.949871,4.94932 30.160915,6.34066 12.386205,1.68772 24.8887221,2.0614 37.342103,2.96643 8.735153,0.63479 17.452604,1.50894 26.192384,2.07648 9.676175,0.62833 16.622845,0.66518 26.721538,0.92699 15.086071,0.39111 30.229127,1.08865 45.316971,0.37081 32.13734,-1.52902 65.28347,-7.70048 92.59937,-25.58524 10.56888,-6.91984 19.71399,-15.34508 28.91366,-23.95371 14.8292,-13.87649 27.49625,-30.50751 35.07435,-49.50187 9.83142,-24.64219 9.36252,-54.01852 5.1402,-79.83336 -3.23157,-19.757431 -9.57792,-40.066514 -24.52937,-54.211033 -12.6355,-11.953565 -31.92338,-18.926641 -48.7186,-22.544664 -9.78159,-2.107144 -19.85458,-3.160514 -29.70735,-4.931649 -9.60243,-1.726133 -19.17563,-3.966691 -28.8381,-5.302446 -11.40345,-1.576429 -22.95337,-1.46894 -34.43183,-1.409042 -4.738308,0.02473 -9.436662,-0.103398 -14.173365,0.185401 -2.242759,0.136741 -4.452789,0.531707 -6.689836,0.704518 -3.181702,0.245785 -6.444229,0.243898 -9.600099,0.778682 -2.785486,0.47202 -5.156597,1.572127 -7.823695,2.373124 -1.800606,0.540768 -3.629528,0.625754 -5.442566,1.07532 -1.617007,0.400957 -11.243662,4.236031 -12.283604,4.041726 -0.625965,-0.116957 -1.201172,-0.423357 -1.80176,-0.635034 z"
       id="path835" />
    <path
       style="fill:#cd8282;fill-opacity:0.501411;fill-rule:evenodd;stroke:#181c57;stroke-width:0.251486;stroke-linejoin:round;stroke-opacity:0.45098"
       id="path841"
       sodipodi:type="arc"
       sodipodi:cx="46.791668"
       sodipodi:cy="95.166672"
       sodipodi:rx="21.166662"
       sodipodi:ry="21.16667"
       sodipodi:start="5.0507036"
       sodipodi:end="5.0486849"
       sodipodi:arc-type="slice"
       d="M 53.816835,75.199827 A 21.166662,21.16667 0 0 1 66.762049,102.18176 21.166662,21.16667 0 0 1 39.786658,115.1406 21.166662,21.16667 0 0 1 26.814217,88.171741 21.166662,21.16667 0 0 1 53.776514,75.185686 l -6.984846,19.980986 z" />
    <path
       style="fill:#cd8282;fill-opacity:0.501411;fill-rule:evenodd;stroke:#181c57;stroke-width:0.251486;stroke-linejoin:round;stroke-opacity:0.45098"
       id="path841-3"
       sodipodi:type="arc"
       sodipodi:cx="73.25"
       sodipodi:cy="95.166672"
       sodipodi:rx="21.166662"
       sodipodi:ry="21.16667"
       sodipodi:start="5.0507036"
       sodipodi:end="5.0486849"
       sodipodi:arc-type="slice"
       d="M 80.275167,75.199827 A 21.166662,21.16667 0 0 1 93.220381,102.18176 21.166662,21.16667 0 0 1 66.24499,115.1406 21.166662,21.16667 0 0 1 53.272549,88.171741 21.166662,21.16667 0 0 1 80.234846,75.185686 L 73.25,95.166672 Z" />
    <path
       style="fill:#cd8282;fill-opacity:0.501411;fill-rule:evenodd;stroke:#181c57;stroke-width:0.251486;stroke-linejoin:round;stroke-opacity:0.45098"
       id="path841-6"
       sodipodi:type="arc"
       sodipodi:cx="67.958336"
       sodipodi:cy="116.33334"
       sodipodi:rx="21.166662"
       sodipodi:ry="21.16667"
       sodipodi:start="5.0507036"
       sodipodi:end="5.0486849"
       sodipodi:arc-type="slice"
       d="M 74.983503,96.366498 A 21.166662,21.16667 0 0 1 87.928717,123.34844 21.166662,21.16667 0 0 1 60.953326,136.30727 21.166662,21.16667 0 0 1 47.980884,109.33841 21.166662,21.16667 0 0 1 74.943181,96.352357 l -6.984845,19.980983 z" />
    <path
       style="fill:#cd8282;fill-opacity:0.501411;fill-rule:evenodd;stroke:#181c57;stroke-width:0.251486;stroke-linejoin:round;stroke-opacity:0.45098"
       id="path841-7"
       sodipodi:type="arc"
       sodipodi:cx="97.974831"
       sodipodi:cy="109.84185"
       sodipodi:rx="21.166662"
       sodipodi:ry="21.16667"
       sodipodi:start="5.0507036"
       sodipodi:end="5.0486849"
       sodipodi:arc-type="slice"
       d="M 105,89.875005 A 21.166662,21.16667 0 0 1 117.94521,116.85694 21.166662,21.16667 0 0 1 90.969821,129.81578 21.166662,21.16667 0 0 1 77.997379,102.84692 21.166662,21.16667 0 0 1 104.95968,89.860864 l -6.984849,19.980986 z" />
    <path
       style="fill:#cd8282;fill-opacity:0.501411;fill-rule:evenodd;stroke:#181c57;stroke-width:0.251486;stroke-linejoin:round;stroke-opacity:0.45098"
       id="path841-5"
       sodipodi:type="arc"
       sodipodi:cx="94.416664"
       sodipodi:cy="84.583336"
       sodipodi:rx="21.166662"
       sodipodi:ry="21.16667"
       sodipodi:start="5.0507036"
       sodipodi:end="5.0486849"
       sodipodi:arc-type="slice"
       d="M 101.44183,64.616491 A 21.166662,21.16667 0 0 1 114.38704,91.598428 21.166662,21.16667 0 0 1 87.411654,104.55726 21.166662,21.16667 0 0 1 74.439213,77.588405 21.166662,21.16667 0 0 1 101.40151,64.60235 l -6.984846,19.980986 z" />
    <path
       style="fill:#cd8282;fill-opacity:0.501411;fill-rule:evenodd;stroke:#181c57;stroke-width:0.251486;stroke-linejoin:round;stroke-opacity:0.45098"
       id="path841-35"
       sodipodi:type="arc"
       sodipodi:cx="67.958336"
       sodipodi:cy="68.708336"
       sodipodi:rx="21.166662"
       sodipodi:ry="21.16667"
       sodipodi:start="5.0507036"
       sodipodi:end="5.0486849"
       sodipodi:arc-type="slice"
       d="M 74.983503,48.741491 A 21.166662,21.16667 0 0 1 87.928717,75.723428 21.166662,21.16667 0 0 1 60.953326,88.682262 21.166662,21.16667 0 0 1 47.980884,61.713405 21.166662,21.16667 0 0 1 74.943181,48.72735 l -6.984845,19.980986 z" />
    <text
       xml:space="preserve"
       style="font-size:10.5833px;line-height:1.25;font-family:sans-serif;word-spacing:0px;stroke-width:0.264583"
       x="216.125"
       y="68.708336"
       id="text884"><tspan
         sodipodi:role="line"
         id="tspan882"
         x="216.125"
         y="68.708336"
         style="stroke-width:0.264583">$X$</tspan></text>
    <text
       xml:space="preserve"
       style="font-size:10.5833px;line-height:1.25;font-family:sans-serif;word-spacing:0px;stroke-width:0.264583"
       x="147.33333"
       y="132.20834"
       id="text888"><tspan
         sodipodi:role="line"
         id="tspan886"
         x="147.33333"
         y="132.20834"
         style="stroke-width:0.264583">$U_i$</tspan></text>
    <text
       xml:space="preserve"
       style="font-size:10.5833px;line-height:1.25;font-family:sans-serif;word-spacing:0px;stroke-width:0.264583"
       x="78.541672"
       y="185.125"
       id="text892"><tspan
         sodipodi:role="line"
         id="tspan890"
         x="78.541672"
         y="185.125"
         style="stroke-width:0.264583">$s_{ij} \in \mathcal{F}(U_i \intersect U_j)$</tspan></text>
    <path
       style="fill:none;stroke:#8aa678;stroke-width:0.264583px;stroke-linecap:butt;stroke-linejoin:miter;stroke-opacity:1"
       d="m 49.437498,109.71875 c -0.997735,0.13548 -0.601429,0.0998 -0.976574,0.78268 -0.2516,0.45798 -0.668867,0.8117 -0.871133,1.29417 -0.09857,0.23511 -0.07106,0.57601 0.05974,0.51278 0.482941,-0.23347 0.877792,-1.36239 1.174782,-1.79719 0.188383,-0.27579 0.4265,-0.51549 0.613187,-0.79244 0.15766,-0.23388 0.264361,-0.49911 0.417238,-0.73614 0.156667,-0.24291 0.567327,-0.73897 0.771578,-0.9572 0.108823,-0.11627 0.225774,-0.22481 0.343471,-0.33209 1.41423,-1.28904 0.359487,0.88208 0.144362,1.31371 -0.122592,0.24596 -0.249775,0.48964 -0.37832,0.73254 -0.163504,0.30897 -0.325752,0.61872 -0.497792,0.92302 -0.455703,0.80601 -0.956739,1.58649 -1.393812,2.40275 -0.04087,0.0763 -0.829445,1.66328 -0.47788,1.69463 0.237826,0.0212 1.74679,-1.8943 1.747243,-1.89486 0.499932,-0.60972 0.729829,-0.91199 1.259411,-1.49439 0.482618,-0.53076 0.767815,-0.82689 1.368925,-1.25022 0.156628,-0.11031 1.20115,-0.69721 1.075224,-0.0293 -0.181057,0.96029 -0.72962,1.84882 -1.125005,2.72508 -0.102717,0.22764 -0.578102,1.20819 -0.462945,1.49439 0.06019,0.14959 0.3394,-0.33947 0.676995,-0.78626 0.293516,-0.38846 1.534462,-2.11808 2.070807,-2.12928 0.45154,-0.009 0.445251,1.08827 0.46792,1.21603 0.03081,0.17367 0.07082,0.34559 0.109517,0.51767 0.01111,0.0494 0.04956,0.0969 0.03982,0.14651 -0.02811,0.1434 -0.09956,0.27477 -0.149339,0.41216"
       id="path894" />
    <path
       style="fill:none;stroke:#dd2a2b;stroke-width:0.264583px;stroke-linecap:butt;stroke-linejoin:miter;stroke-opacity:1"
       d="m 78.541665,104.42708 c 1.224092,-0.0663 0.713637,0.0101 2.136865,-0.33081 0.363164,-0.087 0.723259,-0.18635 1.085183,-0.27837 0.316733,-0.0805 0.62562,-0.20647 0.95078,-0.2393 0.974328,-0.0983 0.71338,0.52053 0.338495,1.10859 -0.780267,1.22397 -2.210406,2.17841 -3.081322,3.38437 -0.03939,0.0545 -0.303858,0.51422 -0.179202,0.67395 0.139917,0.17929 0.649941,-0.11563 0.672018,-0.12698 0.206221,-0.10602 0.39919,-0.23608 0.597344,-0.3565 0.788294,-0.47908 1.609207,-1.10066 2.478998,-1.44068 0.450977,-0.1763 0.78759,-0.25013 0.816377,-0.12209 0.06088,0.27076 -0.920369,1.34533 -1.015492,1.46509 -0.608158,0.7657 -1.281763,1.50205 -1.508305,2.4809 -0.0334,0.1443 -0.133128,0.61264 0.11947,0.72278 0.213101,0.0929 1.365814,-0.70701 1.513284,-0.79115 0.320249,-0.18272 1.054667,-0.5678 1.418696,-0.69836 0.288076,-0.10333 0.800923,-0.3471 0.915935,-0.0635 0.09814,0.24201 -0.388115,1.29372 -0.388276,1.29417 -0.185325,0.5145 -0.711835,1.88665 -0.711835,2.40764 0,0.0635 0.05641,0.11377 0.08462,0.17066"
       id="path896" />
  </g>
</svg>
