<?xml version="1.0" encoding="UTF-8" standalone="no"?>
<svg
   xmlns:dc="http://purl.org/dc/elements/1.1/"
   xmlns:cc="http://creativecommons.org/ns#"
   xmlns:rdf="http://www.w3.org/1999/02/22-rdf-syntax-ns#"
   xmlns:svg="http://www.w3.org/2000/svg"
   xmlns="http://www.w3.org/2000/svg"
   xmlns:sodipodi="http://sodipodi.sourceforge.net/DTD/sodipodi-0.dtd"
   xmlns:inkscape="http://www.inkscape.org/namespaces/inkscape"
   width="210mm"
   height="148mm"
   viewBox="0 0 210 148"
   version="1.1"
   id="svg8"
   sodipodi:docname="2021-01-27_14-15.svg"
   inkscape:version="1.0.1 (3bc2e813f5, 2020-09-07, custom)">
  <defs
     id="defs2">
    <marker
       style="overflow:visible"
       id="marker1117"
       refX="0"
       refY="0"
       orient="auto"
       inkscape:stockid="Arrow1Lend"
       inkscape:isstock="true">
      <path
         transform="matrix(-0.8,0,0,-0.8,-10,0)"
         style="fill:#000000;fill-opacity:1;fill-rule:evenodd;stroke:#000000;stroke-width:1pt;stroke-opacity:1"
         d="M 0,0 5,-5 -12.5,0 5,5 Z"
         id="path1115" />
    </marker>
    <marker
       style="overflow:visible;"
       id="Arrow1Lend"
       refX="0.0"
       refY="0.0"
       orient="auto"
       inkscape:stockid="Arrow1Lend"
       inkscape:isstock="true">
      <path
         transform="scale(0.8) rotate(180) translate(12.5,0)"
         style="fill-rule:evenodd;stroke:#a51d1e;stroke-width:1pt;stroke-opacity:1;fill:#a51d1e;fill-opacity:1"
         d="M 0.0,0.0 L 5.0,-5.0 L -12.5,0.0 L 5.0,5.0 L 0.0,0.0 z "
         id="path877" />
    </marker>
    <marker
       style="overflow:visible"
       id="Arrow1Lstart"
       refX="0.0"
       refY="0.0"
       orient="auto"
       inkscape:stockid="Arrow1Lstart"
       inkscape:isstock="true">
      <path
         transform="scale(0.8) translate(12.5,0)"
         style="fill-rule:evenodd;stroke:#000000;stroke-width:1pt;stroke-opacity:1;fill:#000000;fill-opacity:1"
         d="M 0.0,0.0 L 5.0,-5.0 L -12.5,0.0 L 5.0,5.0 L 0.0,0.0 z "
         id="path874" />
    </marker>
    <marker
       style="overflow:visible"
       id="Arrow1Lend-6"
       refX="0"
       refY="0"
       orient="auto"
       inkscape:stockid="Arrow1Lend"
       inkscape:isstock="true"
       inkscape:collect="always">
      <path
         transform="matrix(-0.8,0,0,-0.8,-10,0)"
         style="fill:#a51d1e;fill-opacity:1;fill-rule:evenodd;stroke:#a51d1e;stroke-width:1pt;stroke-opacity:1"
         d="M 0,0 5,-5 -12.5,0 5,5 Z"
         id="path877-7" />
    </marker>
    <marker
       style="overflow:visible"
       id="Arrow1Lend-3"
       refX="0"
       refY="0"
       orient="auto"
       inkscape:stockid="Arrow1Lend"
       inkscape:isstock="true">
      <path
         transform="matrix(-0.8,0,0,-0.8,-10,0)"
         style="fill:#a51d1e;fill-opacity:1;fill-rule:evenodd;stroke:#a51d1e;stroke-width:1pt;stroke-opacity:1"
         d="M 0,0 5,-5 -12.5,0 5,5 Z"
         id="path877-5" />
    </marker>
    <marker
       style="overflow:visible"
       id="Arrow1Lend-2"
       refX="0"
       refY="0"
       orient="auto"
       inkscape:stockid="Arrow1Lend"
       inkscape:isstock="true">
      <path
         transform="matrix(-0.8,0,0,-0.8,-10,0)"
         style="fill:#a51d1e;fill-opacity:1;fill-rule:evenodd;stroke:#a51d1e;stroke-width:1pt;stroke-opacity:1"
         d="M 0,0 5,-5 -12.5,0 5,5 Z"
         id="path877-9" />
    </marker>
    <marker
       style="overflow:visible"
       id="Arrow1Lend-27"
       refX="0"
       refY="0"
       orient="auto"
       inkscape:stockid="Arrow1Lend"
       inkscape:isstock="true">
      <path
         transform="matrix(-0.8,0,0,-0.8,-10,0)"
         style="fill:#a51d1e;fill-opacity:1;fill-rule:evenodd;stroke:#a51d1e;stroke-width:1pt;stroke-opacity:1"
         d="M 0,0 5,-5 -12.5,0 5,5 Z"
         id="path877-0" />
    </marker>
    <marker
       style="overflow:visible"
       id="Arrow1Lend-36"
       refX="0"
       refY="0"
       orient="auto"
       inkscape:stockid="Arrow1Lend"
       inkscape:isstock="true">
      <path
         transform="matrix(-0.8,0,0,-0.8,-10,0)"
         style="fill:#a51d1e;fill-opacity:1;fill-rule:evenodd;stroke:#a51d1e;stroke-width:1pt;stroke-opacity:1"
         d="M 0,0 5,-5 -12.5,0 5,5 Z"
         id="path877-06" />
    </marker>
    <marker
       style="overflow:visible"
       id="Arrow1Lend-61"
       refX="0"
       refY="0"
       orient="auto"
       inkscape:stockid="Arrow1Lend"
       inkscape:isstock="true">
      <path
         transform="matrix(-0.8,0,0,-0.8,-10,0)"
         style="fill:#a51d1e;fill-opacity:1;fill-rule:evenodd;stroke:#a51d1e;stroke-width:1pt;stroke-opacity:1"
         d="M 0,0 5,-5 -12.5,0 5,5 Z"
         id="path877-8" />
    </marker>
    <marker
       style="overflow:visible"
       id="Arrow1Lend-61-9"
       refX="0"
       refY="0"
       orient="auto"
       inkscape:stockid="Arrow1Lend"
       inkscape:isstock="true">
      <path
         transform="matrix(-0.8,0,0,-0.8,-10,0)"
         style="fill:#a51d1e;fill-opacity:1;fill-rule:evenodd;stroke:#a51d1e;stroke-width:1pt;stroke-opacity:1"
         d="M 0,0 5,-5 -12.5,0 5,5 Z"
         id="path877-8-2" />
    </marker>
    <marker
       style="overflow:visible"
       id="Arrow1Lend-61-5"
       refX="0"
       refY="0"
       orient="auto"
       inkscape:stockid="Arrow1Lend"
       inkscape:isstock="true">
      <path
         transform="matrix(-0.8,0,0,-0.8,-10,0)"
         style="fill:#a51d1e;fill-opacity:1;fill-rule:evenodd;stroke:#a51d1e;stroke-width:1pt;stroke-opacity:1"
         d="M 0,0 5,-5 -12.5,0 5,5 Z"
         id="path877-8-9" />
    </marker>
    <marker
       style="overflow:visible"
       id="Arrow1Lend-61-9-7"
       refX="0"
       refY="0"
       orient="auto"
       inkscape:stockid="Arrow1Lend"
       inkscape:isstock="true">
      <path
         transform="matrix(-0.8,0,0,-0.8,-10,0)"
         style="fill:#a51d1e;fill-opacity:1;fill-rule:evenodd;stroke:#a51d1e;stroke-width:1pt;stroke-opacity:1"
         d="M 0,0 5,-5 -12.5,0 5,5 Z"
         id="path877-8-2-3" />
    </marker>
    <marker
       style="overflow:visible"
       id="Arrow1Lend-61-9-7-1"
       refX="0"
       refY="0"
       orient="auto"
       inkscape:stockid="Arrow1Lend"
       inkscape:isstock="true">
      <path
         transform="matrix(-0.8,0,0,-0.8,-10,0)"
         style="fill:#a51d1e;fill-opacity:1;fill-rule:evenodd;stroke:#a51d1e;stroke-width:1pt;stroke-opacity:1"
         d="M 0,0 5,-5 -12.5,0 5,5 Z"
         id="path877-8-2-3-2" />
    </marker>
    <marker
       style="overflow:visible"
       id="marker1117-3"
       refX="0"
       refY="0"
       orient="auto"
       inkscape:stockid="Arrow1Lend"
       inkscape:isstock="true">
      <path
         transform="matrix(-0.8,0,0,-0.8,-10,0)"
         style="fill:#000dfd;fill-opacity:1;fill-rule:evenodd;stroke:#000dfd;stroke-width:1pt;stroke-opacity:1"
         d="M 0,0 5,-5 -12.5,0 5,5 Z"
         id="path1115-6" />
    </marker>
  </defs>
  <sodipodi:namedview
     id="base"
     pagecolor="#ffffff"
     bordercolor="#000000"
     borderopacity="1"
     inkscape:pageopacity="0.0"
     inkscape:pageshadow="2"
     inkscape:zoom="1.1398476"
     inkscape:cx="512.02861"
     inkscape:cy="340.4582"
     inkscape:document-units="mm"
     inkscape:current-layer="layer1"
     inkscape:document-rotation="0"
     showgrid="true"
     showborder="true"
     borderlayer="true"
     inkscape:showpageshadow="false"
     objecttolerance="10000"
     guidetolerance="10000"
     inkscape:snap-perpendicular="true"
     inkscape:snap-tangential="true"
     inkscape:window-width="1920"
     inkscape:window-height="1080"
     inkscape:window-x="3000"
     inkscape:window-y="0"
     inkscape:window-maximized="0">
    <sodipodi:guide
       position="0,148"
       orientation="0,793.70079"
       id="guide10" />
    <sodipodi:guide
       position="247.875,-90.04167"
       orientation="559.37008,0"
       id="guide12" />
    <sodipodi:guide
       position="210,0"
       orientation="0,-793.70079"
       id="guide14" />
    <sodipodi:guide
       position="0,0"
       orientation="-559.37008,0"
       id="guide16" />
    <inkscape:grid
       type="xygrid"
       id="grid20"
       dotted="true"
       units="px"
       originx="105"
       originy="74.000003" />
  </sodipodi:namedview>
  <metadata
     id="metadata5">
    <rdf:RDF>
      <cc:Work
         rdf:about="">
        <dc:format>image/svg+xml</dc:format>
        <dc:type
           rdf:resource="http://purl.org/dc/dcmitype/StillImage" />
        <dc:title />
        <cc:license
           rdf:resource="" />
      </cc:Work>
    </rdf:RDF>
  </metadata>
  <g
     inkscape:label="Layer 1"
     inkscape:groupmode="layer"
     id="layer1">
    <path
       style="opacity:0.228517;fill:#8aa678;fill-opacity:0.452136;fill-rule:evenodd;stroke:#a51d1e;stroke-width:0.264999;stroke-linejoin:round;stroke-opacity:0.981966"
       id="path835"
       sodipodi:type="arc"
       sodipodi:cx="97.0625"
       sodipodi:cy="118.97917"
       sodipodi:rx="87.3125"
       sodipodi:ry="87.3125"
       sodipodi:start="4.8617717"
       sodipodi:end="4.8589443"
       sodipodi:open="true"
       sodipodi:arc-type="arc"
       d="M 110.05702,32.639059 A 87.3125,87.3125 0 0 1 183.41178,131.91266 87.3125,87.3125 0 0 1 84.190049,205.33757 87.3125,87.3125 0 0 1 10.695026,106.16777 87.3125,87.3125 0 0 1 109.81285,32.602664" />
    <path
       style="opacity:0.228517;fill:#2b5d0a;fill-opacity:0.452136;fill-rule:evenodd;stroke:#2b5d0a;stroke-width:0.103;stroke-linejoin:round;stroke-opacity:1;stroke-miterlimit:4;stroke-dasharray:0.103,0.206;stroke-dashoffset:0"
       id="path835-3"
       sodipodi:type="arc"
       sodipodi:cx="97.541313"
       sodipodi:cy="124.19955"
       sodipodi:rx="87.3125"
       sodipodi:ry="13.300461"
       sodipodi:start="4.8617717"
       sodipodi:end="4.8589443"
       sodipodi:open="true"
       sodipodi:arc-type="arc"
       d="m 110.53584,111.04721 a 87.3125,13.300461 0 0 1 73.35475,15.12252 87.3125,13.300461 0 0 1 -99.221728,11.18494 87.3125,13.300461 0 0 1 -73.495023,-15.10671 87.3125,13.300461 0 0 1 99.117831,-11.20629" />
    <path
       style="fill:#a51d1e;stroke:#a51d1e;stroke-width:0.264583px;stroke-linecap:butt;stroke-linejoin:miter;stroke-opacity:1;marker-end:url(#Arrow1Lend)"
       d="m 102.35417,31.66667 c -35.718754,0 -34.395837,0 -34.395837,0 h -1.322917"
       id="path872" />
    <path
       style="fill:#a51d1e;stroke:#a51d1e;stroke-width:0.264583px;stroke-linecap:butt;stroke-linejoin:miter;stroke-opacity:1;marker-end:url(#Arrow1Lend-6)"
       d="M 87.704804,69.970433 C 52.087071,67.285996 53.40625,67.38542 53.40625,67.38542 L 52.087071,67.286"
       id="path872-5" />
    <path
       style="fill:#a51d1e;stroke:#a51d1e;stroke-width:0.264583px;stroke-linecap:butt;stroke-linejoin:miter;stroke-opacity:1;marker-end:url(#Arrow1Lend-3)"
       d="m 82.45918,107.11154 c -35.617733,-2.68447 -34.298557,-2.58505 -34.298557,-2.58505 l -1.319176,-0.0994"
       id="path872-6" />
    <path
       style="fill:#a51d1e;stroke:#a51d1e;stroke-width:0.283505px;stroke-linecap:butt;stroke-linejoin:miter;stroke-opacity:1;marker-end:url(#Arrow1Lend-2)"
       d="m 83.833333,138.82292 c -41.010416,0 -39.491512,0 -39.491512,0 h -1.518904"
       id="path872-1" />
    <path
       id="path860"
       style="fill:none;stroke:#000000;stroke-width:0.69999998;stroke-linecap:butt;stroke-linejoin:miter;stroke-miterlimit:4;stroke-dasharray:4.19999989,0.69999998;stroke-opacity:1;stroke-dashoffset:0"
       d="M 102.35417,31.66667 C 81.143314,64.313899 82.286164,110.99018 83.311879,138.88467 114.73865,138.63973 156.94989,139.84461 183.83089,128.2029 188.32427,75.947493 148.46675,34.958899 102.35417,31.66667 Z"
       sodipodi:nodetypes="cccc" />
    <path
       style="fill:#a51d1e;stroke:#a51d1e;stroke-width:0.264583px;stroke-linecap:butt;stroke-linejoin:miter;stroke-opacity:1;marker-end:url(#Arrow1Lend-36)"
       d="m 184.375,128.23959 c -35.71875,0 -34.39584,0 -34.39584,0 h -1.32291"
       id="path872-2" />
    <path
       style="fill:#a51d1e;stroke:#a51d1e;stroke-width:0.264583px;stroke-linecap:butt;stroke-linejoin:miter;stroke-opacity:1;marker-end:url(#Arrow1Lend-27)"
       d="m 151.30208,136.17709 c -35.71875,0 -34.39583,0 -34.39583,0 h -1.32292"
       id="path872-9" />
    <path
       style="fill:#a51d1e;stroke:#a51d1e;stroke-width:0.264583px;stroke-linecap:butt;stroke-linejoin:miter;stroke-opacity:1;marker-end:url(#Arrow1Lend-61)"
       d="m 181.46108,96.732873 c -34.06655,10.737737 -32.80483,10.340047 -32.80483,10.340047 l -1.26172,0.39769"
       id="path872-7" />
    <path
       style="fill:#a51d1e;stroke:#a51d1e;stroke-width:0.264583px;stroke-linecap:butt;stroke-linejoin:miter;stroke-opacity:1;marker-end:url(#Arrow1Lend-61-9)"
       d="m 160.36773,58.500733 c -24.94065,25.569373 -24.01692,24.622363 -24.01692,24.622363 l -0.92373,0.94701"
       id="path872-7-0" />
    <path
       style="fill:#a51d1e;stroke:#a51d1e;stroke-width:0.264583px;stroke-linecap:butt;stroke-linejoin:miter;stroke-opacity:1;marker-end:url(#Arrow1Lend-61-9-7)"
       d="M 130.13542,38.281253 C 110.53994,68.145042 111.2657,67.03898 111.2657,67.03898 l -0.72576,1.106062"
       id="path872-7-0-6" />
    <path
       style="fill:#a51d1e;stroke:#a51d1e;stroke-width:0.278424px;stroke-linecap:butt;stroke-linejoin:miter;stroke-opacity:1;marker-end:url(#Arrow1Lend-61-9-7-1)"
       d="M 102.90957,31.518431 C 83.099625,56.400735 83.833333,55.47917 83.833333,55.47917 l -0.733708,0.921565"
       id="path872-7-0-6-9" />
    <path
       id="path2265"
       style="fill:none;stroke:#000000;stroke-width:0.264583px;stroke-linecap:butt;stroke-linejoin:miter;stroke-opacity:1"
       d="m 116.20182,155.04895 c -6.93385,0.11649 -1.97127,13.17374 -10.95024,11.01019 -5.573671,-1.45463 -13.109,-0.5854 -14.011479,6.41538 -1.104482,5.84501 3.380854,12.4565 -3.352446,16.29291 -3.63546,7.28034 8.168597,9.74032 13.444515,9.76981 8.76572,0.91084 15.37615,-5.53638 21.25549,-10.80648 7.51842,-3.05221 16.27812,-0.58448 23.53043,-4.78535 6.09917,-1.87146 10.95634,-10.99939 3.37957,-14.41887 -5.6838,-2.00602 -14.57391,-1.01228 -11.45142,-10.02583 -2.17149,-9.81335 -12.63302,-0.97611 -18.2124,-2.48067 -1.18873,-0.39325 -2.37262,-0.85617 -3.63202,-0.97109 z" />
    <text
       xml:space="preserve"
       style="font-size:5.85463px;line-height:1.25;font-family:sans-serif;word-spacing:0px;stroke-width:0.146366"
       x="146.9744"
       y="128.7473"
       id="text950"
       transform="scale(0.71801317,1.3927321)"><tspan
         sodipodi:role="line"
         x="146.9744"
         y="128.7473"
         style="stroke-width:0.146366"
         id="tspan952">$A = \theta$</tspan></text>
    <text
       xml:space="preserve"
       style="font-size:10.5833px;line-height:1.25;font-family:sans-serif;word-spacing:0px;stroke-width:0.264583"
       x="97.23735"
       y="97.531906"
       id="text958"><tspan
         sodipodi:role="line"
         id="tspan956"
         x="97.23735"
         y="97.531906"
         style="stroke-width:0.264583">$A = \pi/2$</tspan></text>
    <path
       id="path1113-7"
       style="fill:none;stroke:#000dfd;stroke-width:0.465;stroke-linecap:butt;stroke-linejoin:miter;stroke-miterlimit:4;stroke-dasharray:0.465, 0.46500000000000002;stroke-dashoffset:0;stroke-opacity:1;marker-end:url(#marker1117-3)"
       d="m 86.479167,31.66667 c -34.082726,70.2332 -12.936087,102.9546 -9.846862,107.14299 4.664376,6.32398 91.595375,9.53626 96.334385,-10.80446 C 177.94988,106.61639 150.89266,64.032987 89.125,48.864586"
       sodipodi:nodetypes="cssc" />
  </g>
</svg>
