<?xml version="1.0" encoding="UTF-8" standalone="no"?>
<svg
   xmlns:dc="http://purl.org/dc/elements/1.1/"
   xmlns:cc="http://creativecommons.org/ns#"
   xmlns:rdf="http://www.w3.org/1999/02/22-rdf-syntax-ns#"
   xmlns:svg="http://www.w3.org/2000/svg"
   xmlns="http://www.w3.org/2000/svg"
   xmlns:xlink="http://www.w3.org/1999/xlink"
   xmlns:sodipodi="http://sodipodi.sourceforge.net/DTD/sodipodi-0.dtd"
   xmlns:inkscape="http://www.inkscape.org/namespaces/inkscape"
   width="465.07611mm"
   height="169.9512mm"
   viewBox="0 0 465.07611 169.9512"
   version="1.1"
   id="svg8"
   sodipodi:docname="2021-01-22_14-27.svg"
   inkscape:version="1.0.1 (3bc2e813f5, 2020-09-07, custom)">
  <defs
     id="defs2">
    <linearGradient
       inkscape:collect="always"
       id="linearGradient1179">
      <stop
         style="stop-color:#cd8282;stop-opacity:1;"
         offset="0"
         id="stop1175" />
      <stop
         style="stop-color:#cd8282;stop-opacity:0.50141126"
         offset="1"
         id="stop1177" />
    </linearGradient>
    <marker
       style="overflow:visible"
       id="Arrow1Lend"
       refX="0"
       refY="0"
       orient="auto"
       inkscape:stockid="Arrow1Lend"
       inkscape:isstock="true">
      <path
         transform="matrix(-0.8,0,0,-0.8,-10,0)"
         style="fill:#181c57;fill-opacity:1;fill-rule:evenodd;stroke:#181c57;stroke-width:1pt;stroke-opacity:1"
         d="M 0,0 5,-5 -12.5,0 5,5 Z"
         id="path875" />
    </marker>
    <filter
       inkscape:collect="always"
       style="color-interpolation-filters:sRGB"
       id="filter1029"
       x="-0.0099634931"
       width="1.019927"
       y="-0.023591704"
       height="1.0471834">
      <feGaussianBlur
         inkscape:collect="always"
         stdDeviation="0.36411503"
         id="feGaussianBlur1031" />
    </filter>
    <filter
       inkscape:collect="always"
       style="color-interpolation-filters:sRGB"
       id="filter1141"
       x="-0.024559215"
       width="1.0491184"
       y="-0.032602255"
       height="1.0652045">
      <feGaussianBlur
         inkscape:collect="always"
         stdDeviation="0.21406116"
         id="feGaussianBlur1143" />
    </filter>
    <radialGradient
       inkscape:collect="always"
       xlink:href="#linearGradient1179"
       id="radialGradient1183"
       cx="115.58334"
       cy="53.102749"
       fx="115.58334"
       fy="53.102749"
       r="44.727779"
       gradientTransform="matrix(1,-4.4570669e-7,9.3287165e-8,1.3605452,-4.9538018e-6,-19.415306)"
       gradientUnits="userSpaceOnUse" />
  </defs>
  <sodipodi:namedview
     id="base"
     pagecolor="#ffffff"
     bordercolor="#000000"
     borderopacity="1"
     inkscape:pageopacity="0.0"
     inkscape:pageshadow="2"
     inkscape:zoom="0.9899495"
     inkscape:cx="822.89318"
     inkscape:cy="322.52417"
     inkscape:document-units="mm"
     inkscape:current-layer="layer1"
     inkscape:document-rotation="0"
     showgrid="true"
     showborder="true"
     borderlayer="true"
     inkscape:showpageshadow="false"
     objecttolerance="10000"
     guidetolerance="10000"
     inkscape:snap-perpendicular="true"
     inkscape:snap-tangential="true"
     inkscape:window-width="1920"
     inkscape:window-height="1080"
     inkscape:window-x="3000"
     inkscape:window-y="0"
     inkscape:window-maximized="0">
    <sodipodi:guide
       position="82.482984,178.22566"
       orientation="0,793.70079"
       id="guide10" />
    <sodipodi:guide
       position="292.48298,178.22566"
       orientation="559.37008,0"
       id="guide12" />
    <sodipodi:guide
       position="292.48298,30.225659"
       orientation="0,-793.70079"
       id="guide14" />
    <sodipodi:guide
       position="82.482984,30.225659"
       orientation="-559.37008,0"
       id="guide16" />
    <inkscape:grid
       type="xygrid"
       id="grid20"
       dotted="true"
       units="px"
       originx="187.48299"
       originy="65.725544" />
  </sodipodi:namedview>
  <metadata
     id="metadata5">
    <rdf:RDF>
      <cc:Work
         rdf:about="">
        <dc:format>image/svg+xml</dc:format>
        <dc:type
           rdf:resource="http://purl.org/dc/dcmitype/StillImage" />
        <dc:title />
        <cc:license
           rdf:resource="" />
      </cc:Work>
    </rdf:RDF>
  </metadata>
  <g
     inkscape:label="Layer 1"
     inkscape:groupmode="layer"
     id="layer1"
     transform="translate(82.482984,-8.2744569)">
    <path
       id="path835"
       style="fill:none;stroke:#000000;stroke-width:0.565;stroke-linecap:butt;stroke-linejoin:miter;stroke-opacity:1;stroke-miterlimit:4;stroke-dasharray:none"
       d="m -79.756952,118.06031 c -6.736885,18.93748 -0.627798,42.61322 17.470751,52.86353 19.723308,12.16694 46.694669,8.15811 63.5681042,-7.17182 26.7976948,-18.27409 60.6876498,-15.80022 91.4371518,-13.65545 24.258105,0.98673 50.081355,3.2676 72.545765,-7.88231 21.43058,-10.05008 42.0049,-30.89453 39.80428,-56.266624 C 203.83405,69.723737 192.64789,56.721286 179.55594,48.132691 147.74987,25.785254 104.2262,16.286989 67.579821,32.032689 54.378635,37.983174 42.211814,47.190033 34.771395,59.759978 20.83834,78.256558 -4.126585,79.556725 -25.310427,80.186246 c -16.963983,0.649235 -37.758826,1.866049 -47.690871,17.963346 -3.785368,5.993078 -5.717353,12.955988 -6.755654,19.910718 z" />
    <path
       style="fill:none;fill-rule:evenodd;stroke:#a51d1e;stroke-width:0.9;stroke-linejoin:round;stroke-miterlimit:4;stroke-dasharray:none;stroke-dashoffset:0;stroke-opacity:0.981966"
       id="path837"
       sodipodi:type="arc"
       sodipodi:cx="-22"
       sodipodi:cy="126.91667"
       sodipodi:rx="31.75"
       sodipodi:ry="3.9687543"
       sodipodi:start="0.066042231"
       sodipodi:end="3.1010366"
       sodipodi:arc-type="arc"
       d="m 9.6807851,127.17859 a 31.75,3.9687543 0 0 1 -32.0853671,3.70651 31.75,3.9687543 0 0 1 -31.31931,-3.80752"
       sodipodi:open="true" />
    <path
       style="fill:none;fill-rule:evenodd;stroke:#a51d1e;stroke-width:1;stroke-linejoin:round;stroke-miterlimit:4;stroke-dasharray:none;stroke-opacity:0.981966"
       id="path839"
       sodipodi:type="arc"
       sodipodi:cx="129.79526"
       sodipodi:cy="105.60818"
       sodipodi:rx="47.625"
       sodipodi:ry="13.229166"
       sodipodi:start="6.1761698"
       sodipodi:end="3.1393511"
       sodipodi:open="true"
       sodipodi:arc-type="arc"
       d="m 177.14781,104.19515 a 47.625,13.229166 0 0 1 -20.63113,12.36362 47.625,13.229166 0 0 1 -48.98493,0.74407 47.625,13.229166 0 0 1 -25.361373,-11.66501" />
    <path
       id="path841"
       style="fill:none;stroke:#181c57;stroke-width:0.264583px;stroke-linecap:butt;stroke-linejoin:miter;stroke-opacity:1;marker-end:url(#Arrow1Lend)"
       d="M 160.56251,44.895834 C 210.97888,15.564202 255.96189,31.73038 290.20834,54.156251"
       sodipodi:nodetypes="cc" />
    <path
       style="fill:none;stroke:#000000;stroke-width:0.186544px;stroke-linecap:butt;stroke-linejoin:miter;stroke-opacity:1"
       d="M 311.375,30.343753 V 130.88542"
       id="path845"
       sodipodi:nodetypes="cc" />
    <path
       style="fill:none;stroke:#000000;stroke-width:0.186544px;stroke-linecap:butt;stroke-linejoin:miter;stroke-opacity:1"
       d="m 247.875,76.645836 134.71703,1.577995 v 0"
       id="path847"
       sodipodi:nodetypes="ccc" />
    <path
       id="path849"
       style="fill:none;stroke:#000000;stroke-width:0.487;stroke-linecap:butt;stroke-linejoin:miter;stroke-miterlimit:4;stroke-dasharray:none;stroke-opacity:1"
       d="m 298.14584,39.604168 c -8.94273,4.425208 -19.10153,11.953831 -25.41937,20.094626 -3.50027,4.454091 -3.62886,10.793319 -1.03578,15.710714 7.97166,6.02108 18.10127,10.056988 23.16896,19.189887 1.26546,4.02407 4.18523,6.913985 8.27316,8.196275 10.19031,3.87873 21.36336,0.0363 30.24872,-5.362667 4.75901,-3.066616 9.49469,-6.492797 13.00716,-10.976878 3.22267,-4.631827 0.42415,-10.345894 -2.49264,-14.330398 -2.39291,-3.836735 -6.24948,-7.423087 -6.24133,-12.242886 0.27071,-3.961438 4.59982,-5.145197 7.10986,-7.25699 3.20574,-3.240741 2.12757,-8.654506 -1.55934,-11.047777 -6.95395,-5.195259 -15.97356,-6.726973 -24.46955,-6.85917 -7.48361,0.143932 -12.56244,2.302705 -20.58985,4.885264 z"
       sodipodi:nodetypes="ccccccccccccc" />
    <text
       xml:space="preserve"
       style="font-size:7.46174px;line-height:1.25;font-family:sans-serif;word-spacing:0px;stroke-width:0.186544"
       x="207.9223"
       y="49.485405"
       id="text853"
       transform="scale(1.1228546,0.89058725)"><tspan
         sodipodi:role="line"
         x="207.9223"
         y="49.485405"
         style="stroke-width:0.186544"
         id="tspan855">$\CC$</tspan></text>
    <text
       xml:space="preserve"
       style="font-size:10.5833px;line-height:1.25;font-family:sans-serif;word-spacing:0px;stroke-width:0.264583"
       x="-14.176309"
       y="53.684402"
       id="text861"><tspan
         sodipodi:role="line"
         id="tspan859"
         x="-14.176309"
         y="53.684402"
         style="stroke-width:0.264583">$M$</tspan></text>
    <path
       style="fill:url(#radialGradient1183);fill-rule:evenodd;stroke:#181c57;stroke-width:0.6;stroke-linejoin:round;stroke-miterlimit:4;stroke-dasharray:0.6, 0.59999999999999998;stroke-dashoffset:0;stroke-opacity:0.981966;opacity:1;filter:url(#filter1029);fill-opacity:1"
       id="path863"
       sodipodi:type="arc"
       sodipodi:cx="114.34832"
       sodipodi:cy="52.627071"
       sodipodi:rx="43.853901"
       sodipodi:ry="18.520834"
       sodipodi:start="4.8617717"
       sodipodi:end="4.8589443"
       sodipodi:open="true"
       sodipodi:arc-type="arc"
       d="M 120.875,34.312501 A 43.853901,18.520834 0 0 1 157.71843,55.370539 43.853901,18.520834 0 0 1 107.88295,70.94552 43.853901,18.520834 0 0 1 70.969071,49.9095 43.853901,18.520834 0 0 1 120.75236,34.304781" />
    <path
       style="fill:#cd8282;fill-rule:evenodd;stroke:#181c57;stroke-width:0.419;stroke-linejoin:round;stroke-miterlimit:4;stroke-dasharray:0.419,0.419;stroke-dashoffset:0;stroke-opacity:0.981966;filter:url(#filter1141)"
       id="path863-3"
       sodipodi:type="arc"
       sodipodi:cx="297.91211"
       sodipodi:cy="61.947514"
       sodipodi:rx="10.459349"
       sodipodi:ry="7.8790069"
       sodipodi:start="4.8617717"
       sodipodi:end="4.8589443"
       sodipodi:open="true"
       sodipodi:arc-type="arc"
       d="m 299.46875,54.156254 a 10.459349,7.8790069 0 0 1 8.78732,8.958367 10.459349,7.8790069 0 0 1 -11.88598,6.625802 10.459349,7.8790069 0 0 1 -8.80412,-8.949 10.459349,7.8790069 0 0 1 11.87353,-6.638453" />
    <path
       id="path839-3"
       style="fill:none;fill-rule:evenodd;stroke:#a51d1e;stroke-width:0.999999;stroke-linejoin:round;stroke-miterlimit:4;stroke-dasharray:none;stroke-opacity:0.981966"
       d="m 108.96876,117.65625 c -1.211,-3.43396 4.07961,-7.66471 12.65421,-9.98121 8.5746,-2.3165 19.72197,-2.97743 28.98374,-1.71845 9.26178,1.25898 16.44899,4.23234 16.57038,7.73091"
       sodipodi:nodetypes="cssc" />
    <path
       id="path837-6"
       style="fill:none;fill-rule:evenodd;stroke:#a51d1e;stroke-width:0.746235;stroke-linejoin:round;stroke-miterlimit:4;stroke-dasharray:none;stroke-dashoffset:0;stroke-opacity:0.981966"
       d="m -47.135411,129.5625 c 4.231644,-8.02531 45.1585305,-6.36535 48.947917,0"
       sodipodi:nodetypes="cc" />
  </g>
</svg>
