<?xml version="1.0" encoding="UTF-8" standalone="no"?>
<svg
   xmlns:dc="http://purl.org/dc/elements/1.1/"
   xmlns:cc="http://creativecommons.org/ns#"
   xmlns:rdf="http://www.w3.org/1999/02/22-rdf-syntax-ns#"
   xmlns:svg="http://www.w3.org/2000/svg"
   xmlns="http://www.w3.org/2000/svg"
   xmlns:sodipodi="http://sodipodi.sourceforge.net/DTD/sodipodi-0.dtd"
   xmlns:inkscape="http://www.inkscape.org/namespaces/inkscape"
   width="590.29181mm"
   height="263.94614mm"
   viewBox="0 0 590.29181 263.94614"
   version="1.1"
   id="svg8"
   sodipodi:docname="2021-04-16_14-02.svg"
   inkscape:version="1.0.2 (e86c870879, 2021-01-15, custom)">
  <defs
     id="defs2">
    <marker
       style="overflow:visible"
       id="marker1382"
       refX="0"
       refY="0"
       orient="auto"
       inkscape:stockid="Arrow1Lstart"
       inkscape:isstock="true">
      <path
         transform="matrix(0.8,0,0,0.8,10,0)"
         style="fill:#bc2122;fill-opacity:1;fill-rule:evenodd;stroke:#bc2122;stroke-width:1pt;stroke-opacity:1"
         d="M 0,0 5,-5 -12.5,0 5,5 Z"
         id="path1380" />
    </marker>
    <marker
       style="overflow:visible"
       id="marker1336"
       refX="0"
       refY="0"
       orient="auto"
       inkscape:stockid="Arrow1Lstart"
       inkscape:isstock="true">
      <path
         transform="matrix(0.8,0,0,0.8,10,0)"
         style="fill:#bc2122;fill-opacity:1;fill-rule:evenodd;stroke:#bc2122;stroke-width:1pt;stroke-opacity:1"
         d="M 0,0 5,-5 -12.5,0 5,5 Z"
         id="path1334" />
    </marker>
    <marker
       style="overflow:visible"
       id="marker1296"
       refX="0"
       refY="0"
       orient="auto"
       inkscape:stockid="Arrow1Lstart"
       inkscape:isstock="true">
      <path
         transform="matrix(0.8,0,0,0.8,10,0)"
         style="fill:#bc2122;fill-opacity:1;fill-rule:evenodd;stroke:#bc2122;stroke-width:1pt;stroke-opacity:1"
         d="M 0,0 5,-5 -12.5,0 5,5 Z"
         id="path1294" />
    </marker>
    <marker
       style="overflow:visible"
       id="marker1262"
       refX="0"
       refY="0"
       orient="auto"
       inkscape:stockid="Arrow1Lstart"
       inkscape:isstock="true">
      <path
         transform="matrix(0.8,0,0,0.8,10,0)"
         style="fill:#bc2122;fill-opacity:1;fill-rule:evenodd;stroke:#bc2122;stroke-width:1pt;stroke-opacity:1"
         d="M 0,0 5,-5 -12.5,0 5,5 Z"
         id="path999" />
    </marker>
    <marker
       style="overflow:visible"
       id="marker961"
       refX="0"
       refY="0"
       orient="auto"
       inkscape:stockid="Arrow1Lend"
       inkscape:isstock="true">
      <path
         transform="matrix(-0.8,0,0,-0.8,-10,0)"
         style="fill:#bc2122;fill-opacity:1;fill-rule:evenodd;stroke:#bc2122;stroke-width:1pt;stroke-opacity:1"
         d="M 0,0 5,-5 -12.5,0 5,5 Z"
         id="path959" />
    </marker>
    <marker
       style="overflow:visible"
       id="Arrow1Lend"
       refX="0"
       refY="0"
       orient="auto"
       inkscape:stockid="Arrow1Lend"
       inkscape:isstock="true"
       inkscape:collect="always">
      <path
         transform="matrix(-0.8,0,0,-0.8,-10,0)"
         style="fill:#000000;fill-opacity:1;fill-rule:evenodd;stroke:#000000;stroke-width:1pt;stroke-opacity:1"
         d="M 0,0 5,-5 -12.5,0 5,5 Z"
         id="path909" />
    </marker>
    <marker
       style="overflow:visible"
       id="Arrow1Lstart"
       refX="0"
       refY="0"
       orient="auto"
       inkscape:stockid="Arrow1Lstart"
       inkscape:isstock="true">
      <path
         transform="matrix(0.8,0,0,0.8,10,0)"
         style="fill:#bc2122;fill-opacity:1;fill-rule:evenodd;stroke:#bc2122;stroke-width:1pt;stroke-opacity:1"
         d="M 0,0 5,-5 -12.5,0 5,5 Z"
         id="path906" />
    </marker>
  </defs>
  <sodipodi:namedview
     id="base"
     pagecolor="#ffffff"
     bordercolor="#000000"
     borderopacity="1"
     inkscape:pageopacity="0.0"
     inkscape:pageshadow="2"
     inkscape:zoom="0.49171951"
     inkscape:cx="929.92978"
     inkscape:cy="391.42309"
     inkscape:document-units="mm"
     inkscape:current-layer="layer1"
     inkscape:document-rotation="0"
     showgrid="true"
     showborder="true"
     borderlayer="true"
     inkscape:showpageshadow="false"
     objecttolerance="10000"
     guidetolerance="10000"
     inkscape:snap-perpendicular="true"
     inkscape:snap-tangential="true"
     inkscape:window-width="1920"
     inkscape:window-height="1080"
     inkscape:window-x="0"
     inkscape:window-y="0"
     inkscape:window-maximized="0">
    <sodipodi:guide
       position="43.234751,221.36201"
       orientation="0,793.70079"
       id="guide10" />
    <sodipodi:guide
       position="253.23475,221.36201"
       orientation="559.37008,0"
       id="guide12" />
    <sodipodi:guide
       position="253.23475,73.362014"
       orientation="0,-793.70079"
       id="guide14" />
    <sodipodi:guide
       position="43.234751,73.362014"
       orientation="-559.37008,0"
       id="guide16" />
    <inkscape:grid
       type="xygrid"
       id="grid20"
       dotted="true"
       units="px"
       originx="148.23475"
       originy="116.58413" />
  </sodipodi:namedview>
  <metadata
     id="metadata5">
    <rdf:RDF>
      <cc:Work
         rdf:about="">
        <dc:format>image/svg+xml</dc:format>
        <dc:type
           rdf:resource="http://purl.org/dc/dcmitype/StillImage" />
        <dc:title />
        <cc:license
           rdf:resource="" />
      </cc:Work>
    </rdf:RDF>
  </metadata>
  <g
     inkscape:label="Layer 1"
     inkscape:groupmode="layer"
     id="layer1"
     transform="translate(43.23475,42.584124)">
    <path
       id="path835-3"
       style="fill:#e9e9f2;stroke:#000000;stroke-width:0.264583px;stroke-linecap:butt;stroke-linejoin:miter;stroke-opacity:1"
       d="m 263.75,23.729168 c 49.22795,-8.162674 76.72917,140.229172 47.625,161.395842 92.60417,5.29166 197.69186,-22.2543 235.47917,-23.8125 C 525.16084,114.27658 481.94045,-5.0389137 501.875,-42.416664 c -66.90976,9.4672 -177.43216,29.71583 -238.125,66.145833"
       sodipodi:nodetypes="ccccc" />
    <path
       id="path835"
       style="fill:#e9e9f2;stroke:#000000;stroke-width:0.264583px;stroke-linecap:butt;stroke-linejoin:miter;stroke-opacity:1"
       d="M -43.166667,42.250002 C 6.0612828,34.087328 33.5625,182.47917 4.4583333,203.64584 97.0625,208.9375 202.15019,181.39154 239.9375,179.83334 218.24417,132.79741 175.02378,13.48192 194.95833,-23.89583 128.04857,-14.428629 17.526167,5.820005 -43.166667,42.250003"
       sodipodi:nodetypes="ccccc" />
    <path
       id="path864"
       style="fill:none;stroke:#69b628;stroke-width:1;stroke-linecap:butt;stroke-linejoin:miter;stroke-miterlimit:4;stroke-dasharray:none;stroke-opacity:1"
       d="M 46.791665,148 C 29.987354,96.293884 36.58617,45.38946 94.37073,35.34551 108.53672,31.710345 127.19592,21.814701 126.16666,4.7895054"
       sodipodi:nodetypes="ccc" />
    <path
       id="path866"
       style="fill:none;stroke:#3139ae;stroke-width:1;stroke-linecap:butt;stroke-linejoin:miter;stroke-miterlimit:4;stroke-dasharray:none;stroke-opacity:1"
       d="M 25.625,126.91667 C 1.8125,79.29167 156.90649,95.015377 157.22664,32.952851 157.16953,23.531301 155.31637,14.206748 152.625,5.2083363"
       sodipodi:nodetypes="ccc" />
    <path
       id="path868"
       style="fill:none;stroke:#bc2122;stroke-width:1;stroke-linecap:butt;stroke-linejoin:miter;stroke-miterlimit:4;stroke-dasharray:none;stroke-opacity:1"
       d="M 179.08333,42.250002 C 144.26024,30.546722 103.36433,56.426703 99.438857,93.110845 96.627008,114.12732 106.3011,135.38385 120.875,149.995" />
    <text
       xml:space="preserve"
       style="font-size:10.5833px;line-height:1.25;font-family:sans-serif;word-spacing:0px;stroke-width:0.264583"
       x="38.509449"
       y="27.27556"
       id="text872"><tspan
         sodipodi:role="line"
         id="tspan870"
         x="38.509449"
         y="27.27556"
         style="stroke-width:0.264583">$\hat{C}$</tspan></text>
    <text
       xml:space="preserve"
       style="font-size:10.5833px;line-height:1.25;font-family:sans-serif;word-spacing:0px;stroke-width:0.264583"
       x="60.090786"
       y="104.60435"
       id="text876"><tspan
         sodipodi:role="line"
         id="tspan874"
         x="60.090786"
         y="104.60435"
         style="stroke-width:0.264583">$E$</tspan></text>
    <text
       xml:space="preserve"
       style="font-size:10.5833px;line-height:1.25;font-family:sans-serif;word-spacing:0px;stroke-width:0.264583"
       x="125.67391"
       y="146.28433"
       id="text880"><tspan
         sodipodi:role="line"
         id="tspan878"
         x="125.67391"
         y="146.28433"
         style="stroke-width:0.264583">$\hat{D}$</tspan></text>
    <path
       id="path882"
       style="fill:none;stroke:#69b628;stroke-width:1;stroke-linecap:butt;stroke-linejoin:miter;stroke-miterlimit:4;stroke-dasharray:none;stroke-opacity:1"
       d="m 332.54166,105.75 c 29.13092,1.68949 33.48395,-29.363783 34.39584,-47.624997 0.73314,-12.471929 2.81837,-25.224826 14.99361,-26.640613 39.28409,-4.092874 62.64844,38.062478 91.58258,47.176378 8.39546,2.239373 18.37544,2.880551 25.39293,-3.163013 0.61307,-0.472711 1.20515,-0.972631 1.77397,-1.497753"
       sodipodi:nodetypes="cccccc" />
    <path
       id="path884"
       style="fill:none;stroke:#3139ae;stroke-width:1;stroke-linecap:butt;stroke-linejoin:miter;stroke-miterlimit:4;stroke-dasharray:none;stroke-opacity:1"
       d="m 332.54166,68.708335 c 29.83549,23.311042 75.14613,15.596222 101.68713,-9.11087 19.30897,-16.91534 -5.08828,-59.00445511 -24.01272,-31.768112 -15.16599,25.20812 -13.3846,57.04217 -9.23339,85.112417 2.08302,10.42713 5.56991,20.63854 10.93398,29.84987" />
    <circle
       style="opacity:1;fill:#ca4436;fill-opacity:0.881213;fill-rule:evenodd;stroke:#ca4436;stroke-width:0.814209;stroke-linejoin:round"
       id="path886"
       sodipodi:type="arc"
       sodipodi:cx="398.57901"
       sodipodi:cy="79.134163"
       sodipodi:rx="4.6323423"
       sodipodi:ry="4.0073562"
       sodipodi:start="5.0507036"
       sodipodi:end="5.0265308"
       sodipodi:open="true"
       sodipodi:arc-type="arc"
       d="m 400.11647,75.353962 a 4.6323423,4.0073562 0 0 1 2.84151,5.087365 4.6323423,4.0073562 0 0 1 -5.86351,2.488835 4.6323423,4.0073562 0 0 1 -2.91237,-5.057283 4.6323423,4.0073562 0 0 1 5.82831,-2.54996" />
    <text
       xml:space="preserve"
       style="font-size:10.5833px;line-height:1.25;font-family:sans-serif;word-spacing:0px;stroke-width:0.264583"
       x="411.91666"
       y="84.583336"
       id="text890"><tspan
         sodipodi:role="line"
         id="tspan888"
         x="411.91666"
         y="84.583336"
         style="stroke-width:0.264583">$p$</tspan></text>
    <text
       xml:space="preserve"
       style="font-size:10.5833px;line-height:1.25;font-family:sans-serif;word-spacing:0px;stroke-width:0.264583"
       x="337.83331"
       y="121.625"
       id="text894"><tspan
         sodipodi:role="line"
         id="tspan892"
         x="337.83331"
         y="121.625"
         style="stroke-width:0.264583">$C$</tspan></text>
    <text
       xml:space="preserve"
       style="font-size:10.5833px;line-height:1.25;font-family:sans-serif;word-spacing:0px;stroke-width:0.264583"
       x="441.41058"
       y="9.0715714"
       id="text898"><tspan
         sodipodi:role="line"
         id="tspan896"
         x="441.41058"
         y="9.0715714"
         style="stroke-width:0.264583">$D$</tspan></text>
    <text
       xml:space="preserve"
       style="font-size:10.5833px;line-height:1.25;font-family:sans-serif;word-spacing:0px;stroke-width:0.264583"
       x="426.41318"
       y="197.02567"
       id="text902"><tspan
         sodipodi:role="line"
         id="tspan900"
         x="426.41318"
         y="197.02567"
         style="stroke-width:0.264583">$S$</tspan></text>
    <path
       style="fill:none;stroke:#000000;stroke-width:1.2;stroke-linecap:butt;stroke-linejoin:miter;stroke-miterlimit:4;stroke-dasharray:none;stroke-opacity:1;marker-end:url(#Arrow1Lend)"
       d="m 226.70833,79.291668 h 63.5"
       id="path904" />
    <text
       xml:space="preserve"
       style="font-size:10.5833px;line-height:1.25;font-family:sans-serif;word-spacing:0px;stroke-width:0.264583"
       x="245.55984"
       y="67.785774"
       id="text1222"><tspan
         sodipodi:role="line"
         id="tspan1220"
         x="245.55984"
         y="67.785774"
         style="stroke-width:0.264583">$\pi$</tspan></text>
    <circle
       style="opacity:0.702942;fill:#f5e7e7;fill-opacity:0.881213;fill-rule:evenodd;stroke:#cd8282;stroke-width:1;stroke-linejoin:round;stroke-miterlimit:4;stroke-dasharray:none"
       id="path1456"
       sodipodi:type="arc"
       sodipodi:cx="102.65513"
       sodipodi:cy="79.791275"
       sodipodi:rx="3.3072915"
       sodipodi:ry="3.3072915"
       sodipodi:start="5.0507036"
       sodipodi:end="5.0265308"
       sodipodi:open="true"
       sodipodi:arc-type="arc"
       d="m 103.75281,76.671456 a 3.3072915,3.3072915 0 0 1 2.02871,4.198628 3.3072915,3.3072915 0 0 1 -4.18629,2.054049 3.3072915,3.3072915 0 0 1 -2.079307,-4.173802 3.3072915,3.3072915 0 0 1 4.161157,-2.104495" />
    <circle
       style="opacity:0.702942;fill:#f5e7e7;fill-opacity:0.881213;fill-rule:evenodd;stroke:#cd8282;stroke-width:1;stroke-linejoin:round;stroke-miterlimit:4;stroke-dasharray:none"
       id="path1456-6"
       sodipodi:type="arc"
       sodipodi:cx="156.63011"
       sodipodi:cy="40.103775"
       sodipodi:rx="3.3072915"
       sodipodi:ry="3.3072915"
       sodipodi:start="5.0507036"
       sodipodi:end="5.0265308"
       sodipodi:open="true"
       sodipodi:arc-type="arc"
       d="m 157.72779,36.983956 a 3.3072915,3.3072915 0 0 1 2.02872,4.198628 3.3072915,3.3072915 0 0 1 -4.18629,2.054049 3.3072915,3.3072915 0 0 1 -2.07931,-4.173802 3.3072915,3.3072915 0 0 1 4.16116,-2.104495" />
    <text
       xml:space="preserve"
       style="font-size:10.5833px;line-height:1.25;font-family:sans-serif;word-spacing:0px;stroke-width:0.264583"
       x="88.087456"
       y="219.63603"
       id="text902-7"><tspan
         sodipodi:role="line"
         x="88.087456"
         y="219.63603"
         style="stroke-width:0.264583"
         id="tspan1520">$\hat{S}$</tspan></text>
  </g>
</svg>
