<?xml version="1.0" encoding="UTF-8" standalone="no"?>
<svg
   xmlns:dc="http://purl.org/dc/elements/1.1/"
   xmlns:cc="http://creativecommons.org/ns#"
   xmlns:rdf="http://www.w3.org/1999/02/22-rdf-syntax-ns#"
   xmlns:svg="http://www.w3.org/2000/svg"
   xmlns="http://www.w3.org/2000/svg"
   xmlns:sodipodi="http://sodipodi.sourceforge.net/DTD/sodipodi-0.dtd"
   xmlns:inkscape="http://www.inkscape.org/namespaces/inkscape"
   width="210mm"
   height="148mm"
   viewBox="0 0 210 148"
   version="1.1"
   id="svg8"
   sodipodi:docname="2021-01-27_14-05.svg"
   inkscape:version="1.0.1 (3bc2e813f5, 2020-09-07, custom)">
  <defs
     id="defs2">
    <marker
       style="overflow:visible;"
       id="marker1264"
       refX="0.0"
       refY="0.0"
       orient="auto"
       inkscape:stockid="Arrow1Lend"
       inkscape:isstock="true">
      <path
         transform="scale(0.8) rotate(180) translate(12.5,0)"
         style="fill-rule:evenodd;stroke:#3139ae;stroke-width:1pt;stroke-opacity:1;fill:#3139ae;fill-opacity:1"
         d="M 0.0,0.0 L 5.0,-5.0 L -12.5,0.0 L 5.0,5.0 L 0.0,0.0 z "
         id="path1262" />
    </marker>
    <marker
       style="overflow:visible;"
       id="Arrow1Lend"
       refX="0.0"
       refY="0.0"
       orient="auto"
       inkscape:stockid="Arrow1Lend"
       inkscape:isstock="true">
      <path
         transform="scale(0.8) rotate(180) translate(12.5,0)"
         style="fill-rule:evenodd;stroke:#3139ae;stroke-width:1pt;stroke-opacity:1;fill:#3139ae;fill-opacity:1"
         d="M 0.0,0.0 L 5.0,-5.0 L -12.5,0.0 L 5.0,5.0 L 0.0,0.0 z "
         id="path969" />
    </marker>
    <marker
       style="overflow:visible"
       id="Arrow1Lstart"
       refX="0.0"
       refY="0.0"
       orient="auto"
       inkscape:stockid="Arrow1Lstart"
       inkscape:isstock="true">
      <path
         transform="scale(0.8) translate(12.5,0)"
         style="fill-rule:evenodd;stroke:#000000;stroke-width:1pt;stroke-opacity:1;fill:#000000;fill-opacity:1"
         d="M 0.0,0.0 L 5.0,-5.0 L -12.5,0.0 L 5.0,5.0 L 0.0,0.0 z "
         id="path966" />
    </marker>
  </defs>
  <sodipodi:namedview
     id="base"
     pagecolor="#ffffff"
     bordercolor="#000000"
     borderopacity="1"
     inkscape:pageopacity="0.0"
     inkscape:pageshadow="2"
     inkscape:zoom="2"
     inkscape:cx="467.52087"
     inkscape:cy="532.93674"
     inkscape:document-units="mm"
     inkscape:current-layer="layer1"
     inkscape:document-rotation="0"
     showgrid="true"
     showborder="true"
     borderlayer="true"
     inkscape:showpageshadow="false"
     objecttolerance="10000"
     guidetolerance="10000"
     inkscape:snap-perpendicular="true"
     inkscape:snap-tangential="true"
     inkscape:window-width="1900"
     inkscape:window-height="1029"
     inkscape:window-x="3009"
     inkscape:window-y="40"
     inkscape:window-maximized="0">
    <sodipodi:guide
       position="0,148"
       orientation="0,793.70079"
       id="guide10" />
    <sodipodi:guide
       position="210,148"
       orientation="559.37008,0"
       id="guide12" />
    <sodipodi:guide
       position="210,0"
       orientation="0,-793.70079"
       id="guide14" />
    <sodipodi:guide
       position="0,0"
       orientation="-559.37008,0"
       id="guide16" />
    <inkscape:grid
       type="xygrid"
       id="grid20"
       dotted="true"
       units="px"
       originx="105"
       originy="74.000003" />
  </sodipodi:namedview>
  <metadata
     id="metadata5">
    <rdf:RDF>
      <cc:Work
         rdf:about="">
        <dc:format>image/svg+xml</dc:format>
        <dc:type
           rdf:resource="http://purl.org/dc/dcmitype/StillImage" />
        <dc:title />
        <cc:license
           rdf:resource="" />
      </cc:Work>
    </rdf:RDF>
  </metadata>
  <g
     inkscape:label="Layer 1"
     inkscape:groupmode="layer"
     id="layer1">
    <path
       id="path837"
       style="fill:none;stroke:#000000;stroke-width:0.565;stroke-linecap:butt;stroke-linejoin:miter;stroke-opacity:1;stroke-miterlimit:4;stroke-dasharray:0.565,0.565;stroke-dashoffset:0"
       d="M 15.595134,85.504436 C 17.445589,74.514225 28.8214,69.145405 38.492661,66.492962 c 21.119193,-6.293682 42.882633,0.35336 63.762279,4.259232 21.03801,4.855067 42.9403,-0.01108 62.37932,-8.473389 5.48142,-2.197142 11.06328,-4.654519 14.7297,-8.811016 l 0.27284,0.286648" />
    <path
       style="fill:none;stroke:#000000;stroke-width:0.264583px;stroke-linecap:butt;stroke-linejoin:miter;stroke-opacity:1"
       d="m 30.916665,52.833335 c 0,52.916665 0,52.916665 0,52.916665"
       id="path850" />
    <path
       id="path852"
       style="fill:none;stroke:#000000;stroke-width:0.264583px;stroke-linecap:butt;stroke-linejoin:miter;stroke-opacity:1"
       d="m 36.208332,193.0625 c 8.531955,-6.91117 6.675698,-19.68216 0.951451,-27.74883 -3.809461,-7.91835 -12.982244,-10.78483 -17.096317,-18.28967 -3.624504,-5.8408 0.269867,-13.49275 1.592784,-18.78441 146.93756,-20.0702 156.4442,9.51813 183.88542,-5.29167 1.41466,11.28963 -8.02152,25.00966 -6.83698,38.52214 0.7323,8.35364 13.65867,17.17151 11.29531,23.65494 -15.47889,3.7958 -57.84997,3.6398 -74.17114,-1.18763 -24.95878,-4.2855 -51.574846,-8.90099 -75.999786,0.40445 -8.026078,2.47241 -15.864848,5.51021 -23.620742,8.72068 z"
       sodipodi:nodetypes="cccccscccc" />
    <path
       style="fill:none;stroke:#000000;stroke-width:0.264583px;stroke-linecap:butt;stroke-linejoin:miter;stroke-opacity:1"
       d="m 46.791667,47.54167 c 0,52.91666 0,52.91666 0,52.91666"
       id="path850-3" />
    <path
       style="fill:none;stroke:#000000;stroke-width:0.264583px;stroke-linecap:butt;stroke-linejoin:miter;stroke-opacity:1"
       d="m 65.312499,42.25 c 0,52.916667 0,52.916667 0,52.916667"
       id="path850-6" />
    <path
       style="fill:none;stroke:#000000;stroke-width:0.264583px;stroke-linecap:butt;stroke-linejoin:miter;stroke-opacity:1"
       d="m 81.1875,44.895836 c 0,52.916667 0,52.916667 0,52.916667"
       id="path850-7" />
    <path
       style="fill:none;stroke:#000000;stroke-width:0.264583px;stroke-linecap:butt;stroke-linejoin:miter;stroke-opacity:1"
       d="m 97.0625,47.54167 c 0,52.91667 0,52.91667 0,52.91667"
       id="path850-5" />
    <path
       style="fill:none;stroke:#000000;stroke-width:0.264583px;stroke-linecap:butt;stroke-linejoin:miter;stroke-opacity:1"
       d="m 115.58333,52.833336 c 0,52.916664 0,52.916664 0,52.916664"
       id="path850-35" />
    <path
       style="fill:none;stroke:#000000;stroke-width:0.264583px;stroke-linecap:butt;stroke-linejoin:miter;stroke-opacity:1"
       d="m 131.45833,55.47917 c 0,52.91667 0,52.91667 0,52.91667"
       id="path850-62" />
    <path
       style="fill:none;stroke:#000000;stroke-width:0.264583px;stroke-linecap:butt;stroke-linejoin:miter;stroke-opacity:1"
       d="m 147.33333,55.47917 c 0,52.91667 0,52.91667 0,52.91667"
       id="path850-9" />
    <path
       style="fill:none;stroke:#000000;stroke-width:0.264583px;stroke-linecap:butt;stroke-linejoin:miter;stroke-opacity:1"
       d="m 160.5625,52.833336 c 0,52.916664 0,52.916664 0,52.916664"
       id="path850-1" />
    <text
       xml:space="preserve"
       style="font-size:10.5833px;line-height:1.25;font-family:sans-serif;word-spacing:0px;stroke-width:0.264583"
       x="5.0880103"
       y="72.213226"
       id="text913"><tspan
         sodipodi:role="line"
         id="tspan911"
         x="5.0880103"
         y="72.213226"
         style="stroke-width:0.264583">$0$</tspan></text>
    <text
       xml:space="preserve"
       style="font-size:9.45654px;line-height:1.25;font-family:sans-serif;word-spacing:0px;stroke-width:0.236414"
       x="99.371193"
       y="31.248503"
       id="text917"
       transform="scale(0.7255613,1.3782433)"><tspan
         sodipodi:role="line"
         id="tspan915"
         x="99.371193"
         y="31.248503"
         style="stroke-width:0.236414">$\mathcal{E}$</tspan></text>
    <text
       xml:space="preserve"
       style="font-size:10.5833px;line-height:1.25;font-family:sans-serif;word-spacing:0px;stroke-width:0.264583"
       x="150.75392"
       y="135.58232"
       id="text921"><tspan
         sodipodi:role="line"
         id="tspan919"
         x="150.75392"
         y="135.58232"
         style="stroke-width:0.264583">$X$</tspan></text>
    <text
       xml:space="preserve"
       style="font-size:4.6432px;line-height:1.25;font-family:sans-serif;word-spacing:0px;stroke-width:0.11608"
       x="81.548302"
       y="153.11646"
       id="text929"
       transform="scale(0.9229932,1.0834316)"><tspan
         sodipodi:role="line"
         id="tspan927"
         x="81.548302"
         y="153.11646"
         style="stroke-width:0.11608">$v$</tspan></text>
    <text
       xml:space="preserve"
       style="font-size:4.91473px;line-height:1.25;font-family:sans-serif;word-spacing:0px;stroke-width:0.122868"
       x="62.513714"
       y="133.91443"
       id="text933"
       transform="scale(0.859251,1.1638043)"><tspan
         sodipodi:role="line"
         id="tspan931"
         x="62.513714"
         y="133.91443"
         style="stroke-width:0.122868">$p$</tspan></text>
    <text
       xml:space="preserve"
       style="font-size:5.1809px;line-height:1.25;font-family:sans-serif;word-spacing:0px;stroke-width:0.129523"
       x="82.759964"
       y="64.691727"
       id="text937"
       transform="scale(0.57943803,1.7258101)"><tspan
         sodipodi:role="line"
         id="tspan935"
         x="82.759964"
         y="64.691727"
         style="stroke-width:0.129523">$\tilde v\in\mathcal{E}_p$</tspan></text>
    <path
       id="path939"
       style="fill:none;stroke:#a51d1e;stroke-width:0.264583px;stroke-linecap:butt;stroke-linejoin:miter;stroke-opacity:1"
       d="m 65.312498,158.66667 c -2.997638,-6.42007 3.237986,-12.44149 8.667437,-14.88769 9.536634,-4.19098 19.734954,1.91007 25.69252,9.25958 5.700915,7.5188 12.610775,14.63225 21.860535,17.53822 9.88352,3.50287 20.61924,1.91847 30.7263,0.39767 9.96628,-2.67227 17.32362,-7.98966 24.17821,-13.95498"
       sodipodi:nodetypes="cccccc" />
    <path
       id="path941"
       style="fill:none;stroke:#a51d1e;stroke-width:0.264583px;stroke-linecap:butt;stroke-linejoin:miter;stroke-opacity:1"
       d="m 46.791665,89.875002 c 6.009311,-7.75135 16.783997,-4.477109 24.630329,-2.048241 8.597818,2.974047 17.564818,-0.642829 23.174963,-7.407398 7.315863,-7.200508 14.191373,-17.454004 25.360973,-18.146321 8.37993,1.132471 17.38867,6.818982 25.57689,1.845864 4.55182,-4.275856 9.47505,-6.16029 15.71412,-5.993904" />
    <path
       style="fill:none;stroke:#3139ae;stroke-width:0.264583px;stroke-linecap:butt;stroke-linejoin:miter;stroke-opacity:1;marker-end:url(#marker1264)"
       d="m 65.312498,158.66667 c 23.8125,0 23.8125,0 23.8125,0"
       id="path949" />
    <path
       style="fill:none;stroke:#3139ae;stroke-width:0.265;stroke-linecap:butt;stroke-linejoin:miter;stroke-miterlimit:4;stroke-dasharray:none;stroke-opacity:1;marker-end:url(#Arrow1Lend)"
       d="m 46.791667,89.875003 c 23.8125,0 23.8125,0 23.8125,0"
       id="path949-2" />
    <path
       id="path890"
       style="fill:none;stroke:#8aa678;stroke-width:0.264583px;stroke-linecap:butt;stroke-linejoin:miter;stroke-opacity:1"
       d="m 46.791665,89.875002 c 0.573754,-7.928631 2.696528,-16.696679 9.220726,-21.857403 2.956063,-2.194173 7.102541,-3.40426 10.473596,-1.385618 7.966519,3.879393 11.246153,14.105446 20.321304,16.204616 13.969399,5.583563 29.392049,2.556423 43.405479,-1.211969 9.86048,-3.533492 20.95826,-2.612744 30.34973,1.891034" />
    <path
       id="path892"
       style="fill:none;stroke:#8aa678;stroke-width:0.264583px;stroke-linecap:butt;stroke-linejoin:miter;stroke-opacity:1"
       d="m 65.312498,158.66667 c 10.524304,-8.25183 23.933931,-12.62145 37.242592,-12.91304 8.02999,0.47319 13.51814,7.20435 18.01004,13.131 6.80186,8.51239 13.41497,17.94129 23.44543,22.88956 6.2236,3.01938 13.73222,2.94795 20.12003,0.50816 9.4575,-4.21659 13.01441,-15.63751 12.30691,-25.26254" />
    <path
       style="opacity:1;fill:#021d1e;fill-opacity:1;fill-rule:evenodd;stroke:#3139ae;stroke-width:0.0754552;stroke-linejoin:round;stroke-miterlimit:4;stroke-dasharray:none;stroke-dashoffset:0;stroke-opacity:0.981966"
       id="path923"
       sodipodi:type="arc"
       sodipodi:cx="65.391304"
       sodipodi:cy="158.52777"
       sodipodi:rx="1.2482721"
       sodipodi:ry="1.197351"
       sodipodi:start="4.8617717"
       sodipodi:end="4.8589443"
       sodipodi:open="true"
       sodipodi:arc-type="arc"
       d="m 65.577082,157.34375 a 1.2482721,1.197351 0 0 1 1.048723,1.36138 1.2482721,1.197351 0 0 1 -1.418533,1.00691 1.2482721,1.197351 0 0 1 -1.050729,-1.35996 1.2482721,1.197351 0 0 1 1.417048,-1.00882" />
    <path
       style="opacity:1;fill:#021d1e;fill-opacity:1;fill-rule:evenodd;stroke:#3139ae;stroke-width:0.0754552;stroke-linejoin:round;stroke-miterlimit:4;stroke-dasharray:none;stroke-dashoffset:0;stroke-opacity:0.981966"
       id="path923-3"
       sodipodi:type="arc"
       sodipodi:cx="176.25522"
       sodipodi:cy="157.20535"
       sodipodi:rx="1.2482721"
       sodipodi:ry="1.197351"
       sodipodi:start="4.8617717"
       sodipodi:end="4.8589443"
       sodipodi:open="true"
       sodipodi:arc-type="arc"
       d="m 176.441,156.02134 a 1.2482721,1.197351 0 0 1 1.04872,1.36137 1.2482721,1.197351 0 0 1 -1.41853,1.00691 1.2482721,1.197351 0 0 1 -1.05073,-1.35996 1.2482721,1.197351 0 0 1 1.41705,-1.00882" />
    <path
       style="opacity:1;fill:#021d1e;fill-opacity:1;fill-rule:evenodd;stroke:#3139ae;stroke-width:0.0754552;stroke-linejoin:round;stroke-miterlimit:4;stroke-dasharray:none;stroke-dashoffset:0;stroke-opacity:0.981966"
       id="path923-6"
       sodipodi:type="arc"
       sodipodi:cx="160.64479"
       sodipodi:cy="58.251186"
       sodipodi:rx="1.2482721"
       sodipodi:ry="1.197351"
       sodipodi:start="4.8617717"
       sodipodi:end="4.8589443"
       sodipodi:open="true"
       sodipodi:arc-type="arc"
       d="m 160.83057,57.06717 a 1.2482721,1.197351 0 0 1 1.04872,1.361378 1.2482721,1.197351 0 0 1 -1.41853,1.006905 1.2482721,1.197351 0 0 1 -1.05073,-1.359955 1.2482721,1.197351 0 0 1 1.41705,-1.008827" />
    <path
       style="opacity:1;fill:#021d1e;fill-opacity:1;fill-rule:evenodd;stroke:#3139ae;stroke-width:0.0754552;stroke-linejoin:round;stroke-miterlimit:4;stroke-dasharray:none;stroke-dashoffset:0;stroke-opacity:0.981966"
       id="path923-7"
       sodipodi:type="arc"
       sodipodi:cx="160.64131"
       sodipodi:cy="83.386101"
       sodipodi:rx="1.2482721"
       sodipodi:ry="1.197351"
       sodipodi:start="4.8617717"
       sodipodi:end="4.8589443"
       sodipodi:open="true"
       sodipodi:arc-type="arc"
       d="m 160.82709,82.202085 a 1.2482721,1.197351 0 0 1 1.04872,1.361378 1.2482721,1.197351 0 0 1 -1.41853,1.006905 1.2482721,1.197351 0 0 1 -1.05073,-1.359955 1.2482721,1.197351 0 0 1 1.41705,-1.008828" />
    <path
       style="opacity:1;fill:#021d1e;fill-opacity:1;fill-rule:evenodd;stroke:#3139ae;stroke-width:0.0754552;stroke-linejoin:round;stroke-miterlimit:4;stroke-dasharray:none;stroke-dashoffset:0;stroke-opacity:0.981966"
       id="path923-5"
       sodipodi:type="arc"
       sodipodi:cx="46.609379"
       sodipodi:cy="89.736603"
       sodipodi:rx="1.2482721"
       sodipodi:ry="1.197351"
       sodipodi:start="4.8617717"
       sodipodi:end="4.8589443"
       sodipodi:open="true"
       sodipodi:arc-type="arc"
       d="m 46.795156,88.552587 a 1.2482721,1.197351 0 0 1 1.048724,1.361378 1.2482721,1.197351 0 0 1 -1.418533,1.006905 1.2482721,1.197351 0 0 1 -1.05073,-1.359955 1.2482721,1.197351 0 0 1 1.417049,-1.008828" />
    <text
       xml:space="preserve"
       style="font-size:4.91474px;line-height:1.25;font-family:sans-serif;word-spacing:0px;stroke-width:0.122868"
       x="200.08348"
       y="130.9668"
       id="text933-3"
       transform="scale(0.85925099,1.1638043)"><tspan
         sodipodi:role="line"
         id="tspan931-5"
         x="200.08348"
         y="130.9668"
         style="stroke-width:0.122868">$q$</tspan></text>
    <text
       xml:space="preserve"
       style="font-size:3.31107px;line-height:1.25;font-family:sans-serif;word-spacing:0px;stroke-width:0.0827763"
       x="56.936989"
       y="54.925495"
       id="text933-6"
       transform="scale(0.63680647,1.5703358)"><tspan
         sodipodi:role="line"
         id="tspan931-2"
         x="56.936989"
         y="54.925495"
         style="stroke-width:0.0827763">$\tilde p$</tspan></text>
    <text
       xml:space="preserve"
       style="font-size:4.91474px;line-height:1.25;font-family:sans-serif;word-spacing:0px;stroke-width:0.122868"
       x="190.84578"
       y="72.994209"
       id="text933-3-9"
       transform="scale(0.85925099,1.1638043)"><tspan
         sodipodi:role="line"
         id="tspan931-5-1"
         x="190.84578"
         y="72.994209"
         style="stroke-width:0.122868">$\tilde q_2$</tspan></text>
    <text
       xml:space="preserve"
       style="font-size:4.91474px;line-height:1.25;font-family:sans-serif;word-spacing:0px;stroke-width:0.122868"
       x="188.722"
       y="47.154858"
       id="text933-3-2"
       transform="scale(0.85925099,1.1638043)"><tspan
         sodipodi:role="line"
         id="tspan931-5-7"
         x="188.722"
         y="47.154858"
         style="stroke-width:0.122868">$\tilde q_1$</tspan></text>
    <text
       xml:space="preserve"
       style="font-size:4.21661px;line-height:1.25;font-family:sans-serif;word-spacing:0px;stroke-width:0.105415"
       x="150.07156"
       y="126.59716"
       id="text1072"
       transform="scale(0.81365462,1.2290227)"><tspan
         sodipodi:role="line"
         id="tspan1070"
         x="150.07156"
         y="126.59716"
         style="stroke-width:0.105415">$\gamma_1$</tspan></text>
    <text
       xml:space="preserve"
       style="font-size:4.21661px;line-height:1.25;font-family:sans-serif;word-spacing:0px;stroke-width:0.105415"
       x="118.97534"
       y="137.52032"
       id="text1072-0"
       transform="scale(0.81365462,1.2290227)"><tspan
         sodipodi:role="line"
         id="tspan1070-9"
         x="118.97534"
         y="137.52032"
         style="stroke-width:0.105415">$\gamma_2$</tspan></text>
  </g>
</svg>
