<?xml version="1.0" encoding="UTF-8" standalone="no"?>
<svg
   xmlns:dc="http://purl.org/dc/elements/1.1/"
   xmlns:cc="http://creativecommons.org/ns#"
   xmlns:rdf="http://www.w3.org/1999/02/22-rdf-syntax-ns#"
   xmlns:svg="http://www.w3.org/2000/svg"
   xmlns="http://www.w3.org/2000/svg"
   xmlns:sodipodi="http://sodipodi.sourceforge.net/DTD/sodipodi-0.dtd"
   xmlns:inkscape="http://www.inkscape.org/namespaces/inkscape"
   width="206.36983mm"
   height="133.76833mm"
   viewBox="0 0 206.36983 133.76833"
   version="1.1"
   id="svg8"
   sodipodi:docname="2021-01-20_13-59.svg"
   inkscape:version="1.0.1 (3bc2e813f5, 2020-09-07, custom)">
  <defs
     id="defs2" />
  <sodipodi:namedview
     id="base"
     pagecolor="#ffffff"
     bordercolor="#000000"
     borderopacity="1"
     inkscape:pageopacity="0.0"
     inkscape:pageshadow="2"
     inkscape:zoom="1.8228546"
     inkscape:cx="417.82596"
     inkscape:cy="210.04318"
     inkscape:document-units="mm"
     inkscape:current-layer="layer1"
     inkscape:document-rotation="0"
     showgrid="true"
     showborder="true"
     borderlayer="true"
     inkscape:showpageshadow="false"
     objecttolerance="10000"
     guidetolerance="10000"
     inkscape:snap-perpendicular="true"
     inkscape:snap-tangential="true"
     inkscape:window-width="1920"
     inkscape:window-height="1080"
     inkscape:window-x="1080"
     inkscape:window-y="1080"
     inkscape:window-maximized="0">
    <sodipodi:guide
       position="0.71941471,143.44397"
       orientation="0,793.70079"
       id="guide10" />
    <sodipodi:guide
       position="210.71941,143.44397"
       orientation="559.37008,0"
       id="guide12" />
    <sodipodi:guide
       position="210.71941,-4.5560286"
       orientation="0,-793.70079"
       id="guide14" />
    <sodipodi:guide
       position="0.71941471,-4.5560286"
       orientation="-559.37008,0"
       id="guide16" />
    <inkscape:grid
       type="xygrid"
       id="grid20"
       dotted="true"
       units="px"
       originx="105.71941"
       originy="64.324358" />
  </sodipodi:namedview>
  <metadata
     id="metadata5">
    <rdf:RDF>
      <cc:Work
         rdf:about="">
        <dc:format>image/svg+xml</dc:format>
        <dc:type
           rdf:resource="http://purl.org/dc/dcmitype/StillImage" />
        <dc:title />
        <cc:license
           rdf:resource="" />
      </cc:Work>
    </rdf:RDF>
  </metadata>
  <g
     inkscape:label="Layer 1"
     inkscape:groupmode="layer"
     id="layer1"
     transform="translate(0.71941471,-9.6756456)">
    <text
       xml:space="preserve"
       style="font-size:8.67621px;line-height:1.25;font-family:sans-serif;word-spacing:0px;stroke-width:0.216906"
       x="31.120712"
       y="19.511229"
       id="text847"
       transform="scale(1.034014,0.96710487)"><tspan
         sodipodi:role="line"
         x="31.120712"
         y="19.511229"
         style="stroke-width:0.216906"
         id="tspan849">$X$</tspan></text>
    <text
       xml:space="preserve"
       style="font-size:8.67621px;line-height:1.25;font-family:sans-serif;word-spacing:0px;stroke-width:0.216906"
       x="39.943714"
       y="99.304756"
       id="text843"
       transform="scale(1.034014,0.96710487)"><tspan
         sodipodi:role="line"
         id="tspan841"
         x="39.943714"
         y="99.304756"
         style="stroke-width:0.216906">$U_1$</tspan></text>
    <text
       xml:space="preserve"
       style="font-size:8.67621px;line-height:1.25;font-family:sans-serif;word-spacing:0px;stroke-width:0.216906"
       x="122.5719"
       y="113.98818"
       id="text848"
       transform="scale(1.034014,0.96710487)"><tspan
         sodipodi:role="line"
         id="tspan845"
         x="122.5719"
         y="113.98818"
         style="stroke-width:0.216906">$U_2$</tspan></text>
    <text
       xml:space="preserve"
       style="font-size:4.38887px;line-height:1.25;font-family:sans-serif;word-spacing:0px;stroke-width:0.109721"
       x="143.18916"
       y="70.559959"
       id="text852"
       transform="scale(0.82417123,1.2133401)"><tspan
         sodipodi:role="line"
         id="tspan850"
         x="143.18916"
         y="70.559959"
         style="stroke-width:0.109721">$s_2$</tspan><tspan
         sodipodi:role="line"
         x="143.18916"
         y="76.046043"
         style="stroke-width:0.109721"
         id="tspan854" /></text>
    <text
       xml:space="preserve"
       style="font-size:2.19123px;line-height:1.25;font-family:sans-serif;word-spacing:0px;stroke-width:0.0547808"
       x="68.438454"
       y="71.173454"
       id="text858"
       transform="scale(0.94362529,1.0597427)"><tspan
         sodipodi:role="line"
         id="tspan856"
         x="68.438454"
         y="71.173454"
         style="stroke-width:0.0547808">$s_1$</tspan></text>
    <text
       xml:space="preserve"
       style="font-size:8.67621px;line-height:1.25;font-family:sans-serif;word-spacing:0px;stroke-width:0.216906"
       x="79.030045"
       y="38.83157"
       id="text868"
       transform="scale(1.034014,0.96710487)"><tspan
         sodipodi:role="line"
         id="tspan866"
         x="79.030045"
         y="38.83157"
         style="stroke-width:0.216906">$U_3$</tspan><tspan
         sodipodi:role="line"
         x="79.030045"
         y="49.676834"
         style="stroke-width:0.216906"
         id="tspan870" /></text>
    <text
       xml:space="preserve"
       style="font-size:1.73162px;line-height:1.25;font-family:sans-serif;word-spacing:0px;stroke-width:0.0432906"
       x="100.41668"
       y="46.466949"
       id="text874"
       transform="scale(0.92236604,1.0841683)"><tspan
         sodipodi:role="line"
         x="100.41668"
         y="46.466949"
         style="stroke-width:0.0432906"
         id="tspan876">$s_3$</tspan><tspan
         sodipodi:role="line"
         x="100.41668"
         y="48.631474"
         style="stroke-width:0.0432906"
         id="tspan880" /></text>
    <path
       style="fill:none;fill-rule:evenodd;stroke:#a51d1e;stroke-width:0.481423;stroke-miterlimit:3.2;stroke-dasharray:none"
       d="M 102.4006,41.373565 A 32.393389,14.159525 0 0 1 129.61587,57.472766 32.393389,14.159525 0 0 1 92.804189,69.38022 32.393389,14.159525 0 0 1 65.537027,53.297808 32.393389,14.159525 0 0 1 102.31026,41.367679"
       id="path909" />
    <path
       style="fill:#cccdea;fill-rule:evenodd;stroke:#a51d1e;stroke-width:0.055652;stroke-miterlimit:3.2;stroke-dasharray:none"
       d="m 85.856267,88.576744 c -3.003674,-3.149055 -4.202411,-6.618512 -3.458347,-10.009361 0.66312,-3.021962 2.756158,-5.877151 6.182217,-8.433385 0.294976,-0.220086 0.662609,-0.484442 0.816961,-0.587458 l 0.280639,-0.187302 1.022218,0.09602 c 2.416059,0.226937 4.244103,0.30889 6.894875,0.309108 3.48914,2.1e-4 6.11823,-0.167529 9.45272,-0.603378 l 1.14398,-0.149531 0.45842,0.424533 c 1.54653,1.432206 2.5197,2.979469 2.89365,4.600713 0.0826,0.357763 0.0973,0.547278 0.0981,1.255438 8.5e-4,0.946752 -0.0588,1.301689 -0.36432,2.16005 -1.03767,2.915496 -4.38974,5.726497 -9.28896,7.789605 -4.188003,1.763604 -9.63533,3.065508 -15.051401,3.597265 -0.239257,0.02349 -0.5063,0.05167 -0.593432,0.06263 -0.152598,0.01917 -0.17051,0.0072 -0.487349,-0.324935 z"
       id="path921" />
    <path
       style="fill:none;fill-rule:evenodd;stroke:#a51d1e;stroke-width:0.481423;stroke-miterlimit:3.2;stroke-dasharray:none"
       d="m 84.36758,61.301785 a 32.393389,14.159525 0 0 1 27.21527,16.0992 A 32.393389,14.159525 0 0 1 74.771166,89.308441 32.393389,14.159525 0 0 1 47.504,73.226026 32.393389,14.159525 0 0 1 84.277233,61.295898"
       id="path907" />
    <path
       style="fill:none;fill-rule:evenodd;stroke:#a51d1e;stroke-width:0.481423;stroke-miterlimit:3.2;stroke-dasharray:none"
       d="m 128.10291,61.301787 a 40.202577,19.458048 0 0 1 33.77614,22.123554 40.202577,19.458048 0 0 1 -45.686,16.363244 A 40.202577,19.458048 0 0 1 82.352485,77.688103 40.202577,19.458048 0 0 1 127.99078,61.293698"
       id="path874-6" />
    <text
       xml:space="preserve"
       style="font-size:4.38887px;line-height:1.25;font-family:sans-serif;word-spacing:0px;stroke-width:0.109721"
       x="113.85784"
       y="64.820427"
       id="text862"
       inkscape:transform-center-x="1.1455589"
       inkscape:transform-center-y="-1.4582644"
       transform="scale(0.82417123,1.2133401)"><tspan
         sodipodi:role="line"
         id="tspan860"
         x="113.85784"
         y="64.820427"
         style="stroke-width:0.109721">$s$</tspan></text>
    <path
       id="path923"
       style="fill:none;stroke:#000000;stroke-width:0.216906px;stroke-linecap:butt;stroke-linejoin:miter;stroke-opacity:1"
       d="M 18.203863,47.666686 C 1.6376817,50.98865 -4.5155743,70.719347 1.8572397,84.04984 5.5624907,95.105154 18.421468,95.345097 27.486648,99.651963 c 14.042075,9.398817 15.444085,29.662297 32.365625,36.048047 11.476041,3.96471 22.434991,-3.21241 33.397731,-5.52836 19.954116,-5.6275 41.520776,0.67938 58.214176,11.36977 22.65243,7.05929 51.57241,-7.46337 54.07749,-30.49975 C 204.85864,96.805498 191.28078,88.076012 182.92119,77.546329 177.44906,70.728581 171.65308,61.237292 176.1346,52.765522 181.34681,39.618967 178.30046,21.431838 163.29094,15.230506 145.33741,6.1878937 116.88871,9.9079527 105.11898,15.569387 59.696357,28.787319 28.397488,15.014106 21.120019,33.919206 c -2.784739,4.323962 3.672049,11.290998 -2.916057,13.74748"
       sodipodi:nodetypes="ccccccccccccc" />
  </g>
</svg>
