<?xml version="1.0" encoding="UTF-8" standalone="no"?>
<svg
   xmlns:dc="http://purl.org/dc/elements/1.1/"
   xmlns:cc="http://creativecommons.org/ns#"
   xmlns:rdf="http://www.w3.org/1999/02/22-rdf-syntax-ns#"
   xmlns:svg="http://www.w3.org/2000/svg"
   xmlns="http://www.w3.org/2000/svg"
   xmlns:sodipodi="http://sodipodi.sourceforge.net/DTD/sodipodi-0.dtd"
   xmlns:inkscape="http://www.inkscape.org/namespaces/inkscape"
   width="85.69397mm"
   height="21.946371mm"
   viewBox="0 0 85.69397 21.946371"
   version="1.1"
   id="svg8"
   sodipodi:docname="2021-01-16_22-37.svg"
   inkscape:version="1.0.1 (3bc2e813f5, 2020-09-07, custom)">
  <defs
     id="defs2">
    <marker
       style="overflow:visible"
       id="Arrow1Lstart"
       refX="0"
       refY="0"
       orient="auto"
       inkscape:stockid="Arrow1Lstart"
       inkscape:isstock="true">
      <path
         transform="matrix(0.8,0,0,0.8,10,0)"
         style="fill:#a51d1e;fill-opacity:1;fill-rule:evenodd;stroke:#a51d1e;stroke-width:1pt;stroke-opacity:1"
         d="M 0,0 5,-5 -12.5,0 5,5 Z"
         id="path841" />
    </marker>
    <marker
       style="overflow:visible"
       id="Arrow1Lend"
       refX="0"
       refY="0"
       orient="auto"
       inkscape:stockid="Arrow1Lend"
       inkscape:isstock="true">
      <path
         transform="matrix(-0.8,0,0,-0.8,-10,0)"
         style="fill:#a51d1e;fill-opacity:1;fill-rule:evenodd;stroke:#a51d1e;stroke-width:1pt;stroke-opacity:1"
         d="M 0,0 5,-5 -12.5,0 5,5 Z"
         id="path844" />
    </marker>
  </defs>
  <sodipodi:namedview
     id="base"
     pagecolor="#ffffff"
     bordercolor="#000000"
     borderopacity="1"
     inkscape:pageopacity="0.0"
     inkscape:pageshadow="2"
     inkscape:zoom="2.8"
     inkscape:cx="169.88533"
     inkscape:cy="-2.2921819"
     inkscape:document-units="mm"
     inkscape:current-layer="layer1"
     inkscape:document-rotation="0"
     showgrid="true"
     showborder="true"
     borderlayer="true"
     inkscape:showpageshadow="false"
     objecttolerance="10000"
     guidetolerance="10000"
     inkscape:snap-perpendicular="true"
     inkscape:snap-tangential="true"
     inkscape:window-width="1920"
     inkscape:window-height="1080"
     inkscape:window-x="1079"
     inkscape:window-y="1094"
     inkscape:window-maximized="0"
     inkscape:snap-global="false">
    <sodipodi:guide
       position="-69.138335,96.938319"
       orientation="0,793.70079"
       id="guide10" />
    <sodipodi:guide
       position="140.86166,96.938319"
       orientation="559.37008,0"
       id="guide12" />
    <sodipodi:guide
       position="140.86166,-51.061679"
       orientation="0,-793.70079"
       id="guide14" />
    <sodipodi:guide
       position="-69.138335,-51.061679"
       orientation="-559.37008,0"
       id="guide16" />
    <inkscape:grid
       type="xygrid"
       id="grid20"
       dotted="true"
       units="px"
       originx="35.861665"
       originy="-0.99194688" />
  </sodipodi:namedview>
  <metadata
     id="metadata5">
    <rdf:RDF>
      <cc:Work
         rdf:about="">
        <dc:format>image/svg+xml</dc:format>
        <dc:type
           rdf:resource="http://purl.org/dc/dcmitype/StillImage" />
        <dc:title />
        <cc:license
           rdf:resource="" />
      </cc:Work>
    </rdf:RDF>
  </metadata>
  <g
     inkscape:label="Layer 1"
     inkscape:groupmode="layer"
     id="layer1"
     transform="translate(-69.138335,-74.99195)">
    <text
       xml:space="preserve"
       style="font-size:3.91605px;line-height:1.25;font-family:sans-serif;word-spacing:0px;stroke-width:0.0979014"
       x="162.99768"
       y="74.900841"
       id="text16"
       transform="scale(0.77925316,1.28328)"><tspan
         sodipodi:role="line"
         id="tspan14"
         x="162.99768"
         y="74.900841"
         style="stroke-width:0.0979014">$\tilde{\RR}$</tspan></text>
    <path
       style="fill:none;stroke:#a51d1e;stroke-width:0.264583px;stroke-linecap:butt;stroke-linejoin:miter;stroke-opacity:1;marker-start:url(#Arrow1Lstart);marker-end:url(#Arrow1Lend)"
       d="M 69.651987,87.229163 H 154.31865"
       id="path1269" />
    <path
       style="fill:none;fill-rule:evenodd;stroke:#55679e;stroke-width:0.0984748;stroke-miterlimit:3.2;stroke-dasharray:none;stroke-dashoffset:0.0999999"
       id="path1311"
       sodipodi:type="arc"
       sodipodi:cx="81.808556"
       sodipodi:cy="87.229164"
       sodipodi:rx="1.1319584"
       sodipodi:ry="2.6654007"
       sodipodi:start="1.4007646"
       sodipodi:end="4.8589443"
       sodipodi:open="true"
       sodipodi:arc-type="arc"
       d="m 82.000098,89.856128 a 1.1319584,2.6654007 0 0 1 -1.133327,-1.148246 1.1319584,2.6654007 0 0 1 -0.01448,-2.904971 1.1319584,2.6654007 0 0 1 1.121568,-1.210574" />
    <path
       style="fill:none;fill-rule:evenodd;stroke:#55679e;stroke-width:0.0836925;stroke-miterlimit:3.2;stroke-dasharray:none;stroke-dashoffset:0.0999999"
       id="path1311-3"
       sodipodi:type="arc"
       sodipodi:cx="96.504295"
       sodipodi:cy="87.200806"
       sodipodi:rx="0.8134672"
       sodipodi:ry="2.6790195"
       sodipodi:start="1.4007646"
       sodipodi:end="4.8589443"
       sodipodi:open="true"
       sodipodi:arc-type="arc"
       d="m 96.641945,89.841192 a 0.8134672,2.6790195 0 0 1 -0.814451,-1.154113 0.8134672,2.6790195 0 0 1 -0.01041,-2.919814 0.8134672,2.6790195 0 0 1 0.806,-1.21676" />
    <path
       style="fill:none;fill-rule:evenodd;stroke:#55679e;stroke-width:0.0826576;stroke-miterlimit:3.2;stroke-dasharray:none;stroke-dashoffset:0.0999999"
       id="path1311-6"
       sodipodi:type="arc"
       sodipodi:cx="-106.41465"
       sodipodi:cy="-100.50195"
       sodipodi:rx="0.79379243"
       sodipodi:ry="2.6779437"
       sodipodi:start="1.4007646"
       sodipodi:end="4.8589443"
       sodipodi:open="true"
       sodipodi:arc-type="arc"
       d="m -106.28033,-97.862627 a 0.79379243,2.6779437 0 0 1 -0.79475,-1.15365 0.79379243,2.6779437 0 0 1 -0.0102,-2.918643 0.79379243,2.6779437 0 0 1 0.78651,-1.21627"
       transform="matrix(-0.99191459,0.12690726,-0.0110611,-0.99993882,0,0)" />
    <path
       style="fill:none;fill-rule:evenodd;stroke:#55679e;stroke-width:0.0826592;stroke-miterlimit:3.2;stroke-dasharray:none;stroke-dashoffset:0.0999999"
       id="path1311-6-7"
       sodipodi:type="arc"
       sodipodi:cx="-143.25452"
       sodipodi:cy="-105.43211"
       sodipodi:rx="0.79379219"
       sodipodi:ry="2.6780429"
       sodipodi:start="1.4007646"
       sodipodi:end="4.8589443"
       sodipodi:open="true"
       sodipodi:arc-type="arc"
       d="m -143.1202,-102.79269 a 0.79379219,2.6780429 0 0 1 -0.79475,-1.15369 0.79379219,2.6780429 0 0 1 -0.0101,-2.91875 0.79379219,2.6780429 0 0 1 0.7865,-1.21632"
       transform="matrix(-0.99191398,0.126912,-0.01106068,-0.99993883,0,0)" />
    <path
       style="fill:none;fill-rule:evenodd;stroke:#55679e;stroke-width:0.0836925;stroke-miterlimit:3.2;stroke-dasharray:none;stroke-dashoffset:0.0999999"
       id="path1311-3-5"
       sodipodi:type="arc"
       sodipodi:cx="116.28671"
       sodipodi:cy="87.267311"
       sodipodi:rx="0.8134672"
       sodipodi:ry="2.6790195"
       sodipodi:start="1.4007646"
       sodipodi:end="4.8589443"
       sodipodi:open="true"
       sodipodi:arc-type="arc"
       d="m 116.42436,89.907697 a 0.8134672,2.6790195 0 0 1 -0.81445,-1.154113 0.8134672,2.6790195 0 0 1 -0.0104,-2.919814 0.8134672,2.6790195 0 0 1 0.806,-1.216759" />
    <path
       style="fill:none;fill-rule:evenodd;stroke:#55679e;stroke-width:0.0826576;stroke-miterlimit:3.2;stroke-dasharray:none;stroke-dashoffset:0.0999999"
       id="path1311-6-3"
       sodipodi:type="arc"
       sodipodi:cx="-133.70357"
       sodipodi:cy="-103.83121"
       sodipodi:rx="0.79379243"
       sodipodi:ry="2.6779437"
       sodipodi:start="1.4007646"
       sodipodi:end="4.8589443"
       sodipodi:open="true"
       sodipodi:arc-type="arc"
       d="m -133.56925,-101.19188 a 0.79379243,2.6779437 0 0 1 -0.79475,-1.15365 0.79379243,2.6779437 0 0 1 -0.0101,-2.91864 0.79379243,2.6779437 0 0 1 0.7865,-1.21627"
       transform="matrix(-0.99191459,0.12690726,-0.0110611,-0.99993882,0,0)" />
    <path
       style="fill:#000000;stroke:#2b5d0a;stroke-width:0.154787;stroke-miterlimit:3.31429;stroke-dasharray:none;stroke-opacity:1"
       d="m 94.416667,84.583336 c 0.01029,-0.0047 0.149248,-0.03121 0.308788,-0.05903 1.725225,-0.300861 2.7245,-1.350378 4.031179,-4.233862 0.0856,-0.188863 0.34745,-0.79125 0.58194,-1.33864 0.50989,-1.190343 0.701816,-1.620464 0.927596,-2.078857 0.62922,-1.277464 1.13652,-1.836206 1.63625,-1.802153 0.3308,0.02255 0.63212,0.249219 0.96335,0.72472 0.4029,0.578382 0.70156,1.188759 1.54437,3.15629 0.23448,0.54739 0.49635,1.149777 0.58194,1.33864 1.30964,2.890036 2.30455,3.932175 4.04492,4.236949 0.1671,0.02926 0.30035,0.05755 0.29611,0.06286 -0.0115,0.01448 -0.32489,-0.03847 -0.59993,-0.101376 -1.28986,-0.295009 -2.18606,-1.123059 -3.12879,-2.890862 -0.35293,-0.661802 -0.6012,-1.205438 -1.36035,-2.97868 -0.76308,-1.78244 -1.09649,-2.433121 -1.51672,-2.960077 -0.32244,-0.404312 -0.57125,-0.570819 -0.85297,-0.570819 -0.28171,0 -0.53052,0.166507 -0.85296,0.570819 -0.43181,0.541469 -0.74503,1.158294 -1.592926,3.136949 -0.62779,1.465036 -0.836418,1.927139 -1.129732,2.502357 -0.982978,1.927715 -1.858277,2.809037 -3.133489,3.155048 -0.263419,0.07147 -0.841475,0.171654 -0.748576,0.12973 z"
       id="path1686"
       sodipodi:nodetypes="ccsssssscsssssssssssc" />
    <path
       style="fill:#000000;stroke:#2b5d0a;stroke-width:0.177962;stroke-miterlimit:3.31429;stroke-dasharray:none;stroke-opacity:1"
       d="m 114.26042,84.583336 c 0.0158,-0.004 0.22897,-0.02689 0.47378,-0.05086 2.64668,-0.259229 4.17966,-1.163516 6.18431,-3.647992 0.13131,-0.162728 0.53307,-0.681759 0.89275,-1.153402 0.78224,-1.025629 1.07672,-1.396229 1.42305,-1.791192 0.9653,-1.100692 1.74357,-1.582117 2.51025,-1.552775 0.50749,0.01943 0.96974,0.214733 1.47789,0.624435 0.61807,0.498346 1.07625,1.024262 2.36923,2.719532 0.35973,0.471643 0.76149,0.990674 0.89281,1.153402 2.00914,2.49012 3.53548,3.388053 6.20543,3.650652 0.25631,0.02521 0.46077,0.04959 0.45428,0.05416 -0.0177,0.01248 -0.49843,-0.03315 -0.92037,-0.08735 -1.97881,-0.254187 -3.35371,-0.967653 -4.80001,-2.490833 -0.54142,-0.570222 -0.92232,-1.038634 -2.08692,-2.566499 -1.17072,-1.53579 -1.68219,-2.096433 -2.32689,-2.550469 -0.4946,-0.348364 -0.87636,-0.491832 -1.30852,-0.491832 -0.43215,0 -0.81391,0.143468 -1.30856,0.491832 -0.66245,0.466541 -1.14293,0.998012 -2.44377,2.702867 -0.96313,1.262308 -1.28311,1.660466 -1.73311,2.156087 -1.50803,1.660965 -2.85083,2.420331 -4.80721,2.718462 -0.40405,0.06158 -1.29091,0.1479 -1.14842,0.111777 z"
       id="path1686-3"
       sodipodi:nodetypes="ccsssssscsssssssssssc" />
    <text
       xml:space="preserve"
       style="font-size:2.40327px;line-height:1.25;font-family:sans-serif;word-spacing:0px;stroke-width:0.0600817"
       x="121.88596"
       y="78.415062"
       id="text1761"
       transform="scale(0.82372622,1.2139956)"><tspan
         sodipodi:role="line"
         id="tspan1759"
         x="121.88596"
         y="78.415062"
         style="stroke-width:0.0600817">$U_i$</tspan></text>
  </g>
</svg>
