<?xml version="1.0" encoding="UTF-8" standalone="no"?>
<svg
   xmlns:dc="http://purl.org/dc/elements/1.1/"
   xmlns:cc="http://creativecommons.org/ns#"
   xmlns:rdf="http://www.w3.org/1999/02/22-rdf-syntax-ns#"
   xmlns:svg="http://www.w3.org/2000/svg"
   xmlns="http://www.w3.org/2000/svg"
   xmlns:sodipodi="http://sodipodi.sourceforge.net/DTD/sodipodi-0.dtd"
   xmlns:inkscape="http://www.inkscape.org/namespaces/inkscape"
   width="210mm"
   height="148mm"
   viewBox="0 0 210 148"
   version="1.1"
   id="svg8"
   sodipodi:docname="2021-04-14_14-15.svg"
   inkscape:version="1.0.2 (e86c870879, 2021-01-15, custom)">
  <defs
     id="defs2" />
  <sodipodi:namedview
     id="base"
     pagecolor="#ffffff"
     bordercolor="#000000"
     borderopacity="1"
     inkscape:pageopacity="0.0"
     inkscape:pageshadow="2"
     inkscape:zoom="1.4622724"
     inkscape:cx="496.92031"
     inkscape:cy="484.85438"
     inkscape:document-units="mm"
     inkscape:current-layer="layer1"
     inkscape:document-rotation="0"
     showgrid="true"
     showborder="true"
     borderlayer="true"
     inkscape:showpageshadow="false"
     objecttolerance="10000"
     guidetolerance="10000"
     inkscape:snap-perpendicular="true"
     inkscape:snap-tangential="true"
     inkscape:window-width="1920"
     inkscape:window-height="1080"
     inkscape:window-x="0"
     inkscape:window-y="0"
     inkscape:window-maximized="0">
    <sodipodi:guide
       position="0,148"
       orientation="0,793.70079"
       id="guide10" />
    <sodipodi:guide
       position="210,148"
       orientation="559.37008,0"
       id="guide12" />
    <sodipodi:guide
       position="210,0"
       orientation="0,-793.70079"
       id="guide14" />
    <sodipodi:guide
       position="0,0"
       orientation="-559.37008,0"
       id="guide16" />
    <inkscape:grid
       type="xygrid"
       id="grid20"
       dotted="true"
       units="px"
       originx="105"
       originy="74.000003" />
  </sodipodi:namedview>
  <metadata
     id="metadata5">
    <rdf:RDF>
      <cc:Work
         rdf:about="">
        <dc:format>image/svg+xml</dc:format>
        <dc:type
           rdf:resource="http://purl.org/dc/dcmitype/StillImage" />
        <dc:title />
        <cc:license
           rdf:resource="" />
      </cc:Work>
    </rdf:RDF>
  </metadata>
  <g
     inkscape:label="Layer 1"
     inkscape:groupmode="layer"
     id="layer1">
    <path
       id="path835"
       style="fill:none;stroke:#000000;stroke-width:0.264583px;stroke-linecap:butt;stroke-linejoin:miter;stroke-opacity:1"
       d="m -85.5,105.75 c 12.772591,25.59764 14.672714,66.04733 53.49632,64.81486 36.1900648,4.63706 72.705238,-28.03444 106.1396,-2.80845 33.03077,23.35492 71.73585,-16.2103 61.24653,-50.76066 C 125.73393,74.905101 75.334848,65.724213 38.989941,74.808964 5.630098,81.291749 -31.254563,48.073681 -61.308752,76.18724 -70.638526,84.93052 -79.364851,94.432613 -85.5,105.75 Z" />
    <path
       id="path835-3"
       style="fill:none;stroke:#000000;stroke-width:0.264583px;stroke-linecap:butt;stroke-linejoin:miter;stroke-opacity:1"
       d="m 216.125,95.16667 c 12.77259,25.59764 14.67271,66.04733 53.49632,64.81486 36.19006,4.63706 72.70524,-28.03444 106.1396,-2.80845 33.03077,23.35492 71.73585,-16.2103 61.24653,-50.76066 -9.64852,-42.090649 -60.0476,-51.271537 -96.39251,-42.186786 -33.35984,6.482785 -70.2445,-26.735283 -100.29869,1.378276 -9.32978,8.74328 -18.0561,18.245373 -24.19125,29.56276 z" />
    <path
       style="fill:none;stroke:#000000;stroke-width:0.264583px;stroke-linecap:butt;stroke-linejoin:miter;stroke-opacity:1"
       d="m 25.625,116.33333 c -0.838726,4.30666 -3.821902,15.5909 0.035,18.71839 5.482158,4.44537 13.801166,1.93365 19.880518,0.88992 6.328989,-1.0866 12.720936,-2.32538 18.78444,0.66745 5.694524,2.81071 7.36301,7.55195 14.475732,7.37894 6.130616,-0.14913 10.833656,-2.09509 15.496217,-5.93283 1.246222,-1.02576 2.857463,-2.3043 3.741767,-3.70799 6.054546,-9.61063 0.589354,-24.14565 -9.600097,-28.47748 -6.459526,-2.74614 -10.058746,-1.86247 -16.4789,0.5562 -2.667066,1.00476 -5.389864,1.96609 -7.937085,3.26304 -4.050561,2.06239 -9.13263,5.07249 -13.908804,4.41252 -3.612245,-0.49913 -6.526358,-2.78477 -9.978049,-3.74507 -2.342716,-0.65178 -8.719671,-0.78146 -10.771761,0.70451 -1.566661,1.13446 -3.05267,3.55433 -3.738974,5.2724 z"
       id="path863" />
    <path
       style="fill:none;stroke:#666ac2;stroke-width:0.5;stroke-linecap:butt;stroke-linejoin:miter;stroke-opacity:1;stroke-miterlimit:4;stroke-dasharray:none"
       d="m 269.04166,137.5 c 6.07201,-0.91017 12.94488,-1.84127 18.42882,-4.85848 3.08625,-1.69803 2.95812,-1.93645 5.70714,-3.41136 3.2435,-1.74022 6.711,-2.8796 10.05364,-4.37545 3.23789,-1.44897 5.78839,-3.28969 8.76858,-5.11705 4.13734,-2.53688 8.36266,-4.4476 12.09463,-7.60141 3.58577,-3.03028 6.45634,-5.92843 8.76856,-10.01161 2.33547,-4.124282 6.50957,-11.07043 5.97172,-15.907347 -0.93945,-8.448532 -15.25407,-6.533631 -20.33405,-4.041719 -3.02244,1.482614 -7.49495,5.16151 -9.18437,8.157609 -2.07524,3.680386 -4.2068,14.136577 -3.09923,18.095067 1.05265,3.7621 3.81942,6.96397 6.76543,9.38126 4.19687,3.44366 8.53416,5.41224 13.87099,6.41484 15.82042,2.97209 33.79097,-1.77849 48.34062,-8.00929 4.59814,-1.96912 8.55485,-5.05587 12.69936,-7.78681 0.37156,-0.24483 0.76041,-0.46257 1.13387,-0.70452 0.32131,-0.20817 0.59278,-0.92308 0.9071,-0.70453 0.29496,0.20507 0.54369,0.46969 0.81553,0.70453"
       id="path865" />
    <path
       style="fill:none;stroke:#000000;stroke-width:0.264583px;stroke-linecap:butt;stroke-linejoin:miter;stroke-opacity:1"
       d="m 30.916665,153.375 c 2.423367,0.9106 5.902857,-0.045 8.085199,-1.48892 2.374643,-1.5712 3.872753,-4.36473 5.744942,-6.45194 0.929318,-1.03605 2.243074,-1.57216 3.061449,-2.74393 1.184209,-1.69559 2.059755,-3.59147 3.288213,-5.26537 1.03179,-1.40591 2.35074,-2.47447 3.326024,-3.93047 1.067498,-1.59368 1.865479,-3.36065 3.023647,-4.89457 0.975816,-1.2924 2.437215,-2.39108 3.590589,-3.5226 1.696316,-1.66419 2.90031,-4.00539 4.80005,-5.45077 0.844283,-0.64236 1.854525,-1.05892 2.721282,-1.66861 6.046766,-4.25336 11.766984,-8.19983 18.746642,-10.82738 3.299711,-1.2422 6.861534,-1.53939 10.167027,-2.70684 4.200921,-1.4837 8.088631,-3.8238 12.056811,-5.821566 0.72341,-0.364196 6.48805,-3.102938 3.28823,-3.435366"
       id="path867" />
    <text
       xml:space="preserve"
       style="font-size:10.5833px;line-height:1.25;font-family:sans-serif;word-spacing:0px;stroke-width:0.264583"
       x="327.24997"
       y="129.5625"
       id="text871"><tspan
         sodipodi:role="line"
         id="tspan869"
         x="327.24997"
         y="129.5625"
         style="stroke-width:0.264583">$1$</tspan></text>
    <text
       xml:space="preserve"
       style="font-size:10.5833px;line-height:1.25;font-family:sans-serif;word-spacing:0px;stroke-width:0.264583"
       x="284.91666"
       y="113.6875"
       id="text875"><tspan
         sodipodi:role="line"
         id="tspan873"
         x="284.91666"
         y="113.6875"
         style="stroke-width:0.264583">$-1$</tspan></text>
    <text
       xml:space="preserve"
       style="font-size:10.5833px;line-height:1.25;font-family:sans-serif;word-spacing:0px;stroke-width:0.264583"
       x="57.374996"
       y="140.14584"
       id="text879"><tspan
         sodipodi:role="line"
         id="tspan877"
         x="57.374996"
         y="140.14584"
         style="stroke-width:0.264583">$[1:1]$</tspan></text>
    <text
       xml:space="preserve"
       style="font-size:10.5833px;line-height:1.25;font-family:sans-serif;word-spacing:0px;stroke-width:0.264583"
       x="105"
       y="108.39584"
       id="text883"><tspan
         sodipodi:role="line"
         id="tspan881"
         x="105"
         y="108.39584"
         style="stroke-width:0.264583">$[1: -1]$</tspan></text>
  </g>
</svg>
