<?xml version="1.0" encoding="UTF-8" standalone="no"?>
<svg
   xmlns:dc="http://purl.org/dc/elements/1.1/"
   xmlns:cc="http://creativecommons.org/ns#"
   xmlns:rdf="http://www.w3.org/1999/02/22-rdf-syntax-ns#"
   xmlns:svg="http://www.w3.org/2000/svg"
   xmlns="http://www.w3.org/2000/svg"
   xmlns:sodipodi="http://sodipodi.sourceforge.net/DTD/sodipodi-0.dtd"
   xmlns:inkscape="http://www.inkscape.org/namespaces/inkscape"
   width="652.02612mm"
   height="427.5527mm"
   viewBox="0 0 652.02612 427.5527"
   version="1.1"
   id="svg8"
   sodipodi:docname="2021-02-24_14-33.svg"
   inkscape:version="1.0.2 (e86c870879, 2021-01-15)">
  <defs
     id="defs2">
    <marker
       style="overflow:visible"
       id="marker1199"
       refX="0"
       refY="0"
       orient="auto"
       inkscape:stockid="Arrow1Lstart"
       inkscape:isstock="true">
      <path
         transform="matrix(0.8,0,0,0.8,10,0)"
         style="fill:#000000;fill-opacity:1;fill-rule:evenodd;stroke:#000000;stroke-width:1pt;stroke-opacity:1"
         d="M 0,0 5,-5 -12.5,0 5,5 Z"
         id="path1197" />
    </marker>
    <marker
       style="overflow:visible"
       id="marker1135"
       refX="0"
       refY="0"
       orient="auto"
       inkscape:stockid="Arrow1Lend"
       inkscape:isstock="true">
      <path
         transform="matrix(-0.8,0,0,-0.8,-10,0)"
         style="fill:#000000;fill-opacity:1;fill-rule:evenodd;stroke:#000000;stroke-width:1pt;stroke-opacity:1"
         d="M 0,0 5,-5 -12.5,0 5,5 Z"
         id="path1133" />
    </marker>
    <marker
       style="overflow:visible"
       id="Arrow1Lstart"
       refX="0"
       refY="0"
       orient="auto"
       inkscape:stockid="Arrow1Lstart"
       inkscape:isstock="true"
       inkscape:collect="always">
      <path
         transform="matrix(0.8,0,0,0.8,10,0)"
         style="fill:#000000;fill-opacity:1;fill-rule:evenodd;stroke:#000000;stroke-width:1pt;stroke-opacity:1"
         d="M 0,0 5,-5 -12.5,0 5,5 Z"
         id="path934" />
    </marker>
    <marker
       style="overflow:visible"
       id="marker1455"
       refX="0"
       refY="0"
       orient="auto"
       inkscape:stockid="Arrow1Lend"
       inkscape:isstock="true"
       inkscape:collect="always">
      <path
         transform="matrix(-0.8,0,0,-0.8,-10,0)"
         style="fill:#000000;fill-opacity:1;fill-rule:evenodd;stroke:#000000;stroke-width:1pt;stroke-opacity:1"
         d="M 0,0 5,-5 -12.5,0 5,5 Z"
         id="path1453" />
    </marker>
    <marker
       style="overflow:visible"
       id="marker1339"
       refX="0"
       refY="0"
       orient="auto"
       inkscape:stockid="Arrow1Lend"
       inkscape:isstock="true"
       inkscape:collect="always">
      <path
         transform="matrix(-0.8,0,0,-0.8,-10,0)"
         style="fill:#000000;fill-opacity:1;fill-rule:evenodd;stroke:#000000;stroke-width:1pt;stroke-opacity:1"
         d="M 0,0 5,-5 -12.5,0 5,5 Z"
         id="path1337" />
    </marker>
    <marker
       style="overflow:visible"
       id="Arrow1Lend"
       refX="0"
       refY="0"
       orient="auto"
       inkscape:stockid="Arrow1Lend"
       inkscape:isstock="true"
       inkscape:collect="always">
      <path
         transform="matrix(-0.8,0,0,-0.8,-10,0)"
         style="fill:#000000;fill-opacity:1;fill-rule:evenodd;stroke:#000000;stroke-width:1pt;stroke-opacity:1"
         d="M 0,0 5,-5 -12.5,0 5,5 Z"
         id="path937" />
    </marker>
    <marker
       style="overflow:visible"
       id="marker1339-7"
       refX="0"
       refY="0"
       orient="auto"
       inkscape:stockid="Arrow1Lend"
       inkscape:isstock="true">
      <path
         transform="matrix(-0.8,0,0,-0.8,-10,0)"
         style="fill:#000000;fill-opacity:1;fill-rule:evenodd;stroke:#000000;stroke-width:1pt;stroke-opacity:1"
         d="M 0,0 5,-5 -12.5,0 5,5 Z"
         id="path1337-0" />
    </marker>
    <marker
       style="overflow:visible"
       id="Arrow1Lstart-3"
       refX="0"
       refY="0"
       orient="auto"
       inkscape:stockid="Arrow1Lstart"
       inkscape:isstock="true">
      <path
         transform="matrix(0.8,0,0,0.8,10,0)"
         style="fill:#000000;fill-opacity:1;fill-rule:evenodd;stroke:#000000;stroke-width:1pt;stroke-opacity:1"
         d="M 0,0 5,-5 -12.5,0 5,5 Z"
         id="path934-6" />
    </marker>
  </defs>
  <sodipodi:namedview
     id="base"
     pagecolor="#ffffff"
     bordercolor="#000000"
     borderopacity="1"
     inkscape:pageopacity="0.0"
     inkscape:pageshadow="2"
     inkscape:zoom="0.24748737"
     inkscape:cx="864.68406"
     inkscape:cy="553.07989"
     inkscape:document-units="mm"
     inkscape:current-layer="layer1"
     inkscape:document-rotation="0"
     showgrid="true"
     showborder="true"
     borderlayer="true"
     inkscape:showpageshadow="false"
     objecttolerance="10000"
     guidetolerance="10000"
     inkscape:snap-perpendicular="true"
     inkscape:snap-tangential="true"
     inkscape:window-width="1920"
     inkscape:window-height="1080"
     inkscape:window-x="3000"
     inkscape:window-y="485"
     inkscape:window-maximized="0">
    <sodipodi:guide
       position="248.66316,247.5527"
       orientation="0,793.70079"
       id="guide10" />
    <sodipodi:guide
       position="458.66316,247.5527"
       orientation="559.37008,0"
       id="guide12" />
    <sodipodi:guide
       position="458.66316,99.552704"
       orientation="0,-793.70079"
       id="guide14" />
    <sodipodi:guide
       position="248.66316,99.552704"
       orientation="-559.37008,0"
       id="guide16" />
    <inkscape:grid
       type="xygrid"
       id="grid20"
       dotted="true"
       units="px"
       originx="353.66317"
       originy="253.99999" />
  </sodipodi:namedview>
  <metadata
     id="metadata5">
    <rdf:RDF>
      <cc:Work
         rdf:about="">
        <dc:format>image/svg+xml</dc:format>
        <dc:type
           rdf:resource="http://purl.org/dc/dcmitype/StillImage" />
        <dc:title />
        <cc:license
           rdf:resource="" />
      </cc:Work>
    </rdf:RDF>
  </metadata>
  <g
     inkscape:label="Layer 1"
     inkscape:groupmode="layer"
     id="layer1"
     transform="translate(248.66316,180)">
    <path
       style="fill:none;stroke:#000000;stroke-width:1.04548;stroke-linecap:butt;stroke-linejoin:miter;stroke-miterlimit:3.9;stroke-dasharray:none;stroke-opacity:1;marker-start:url(#marker1199);marker-end:url(#marker1135)"
       d="m -96.083333,222.16667 c 497.416663,0 497.416663,0 497.416663,0"
       id="path849" />
    <path
       style="fill:none;stroke:#000000;stroke-width:0;stroke-linecap:butt;stroke-linejoin:miter;stroke-miterlimit:4;stroke-dasharray:none;stroke-opacity:1;marker-end:url(#Arrow1Lend)"
       d="m 115.58333,121.625 c 0,79.375 0,79.375 0,79.375"
       id="path932" />
    <text
       xml:space="preserve"
       style="font-size:10.5833px;line-height:1.25;font-family:sans-serif;word-spacing:0px;stroke-width:0.264583"
       x="-38.5592"
       y="238.52818"
       id="text1230"><tspan
         sodipodi:role="line"
         id="tspan1228"
         x="-38.5592"
         y="238.52818"
         style="stroke-width:0.264583">$0$</tspan></text>
    <text
       xml:space="preserve"
       style="font-size:10.5833px;line-height:1.25;font-family:sans-serif;word-spacing:0px;stroke-width:0.264583"
       x="331.69568"
       y="240.90509"
       id="text1234"><tspan
         sodipodi:role="line"
         id="tspan1232"
         x="331.69568"
         y="240.90509"
         style="stroke-width:0.264583">$1$</tspan></text>
    <text
       xml:space="preserve"
       style="font-size:10.5833px;line-height:1.25;font-family:sans-serif;word-spacing:0px;stroke-width:0.264583"
       x="114.39101"
       y="245.99724"
       id="text1238"><tspan
         sodipodi:role="line"
         id="tspan1236"
         x="114.39101"
         y="245.99724"
         style="stroke-width:0.264583">$\RR$</tspan></text>
    <g
       id="g1123"
       transform="translate(-215.18245,102.11919)">
      <g
         id="g1083"
         transform="translate(221.95957,-99.631425)"
         style="stroke:#181c57;stroke-width:0.6;stroke-miterlimit:4;stroke-dasharray:none">
        <path
           id="path835"
           style="fill:none;stroke:#181c57;stroke-width:0.6;stroke-linecap:butt;stroke-linejoin:miter;stroke-miterlimit:4;stroke-dasharray:none;stroke-opacity:1"
           d="m -9.7484643,41.151254 c -68.6920277,22.452775 -21.2856137,73.964426 8.4080023,65.371726 41.430799,-11.989187 116.558792,14.731 154.255892,8.90011 20.84334,-3.22399 36.67422,-21.946423 62.54403,-21.956956 25.86981,-0.01053 97.31502,24.575026 113.57369,-20.020919 C 345.29182,28.84927 259.76285,20.516523 232.10816,30.698456 204.45346,40.88039 202.45592,59.677941 145.45712,40.965507 121.44405,33.082129 96.267891,73.425129 78.832097,57.214761 61.396302,41.004394 12.678622,33.820705 -9.7484643,41.151254 Z"
           sodipodi:nodetypes="ssszzsszs" />
        <g
           id="g1071"
           style="stroke:#181c57;stroke-width:0.6;stroke-miterlimit:4;stroke-dasharray:none">
          <path
             id="path851"
             style="fill:none;stroke:#181c57;stroke-width:0.6;stroke-linecap:butt;stroke-linejoin:miter;stroke-miterlimit:4;stroke-dasharray:none;stroke-opacity:1"
             d="M -20.4125,71.618753 C -14.746972,79.578298 -6.2647263,85.382799 3.8790328,86.073356 23.9404,88.095227 39.799055,78.62522 45.46875,67.38542"
             sodipodi:nodetypes="ccc" />
          <path
             style="fill:none;stroke:#181c57;stroke-width:0.6;stroke-linecap:butt;stroke-linejoin:miter;stroke-miterlimit:4;stroke-dasharray:none;stroke-opacity:1"
             d="m -15.914583,76.645836 c 18.5752497,-13.976812 37.773367,-6.026772 53.710416,0"
             id="path853"
             sodipodi:nodetypes="cc" />
        </g>
        <g
           id="g1063"
           style="stroke:#181c57;stroke-width:0.6;stroke-miterlimit:4;stroke-dasharray:none">
          <path
             style="fill:none;stroke:#181c57;stroke-width:0.6;stroke-linecap:butt;stroke-linejoin:miter;stroke-miterlimit:4;stroke-dasharray:none;stroke-opacity:1"
             d="m 110.5821,67.798095 c 1.6458,6.4585 6.93393,11.865758 12.66155,15.091581 12.12491,6.828809 35.12696,7.22671 46.60204,-1.112403 3.73325,-2.713011 5.26889,-5.131437 6.59181,-11.74602"
             id="path855"
             sodipodi:nodetypes="cssc" />
        </g>
        <path
           id="path857"
           style="fill:none;stroke:#181c57;stroke-width:0.6;stroke-linecap:butt;stroke-linejoin:miter;stroke-miterlimit:4;stroke-dasharray:none;stroke-opacity:1"
           d="m 113.99583,74.793753 c 19.07801,-9.573736 43.31353,-7.342651 58.7375,4.497917"
           sodipodi:nodetypes="cc" />
        <g
           id="g1067"
           style="stroke:#181c57;stroke-width:0.6;stroke-miterlimit:4;stroke-dasharray:none">
          <path
             style="fill:none;stroke:#181c57;stroke-width:0.6;stroke-linecap:butt;stroke-linejoin:miter;stroke-miterlimit:4;stroke-dasharray:none;stroke-opacity:1"
             d="m 225.65,54.156253 c 0.26458,2.116667 0.97505,3.865887 1.68286,5.632547 11.70901,27.218496 66.8558,24.109238 72.13589,2.304953"
             id="path859"
             sodipodi:nodetypes="ccc" />
          <path
             style="fill:none;stroke:#181c57;stroke-width:0.6;stroke-linecap:butt;stroke-linejoin:miter;stroke-miterlimit:4;stroke-dasharray:none;stroke-opacity:1"
             d="m 228.03125,61.300003 c 16.68601,-4.844929 46.30208,-10.31875 69.05625,5.820833"
             id="path861"
             sodipodi:nodetypes="cc" />
        </g>
      </g>
      <path
         style="fill:#f5e7e7;fill-rule:evenodd;stroke:#181c57;stroke-width:3.2396;stroke-linejoin:round;stroke-miterlimit:4;stroke-dasharray:none"
         d="m 782.54041,25.238863 c -34.10646,-7.141994 -71.16038,-31.8716615 -91.48279,-61.055306 -17.55054,-25.203154 -23.86266,-50.236858 -19.11243,-75.799527 6.9673,-37.49348 41.21537,-71.15079 96.63693,-94.96999 48.99521,-21.05726 83.46006,-26.11016 149.5403,-21.92414 60.04127,3.80352 107.79198,13.84063 155.08608,32.59895 18.6467,7.39587 48.2392,24.32312 59.0079,33.75328 14.0464,12.30029 20.1978,15.2957 34.7172,16.90528 21.3693,2.36896 37.0748,-3.02975 76.0882,-26.15503 11.4516,-6.78793 28.8518,-17.09879 38.6672,-22.91304 34.714,-20.56324 59.3841,-29.32432 82.5347,-29.31051 11.0418,0.007 14.9127,0.78723 36.2348,7.30753 58.4864,17.88514 87.184,23.55273 127.068,25.09511 24.6451,0.95306 30.7911,0.72099 43.2187,-1.63189 25.7417,-4.87359 41.9958,-11.50532 74.938,-30.57481 23.9797,-13.88132 45.6069,-25.17793 59.7173,-31.19227 67.8478,-28.91922 201.6417,-24.09027 290.1466,10.47209 19.9651,7.79665 47.2986,24.07171 60.2408,35.86888 32.8613,29.95405 40.9276,67.63321 23.9087,111.682348 -15.7059,40.650513 -46.1077,68.810443 -90.6034,83.92198 -31.9839,10.8622998 -65.9804,14.2852673 -119.1735,11.99907067 -40.6383,-1.74661647 -61.8074,-4.11749027 -129.3433,-14.48609567 -55.1204,-8.462489 -93.9624,-11.178279 -114.3783,-7.997204 -33.9076,5.283246 -60.2469,15.2685224 -114.0167,43.223914 -19.1307,9.946166 -40.071,20.349898 -46.534,23.119392 C 1426.2276,60.068696 1396.297,63.59437 1330.0633,59.148031 1287.2545,56.274225 1263.9696,53.286279 1168.1948,38.37692 1048.9141,19.808355 999.15535,14.05134 949.60925,13.086909 c -47.00213,-0.914924 -77.77014,1.792271 -108.93351,9.584734 -24.98633,6.247892 -37.84643,6.815784 -58.13533,2.56722 z m 111.59286,-75.174404 c 34.51293,-3.379739 67.92061,-17.32984 91.43863,-38.182234 14.36009,-12.732445 29.5737,-33.518925 24.7557,-33.823825 -0.791,-0.0501 -3.6507,3.49428 -6.3548,7.87629 -6.0698,9.83625 -19.82787,24.821123 -22.62639,24.644028 -1.13895,-0.07207 -10.36687,-3.218063 -20.50647,-6.99108 -51.45813,-19.147918 -88.30872,-24.951118 -121.43816,-19.123928 -14.84498,2.6111 -38.26484,11.85402 -51.0204,20.135795 -5.13368,3.333135 -9.92241,6.022999 -10.64163,5.977485 -0.71923,-0.04551 -4.28784,-3.88497 -7.93025,-8.532114 -3.64242,-4.647146 -7.39431,-8.245246 -8.33754,-7.995796 -2.33411,0.61731 8.64014,14.260642 19.00546,23.62784 14.31408,12.935692 29.52911,21.978828 46.48559,27.628973 15.21147,5.068677 43.52246,7.074331 67.17026,4.758566 z m 513.96853,6.889929 c 44.2506,-3.502654 80.1671,-20.381222 91.3584,-42.932812 1.7888,-3.604623 4.1312,-10.835103 7.3844,-22.793416 0.5928,-2.1791 0.1862,-3.20894 -1.3044,-3.30326 -1.3066,-0.0827 -2.2477,1.15798 -2.3723,3.1277 -0.5001,7.90313 -9.244,29.060062 -11.9396,28.889479 -0.6555,-0.04148 -4.7706,-2.562247 -9.1446,-5.601698 -11.1407,-7.74164 -34.1434,-18.202791 -51.744,-23.532211 -11.683,-3.53753 -20.2847,-5.02346 -39.8041,-6.87603 -42.2569,-4.01057 -69.7079,-0.26822 -107.378,14.63868 l -13.0192,5.151941 -3.1097,-4.449891 c -1.7103,-2.44743 -4.3493,-7.89934 -5.8645,-12.11536 -1.5151,-4.21601 -3.5647,-7.72773 -4.5546,-7.8038 -2.1198,-0.16292 -0.01,6.82061 5.2923,17.48762 4.4449,8.948195 21.9088,28.177162 31.5235,34.709612 14.2972,9.713777 34.3871,17.82716 54.7643,22.116758 13.484,2.838497 44.2511,4.526343 59.9121,3.286688 z m 448.6712,-32.637714 c 48.7565,-2.843966 93.4115,-23.1879 108.3144,-49.345864 5.5611,-9.76114 8.0356,-17.57647 5.6135,-17.72974 -0.8822,-0.0558 -1.643,0.516 -1.6908,1.27073 -0.048,0.75473 -1.5964,4.74146 -3.4414,8.8594 l -3.3545,7.48715 -14.8229,-8.64459 c -47.8741,-27.91969 -109.1855,-37.30813 -179.0826,-27.4224 -16.2881,2.30367 -51.6125,9.73992 -59.9535,12.62097 -2.8394,0.98077 -5.4909,1.76243 -5.8922,1.73703 -1.1603,-0.0734 -6.0659,-12.00773 -7.52,-18.29485 -0.7297,-3.15468 -2.1407,-6.06555 -3.1355,-6.46861 -2.8442,-1.15237 -1.1469,5.88316 5.0247,20.82856 15.2256,36.87107 51.5946,61.729968 105.726,72.26582 9.4317,1.835742 42.0835,3.544009 54.2148,2.836394 z"
         id="path1109"
         transform="scale(0.26458333)" />
    </g>
    <path
       id="path1271"
       style="fill:none;stroke:#a51d1e;stroke-width:0.7;stroke-linecap:butt;stroke-linejoin:miter;stroke-miterlimit:4;stroke-dasharray:2.8, 0.7;stroke-dashoffset:0;stroke-opacity:1"
       d="M -37.875001,74.000002 C -3.9102524,44.844352 26.477312,43.904738 60.020833,60.770836 99.413472,80.577944 133.67327,57.11682 156.90516,58.888711 c 40.3908,3.080597 99.20908,-17.905233 131.78672,-18.664991 24.75193,-0.577251 39.60198,15.255451 49.14145,23.19295"
       sodipodi:nodetypes="csssc" />
    <path
       id="path1273"
       style="fill:none;stroke:#3e8213;stroke-width:0.7;stroke-linecap:butt;stroke-linejoin:miter;stroke-miterlimit:4;stroke-dasharray:2.1, 0.7;stroke-dashoffset:0;stroke-opacity:1"
       d="m 44.145833,77.968753 c 4.763504,8.855298 10.222529,5.012001 18.396075,1.471808 24.420107,-11.469209 37.413294,-7.006908 59.656012,-1.471808"
       sodipodi:nodetypes="ccc" />
    <path
       id="path1275"
       style="fill:none;fill-opacity:0.788235;stroke:#3e8213;stroke-width:0.7;stroke-linecap:butt;stroke-linejoin:miter;stroke-miterlimit:4;stroke-dasharray:2.1, 0.7;stroke-dashoffset:0;stroke-opacity:1"
       d="m -37.875001,74.000002 c 8.067418,13.805387 23.013344,14.830301 29.1041677,5.291668"
       sodipodi:nodetypes="cc" />
    <path
       id="path1277"
       style="fill:none;stroke:#3e8213;stroke-width:0.7;stroke-linecap:butt;stroke-linejoin:miter;stroke-miterlimit:4;stroke-dasharray:2.1, 0.7;stroke-dashoffset:0;stroke-opacity:1"
       d="m -37.875001,74.000002 c 9.807605,24.859947 51.397025,40.588568 83.343751,5.291668"
       sodipodi:nodetypes="cc" />
    <circle
       style="fill:#cd8282;fill-rule:evenodd;stroke:#a51d1e;stroke-width:0.308324;stroke-linejoin:round"
       id="path863-62"
       sodipodi:type="arc"
       sodipodi:cx="-37.562756"
       sodipodi:cy="74.450714"
       sodipodi:rx="3.2702885"
       sodipodi:ry="3.2559299"
       sodipodi:start="5.0265799"
       sodipodi:end="5.0265308"
       sodipodi:open="true"
       sodipodi:arc-type="arc"
       d="m -36.552082,71.354173 a 3.2702885,3.2559299 0 0 1 2.099536,4.102739 3.2702885,3.2559299 0 0 1 -4.120806,2.090368 3.2702885,3.2559299 0 0 1 -2.099638,-4.102688 3.2702885,3.2559299 0 0 1 4.120755,-2.090469" />
    <rect
       style="fill:#e0e1f3;fill-rule:evenodd;stroke:#e0e1f3;stroke-width:0.499999;stroke-linejoin:round;stroke-miterlimit:4;stroke-dasharray:none"
       id="rect1279"
       width="121.70833"
       height="100.54166"
       x="-191.33333"
       y="47.541668"
       ry="5.2916665" />
    <text
       xml:space="preserve"
       style="font-size:10.5833px;line-height:1.25;font-family:sans-serif;word-spacing:0px;stroke-width:0.264583"
       x="-173.06404"
       y="131.87859"
       id="text1283"><tspan
         sodipodi:role="line"
         id="tspan1281"
         x="-173.06404"
         y="131.87859"
         style="stroke-width:0.264583">$C$</tspan></text>
    <text
       xml:space="preserve"
       style="font-size:10.5833px;line-height:1.25;font-family:sans-serif;word-spacing:0px;stroke-width:0.264583"
       x="-6.125"
       y="-37.125"
       id="text1287"><tspan
         sodipodi:role="line"
         id="tspan1285"
         x="-6.125"
         y="-37.125"
         style="stroke-width:0.264583">$\gradient{f}$ has 8 zeros</tspan></text>
    <rect
       style="fill:#e0e1f3;fill-rule:evenodd;stroke:#e0e1f3;stroke-width:0.499999;stroke-linejoin:round;stroke-miterlimit:4;stroke-dasharray:none"
       id="rect1279-1"
       width="121.70833"
       height="100.54166"
       x="-161.26489"
       y="-138.31433"
       ry="5.2916665"
       transform="rotate(-18.653678)" />
    <path
       style="fill:none;stroke:#000000;stroke-width:0.256434px;stroke-linecap:butt;stroke-linejoin:miter;stroke-opacity:1;marker-end:url(#marker1339)"
       d="m -128.65638,145.4375 c 0,-39.6875 0,-39.6875 0,-39.6875"
       id="path1329" />
    <path
       style="fill:none;stroke:#000000;stroke-width:0.264583px;stroke-linecap:butt;stroke-linejoin:miter;stroke-opacity:1;marker-end:url(#marker1455)"
       d="m -129.15625,50.187503 c 0,31.75 0,31.75 0,31.75"
       id="path1445" />
    <path
       style="fill:none;stroke:#000000;stroke-width:0.264583px;stroke-linecap:butt;stroke-linejoin:miter;stroke-opacity:1;marker-start:url(#Arrow1Lstart)"
       d="m -186.04167,95.343617 c 42.33334,0 42.33334,0 42.33334,0"
       id="path1493" />
    <path
       style="fill:none;stroke:#000000;stroke-width:0.264583px;stroke-linecap:butt;stroke-linejoin:miter;stroke-opacity:1;marker-start:url(#Arrow1Lstart-3)"
       d="m -70.947917,95.16667 c -42.333333,0 -42.333333,0 -42.333333,0"
       id="path1493-0" />
    <path
       style="fill:#666ac2;stroke:#3e8213;stroke-width:1;stroke-linecap:butt;stroke-linejoin:miter;stroke-miterlimit:4;stroke-dasharray:none;stroke-opacity:1"
       d="m -170.16667,-116.5 c 0,111.125003 0,111.125003 0,111.125003"
       id="path1643" />
    <path
       style="fill:#666ac2;stroke:#3e8213;stroke-width:1;stroke-linecap:butt;stroke-linejoin:miter;stroke-miterlimit:4;stroke-dasharray:none;stroke-opacity:1"
       d="m -122.54167,-137.66667 c 0,136.260423 0,136.260423 0,136.260423"
       id="path1643-6" />
    <path
       style="fill:#666ac2;stroke:#3e8213;stroke-width:1;stroke-linecap:butt;stroke-linejoin:miter;stroke-miterlimit:4;stroke-dasharray:none;stroke-opacity:1"
       d="m -149,-142.95833 c 0,149.489583 0,149.489583 0,149.489583"
       id="path1643-2" />
    <path
       style="fill:#666ac2;stroke:#3e8213;stroke-width:1;stroke-linecap:butt;stroke-linejoin:miter;stroke-miterlimit:4;stroke-dasharray:none;stroke-opacity:1"
       d="m -90.79167,-142.95833 c 0,130.96875 0,130.96875 0,130.96875"
       id="path1643-61" />
    <path
       style="fill:#666ac2;stroke:#3e8213;stroke-width:1;stroke-linecap:butt;stroke-linejoin:miter;stroke-miterlimit:4;stroke-dasharray:none;stroke-opacity:1"
       d="m -69.625,-169.41667 c 0,142.875006 0,142.875006 0,142.875006"
       id="path1643-8" />
    <path
       style="fill:#666ac2;stroke:#3e8213;stroke-width:1;stroke-linecap:butt;stroke-linejoin:miter;stroke-miterlimit:4;stroke-dasharray:none;stroke-opacity:1"
       d="m -106.66667,-174.70833 c 0,142.875 0,142.875 0,142.875"
       id="path1643-7" />
    <path
       style="fill:#666ac2;stroke:#3e8213;stroke-width:1;stroke-linecap:butt;stroke-linejoin:miter;stroke-miterlimit:4;stroke-dasharray:none;stroke-opacity:1"
       d="m -186.04167,-180 c 0,127.000003 0,127.000003 0,127.000003"
       id="path1643-9" />
    <text
       xml:space="preserve"
       style="font-size:10.5833px;line-height:1.25;font-family:sans-serif;word-spacing:0px;stroke-width:0.264583"
       x="-249.54166"
       y="-47.708332"
       id="text1712"><tspan
         sodipodi:role="line"
         id="tspan1710"
         x="-249.54166"
         y="-47.708332"
         style="stroke-width:0.264583">$TC$</tspan></text>
    <circle
       style="fill:#cd8282;fill-rule:evenodd;stroke:#a51d1e;stroke-width:0.308324;stroke-linejoin:round"
       id="path863-62-3"
       sodipodi:type="arc"
       sodipodi:cx="44.458076"
       sodipodi:cy="78.419464"
       sodipodi:rx="3.2702885"
       sodipodi:ry="3.2559299"
       sodipodi:start="5.0265799"
       sodipodi:end="5.0265308"
       sodipodi:open="true"
       sodipodi:arc-type="arc"
       d="m 45.46875,75.322923 a 3.2702885,3.2559299 0 0 1 2.099536,4.102739 3.2702885,3.2559299 0 0 1 -4.120806,2.090368 3.2702885,3.2559299 0 0 1 -2.099638,-4.102688 3.2702885,3.2559299 0 0 1 4.120755,-2.090469" />
    <circle
       style="fill:#cd8282;fill-rule:evenodd;stroke:#a51d1e;stroke-width:0.308324;stroke-linejoin:round"
       id="path863-62-6"
       sodipodi:type="arc"
       sodipodi:cx="121.18724"
       sodipodi:cy="77.096542"
       sodipodi:rx="3.2702885"
       sodipodi:ry="3.2559299"
       sodipodi:start="5.0265799"
       sodipodi:end="5.0265308"
       sodipodi:open="true"
       sodipodi:arc-type="arc"
       d="m 122.19791,74.000001 a 3.2702885,3.2559299 0 0 1 2.09954,4.102739 3.2702885,3.2559299 0 0 1 -4.12081,2.090369 3.2702885,3.2559299 0 0 1 -2.09963,-4.102688 3.2702885,3.2559299 0 0 1 4.12075,-2.09047" />
    <circle
       style="fill:#cd8282;fill-rule:evenodd;stroke:#a51d1e;stroke-width:0.308324;stroke-linejoin:round"
       id="path863-62-7"
       sodipodi:type="arc"
       sodipodi:cx="179.39558"
       sodipodi:cy="81.065292"
       sodipodi:rx="3.2702885"
       sodipodi:ry="3.2559299"
       sodipodi:start="5.0265799"
       sodipodi:end="5.0265308"
       sodipodi:open="true"
       sodipodi:arc-type="arc"
       d="m 180.40626,77.968751 a 3.2702885,3.2559299 0 0 1 2.09953,4.102739 3.2702885,3.2559299 0 0 1 -4.1208,2.090369 3.2702885,3.2559299 0 0 1 -2.09964,-4.102688 3.2702885,3.2559299 0 0 1 4.12075,-2.09047" />
    <circle
       style="fill:#cd8282;fill-rule:evenodd;stroke:#a51d1e;stroke-width:0.308324;stroke-linejoin:round"
       id="path863-62-5"
       sodipodi:type="arc"
       sodipodi:cx="234.95824"
       sodipodi:cy="62.54451"
       sodipodi:rx="3.2702885"
       sodipodi:ry="3.2559299"
       sodipodi:start="5.0265799"
       sodipodi:end="5.0265308"
       sodipodi:open="true"
       sodipodi:arc-type="arc"
       d="m 235.96891,59.447968 a 3.2702885,3.2559299 0 0 1 2.09954,4.10274 3.2702885,3.2559299 0 0 1 -4.12081,2.090368 3.2702885,3.2559299 0 0 1 -2.09964,-4.102688 3.2702885,3.2559299 0 0 1 4.12076,-2.090469" />
    <circle
       style="fill:#cd8282;fill-rule:evenodd;stroke:#a51d1e;stroke-width:0.308324;stroke-linejoin:round"
       id="path863-62-35"
       sodipodi:type="arc"
       sodipodi:cx="297.13516"
       sodipodi:cy="65.190292"
       sodipodi:rx="3.2702885"
       sodipodi:ry="3.2559299"
       sodipodi:start="5.0265799"
       sodipodi:end="5.0265308"
       sodipodi:open="true"
       sodipodi:arc-type="arc"
       d="m 298.14584,62.093751 a 3.2702885,3.2559299 0 0 1 2.09953,4.102739 3.2702885,3.2559299 0 0 1 -4.1208,2.090369 3.2702885,3.2559299 0 0 1 -2.09964,-4.102688 3.2702885,3.2559299 0 0 1 4.12075,-2.09047" />
    <circle
       style="fill:#cd8282;fill-rule:evenodd;stroke:#a51d1e;stroke-width:0.308324;stroke-linejoin:round"
       id="path863-62-62"
       sodipodi:type="arc"
       sodipodi:cx="-8.4585896"
       sodipodi:cy="78.419464"
       sodipodi:rx="3.2702885"
       sodipodi:ry="3.2559299"
       sodipodi:start="5.0265799"
       sodipodi:end="5.0265308"
       sodipodi:open="true"
       sodipodi:arc-type="arc"
       d="m -7.4479164,75.322923 a 3.2702885,3.2559299 0 0 1 2.0995364,4.102739 3.2702885,3.2559299 0 0 1 -4.1208064,2.090368 3.2702885,3.2559299 0 0 1 -2.0996376,-4.102688 3.2702885,3.2559299 0 0 1 4.1207549,-2.090469" />
    <circle
       style="fill:#cd8282;fill-rule:evenodd;stroke:#a51d1e;stroke-width:0.308324;stroke-linejoin:round"
       id="path863-62-35-9"
       sodipodi:type="arc"
       sodipodi:cx="336.82266"
       sodipodi:cy="62.54446"
       sodipodi:rx="3.2702885"
       sodipodi:ry="3.2559299"
       sodipodi:start="5.0265799"
       sodipodi:end="5.0265308"
       sodipodi:open="true"
       sodipodi:arc-type="arc"
       d="m 337.83334,59.447919 a 3.2702885,3.2559299 0 0 1 2.09953,4.102739 3.2702885,3.2559299 0 0 1 -4.1208,2.090369 3.2702885,3.2559299 0 0 1 -2.09964,-4.102688 3.2702885,3.2559299 0 0 1 4.12075,-2.09047" />
    <path
       style="fill:none;stroke:#000000;stroke-width:0.265;stroke-linecap:butt;stroke-linejoin:miter;stroke-miterlimit:4;stroke-dasharray:0.265, 0.265;stroke-dashoffset:0;stroke-opacity:1"
       d="m -37.875001,74.000002 c 0,148.166668 0,148.166668 0,148.166668"
       id="path1125" />
    <path
       style="fill:none;stroke:#000000;stroke-width:0.3;stroke-linecap:butt;stroke-linejoin:miter;stroke-miterlimit:4;stroke-dasharray:0.3, 0.3;stroke-dashoffset:0;stroke-opacity:1"
       d="m 337.83333,63.416669 c 0,158.750001 0,158.750001 0,158.750001"
       id="path1297" />
    <circle
       style="fill:#cd8282;fill-rule:evenodd;stroke:#a51d1e;stroke-width:0.850493;stroke-linejoin:round"
       id="path863-62-1"
       sodipodi:type="arc"
       sodipodi:cx="-128.44073"
       sodipodi:cy="95.484688"
       sodipodi:rx="9.3334541"
       sodipodi:ry="8.6804533"
       sodipodi:start="5.0265799"
       sodipodi:end="5.0265308"
       sodipodi:open="true"
       sodipodi:arc-type="arc"
       d="m -125.55626,87.229171 a 9.3334541,8.6804533 0 0 1 5.99211,10.938084 9.3334541,8.6804533 0 0 1 -11.76084,5.573015 9.3334541,8.6804533 0 0 1 -5.9924,-10.937947 9.3334541,8.6804533 0 0 1 11.7607,-5.573284" />
  </g>
</svg>
