<?xml version="1.0" encoding="UTF-8" standalone="no"?>
<svg
   xmlns:dc="http://purl.org/dc/elements/1.1/"
   xmlns:cc="http://creativecommons.org/ns#"
   xmlns:rdf="http://www.w3.org/1999/02/22-rdf-syntax-ns#"
   xmlns:svg="http://www.w3.org/2000/svg"
   xmlns="http://www.w3.org/2000/svg"
   xmlns:sodipodi="http://sodipodi.sourceforge.net/DTD/sodipodi-0.dtd"
   xmlns:inkscape="http://www.inkscape.org/namespaces/inkscape"
   width="208.23233mm"
   height="119.97931mm"
   viewBox="0 0 208.23233 119.97931"
   version="1.1"
   id="svg8"
   sodipodi:docname="2021-02-15_14-38.svg"
   inkscape:version="1.0.2 (e86c870879, 2021-01-15)">
  <defs
     id="defs2" />
  <sodipodi:namedview
     id="base"
     pagecolor="#ffffff"
     bordercolor="#000000"
     borderopacity="1"
     inkscape:pageopacity="0.0"
     inkscape:pageshadow="2"
     inkscape:zoom="2.0980265"
     inkscape:cx="332.7954"
     inkscape:cy="260.011"
     inkscape:document-units="mm"
     inkscape:current-layer="layer1"
     inkscape:document-rotation="0"
     showgrid="true"
     showborder="true"
     borderlayer="true"
     inkscape:showpageshadow="false"
     objecttolerance="10000"
     guidetolerance="10000"
     inkscape:snap-perpendicular="true"
     inkscape:snap-tangential="true"
     inkscape:window-width="1920"
     inkscape:window-height="1080"
     inkscape:window-x="-1"
     inkscape:window-y="-1"
     inkscape:window-maximized="0">
    <sodipodi:guide
       position="-0.49866193,130.9865"
       orientation="0,793.70079"
       id="guide10" />
    <sodipodi:guide
       position="209.50133,130.9865"
       orientation="559.37008,0"
       id="guide12" />
    <sodipodi:guide
       position="209.50133,-17.013497"
       orientation="0,-793.70079"
       id="guide14" />
    <sodipodi:guide
       position="-0.49866193,-17.013497"
       orientation="-559.37008,0"
       id="guide16" />
    <inkscape:grid
       type="xygrid"
       id="grid20"
       dotted="true"
       units="px"
       originx="104.50134"
       originy="62.992808" />
  </sodipodi:namedview>
  <metadata
     id="metadata5">
    <rdf:RDF>
      <cc:Work
         rdf:about="">
        <dc:format>image/svg+xml</dc:format>
        <dc:type
           rdf:resource="http://purl.org/dc/dcmitype/StillImage" />
        <dc:title />
        <cc:license
           rdf:resource="" />
      </cc:Work>
    </rdf:RDF>
  </metadata>
  <g
     inkscape:label="Layer 1"
     inkscape:groupmode="layer"
     id="layer1"
     transform="translate(-0.49866194,-11.007194)">
    <g
       id="g903"
       transform="translate(-19.582614,-20.556147)">
      <path
         id="path835"
         style="fill:none;stroke:#000000;stroke-width:0.264583px;stroke-linecap:butt;stroke-linejoin:miter;stroke-opacity:1"
         d="M 74.407857,68.958356 C 59.020016,60.580529 39.658818,68.150211 29.730914,81.447962 22.7289,89.955721 20.432794,97.28744 20.21624,111.97704 c -0.216554,14.6896 12.778672,38.56349 32.208113,39.43324 11.09924,-0.28242 21.503583,-5.20766 31.513788,-9.60203 18.755499,-9.10279 36.977439,-20.7327 58.112039,-23.29297 24.35041,-4.78443 51.19239,-2.02159 73.01079,-15.78405 9.38691,-4.773565 14.60888,-15.708848 12.74576,-26.010193 C 225.04704,60.902045 214.81749,52.338374 194.6806,47.59168 174.54371,42.844986 140.90102,44.932852 122.11643,63.254123 108.57943,73.015955 89.752341,76.80098 74.407857,68.958356 Z"
         sodipodi:nodetypes="cczccccczcc" />
      <g
         id="g894">
        <g
           id="g887">
          <path
             style="fill:none;stroke:#000000;stroke-width:0.264583px;stroke-linecap:butt;stroke-linejoin:miter;stroke-opacity:1"
             d="m 151.3976,79.93405 c 10.04057,15.386885 28.06108,8.603591 40.59253,2.447282"
             id="path837"
             sodipodi:nodetypes="cc" />
          <path
             id="path839"
             style="fill:none;stroke:#000000;stroke-width:0.264583px;stroke-linecap:butt;stroke-linejoin:miter;stroke-opacity:1"
             d="m 155.27083,84.583336 c 10.2164,-7.702144 21.03514,-4.21342 30.1625,0.79375"
             sodipodi:nodetypes="cc" />
        </g>
        <path
           id="path841"
           style="fill:none;stroke:#000000;stroke-width:0.264583px;stroke-linecap:butt;stroke-linejoin:miter;stroke-opacity:1"
           d="m 41.499998,105.75 c 0.369864,7.81702 9.04127,11.24217 15.589812,12.70173 7.298813,1.27846 18.779315,-1.37535 25.420607,-4.49964"
           sodipodi:nodetypes="ccc" />
        <path
           id="path843"
           style="fill:none;stroke:#000000;stroke-width:0.264583px;stroke-linecap:butt;stroke-linejoin:miter;stroke-opacity:1"
           d="m 44.410417,112.36459 c 9.222361,-8.83893 29.732964,-0.4005 31.485416,3.96875"
           sodipodi:nodetypes="cc" />
      </g>
    </g>
    <circle
       style="fill:#cd8282;fill-opacity:0.529444;fill-rule:evenodd;stroke:#2b5d0a;stroke-width:0.5;stroke-linejoin:round;stroke-miterlimit:4;stroke-dasharray:none"
       id="path849"
       sodipodi:type="arc"
       sodipodi:cx="71.563805"
       sodipodi:cy="67.607498"
       sodipodi:rx="10.583333"
       sodipodi:ry="7.9375"
       sodipodi:start="5.0268252"
       sodipodi:end="5.0265308"
       sodipodi:open="true"
       sodipodi:arc-type="arc"
       d="M 74.837022,60.059167 A 10.583333,7.9375 0 0 1 81.628487,70.061856 10.583333,7.9375 0 0 1 68.292069,75.156191 10.583333,7.9375 0 0 1 61.49864,65.154252 10.583333,7.9375 0 0 1 74.834059,60.058444" />
    <circle
       style="fill:#cd8282;fill-opacity:0.496189;fill-rule:evenodd;stroke:#2b5d0a;stroke-width:0.5;stroke-linejoin:round;stroke-miterlimit:4;stroke-dasharray:none"
       id="path849-3"
       sodipodi:type="arc"
       sodipodi:cx="86.112923"
       sodipodi:cy="72.898438"
       sodipodi:rx="10.583333"
       sodipodi:ry="7.9375"
       sodipodi:start="5.0268252"
       sodipodi:end="5.0265308"
       sodipodi:open="true"
       sodipodi:arc-type="arc"
       d="M 89.38614,65.350106 A 10.583333,7.9375 0 0 1 96.177605,75.352795 10.583333,7.9375 0 0 1 82.841187,80.44713 10.583333,7.9375 0 0 1 76.047759,70.445191 10.583333,7.9375 0 0 1 89.383177,65.349384" />
    <circle
       style="fill:#181c57;fill-opacity:1;fill-rule:evenodd;stroke:#95ce0a;stroke-width:0.0771283;stroke-linejoin:round;stroke-miterlimit:4;stroke-dasharray:none;stroke-opacity:1"
       id="path847"
       sodipodi:type="arc"
       sodipodi:cx="73.701866"
       sodipodi:cy="64.680748"
       sodipodi:rx="1.0946223"
       sodipodi:ry="0.96544492"
       sodipodi:start="5.0267245"
       sodipodi:end="5.0265308"
       sodipodi:open="true"
       sodipodi:arc-type="arc"
       d="m 74.040307,63.762608 a 1.0946223,0.96544492 0 0 1 0.702564,1.216596 1.0946223,0.96544492 0 0 1 -1.379344,0.619713 1.0946223,0.96544492 0 0 1 -0.702698,-1.216536 1.0946223,0.96544492 0 0 1 1.379276,-0.619831" />
    <circle
       style="fill:#cd8282;fill-opacity:0.496189;fill-rule:evenodd;stroke:#2b5d0a;stroke-width:0.422805;stroke-linejoin:round;stroke-miterlimit:4;stroke-dasharray:none"
       id="path849-3-6"
       sodipodi:type="arc"
       sodipodi:cx="97.635376"
       sodipodi:cy="74.236061"
       sodipodi:rx="7.5537004"
       sodipodi:ry="7.9522042"
       sodipodi:start="5.0268252"
       sodipodi:end="5.0265308"
       sodipodi:open="true"
       sodipodi:arc-type="arc"
       d="M 99.971587,66.673746 A 7.5537004,7.9522042 0 0 1 104.8189,76.694965 7.5537004,7.9522042 0 0 1 95.300222,81.798738 7.5537004,7.9522042 0 0 1 90.451511,71.77827 7.5537004,7.9522042 0 0 1 99.969472,66.673023" />
    <circle
       style="fill:#cd8282;fill-opacity:0.496189;fill-rule:evenodd;stroke:#2b5d0a;stroke-width:0.480643;stroke-linejoin:round;stroke-miterlimit:4;stroke-dasharray:none"
       id="path849-3-7"
       sodipodi:type="arc"
       sodipodi:cx="103.55113"
       sodipodi:cy="60.182125"
       sodipodi:rx="5.5289941"
       sodipodi:ry="14.039945"
       sodipodi:start="5.0268252"
       sodipodi:end="5.0265308"
       sodipodi:open="true"
       sodipodi:arc-type="arc"
       d="m 105.26114,46.830546 a 5.5289941,14.039945 0 0 1 3.54803,17.692876 5.5289941,14.039945 0 0 1 -6.96727,9.010921 5.5289941,14.039945 0 0 1 -3.549058,-17.691549 5.5289941,14.039945 0 0 1 6.966748,-9.013525" />
    <circle
       style="fill:#cd8282;fill-opacity:0.496189;fill-rule:evenodd;stroke:#2b5d0a;stroke-width:0.450829;stroke-linejoin:round;stroke-miterlimit:4;stroke-dasharray:none"
       id="path849-3-7-5"
       sodipodi:type="arc"
       sodipodi:cx="99.269966"
       sodipodi:cy="57.743191"
       sodipodi:rx="15.107605"
       sodipodi:ry="4.5205674"
       sodipodi:start="5.0268252"
       sodipodi:end="5.0265308"
       sodipodi:open="true"
       sodipodi:arc-type="arc"
       d="m 103.94245,53.444263 a 15.107605,4.5205674 0 0 1 9.69475,5.696734 15.107605,4.5205674 0 0 1 -19.037605,2.901328 15.107605,4.5205674 0 0 1 -9.697553,-5.696308 15.107605,4.5205674 0 0 1 19.036178,-2.902166" />
    <path
       style="fill:#8aa678;fill-opacity:1;fill-rule:evenodd;stroke:#000000;stroke-width:0.101015;stroke-linejoin:round;stroke-miterlimit:4;stroke-dasharray:none;stroke-opacity:1"
       d="M 30.461352,130.44836 C 24.25028,129.45119 18.654308,126.36359 13.671166,121.18434 7.364111,114.62906 2.900426,105.83688 1.227432,96.673765 0.95488626,95.18101 0.92890708,94.639101 0.93741317,90.624189 0.96363338,78.248367 3.0640879,70.630965 8.4475877,63.388169 12.960506,57.316627 16.701405,53.745496 21.775092,50.665489 27.787325,47.015734 34.272701,45.12155 40.756647,45.12155 c 5.154189,0 8.605726,0.841449 13.959416,3.403163 5.12727,2.453373 9.100293,3.597146 14.192276,4.085741 2.15591,0.20687 7.886589,0.09362 9.928797,-0.19621 6.752267,-0.958283 13.229341,-3.181556 19.121895,-6.563645 2.297579,-1.318721 4.266519,-2.675313 5.555939,-3.828045 2.66537,-2.382798 4.09453,-3.49169 6.72851,-5.220668 5.3929,-3.539958 11.37096,-6.212044 18.28975,-8.175178 9.11114,-2.585188 17.7991,-3.676142 27.9457,-3.509168 8.14135,0.133977 13.90828,0.869889 20.78021,2.651738 12.76391,3.30961 21.02327,8.301493 25.94653,15.681838 2.88486,4.324655 4.94862,10.750775 5.15004,16.036171 0.30279,7.945686 -3.37134,15.74083 -9.63007,20.431471 -1.65965,1.243838 -6.60551,4.101145 -9.50619,5.491888 -7.5148,3.603011 -16.03415,5.964282 -27.20166,7.53936 -4.26112,0.600996 -6.5346,0.855599 -16.22964,1.817537 -10.30849,1.022802 -15.08589,1.596538 -19.51067,2.343113 -1.76398,0.297629 -4.15523,0.68671 -5.31388,0.864621 -6.72302,1.032327 -12.39443,2.546363 -19.27492,5.145623 -6.959563,2.62912 -12.379699,5.17632 -26.608045,12.50446 -8.754214,4.50875 -10.253036,5.23819 -15.152817,7.37444 -8.59027,3.74525 -14.03726,5.65293 -19.17659,6.71614 -3.842845,0.79499 -8.039547,1.09371 -10.289876,0.73242 z M 46.430708,98.095967 c 3.691458,-0.421328 8.117292,-1.426586 11.893491,-2.70142 2.520953,-0.851067 4.677217,-1.768102 4.677217,-1.989169 0,-0.09642 -0.02119,-0.175313 -0.04707,-0.175313 -0.0259,0 -0.702421,0.274653 -1.503391,0.610341 -0.800973,0.335685 -2.238079,0.877461 -3.193566,1.203946 l -1.737252,0.593606 -0.192455,-0.30191 C 56.221833,95.169995 55.800884,94.701315 55.39224,94.294537 53.368963,92.280496 48.735561,90.040388 44.17583,88.871745 36.251268,86.840711 29.344419,87.669799 25.32254,91.134869 l -0.4616,0.397695 -0.515556,-0.580958 c -1.04997,-1.183169 -1.83057,-2.935923 -2.145676,-4.817886 -0.09172,-0.547796 -0.223276,-0.958768 -0.295063,-0.921739 -0.331179,0.170812 0.192005,2.658795 0.823629,3.916743 0.862854,1.718464 2.603511,3.615778 4.461854,4.86341 3.005836,2.018022 8.308134,3.935679 11.898424,4.303249 1.583835,0.162153 4.983231,0.06982 7.342161,-0.199416 z M 99.422222,82.202308 c 2.197848,-0.561112 4.137238,-2.158166 5.108318,-4.206605 0.57738,-1.217961 0.77257,-1.942454 0.91197,-3.3851 0.0751,-0.777473 0.15213,-0.98262 0.51915,-1.38325 1.44762,-1.580157 2.6296,-4.866129 3.08061,-8.564234 0.11412,-0.935731 0.25018,-2.056299 0.30236,-2.490155 l 0.0949,-0.788826 1.06908,-0.35773 c 3.27675,-1.096444 4.67852,-2.591932 3.87891,-4.138221 -0.47783,-0.924009 -2.25485,-1.98537 -4.29863,-2.567432 -0.57764,-0.164515 -1.11782,-0.348266 -1.20038,-0.408339 -0.0826,-0.06008 -0.22219,-0.475613 -0.31029,-0.923415 -0.0881,-0.447802 -0.37111,-1.423966 -0.62891,-2.169252 -1.37606,-3.97809 -3.55905,-5.729174 -5.73027,-4.596522 -0.56267,0.293529 -1.52931,1.361186 -2.03503,2.24771 -0.495826,0.86918 -1.26743,2.838312 -1.494144,3.813053 l -0.158427,0.681151 -1.962687,0.0846 c -4.111604,0.177226 -8.282112,1.054671 -10.576639,2.225252 -0.853435,0.43539 -1.851173,1.424479 -2.026187,2.008621 -0.742744,2.479061 4.566949,4.697264 12.343987,5.15688 l 1.570207,0.0928 0.0011,0.615156 c 0.0011,0.553705 0.172503,1.922116 0.32853,2.619936 0.05496,0.245782 -0.01579,0.26982 -0.870341,0.295659 -1.075243,0.03252 -1.765287,0.194328 -2.813211,0.659688 l -0.748134,0.332232 -0.616714,-0.416216 c -2.160508,-1.458108 -5.640808,-2.234774 -8.474972,-1.891279 -0.7205,0.08732 -1.61363,0.238866 -1.984735,0.336762 l -0.674738,0.177993 -0.38405,-0.74981 c -0.233725,-0.456319 -0.837584,-1.203003 -1.54272,-1.907614 -0.998209,-0.997461 -1.350951,-1.251117 -2.547119,-1.831631 -2.23497,-1.084655 -3.204446,-1.288757 -6.065671,-1.27698 -2.218783,0.0091 -2.498744,0.03813 -3.608136,0.37374 -4.458788,1.348856 -7.137678,4.214029 -7.146642,7.6436 -0.0096,3.670676 2.80947,6.673006 7.413911,7.895873 1.176374,0.312426 1.584303,0.354539 3.407685,0.351806 1.612905,-0.0024 2.295691,-0.06093 3.085025,-0.264356 l 1.013685,-0.261249 0.362389,0.692153 c 0.819867,1.565928 2.233692,2.862992 4.158343,3.814937 1.878145,0.928938 3.052715,1.208762 5.412208,1.289367 2.23012,0.07619 3.700767,-0.136268 5.335087,-0.770731 l 0.991958,-0.385091 0.519046,0.468927 c 1.008293,0.910934 2.530091,1.705062 3.777874,1.971426 0.642551,0.137168 2.482329,0.07115 3.212566,-0.115282 z M 152.625,68.708336 c 3.03228,-0.375401 5.82592,-1.052441 9.37834,-2.272837 3.65863,-1.256882 10.44495,-4.229811 10.44495,-4.57569 0,-0.09215 -0.0425,-0.167548 -0.0945,-0.167548 -0.052,0 -0.87883,0.372033 -1.83748,0.826741 -0.95863,0.454708 -2.4023,1.114055 -3.20815,1.46521 l -1.46519,0.638471 -1.07387,-0.583785 c -2.86827,-1.559255 -6.89877,-3.158479 -9.76014,-3.872642 -6.64913,-1.659541 -12.82411,-0.709571 -18.09814,2.78425 -0.6196,0.41045 -1.17083,0.746278 -1.22496,0.746278 -0.15955,0 -1.96412,-1.999274 -2.63895,-2.923683 -0.94773,-1.298231 -1.17174,-1.544621 -1.26587,-1.392314 -0.21098,0.341368 2.35445,3.468243 3.95892,4.825346 3.19206,2.699904 6.45353,4.086942 10.85001,4.614273 1.0911,0.130871 4.59886,0.06573 6.03504,-0.11207 z"
       id="path984" />
    <text
       xml:space="preserve"
       style="font-size:2.45518px;line-height:1.25;font-family:sans-serif;word-spacing:0px;stroke-width:0.0613797"
       x="49.328678"
       y="64.120476"
       id="text988"
       transform="scale(1.0097204,0.99037317)"><tspan
         sodipodi:role="line"
         id="tspan986"
         x="49.328678"
         y="64.120476"
         style="stroke-width:0.0613797">$p$</tspan></text>
    <text
       xml:space="preserve"
       style="font-size:10.5833px;line-height:1.25;font-family:sans-serif;word-spacing:0px;stroke-width:0.264583"
       x="127.75072"
       y="19.048021"
       id="text992"><tspan
         sodipodi:role="line"
         id="tspan990"
         x="127.75072"
         y="19.048021"
         style="stroke-width:0.264583">$X$</tspan></text>
  </g>
</svg>
