<?xml version="1.0" encoding="UTF-8" standalone="no"?>
<svg
   xmlns:dc="http://purl.org/dc/elements/1.1/"
   xmlns:cc="http://creativecommons.org/ns#"
   xmlns:rdf="http://www.w3.org/1999/02/22-rdf-syntax-ns#"
   xmlns:svg="http://www.w3.org/2000/svg"
   xmlns="http://www.w3.org/2000/svg"
   xmlns:sodipodi="http://sodipodi.sourceforge.net/DTD/sodipodi-0.dtd"
   xmlns:inkscape="http://www.inkscape.org/namespaces/inkscape"
   width="210mm"
   height="148mm"
   viewBox="0 0 210 148"
   version="1.1"
   id="svg8"
   sodipodi:docname="2021-05-03_14-16.svg"
   inkscape:version="1.0.2 (e86c870879, 2021-01-15, custom)">
  <defs
     id="defs2" />
  <sodipodi:namedview
     id="base"
     pagecolor="#ffffff"
     bordercolor="#000000"
     borderopacity="1"
     inkscape:pageopacity="0.0"
     inkscape:pageshadow="2"
     inkscape:zoom="0.7"
     inkscape:cx="677.92919"
     inkscape:cy="501.819"
     inkscape:document-units="mm"
     inkscape:current-layer="layer1"
     inkscape:document-rotation="0"
     showgrid="true"
     showborder="true"
     borderlayer="true"
     inkscape:showpageshadow="false"
     objecttolerance="10000"
     guidetolerance="10000"
     inkscape:snap-perpendicular="true"
     inkscape:snap-tangential="true"
     inkscape:window-width="1920"
     inkscape:window-height="1080"
     inkscape:window-x="0"
     inkscape:window-y="0"
     inkscape:window-maximized="0">
    <sodipodi:guide
       position="0,148"
       orientation="0,793.70079"
       id="guide10" />
    <sodipodi:guide
       position="210,148"
       orientation="559.37008,0"
       id="guide12" />
    <sodipodi:guide
       position="210,0"
       orientation="0,-793.70079"
       id="guide14" />
    <sodipodi:guide
       position="0,0"
       orientation="-559.37008,0"
       id="guide16" />
    <inkscape:grid
       type="xygrid"
       id="grid20"
       dotted="true"
       units="px"
       originx="105"
       originy="74.000003" />
  </sodipodi:namedview>
  <metadata
     id="metadata5">
    <rdf:RDF>
      <cc:Work
         rdf:about="">
        <dc:format>image/svg+xml</dc:format>
        <dc:type
           rdf:resource="http://purl.org/dc/dcmitype/StillImage" />
        <dc:title />
        <cc:license
           rdf:resource="" />
      </cc:Work>
    </rdf:RDF>
  </metadata>
  <g
     inkscape:label="Layer 1"
     inkscape:groupmode="layer"
     id="layer1">
    <path
       style="fill:none;stroke:#000000;stroke-width:0.264583px;stroke-linecap:butt;stroke-linejoin:miter;stroke-opacity:1"
       d="m 4.4583334,121.625 c 0.08611,0.23609 0.022238,0.79438 0.2583291,0.70827 0.2360898,-0.0861 -0.2898328,-0.45895 -0.2583291,-0.70827 0.1616112,-1.27899 0.4566242,-2.54308 0.8252586,-3.77842 0.3027466,-1.01454 1.4169517,-2.50721 1.9653771,-3.30012 4.7569479,-6.8775 11.8445699,-13.01153 19.8049229,-15.796108 9.458708,-3.308713 23.061935,-2.576793 32.466467,0.148325 10.970167,3.178783 20.904919,9.886483 30.954622,15.128653 21.423379,11.17496 46.894779,22.98834 71.547169,16.64894 10.66298,-2.742 19.39037,-6.87652 27.74201,-14.05333 2.31588,-1.9901 4.73631,-4.88922 6.61424,-7.30477 0.73938,-0.95106 1.49931,-1.89482 2.11656,-2.92933 0.29719,-0.49807 0.0597,-1.43313 0.60473,-1.63152 0.47593,-0.17324 0.76687,0.66179 1.15031,0.99268"
       id="path837" />
    <path
       style="fill:none;stroke:#000000;stroke-width:0.264583px;stroke-linecap:butt;stroke-linejoin:miter;stroke-opacity:1"
       d="M 36.208332,15.79167 V 84.583335"
       id="path839" />
    <path
       style="fill:none;stroke:#000000;stroke-width:0.264583px;stroke-linecap:butt;stroke-linejoin:miter;stroke-opacity:1"
       d="M 47.85,19.495837 V 88.287502"
       id="path839-3" />
    <path
       style="fill:none;stroke:#000000;stroke-width:0.264583px;stroke-linecap:butt;stroke-linejoin:miter;stroke-opacity:1"
       d="M 78.541668,21.083338 V 89.875003"
       id="path839-6" />
    <path
       style="fill:none;stroke:#000000;stroke-width:0.264583px;stroke-linecap:butt;stroke-linejoin:miter;stroke-opacity:1"
       d="M 110.29167,21.083338 V 89.875003"
       id="path839-7" />
    <path
       style="fill:none;stroke:#000000;stroke-width:0.264583px;stroke-linecap:butt;stroke-linejoin:miter;stroke-opacity:1"
       d="M 147.33336,21.083338 V 89.875003"
       id="path839-5" />
    <path
       style="fill:none;stroke:#55679e;stroke-width:0.264583px;stroke-linecap:butt;stroke-linejoin:miter;stroke-opacity:1"
       d="m 67.958331,111.04167 c 1.276835,-1.10181 1.925397,-2.59205 2.90331,-3.91123 0.559983,-0.7554 2.747169,-3.42807 2.98586,-3.708 4.273989,-5.01239 6.831394,-0.82799 8.050472,3.85633 0.654243,2.51394 0.286229,5.2802 1.474036,7.67557 0.737611,1.48749 1.978861,3.09921 3.703966,3.44844 1.259543,0.25498 2.560317,-0.54926 3.590589,-1.1124 1.711523,-0.93552 3.494688,-1.86665 5.102415,-2.9664 3.618667,-2.47534 7.606441,-8.25265 11.603271,-2.81809 3.34853,4.55306 2.35748,20.4646 9.03316,22.13679 5.14827,1.28959 16.5432,-10.52162 21.84589,-10.04869 6.45253,0.57548 7.58217,7.65657 12.09459,10.79029 5.16346,3.58585 11.00954,1.883 15.7608,-1.81691 1.07794,-0.83941 5.63156,-5.28395 5.63156,-5.33953 0,-0.20462 -0.35277,-0.20745 -0.52916,-0.31117"
       id="path888" />
    <path
       style="fill:none;stroke:#bc2122;stroke-width:0.264583px;stroke-linecap:butt;stroke-linejoin:miter;stroke-opacity:1"
       d="m 41.499998,58.125002 c 1.08162,0.403085 2.108843,1.004692 3.244858,1.209254 1.445414,0.260274 3.880028,-4.143975 6.236274,-2.484355 2.209663,1.556372 1.92948,6.934282 5.555967,7.527248 4.659456,0.761867 7.277113,-5.081413 11.905626,-4.523764 3.640865,0.438655 3.06969,6.116381 7.596931,4.709165 3.395244,-1.055354 5.237495,-5.961946 8.995357,-6.192372 2.329979,-0.142869 2.742279,3.550751 5.253601,3.67093 3.924696,0.18782 7.003949,-2.897955 10.771758,-3.263043 3.24432,-0.314365 3.55329,3.591748 6.61423,3.819247 4.30435,0.319911 7.85024,-3.612041 12.17022,-3.485531 2.41083,0.0706 4.11257,2.617126 6.76541,2.521443 5.8734,-0.211847 8.69958,-6.277388 12.13241,-6.414847 2.48463,-0.09949 3.47275,4.54882 6.99219,4.412522 0.19771,-0.0076 5.24338,-1.646258 3.81736,-1.928164 -0.15128,-0.02991 -0.12599,0.281511 -0.18898,0.422267"
       id="path892" />
    <text
       xml:space="preserve"
       style="font-size:10.5833px;line-height:1.25;font-family:sans-serif;word-spacing:0px;stroke-width:0.264583"
       x="226.70833"
       y="111.04167"
       id="text896"><tspan
         sodipodi:role="line"
         id="tspan894"
         x="226.70833"
         y="111.04167"
         style="stroke-width:0.264583">$M$</tspan></text>
    <text
       xml:space="preserve"
       style="font-size:10.5833px;line-height:1.25;font-family:sans-serif;word-spacing:0px;stroke-width:0.264583"
       x="78.324738"
       y="8.9781084"
       id="text900"><tspan
         sodipodi:role="line"
         id="tspan898"
         x="78.324738"
         y="8.9781084"
         style="stroke-width:0.264583">$\Spin(n)$</tspan></text>
  </g>
</svg>
