<?xml version="1.0" encoding="UTF-8" standalone="no"?>
<svg
   xmlns:dc="http://purl.org/dc/elements/1.1/"
   xmlns:cc="http://creativecommons.org/ns#"
   xmlns:rdf="http://www.w3.org/1999/02/22-rdf-syntax-ns#"
   xmlns:svg="http://www.w3.org/2000/svg"
   xmlns="http://www.w3.org/2000/svg"
   xmlns:sodipodi="http://sodipodi.sourceforge.net/DTD/sodipodi-0.dtd"
   xmlns:inkscape="http://www.inkscape.org/namespaces/inkscape"
   width="422.68967mm"
   height="152.05907mm"
   viewBox="0 0 422.68967 152.05907"
   version="1.1"
   id="svg8"
   sodipodi:docname="2021-01-22_13-58.svg"
   inkscape:version="1.0.1 (3bc2e813f5, 2020-09-07, custom)">
  <defs
     id="defs2">
    <marker
       style="overflow:visible"
       id="marker2254"
       refX="0"
       refY="0"
       orient="auto"
       inkscape:stockid="Arrow1Lstart"
       inkscape:isstock="true">
      <path
         transform="matrix(0.8,0,0,0.8,10,0)"
         style="fill:#a51d1e;fill-opacity:1;fill-rule:evenodd;stroke:#000000;stroke-width:1pt;stroke-opacity:1"
         d="M 0,0 5,-5 -12.5,0 5,5 Z"
         id="path2252" />
    </marker>
    <marker
       style="overflow:visible"
       id="marker2136"
       refX="0"
       refY="0"
       orient="auto"
       inkscape:stockid="Arrow1Lend"
       inkscape:isstock="true">
      <path
         transform="matrix(-0.8,0,0,-0.8,-10,0)"
         style="fill:#a51d1e;fill-opacity:1;fill-rule:evenodd;stroke:#000000;stroke-width:1pt;stroke-opacity:1"
         d="M 0,0 5,-5 -12.5,0 5,5 Z"
         id="path2134" />
    </marker>
    <marker
       style="overflow:visible"
       id="marker2024"
       refX="0"
       refY="0"
       orient="auto"
       inkscape:stockid="Arrow1Lend"
       inkscape:isstock="true">
      <path
         transform="matrix(-0.8,0,0,-0.8,-10,0)"
         style="fill:#a51d1e;fill-opacity:1;fill-rule:evenodd;stroke:#000000;stroke-width:1pt;stroke-opacity:1"
         d="M 0,0 5,-5 -12.5,0 5,5 Z"
         id="path2022" />
    </marker>
    <marker
       style="overflow:visible"
       id="marker1804"
       refX="0"
       refY="0"
       orient="auto"
       inkscape:stockid="Arrow1Lend"
       inkscape:isstock="true"
       inkscape:collect="always">
      <path
         transform="matrix(-0.8,0,0,-0.8,-10,0)"
         style="fill:#000000;fill-opacity:1;fill-rule:evenodd;stroke:#000000;stroke-width:1pt;stroke-opacity:1"
         d="M 0,0 5,-5 -12.5,0 5,5 Z"
         id="path1802" />
    </marker>
    <marker
       style="overflow:visible"
       id="marker1794"
       refX="0"
       refY="0"
       orient="auto"
       inkscape:stockid="Arrow1Lend"
       inkscape:isstock="true">
      <path
         transform="matrix(-0.8,0,0,-0.8,-10,0)"
         style="fill:#000000;fill-opacity:1;fill-rule:evenodd;stroke:#000000;stroke-width:1pt;stroke-opacity:1"
         d="M 0,0 5,-5 -12.5,0 5,5 Z"
         id="path1792" />
    </marker>
    <marker
       style="overflow:visible"
       id="marker1688"
       refX="0"
       refY="0"
       orient="auto"
       inkscape:stockid="Arrow1Lstart"
       inkscape:isstock="true"
       inkscape:collect="always">
      <path
         transform="matrix(0.8,0,0,0.8,10,0)"
         style="fill:#000000;fill-opacity:1;fill-rule:evenodd;stroke:#000000;stroke-width:1pt;stroke-opacity:1"
         d="M 0,0 5,-5 -12.5,0 5,5 Z"
         id="path1686" />
    </marker>
    <marker
       style="overflow:visible"
       id="marker1678"
       refX="0"
       refY="0"
       orient="auto"
       inkscape:stockid="Arrow1Lstart"
       inkscape:isstock="true">
      <path
         transform="matrix(0.8,0,0,0.8,10,0)"
         style="fill:#000000;fill-opacity:1;fill-rule:evenodd;stroke:#000000;stroke-width:1pt;stroke-opacity:1"
         d="M 0,0 5,-5 -12.5,0 5,5 Z"
         id="path1676" />
    </marker>
    <marker
       style="overflow:visible"
       id="marker1586"
       refX="0"
       refY="0"
       orient="auto"
       inkscape:stockid="Arrow1Lend"
       inkscape:isstock="true">
      <path
         transform="matrix(-0.8,0,0,-0.8,-10,0)"
         style="fill:#000000;fill-opacity:1;fill-rule:evenodd;stroke:#000000;stroke-width:1pt;stroke-opacity:1"
         d="M 0,0 5,-5 -12.5,0 5,5 Z"
         id="path1584" />
    </marker>
    <marker
       style="overflow:visible"
       id="marker1450"
       refX="0"
       refY="0"
       orient="auto"
       inkscape:stockid="Arrow1Lend"
       inkscape:isstock="true"
       inkscape:collect="always">
      <path
         transform="matrix(-0.8,0,0,-0.8,-10,0)"
         style="fill:#000000;fill-opacity:1;fill-rule:evenodd;stroke:#000000;stroke-width:1pt;stroke-opacity:1"
         d="M 0,0 5,-5 -12.5,0 5,5 Z"
         id="path1448" />
    </marker>
    <marker
       style="overflow:visible"
       id="marker1440"
       refX="0"
       refY="0"
       orient="auto"
       inkscape:stockid="Arrow1Lend"
       inkscape:isstock="true">
      <path
         transform="matrix(-0.8,0,0,-0.8,-10,0)"
         style="fill:#a51d1e;fill-opacity:1;fill-rule:evenodd;stroke:#000000;stroke-width:1pt;stroke-opacity:1"
         d="M 0,0 5,-5 -12.5,0 5,5 Z"
         id="path1438" />
    </marker>
    <marker
       style="overflow:visible"
       id="marker1316"
       refX="0"
       refY="0"
       orient="auto"
       inkscape:stockid="Arrow1Lstart"
       inkscape:isstock="true"
       inkscape:collect="always">
      <path
         transform="matrix(0.8,0,0,0.8,10,0)"
         style="fill:#000000;fill-opacity:1;fill-rule:evenodd;stroke:#000000;stroke-width:1pt;stroke-opacity:1"
         d="M 0,0 5,-5 -12.5,0 5,5 Z"
         id="path1314" />
    </marker>
    <marker
       style="overflow:visible"
       id="marker1306"
       refX="0"
       refY="0"
       orient="auto"
       inkscape:stockid="Arrow1Lstart"
       inkscape:isstock="true">
      <path
         transform="matrix(0.8,0,0,0.8,10,0)"
         style="fill:#a51d1e;fill-opacity:1;fill-rule:evenodd;stroke:#000000;stroke-width:1pt;stroke-opacity:1"
         d="M 0,0 5,-5 -12.5,0 5,5 Z"
         id="path1304" />
    </marker>
    <marker
       style="overflow:visible"
       id="marker1238"
       refX="0"
       refY="0"
       orient="auto"
       inkscape:stockid="Arrow1Lend"
       inkscape:isstock="true">
      <path
         transform="matrix(-0.8,0,0,-0.8,-10,0)"
         style="fill:#a51d1e;fill-opacity:1;fill-rule:evenodd;stroke:#000000;stroke-width:1pt;stroke-opacity:1"
         d="M 0,0 5,-5 -12.5,0 5,5 Z"
         id="path1236" />
    </marker>
    <marker
       style="overflow:visible"
       id="Arrow1Lend"
       refX="0"
       refY="0"
       orient="auto"
       inkscape:stockid="Arrow1Lend"
       inkscape:isstock="true"
       inkscape:collect="always">
      <path
         transform="matrix(-0.8,0,0,-0.8,-10,0)"
         style="fill:#000000;fill-opacity:1;fill-rule:evenodd;stroke:#000000;stroke-width:1pt;stroke-opacity:1"
         d="M 0,0 5,-5 -12.5,0 5,5 Z"
         id="path865" />
    </marker>
    <marker
       style="overflow:visible"
       id="marker1146"
       refX="0"
       refY="0"
       orient="auto"
       inkscape:stockid="Arrow1Lstart"
       inkscape:isstock="true">
      <path
         transform="matrix(0.8,0,0,0.8,10,0)"
         style="fill:#000000;fill-opacity:1;fill-rule:evenodd;stroke:#000000;stroke-width:1pt;stroke-opacity:1"
         d="M 0,0 5,-5 -12.5,0 5,5 Z"
         id="path1144" />
    </marker>
    <marker
       style="overflow:visible"
       id="Arrow1Lstart"
       refX="0"
       refY="0"
       orient="auto"
       inkscape:stockid="Arrow1Lstart"
       inkscape:isstock="true">
      <path
         transform="matrix(0.8,0,0,0.8,10,0)"
         style="fill:#000000;fill-opacity:1;fill-rule:evenodd;stroke:#000000;stroke-width:1pt;stroke-opacity:1"
         d="M 0,0 5,-5 -12.5,0 5,5 Z"
         id="path862" />
    </marker>
  </defs>
  <sodipodi:namedview
     id="base"
     pagecolor="#ffffff"
     bordercolor="#000000"
     borderopacity="1"
     inkscape:pageopacity="0.0"
     inkscape:pageshadow="2"
     inkscape:zoom="1.4"
     inkscape:cx="801.95831"
     inkscape:cy="197.56694"
     inkscape:document-units="mm"
     inkscape:current-layer="layer1"
     inkscape:document-rotation="0"
     showgrid="true"
     showborder="true"
     borderlayer="true"
     inkscape:showpageshadow="false"
     objecttolerance="10000"
     guidetolerance="10000"
     inkscape:snap-perpendicular="true"
     inkscape:snap-tangential="true"
     inkscape:window-width="1080"
     inkscape:window-height="1080"
     inkscape:window-x="1499"
     inkscape:window-y="1094"
     inkscape:window-maximized="0">
    <sodipodi:guide
       position="212.98426,148.54202"
       orientation="0,793.70079"
       id="guide10" />
    <sodipodi:guide
       position="422.98426,148.54202"
       orientation="559.37008,0"
       id="guide12" />
    <sodipodi:guide
       position="422.98426,0.5420195"
       orientation="0,-793.70079"
       id="guide14" />
    <sodipodi:guide
       position="212.98426,0.5420195"
       orientation="-559.37008,0"
       id="guide16" />
    <inkscape:grid
       type="xygrid"
       id="grid20"
       dotted="true"
       units="px"
       originx="317.98426"
       originy="77.517053" />
  </sodipodi:namedview>
  <metadata
     id="metadata5">
    <rdf:RDF>
      <cc:Work
         rdf:about="">
        <dc:format>image/svg+xml</dc:format>
        <dc:type
           rdf:resource="http://purl.org/dc/dcmitype/StillImage" />
        <dc:title />
        <cc:license
           rdf:resource="" />
      </cc:Work>
    </rdf:RDF>
  </metadata>
  <g
     inkscape:label="Layer 1"
     inkscape:groupmode="layer"
     id="layer1"
     transform="translate(212.98426,3.5170473)">
    <path
       style="fill:none;stroke:#000000;stroke-width:0.236265;stroke-linecap:butt;stroke-linejoin:miter;stroke-miterlimit:4;stroke-dasharray:none;stroke-opacity:1;marker-start:url(#marker1678);marker-end:url(#marker1794)"
       d="M 27.81395,3.6391396 V 148.08334"
       id="path835"
       sodipodi:nodetypes="cc" />
    <path
       style="fill:none;stroke:#000000;stroke-width:0.236265;stroke-linecap:butt;stroke-linejoin:miter;stroke-miterlimit:4;stroke-dasharray:none;stroke-opacity:1;marker-start:url(#marker1688);marker-end:url(#marker1804)"
       d="M -0.83333333,120.11219 H 209.24674"
       id="path837"
       sodipodi:nodetypes="cc" />
    <path
       id="path839"
       style="fill:none;stroke:#000000;stroke-width:0.235893px;stroke-linecap:butt;stroke-linejoin:miter;stroke-opacity:1"
       d="m 61.235778,22.21316 c -7.45868,9.917594 -22.973662,26.968714 -5.050885,35.205337 11.182982,12.319467 -10.143057,23.611925 -3.589776,36.114431 9.648584,16.476702 32.441536,11.886162 47.930403,7.821472 14.88929,-7.822212 27.68937,-2.025868 41.38921,3.99259 C 157.20042,103.69625 171.9194,94.506623 184.375,85.759522 199.32221,73.059588 182.16526,55.498977 168.78762,50.371721 152.11001,38.858023 132.43333,58.693956 115.71004,48.768439 103.45699,39.23332 96.010376,22.612999 78.962192,19.895925 73.309502,18.989733 65.836332,18.208623 61.235778,22.21316 Z" />
    <text
       xml:space="preserve"
       style="font-size:9.43571px;line-height:1.25;font-family:sans-serif;word-spacing:0px;stroke-width:0.235893"
       x="131.27681"
       y="41.351494"
       id="text843"
       transform="scale(1.0120141,0.98812856)"><tspan
         sodipodi:role="line"
         id="tspan841"
         x="131.27681"
         y="41.351494"
         style="stroke-width:0.235893">$U$</tspan></text>
    <path
       style="fill:none;stroke:#000000;stroke-width:0.2462px;stroke-linecap:butt;stroke-linejoin:miter;stroke-opacity:1;marker-start:url(#marker1316);marker-end:url(#marker1450)"
       d="M -136.4671,1.2854925e-6 V 147.32432"
       id="path847"
       sodipodi:nodetypes="cc" />
    <path
       style="fill:#a51d1e;stroke:#000000;stroke-width:0.249443px;stroke-linecap:butt;stroke-linejoin:miter;stroke-opacity:1;marker-start:url(#marker1306);marker-end:url(#marker2254)"
       d="m -212.5,74.000003 c 211.8059197,0 206.375,0 206.375,0"
       id="path849" />
    <path
       style="fill:none;stroke:#a51d1e;stroke-width:0.849;stroke-linecap:butt;stroke-linejoin:miter;stroke-miterlimit:4;stroke-dasharray:0.849, 0.849;stroke-dashoffset:0;stroke-opacity:1"
       d="m -136.4671,74.000003 c -70.60198,68.741557 -70.60198,68.741557 -70.60198,68.741557"
       id="path851" />
    <path
       id="path853"
       style="fill:none;stroke:#000000;stroke-width:0.249443px;stroke-linecap:butt;stroke-linejoin:miter;stroke-opacity:1"
       d="m -188.30496,28.18955 c -7.5138,23.76082 -6.61371,51.469085 10.02258,72.34402 17.45479,16.00745 36.91634,-3.018087 54.51613,-6.346074 22.63503,-1.426361 31.01767,22.566784 53.67125,22.550184 26.87615,5.4198 29.2677,-28.868397 28.52498,-47.023642 0.0777,-15.797395 23.29541,-23.900738 11.62411,-38.370223 -21.29137,-10.9839 -43.52803,12.662606 -65.78929,3.702639 -0.14403,0.296807 -77.86344,-63.062739 -92.56976,-6.856904 z"
       sodipodi:nodetypes="cccccccc" />
    <path
       id="path855"
       style="fill:none;stroke:#000000;stroke-width:0.260929;stroke-linecap:butt;stroke-linejoin:miter;stroke-miterlimit:4;stroke-dasharray:none;stroke-opacity:1;marker-end:url(#Arrow1Lend)"
       d="M 63.989583,31.66667 C 1.8125,15.791672 -3.4791667,10.500006 -146.35417,42.250004"
       sodipodi:nodetypes="cc" />
    <text
       xml:space="preserve"
       style="font-size:10.5833px;line-height:1.25;font-family:sans-serif;word-spacing:0px;stroke-width:0.264583"
       x="-16.777407"
       y="35.3745"
       id="text859"><tspan
         sodipodi:role="line"
         id="tspan857"
         x="-16.777407"
         y="35.3745"
         style="stroke-width:0.264583">$f$</tspan></text>
    <path
       style="fill:#8aa678;fill-rule:evenodd;stroke:#8aa678;stroke-width:0.891565;stroke-linejoin:round;stroke-dasharray:0.891565, 0.891565;stroke-opacity:0.981966"
       id="path861"
       sodipodi:type="arc"
       sodipodi:cx="73.17215"
       sodipodi:cy="43.191521"
       sodipodi:rx="11.936367"
       sodipodi:ry="11.654646"
       sodipodi:start="4.8617717"
       sodipodi:end="4.8589443"
       sodipodi:open="true"
       sodipodi:arc-type="arc"
       d="M 74.948612,31.666671 A 11.936367,11.654646 0 0 1 84.976836,44.917909 11.936367,11.654646 0 0 1 71.412375,54.718811 11.936367,11.654646 0 0 1 61.364976,41.481429 11.936367,11.654646 0 0 1 74.915232,31.661813" />
    <path
       style="fill:#8aa678;fill-opacity:0.452136;fill-rule:evenodd;stroke:#8aa678;stroke-width:0.773568;stroke-linejoin:round;stroke-miterlimit:4;stroke-dasharray:0.773568, 1.54714;stroke-dashoffset:0;stroke-opacity:0.981966"
       id="path863"
       sodipodi:type="arc"
       sodipodi:cx="-156.78935"
       sodipodi:cy="64.027184"
       sodipodi:rx="8.9983444"
       sodipodi:ry="22.346127"
       sodipodi:start="4.8617717"
       sodipodi:end="4.8589443"
       sodipodi:open="true"
       sodipodi:arc-type="arc"
       d="m -155.45015,41.929923 a 8.9983444,22.346127 0 0 1 7.55987,25.407364 8.9983444,22.346127 0 0 1 -10.2257,18.791837 8.9983444,22.346127 0 0 1 -7.57432,-25.380799 8.9983444,22.346127 0 0 1 10.21499,-18.827717" />
  </g>
</svg>
