<?xml version="1.0" encoding="UTF-8" standalone="no"?>
<svg
   xmlns:dc="http://purl.org/dc/elements/1.1/"
   xmlns:cc="http://creativecommons.org/ns#"
   xmlns:rdf="http://www.w3.org/1999/02/22-rdf-syntax-ns#"
   xmlns:svg="http://www.w3.org/2000/svg"
   xmlns="http://www.w3.org/2000/svg"
   xmlns:sodipodi="http://sodipodi.sourceforge.net/DTD/sodipodi-0.dtd"
   xmlns:inkscape="http://www.inkscape.org/namespaces/inkscape"
   width="288.71579mm"
   height="224.52344mm"
   viewBox="0 0 288.71579 224.52344"
   version="1.1"
   id="svg8"
   sodipodi:docname="2021-02-22_14-28.svg"
   inkscape:version="1.0.2 (e86c870879, 2021-01-15)">
  <defs
     id="defs2">
    <marker
       style="overflow:visible"
       id="marker1452"
       refX="0"
       refY="0"
       orient="auto"
       inkscape:stockid="Arrow1Lend"
       inkscape:isstock="true">
      <path
         transform="matrix(-0.8,0,0,-0.8,-10,0)"
         style="fill:#000000;fill-opacity:1;fill-rule:evenodd;stroke:#000000;stroke-width:1pt;stroke-opacity:1"
         d="M 0,0 5,-5 -12.5,0 5,5 Z"
         id="path1450" />
    </marker>
    <marker
       style="overflow:visible"
       id="Arrow1Lend"
       refX="0"
       refY="0"
       orient="auto"
       inkscape:stockid="Arrow1Lend"
       inkscape:isstock="true"
       inkscape:collect="always">
      <path
         transform="matrix(-0.8,0,0,-0.8,-10,0)"
         style="fill:#000000;fill-opacity:1;fill-rule:evenodd;stroke:#000000;stroke-width:1pt;stroke-opacity:1"
         d="M 0,0 5,-5 -12.5,0 5,5 Z"
         id="path1156" />
    </marker>
  </defs>
  <sodipodi:namedview
     id="base"
     pagecolor="#ffffff"
     bordercolor="#000000"
     borderopacity="1"
     inkscape:pageopacity="0.0"
     inkscape:pageshadow="2"
     inkscape:zoom="0.54982949"
     inkscape:cx="924.94489"
     inkscape:cy="543.44198"
     inkscape:document-units="mm"
     inkscape:current-layer="layer1"
     inkscape:document-rotation="0"
     showgrid="true"
     showborder="true"
     borderlayer="true"
     inkscape:showpageshadow="false"
     objecttolerance="10000"
     guidetolerance="10000"
     inkscape:snap-perpendicular="true"
     inkscape:snap-tangential="true"
     inkscape:window-width="1920"
     inkscape:window-height="1080"
     inkscape:window-x="0"
     inkscape:window-y="0"
     inkscape:window-maximized="0">
    <sodipodi:guide
       position="100.54166,161.02344"
       orientation="0,793.70079"
       id="guide10" />
    <sodipodi:guide
       position="207.69793,-5.6640628"
       orientation="559.37008,0"
       id="guide12" />
    <sodipodi:guide
       position="194.95834,87.023443"
       orientation="0,-793.70079"
       id="guide14" />
    <sodipodi:guide
       position="-15.041667,87.023443"
       orientation="-559.37008,0"
       id="guide16" />
    <inkscape:grid
       type="xygrid"
       id="grid20"
       dotted="true"
       units="px"
       originx="89.958338"
       originy="63.5" />
  </sodipodi:namedview>
  <metadata
     id="metadata5">
    <rdf:RDF>
      <cc:Work
         rdf:about="">
        <dc:format>image/svg+xml</dc:format>
        <dc:type
           rdf:resource="http://purl.org/dc/dcmitype/StillImage" />
        <dc:title />
        <cc:license
           rdf:resource="" />
      </cc:Work>
    </rdf:RDF>
  </metadata>
  <g
     inkscape:label="Layer 1"
     inkscape:groupmode="layer"
     id="layer1"
     transform="translate(-15.041667,-10.500003)">
    <path
       style="fill:#d6d7ef;stroke:#3e8213;stroke-width:0.128;stroke-linecap:butt;stroke-linejoin:miter;stroke-miterlimit:4;stroke-dasharray:none;stroke-opacity:1"
       d="m 243.90626,230.25614 c 3.96875,-8.08947 3.96875,-8.08947 3.96875,-8.08947"
       id="path863-6-5-7" />
    <path
       style="fill:#d6d7ef;stroke:#3e8213;stroke-width:0.128;stroke-linecap:butt;stroke-linejoin:miter;stroke-miterlimit:4;stroke-dasharray:none;stroke-opacity:1"
       d="m 245.22917,230.25614 c 3.96875,-8.08947 3.96875,-8.08947 3.96875,-8.08947"
       id="path863-6-7-3-3" />
    <path
       style="fill:none;stroke:#000000;stroke-width:0.264583px;stroke-linecap:butt;stroke-linejoin:miter;stroke-opacity:1"
       d="m 94.416664,10.500003 c 0,201.083327 0,201.083327 0,201.083327"
       id="path835" />
    <path
       style="fill:none;stroke:#000000;stroke-width:0.264583px;stroke-linecap:butt;stroke-linejoin:miter;stroke-opacity:1"
       d="m 15.041667,126.91667 c 243.416663,0 243.416663,0 243.416663,0"
       id="path837" />
    <rect
       style="fill:#e0e1f3;fill-rule:evenodd;stroke:#e0e1f3;stroke-width:1;stroke-linejoin:round"
       id="rect907"
       width="59.53125"
       height="54.239582"
       x="95.739586"
       y="71.354172"
       ry="6.6145811"
       rx="0" />
    <circle
       style="fill:#a51d1e;fill-rule:evenodd;stroke:#e0e1f3;stroke-width:0.25;stroke-linejoin:round;stroke-miterlimit:4;stroke-dasharray:none"
       id="path839"
       sodipodi:type="arc"
       sodipodi:cx="94.794182"
       sodipodi:cy="71.171265"
       sodipodi:rx="2.6458333"
       sodipodi:ry="2.6458333"
       sodipodi:start="5.0507036"
       sodipodi:end="5.0265308"
       sodipodi:open="true"
       sodipodi:arc-type="arc"
       d="m 95.672328,68.675409 a 2.6458333,2.6458333 0 0 1 1.62297,3.358903 2.6458333,2.6458333 0 0 1 -3.349033,1.643239 2.6458333,2.6458333 0 0 1 -1.663448,-3.339042 2.6458333,2.6458333 0 0 1 3.328928,-1.683596" />
    <path
       style="fill:none;stroke:#3e8213;stroke-width:0.264583px;stroke-linecap:butt;stroke-linejoin:miter;stroke-opacity:1"
       d="m 118.22917,133.68323 c 7.9375,-17.34989 7.9375,-17.34989 7.9375,-17.34989"
       id="path863-6-5" />
    <circle
       style="fill:#a51d1e;fill-rule:evenodd;stroke:#e0e1f3;stroke-width:0.25;stroke-linejoin:round;stroke-miterlimit:4;stroke-dasharray:none"
       id="path839-5"
       sodipodi:type="arc"
       sodipodi:cx="154.45326"
       sodipodi:cy="71.224686"
       sodipodi:rx="2.6458333"
       sodipodi:ry="2.6458333"
       sodipodi:start="5.0507036"
       sodipodi:end="5.0265308"
       sodipodi:open="true"
       sodipodi:arc-type="arc"
       d="m 155.33141,68.72883 a 2.6458333,2.6458333 0 0 1 1.62297,3.358903 2.6458333,2.6458333 0 0 1 -3.34903,1.643239 2.6458333,2.6458333 0 0 1 -1.66345,-3.339042 2.6458333,2.6458333 0 0 1 3.32893,-1.683596" />
    <path
       style="fill:none;stroke:#3e8213;stroke-width:0.264583px;stroke-linecap:butt;stroke-linejoin:miter;stroke-opacity:1"
       d="m 120.875,133.68323 c 7.9375,-17.34989 7.9375,-17.34989 7.9375,-17.34989"
       id="path863-6-7-3" />
    <circle
       style="fill:#a51d1e;fill-rule:evenodd;stroke:#e0e1f3;stroke-width:0.25;stroke-linejoin:round;stroke-miterlimit:4;stroke-dasharray:none"
       id="path839-3"
       sodipodi:type="arc"
       sodipodi:cx="155.85652"
       sodipodi:cy="126.77126"
       sodipodi:rx="2.6458333"
       sodipodi:ry="2.6458333"
       sodipodi:start="5.0507036"
       sodipodi:end="5.0265308"
       sodipodi:open="true"
       sodipodi:arc-type="arc"
       d="m 156.73467,124.27541 a 2.6458333,2.6458333 0 0 1 1.62297,3.3589 2.6458333,2.6458333 0 0 1 -3.34904,1.64324 2.6458333,2.6458333 0 0 1 -1.66344,-3.33904 2.6458333,2.6458333 0 0 1 3.32893,-1.6836" />
    <path
       style="fill:none;stroke:#dd2a2b;stroke-width:0.264583px;stroke-linecap:butt;stroke-linejoin:miter;stroke-opacity:1"
       d="m 146.01042,111.04167 c 15.875,-10.58333 15.875,-10.58333 15.875,-10.58333"
       id="path863-3" />
    <circle
       style="fill:#a51d1e;fill-rule:evenodd;stroke:#e0e1f3;stroke-width:0.25;stroke-linejoin:round;stroke-miterlimit:4;stroke-dasharray:none"
       id="path839-56"
       sodipodi:type="arc"
       sodipodi:cx="94.854767"
       sodipodi:cy="126.79176"
       sodipodi:rx="2.6458333"
       sodipodi:ry="2.6458333"
       sodipodi:start="5.0507036"
       sodipodi:end="5.0265308"
       sodipodi:open="true"
       sodipodi:arc-type="arc"
       d="m 95.732913,124.29591 a 2.6458333,2.6458333 0 0 1 1.62297,3.3589 2.6458333,2.6458333 0 0 1 -3.349033,1.64324 2.6458333,2.6458333 0 0 1 -1.663448,-3.33904 2.6458333,2.6458333 0 0 1 3.328928,-1.6836" />
    <path
       id="path909"
       style="fill:none;stroke:#000000;stroke-width:0.264583px;stroke-linecap:butt;stroke-linejoin:miter;stroke-opacity:1;marker-end:url(#Arrow1Lend)"
       d="M 157.91667,88.552086 C 187.02083,89.875003 153.77866,41.041025 121.36869,46.987881 88.958725,52.934736 65.312502,90.05161 91.770833,89.875003"
       sodipodi:nodetypes="csc" />
    <circle
       style="fill:#e9f1e6;fill-rule:evenodd;stroke:#dd2a2b;stroke-width:0.5;stroke-linejoin:round;stroke-miterlimit:4;stroke-dasharray:none"
       id="path923-2"
       sodipodi:type="arc"
       sodipodi:cx="76.520584"
       sodipodi:cy="105.6484"
       sodipodi:rx="7.2760415"
       sodipodi:ry="6.614583"
       sodipodi:start="4.888728"
       sodipodi:end="1.7518178"
       sodipodi:arc-type="slice"
       d="m 77.796995,99.136392 a 7.2760415,6.614583 0 0 1 5.569172,4.270628 7.2760415,6.614583 0 0 1 -1.294926,6.51807 7.2760415,6.614583 0 0 1 -6.860595,2.22981 l 1.309938,-6.5065 z"
       transform="rotate(-11.129819)" />
    <text
       xml:space="preserve"
       style="font-size:10.5833px;line-height:1.25;font-family:sans-serif;word-spacing:0px;stroke-width:0.264583"
       x="143.36458"
       y="36.958332"
       id="text947"><tspan
         sodipodi:role="line"
         id="tspan945"
         x="143.36458"
         y="36.958332"
         style="stroke-width:0.264583">$\lambda$</tspan></text>
    <text
       xml:space="preserve"
       style="font-size:10.5833px;line-height:1.25;font-family:sans-serif;word-spacing:0px;stroke-width:0.264583"
       x="171.14583"
       y="99.135422"
       id="text951"><tspan
         sodipodi:role="line"
         id="tspan949"
         x="171.14583"
         y="99.135422"
         style="stroke-width:0.264583">Embedded neighborhood</tspan></text>
    <path
       id="path953"
       style="fill:none;stroke:#000000;stroke-width:0.264583px;stroke-linecap:butt;stroke-linejoin:miter;stroke-opacity:1;marker-end:url(#marker1452)"
       d="m 139.39583,133.53125 c 10.44031,26.82091 40.85373,35.8397 59.10583,55.73615" />
    <path
       id="path957"
       style="fill:none;stroke:#000000;stroke-width:0.5;stroke-linecap:butt;stroke-linejoin:miter;stroke-miterlimit:4;stroke-dasharray:none;stroke-opacity:1"
       d="m 251.84375,191.73958 c -22.3571,-2.99029 -47.7929,-3.01098 -59.71332,13.55745 -3.37159,4.68624 -2.43516,13.23741 1.73242,17.23238 16.74009,16.04675 52.75995,15.16999 69.45031,4.02628 3.17272,-2.36349 6.38494,-4.93978 8.57058,-8.2626 3.06573,-5.50018 2.69345,-12.8127 -1.59221,-17.5762 -4.57462,-5.36649 -11.75572,-7.56864 -18.44778,-8.97731 z"
       sodipodi:nodetypes="caacccc" />
    <g
       id="g1524"
       style="stroke-width:0.5;stroke-miterlimit:4;stroke-dasharray:none">
      <path
         style="fill:none;stroke:#000000;stroke-width:0.5;stroke-linecap:butt;stroke-linejoin:miter;stroke-miterlimit:4;stroke-dasharray:none;stroke-opacity:1"
         d="m 211.15083,212.97388 c 10.31204,10.60683 35.41481,6.68825 45.98459,-0.0676"
         id="path959"
         sodipodi:nodetypes="cc" />
      <path
         style="fill:none;stroke:#000000;stroke-width:0.5;stroke-linecap:butt;stroke-linejoin:miter;stroke-miterlimit:4;stroke-dasharray:none;stroke-opacity:1"
         d="m 214.27292,215.55209 c 13.74972,-5.50504 26.28139,-4.98517 37.83541,0"
         id="path963"
         sodipodi:nodetypes="cc" />
    </g>
    <path
       id="path965"
       style="fill:none;stroke:#dd2a2b;stroke-width:0.264583px;stroke-linecap:butt;stroke-linejoin:miter;stroke-opacity:1"
       d="m 237.66389,227.71733 c 10.87283,-1.57871 29.21927,-5.05281 27.8463,-17.63462 -1.45738,-13.35537 -21.61122,-15.23268 -36.85859,-14.82887 -20.5882,0.54525 -28.80994,13.48174 -26.34315,22.44394 1.59283,12.14525 23.2333,11.77966 35.35544,10.01955 z"
       sodipodi:nodetypes="assca" />
    <path
       style="fill:none;stroke:#dd2a2b;stroke-width:0.264583px;stroke-linecap:butt;stroke-linejoin:miter;stroke-opacity:1"
       d="M 89.124998,113.6875 C 105,103.10417 105,103.10417 105,103.10417"
       id="path863" />
    <path
       style="fill:none;stroke:#3e8213;stroke-width:0.264583px;stroke-linecap:butt;stroke-linejoin:miter;stroke-opacity:1"
       d="m 116.90625,80.766558 c 7.9375,-17.349888 7.9375,-17.349888 7.9375,-17.349888"
       id="path863-6" />
    <path
       style="fill:none;stroke:#3e8213;stroke-width:0.264583px;stroke-linecap:butt;stroke-linejoin:miter;stroke-opacity:1"
       d="m 119.55208,80.766558 c 7.9375,-17.349888 7.9375,-17.349888 7.9375,-17.349888"
       id="path863-6-7" />
    <circle
       style="fill:#a51d1e;fill-rule:evenodd;stroke:#e0e1f3;stroke-width:0.25;stroke-linejoin:round;stroke-miterlimit:4;stroke-dasharray:none"
       id="path839-562"
       sodipodi:type="arc"
       sodipodi:cx="154.51384"
       sodipodi:cy="71.245178"
       sodipodi:rx="2.6458333"
       sodipodi:ry="2.6458333"
       sodipodi:start="5.0507036"
       sodipodi:end="5.0265308"
       sodipodi:open="true"
       sodipodi:arc-type="arc"
       d="m 155.39199,68.749323 a 2.6458333,2.6458333 0 0 1 1.62297,3.358902 2.6458333,2.6458333 0 0 1 -3.34904,1.643239 2.6458333,2.6458333 0 0 1 -1.66344,-3.339041 2.6458333,2.6458333 0 0 1 3.32892,-1.683596" />
    <circle
       style="fill:#a51d1e;fill-rule:evenodd;stroke:#e0e1f3;stroke-width:0.25;stroke-linejoin:round;stroke-miterlimit:4;stroke-dasharray:none"
       id="path839-5-9"
       sodipodi:type="arc"
       sodipodi:cx="214.10565"
       sodipodi:cy="71.232742"
       sodipodi:rx="2.6458333"
       sodipodi:ry="2.6458333"
       sodipodi:start="5.0507036"
       sodipodi:end="5.0265308"
       sodipodi:open="true"
       sodipodi:arc-type="arc"
       d="m 214.9838,68.736887 a 2.6458333,2.6458333 0 0 1 1.62297,3.358902 2.6458333,2.6458333 0 0 1 -3.34903,1.64324 2.6458333,2.6458333 0 0 1 -1.66345,-3.339042 2.6458333,2.6458333 0 0 1 3.32893,-1.683596" />
    <circle
       style="fill:#a51d1e;fill-rule:evenodd;stroke:#e0e1f3;stroke-width:0.25;stroke-linejoin:round;stroke-miterlimit:4;stroke-dasharray:none"
       id="path839-3-1"
       sodipodi:type="arc"
       sodipodi:cx="215.36801"
       sodipodi:cy="126.81225"
       sodipodi:rx="2.6458333"
       sodipodi:ry="2.6458333"
       sodipodi:start="5.0507036"
       sodipodi:end="5.0265308"
       sodipodi:open="true"
       sodipodi:arc-type="arc"
       d="m 216.24616,124.31639 a 2.6458333,2.6458333 0 0 1 1.62297,3.35891 2.6458333,2.6458333 0 0 1 -3.34904,1.64323 2.6458333,2.6458333 0 0 1 -1.66344,-3.33904 2.6458333,2.6458333 0 0 1 3.32893,-1.68359" />
    <circle
       style="fill:#a51d1e;fill-rule:evenodd;stroke:#e0e1f3;stroke-width:0.25;stroke-linejoin:round;stroke-miterlimit:4;stroke-dasharray:none"
       id="path839-2"
       sodipodi:type="arc"
       sodipodi:cx="93.47126"
       sodipodi:cy="15.571266"
       sodipodi:rx="2.6458333"
       sodipodi:ry="2.6458333"
       sodipodi:start="5.0507036"
       sodipodi:end="5.0265308"
       sodipodi:open="true"
       sodipodi:arc-type="arc"
       d="m 94.349406,13.075411 a 2.6458333,2.6458333 0 0 1 1.62297,3.358902 2.6458333,2.6458333 0 0 1 -3.349033,1.643239 2.6458333,2.6458333 0 0 1 -1.663448,-3.339041 2.6458333,2.6458333 0 0 1 3.328929,-1.683596" />
    <circle
       style="fill:#a51d1e;fill-rule:evenodd;stroke:#e0e1f3;stroke-width:0.25;stroke-linejoin:round;stroke-miterlimit:4;stroke-dasharray:none"
       id="path839-5-0"
       sodipodi:type="arc"
       sodipodi:cx="153.27126"
       sodipodi:cy="15.591759"
       sodipodi:rx="2.6458333"
       sodipodi:ry="2.6458333"
       sodipodi:start="5.0507036"
       sodipodi:end="5.0265308"
       sodipodi:open="true"
       sodipodi:arc-type="arc"
       d="m 154.1494,13.095904 a 2.6458333,2.6458333 0 0 1 1.62297,3.358902 2.6458333,2.6458333 0 0 1 -3.34903,1.643239 2.6458333,2.6458333 0 0 1 -1.66345,-3.339042 2.6458333,2.6458333 0 0 1 3.32893,-1.683595" />
    <circle
       style="fill:#a51d1e;fill-rule:evenodd;stroke:#e0e1f3;stroke-width:0.25;stroke-linejoin:round;stroke-miterlimit:4;stroke-dasharray:none"
       id="path839-3-2"
       sodipodi:type="arc"
       sodipodi:cx="154.5336"
       sodipodi:cy="71.171265"
       sodipodi:rx="2.6458333"
       sodipodi:ry="2.6458333"
       sodipodi:start="5.0507036"
       sodipodi:end="5.0265308"
       sodipodi:open="true"
       sodipodi:arc-type="arc"
       d="m 155.41175,68.675409 a 2.6458333,2.6458333 0 0 1 1.62297,3.358903 2.6458333,2.6458333 0 0 1 -3.34904,1.643239 2.6458333,2.6458333 0 0 1 -1.66344,-3.339042 2.6458333,2.6458333 0 0 1 3.32892,-1.683596" />
    <circle
       style="fill:#a51d1e;fill-rule:evenodd;stroke:#e0e1f3;stroke-width:0.25;stroke-linejoin:round;stroke-miterlimit:4;stroke-dasharray:none"
       id="path839-7"
       sodipodi:type="arc"
       sodipodi:cx="33.859676"
       sodipodi:cy="71.224686"
       sodipodi:rx="2.6458333"
       sodipodi:ry="2.6458333"
       sodipodi:start="5.0507036"
       sodipodi:end="5.0265308"
       sodipodi:open="true"
       sodipodi:arc-type="arc"
       d="m 34.737822,68.72883 a 2.6458333,2.6458333 0 0 1 1.622971,3.358903 2.6458333,2.6458333 0 0 1 -3.349033,1.643239 2.6458333,2.6458333 0 0 1 -1.663448,-3.339042 2.6458333,2.6458333 0 0 1 3.328928,-1.683596" />
    <circle
       style="fill:#a51d1e;fill-rule:evenodd;stroke:#e0e1f3;stroke-width:0.25;stroke-linejoin:round;stroke-miterlimit:4;stroke-dasharray:none"
       id="path839-3-5"
       sodipodi:type="arc"
       sodipodi:cx="94.92202"
       sodipodi:cy="126.82468"
       sodipodi:rx="2.6458333"
       sodipodi:ry="2.6458333"
       sodipodi:start="5.0507036"
       sodipodi:end="5.0265308"
       sodipodi:open="true"
       sodipodi:arc-type="arc"
       d="m 95.800166,124.32882 a 2.6458333,2.6458333 0 0 1 1.62297,3.3589 2.6458333,2.6458333 0 0 1 -3.349033,1.64324 2.6458333,2.6458333 0 0 1 -1.663448,-3.33904 2.6458333,2.6458333 0 0 1 3.328928,-1.68359" />
    <circle
       style="fill:#a51d1e;fill-rule:evenodd;stroke:#e0e1f3;stroke-width:0.25;stroke-linejoin:round;stroke-miterlimit:4;stroke-dasharray:none"
       id="path839-56-9"
       sodipodi:type="arc"
       sodipodi:cx="33.920261"
       sodipodi:cy="126.84519"
       sodipodi:rx="2.6458333"
       sodipodi:ry="2.6458333"
       sodipodi:start="5.0507036"
       sodipodi:end="5.0265308"
       sodipodi:open="true"
       sodipodi:arc-type="arc"
       d="m 34.798407,124.34934 a 2.6458333,2.6458333 0 0 1 1.622971,3.3589 2.6458333,2.6458333 0 0 1 -3.349033,1.64324 2.6458333,2.6458333 0 0 1 -1.663448,-3.33904 2.6458333,2.6458333 0 0 1 3.328928,-1.6836" />
    <circle
       style="fill:#a51d1e;fill-rule:evenodd;stroke:#e0e1f3;stroke-width:0.25;stroke-linejoin:round;stroke-miterlimit:4;stroke-dasharray:none"
       id="path839-2-2"
       sodipodi:type="arc"
       sodipodi:cx="32.744938"
       sodipodi:cy="15.662188"
       sodipodi:rx="2.6458333"
       sodipodi:ry="2.6458333"
       sodipodi:start="5.0507036"
       sodipodi:end="5.0265308"
       sodipodi:open="true"
       sodipodi:arc-type="arc"
       d="m 33.623084,13.166332 a 2.6458333,2.6458333 0 0 1 1.62297,3.358903 2.6458333,2.6458333 0 0 1 -3.349033,1.643239 2.6458333,2.6458333 0 0 1 -1.663448,-3.339042 2.6458333,2.6458333 0 0 1 3.328928,-1.683596" />
    <circle
       style="fill:#a51d1e;fill-rule:evenodd;stroke:#e0e1f3;stroke-width:0.25;stroke-linejoin:round;stroke-miterlimit:4;stroke-dasharray:none"
       id="path839-2-8"
       sodipodi:type="arc"
       sodipodi:cx="212.60101"
       sodipodi:cy="15.641691"
       sodipodi:rx="2.6458333"
       sodipodi:ry="2.6458333"
       sodipodi:start="5.0507036"
       sodipodi:end="5.0265308"
       sodipodi:open="true"
       sodipodi:arc-type="arc"
       d="m 213.47916,13.145836 a 2.6458333,2.6458333 0 0 1 1.62297,3.358902 2.6458333,2.6458333 0 0 1 -3.34903,1.643239 2.6458333,2.6458333 0 0 1 -1.66345,-3.339041 2.6458333,2.6458333 0 0 1 3.32893,-1.683596" />
    <circle
       style="fill:#e9f1e6;fill-rule:evenodd;stroke:#dd2a2b;stroke-width:0.5;stroke-linejoin:round;stroke-miterlimit:4;stroke-dasharray:none"
       id="path923-2-9"
       sodipodi:type="arc"
       sodipodi:cx="-169.76439"
       sodipodi:cy="57.196087"
       sodipodi:rx="7.2760415"
       sodipodi:ry="6.614583"
       sodipodi:start="4.888728"
       sodipodi:end="1.7518178"
       sodipodi:arc-type="slice"
       transform="matrix(-0.98119234,-0.19303264,-0.19303264,0.98119234,0,0)"
       d="m -168.48798,50.684079 a 7.2760415,6.614583 0 0 1 5.56917,4.270628 7.2760415,6.614583 0 0 1 -1.29492,6.518069 7.2760415,6.614583 0 0 1 -6.8606,2.229814 l 1.30994,-6.506503 z" />
    <path
       style="fill:#d6d7ef;fill-rule:evenodd;stroke:#3a7c0e;stroke-width:0.548915;stroke-linejoin:round;stroke-miterlimit:4;stroke-dasharray:none"
       d="m 841.12739,863.29706 c -38.31609,-1.6523 -63.30702,-11.6125 -72.15027,-28.75568 -1.89907,-3.68145 -2.68355,-6.15516 -3.94912,-12.45274 -1.76826,-8.79904 -1.83953,-14.23656 -0.28648,-21.8575 1.77422,-8.70625 6.54042,-18.4059 12.96872,-26.39253 9.03191,-11.22138 23.50286,-21.08568 39.37091,-26.83763 18.68327,-6.77244 35.12209,-8.89911 65.72837,-8.5032 15.2237,0.19693 23.06841,0.61045 34.27519,1.80675 43.56142,4.65011 71.07575,17.61951 81.29901,38.32181 4.44248,8.99618 5.83978,19.06104 3.94048,28.38435 -2.2834,11.209 -9.97662,21.0795 -22.74105,29.17707 -7.30726,4.63561 -18.50054,9.54789 -29.6284,13.00271 -5.31722,1.65083 -14.13595,3.96059 -14.1315,3.70128 0.002,-0.10788 1.43078,-3.10221 3.1754,-6.65409 1.74462,-3.55189 3.05181,-6.53228 2.90485,-6.6231 -0.14695,-0.0908 -1.81511,2.94326 -3.70703,6.74241 -3.4294,6.88655 -3.44335,6.90855 -4.59222,7.24118 -0.6338,0.1835 -1.7014,0.4264 -2.37244,0.53977 l -1.22006,0.20613 3.485,-7.05944 c 3.31114,-6.70725 3.77206,-7.80809 3.26715,-7.80313 -0.11982,10e-4 -1.84341,3.34273 -3.8302,7.42567 -1.9868,4.08294 -3.82493,7.5373 -4.08475,7.67635 -1.78475,0.95517 -28.95915,5.47092 -40.95625,6.80597 -15.54728,1.73012 -33.70504,2.47079 -46.76531,1.90759 z m 49.66999,-33.24602 c 30.33158,-2.81277 59.81686,-11.38275 79.29769,-23.04811 1.19818,-0.71748 2.2275,-1.34489 2.28736,-1.39424 0.0599,-0.0494 -0.13876,-0.4808 -0.44139,-0.95878 l -0.55025,-0.86906 -2.75375,1.62137 c -3.24012,1.90773 -9.47137,5.06971 -13.33144,6.76488 l -2.73506,1.20113 -4.44875,-1.76317 c -28.23117,-11.18884 -56.53102,-15.01342 -85.93548,-11.61373 -15.2415,1.76219 -32.02205,5.89433 -47.24155,11.633 -2.49854,0.9421 -4.65526,1.71028 -4.79272,1.70706 -0.50189,-0.0117 -5.37039,-3.69561 -8.39047,-6.34885 l -3.10045,-2.72385 -0.71891,0.71892 -0.71892,0.71891 2.27286,2.1046 c 13.32941,12.34263 33.18521,19.96629 57.9009,22.23114 7.23827,0.66329 7.52779,0.67214 18.44124,0.56398 5.99165,-0.0594 12.13445,-0.28326 14.95909,-0.5452 z"
       id="path1528"
       transform="scale(0.26458333)" />
    <path
       style="fill:#d6d7ef;fill-rule:evenodd;stroke:#3a7c0e;stroke-width:0.548915;stroke-linejoin:round;stroke-miterlimit:4;stroke-dasharray:none"
       d="m 858.41023,885.92139 c -46.78533,-2.38493 -88.06102,-15.82324 -115.7514,-37.6857 -7.41509,-5.85446 -11.43935,-9.8473 -14.3958,-14.28339 -9.85958,-14.7941 -11.60876,-37.06721 -4.12392,-52.51159 2.91332,-6.01141 11.60528,-16.35754 19.67297,-23.41694 8.84707,-7.74137 17.26002,-13.26594 28.53133,-18.73578 21.75282,-10.55641 45.02129,-16.03633 79.09559,-18.62766 6.56397,-0.49918 31.53428,-0.68182 40.68066,-0.29755 17.37487,0.72999 31.8404,1.94471 50.81668,4.26725 8.87828,1.08663 11.85139,1.64072 20.33274,3.78935 24.80303,6.28351 41.29602,14.535 53.60502,26.81867 6.8466,6.83257 10.5101,12.19589 13.4671,19.71604 2.4386,6.20176 3.6568,13.01881 3.6568,20.46437 0,7.1756 -0.843,12.65242 -2.8973,18.82347 -2.1999,6.60881 -4.2556,10.46337 -8.2336,15.43909 -6.3788,7.97847 -13.4934,14.56212 -25.50719,23.60352 -17.50373,13.17304 -46.33748,23.98486 -77.80622,29.17506 -19.32162,3.18676 -41.69236,4.45333 -61.14346,3.46179 z m 67.32947,-22.88742 3.54466,-7.23494 1.99629,-0.46245 c 1.09795,-0.25435 2.16928,-0.46245 2.38071,-0.46245 0.23324,0 -1.09395,2.99889 -3.3744,7.62478 -2.378,4.82374 -3.63139,7.66746 -3.41189,7.74096 0.19083,0.0639 0.39051,-10e-4 0.44373,-0.14523 0.0532,-0.14378 1.82434,-3.72525 3.93583,-7.95882 l 3.83908,-7.69739 2.17851,-0.51691 c 12.34055,-2.92812 25.12999,-7.44319 34.85613,-12.3053 18.4627,-9.22953 28.63485,-20.58273 31.58325,-35.25021 0.6797,-3.38105 0.6673,-11.58857 -0.023,-15.31804 -3.8314,-20.6978 -18.85081,-34.89965 -46.51934,-43.98709 -15.82297,-5.19689 -37.23492,-8.47397 -62.30533,-9.53577 -8.8704,-0.37569 -26.77885,-0.37124 -34.30523,0.009 -33.42012,1.68626 -59.74031,11.58683 -77.92022,29.31037 -13.46422,13.12623 -20.93964,30.19218 -20.11103,45.91231 0.19179,3.63863 0.38911,4.9439 1.74259,11.52705 1.77123,8.61502 4.54223,13.83784 10.45438,19.70452 10.11846,10.04063 25.61389,16.02814 49.55585,19.14861 18.80178,2.45053 45.75797,1.89687 70.87413,-1.45572 6.90746,-0.92203 23.32743,-3.64417 28.73825,-4.76429 2.30655,-0.4775 4.24762,-0.81427 4.3135,-0.7484 0.0659,0.0659 -1.39649,3.21851 -3.24971,7.00585 -1.85321,3.78734 -3.36948,6.93308 -3.36948,6.99054 0,0.0575 0.13682,0.10446 0.30404,0.10446 0.16722,0 1.89914,-3.25573 3.8487,-7.23495 z"
       id="path1530"
       transform="scale(0.26458333)" />
  </g>
</svg>
