<?xml version="1.0" encoding="utf-8" standalone="no"?>
<!DOCTYPE svg PUBLIC "-//W3C//DTD SVG 1.1//EN"
  "http://www.w3.org/Graphics/SVG/1.1/DTD/svg11.dtd">
<!-- Created with matplotlib (http://matplotlib.org/) -->
<svg height="280.478125pt" version="1.1" viewBox="0 0 290.310937 280.478125" width="290.310937pt" xmlns="http://www.w3.org/2000/svg" xmlns:xlink="http://www.w3.org/1999/xlink">
 <defs>
  <style type="text/css">
*{stroke-linecap:butt;stroke-linejoin:round;}
  </style>
 </defs>
 <g id="figure_1">
  <g id="patch_1">
   <path d="M 0 280.478125 
L 290.310937 280.478125 
L 290.310937 0 
L 0 0 
z
" style="fill:#ffffff;"/>
  </g>
  <g id="axes_1">
   <g id="patch_2">
    <path d="M 33.710938 256.6 
L 279.610937 256.6 
L 279.610937 10.7 
L 33.710938 10.7 
z
" style="fill:#ffffff;"/>
   </g>
   <g id="matplotlib.axis_1">
    <g id="xtick_1">
     <g id="line2d_1">
      <defs>
       <path d="M 0 0 
L 0 3.5 
" id="m2ca3c881b9" style="stroke:#000000;stroke-width:0.8;"/>
      </defs>
      <g>
       <use style="stroke:#000000;stroke-width:0.8;" x="38.439784" xlink:href="#m2ca3c881b9" y="256.6"/>
      </g>
     </g>
     <g id="text_1">
      <!-- -1 -->
      <defs>
       <path d="M 4.890625 31.390625 
L 31.203125 31.390625 
L 31.203125 23.390625 
L 4.890625 23.390625 
z
" id="DejaVuSans-2d"/>
       <path d="M 12.40625 8.296875 
L 28.515625 8.296875 
L 28.515625 63.921875 
L 10.984375 60.40625 
L 10.984375 69.390625 
L 28.421875 72.90625 
L 38.28125 72.90625 
L 38.28125 8.296875 
L 54.390625 8.296875 
L 54.390625 0 
L 12.40625 0 
z
" id="DejaVuSans-31"/>
      </defs>
      <g transform="translate(33.454627 271.198438)scale(0.1 -0.1)">
       <use xlink:href="#DejaVuSans-2d"/>
       <use x="36.083984" xlink:href="#DejaVuSans-31"/>
      </g>
     </g>
    </g>
    <g id="xtick_2">
     <g id="line2d_2">
      <g>
       <use style="stroke:#000000;stroke-width:0.8;" x="97.550361" xlink:href="#m2ca3c881b9" y="256.6"/>
      </g>
     </g>
     <g id="text_2">
      <!-- -0.5 -->
      <defs>
       <path d="M 31.78125 66.40625 
Q 24.171875 66.40625 20.328125 58.90625 
Q 16.5 51.421875 16.5 36.375 
Q 16.5 21.390625 20.328125 13.890625 
Q 24.171875 6.390625 31.78125 6.390625 
Q 39.453125 6.390625 43.28125 13.890625 
Q 47.125 21.390625 47.125 36.375 
Q 47.125 51.421875 43.28125 58.90625 
Q 39.453125 66.40625 31.78125 66.40625 
z
M 31.78125 74.21875 
Q 44.046875 74.21875 50.515625 64.515625 
Q 56.984375 54.828125 56.984375 36.375 
Q 56.984375 17.96875 50.515625 8.265625 
Q 44.046875 -1.421875 31.78125 -1.421875 
Q 19.53125 -1.421875 13.0625 8.265625 
Q 6.59375 17.96875 6.59375 36.375 
Q 6.59375 54.828125 13.0625 64.515625 
Q 19.53125 74.21875 31.78125 74.21875 
z
" id="DejaVuSans-30"/>
       <path d="M 10.6875 12.40625 
L 21 12.40625 
L 21 0 
L 10.6875 0 
z
" id="DejaVuSans-2e"/>
       <path d="M 10.796875 72.90625 
L 49.515625 72.90625 
L 49.515625 64.59375 
L 19.828125 64.59375 
L 19.828125 46.734375 
Q 21.96875 47.46875 24.109375 47.828125 
Q 26.265625 48.1875 28.421875 48.1875 
Q 40.625 48.1875 47.75 41.5 
Q 54.890625 34.8125 54.890625 23.390625 
Q 54.890625 11.625 47.5625 5.09375 
Q 40.234375 -1.421875 26.90625 -1.421875 
Q 22.3125 -1.421875 17.546875 -0.640625 
Q 12.796875 0.140625 7.71875 1.703125 
L 7.71875 11.625 
Q 12.109375 9.234375 16.796875 8.0625 
Q 21.484375 6.890625 26.703125 6.890625 
Q 35.15625 6.890625 40.078125 11.328125 
Q 45.015625 15.765625 45.015625 23.390625 
Q 45.015625 31 40.078125 35.4375 
Q 35.15625 39.890625 26.703125 39.890625 
Q 22.75 39.890625 18.8125 39.015625 
Q 14.890625 38.140625 10.796875 36.28125 
z
" id="DejaVuSans-35"/>
      </defs>
      <g transform="translate(87.794892 271.198438)scale(0.1 -0.1)">
       <use xlink:href="#DejaVuSans-2d"/>
       <use x="36.083984" xlink:href="#DejaVuSans-30"/>
       <use x="99.707031" xlink:href="#DejaVuSans-2e"/>
       <use x="131.494141" xlink:href="#DejaVuSans-35"/>
      </g>
     </g>
    </g>
    <g id="xtick_3">
     <g id="line2d_3">
      <g>
       <use style="stroke:#000000;stroke-width:0.8;" x="156.660937" xlink:href="#m2ca3c881b9" y="256.6"/>
      </g>
     </g>
     <g id="text_3">
      <!-- 0 -->
      <g transform="translate(153.479687 271.198438)scale(0.1 -0.1)">
       <use xlink:href="#DejaVuSans-30"/>
      </g>
     </g>
    </g>
    <g id="xtick_4">
     <g id="line2d_4">
      <g>
       <use style="stroke:#000000;stroke-width:0.8;" x="215.771514" xlink:href="#m2ca3c881b9" y="256.6"/>
      </g>
     </g>
     <g id="text_4">
      <!-- 0.5 -->
      <g transform="translate(207.819952 271.198438)scale(0.1 -0.1)">
       <use xlink:href="#DejaVuSans-30"/>
       <use x="63.623047" xlink:href="#DejaVuSans-2e"/>
       <use x="95.410156" xlink:href="#DejaVuSans-35"/>
      </g>
     </g>
    </g>
    <g id="xtick_5">
     <g id="line2d_5">
      <g>
       <use style="stroke:#000000;stroke-width:0.8;" x="274.882091" xlink:href="#m2ca3c881b9" y="256.6"/>
      </g>
     </g>
     <g id="text_5">
      <!-- 1 -->
      <g transform="translate(271.700841 271.198438)scale(0.1 -0.1)">
       <use xlink:href="#DejaVuSans-31"/>
      </g>
     </g>
    </g>
    <g id="xtick_6">
     <g id="line2d_6">
      <defs>
       <path d="M 0 0 
L 0 2 
" id="m85d7ebbb62" style="stroke:#000000;stroke-width:0.6;"/>
      </defs>
      <g>
       <use style="stroke:#000000;stroke-width:0.6;" x="50.261899" xlink:href="#m85d7ebbb62" y="256.6"/>
      </g>
     </g>
    </g>
    <g id="xtick_7">
     <g id="line2d_7">
      <g>
       <use style="stroke:#000000;stroke-width:0.6;" x="62.084014" xlink:href="#m85d7ebbb62" y="256.6"/>
      </g>
     </g>
    </g>
    <g id="xtick_8">
     <g id="line2d_8">
      <g>
       <use style="stroke:#000000;stroke-width:0.6;" x="73.90613" xlink:href="#m85d7ebbb62" y="256.6"/>
      </g>
     </g>
    </g>
    <g id="xtick_9">
     <g id="line2d_9">
      <g>
       <use style="stroke:#000000;stroke-width:0.6;" x="85.728245" xlink:href="#m85d7ebbb62" y="256.6"/>
      </g>
     </g>
    </g>
    <g id="xtick_10">
     <g id="line2d_10">
      <g>
       <use style="stroke:#000000;stroke-width:0.6;" x="109.372476" xlink:href="#m85d7ebbb62" y="256.6"/>
      </g>
     </g>
    </g>
    <g id="xtick_11">
     <g id="line2d_11">
      <g>
       <use style="stroke:#000000;stroke-width:0.6;" x="121.194591" xlink:href="#m85d7ebbb62" y="256.6"/>
      </g>
     </g>
    </g>
    <g id="xtick_12">
     <g id="line2d_12">
      <g>
       <use style="stroke:#000000;stroke-width:0.6;" x="133.016707" xlink:href="#m85d7ebbb62" y="256.6"/>
      </g>
     </g>
    </g>
    <g id="xtick_13">
     <g id="line2d_13">
      <g>
       <use style="stroke:#000000;stroke-width:0.6;" x="144.838822" xlink:href="#m85d7ebbb62" y="256.6"/>
      </g>
     </g>
    </g>
    <g id="xtick_14">
     <g id="line2d_14">
      <g>
       <use style="stroke:#000000;stroke-width:0.6;" x="168.483053" xlink:href="#m85d7ebbb62" y="256.6"/>
      </g>
     </g>
    </g>
    <g id="xtick_15">
     <g id="line2d_15">
      <g>
       <use style="stroke:#000000;stroke-width:0.6;" x="180.305168" xlink:href="#m85d7ebbb62" y="256.6"/>
      </g>
     </g>
    </g>
    <g id="xtick_16">
     <g id="line2d_16">
      <g>
       <use style="stroke:#000000;stroke-width:0.6;" x="192.127284" xlink:href="#m85d7ebbb62" y="256.6"/>
      </g>
     </g>
    </g>
    <g id="xtick_17">
     <g id="line2d_17">
      <g>
       <use style="stroke:#000000;stroke-width:0.6;" x="203.949399" xlink:href="#m85d7ebbb62" y="256.6"/>
      </g>
     </g>
    </g>
    <g id="xtick_18">
     <g id="line2d_18">
      <g>
       <use style="stroke:#000000;stroke-width:0.6;" x="227.59363" xlink:href="#m85d7ebbb62" y="256.6"/>
      </g>
     </g>
    </g>
    <g id="xtick_19">
     <g id="line2d_19">
      <g>
       <use style="stroke:#000000;stroke-width:0.6;" x="239.415745" xlink:href="#m85d7ebbb62" y="256.6"/>
      </g>
     </g>
    </g>
    <g id="xtick_20">
     <g id="line2d_20">
      <g>
       <use style="stroke:#000000;stroke-width:0.6;" x="251.237861" xlink:href="#m85d7ebbb62" y="256.6"/>
      </g>
     </g>
    </g>
    <g id="xtick_21">
     <g id="line2d_21">
      <g>
       <use style="stroke:#000000;stroke-width:0.6;" x="263.059976" xlink:href="#m85d7ebbb62" y="256.6"/>
      </g>
     </g>
    </g>
   </g>
   <g id="matplotlib.axis_2">
    <g id="ytick_1">
     <g id="line2d_22">
      <defs>
       <path d="M 0 0 
L -3.5 0 
" id="mba5202f807" style="stroke:#000000;stroke-width:0.8;"/>
      </defs>
      <g>
       <use style="stroke:#000000;stroke-width:0.8;" x="33.710938" xlink:href="#mba5202f807" y="251.871154"/>
      </g>
     </g>
     <g id="text_6">
      <!-- -1 -->
      <g transform="translate(16.740625 255.670373)scale(0.1 -0.1)">
       <use xlink:href="#DejaVuSans-2d"/>
       <use x="36.083984" xlink:href="#DejaVuSans-31"/>
      </g>
     </g>
    </g>
    <g id="ytick_2">
     <g id="line2d_23">
      <g>
       <use style="stroke:#000000;stroke-width:0.8;" x="33.710938" xlink:href="#mba5202f807" y="192.760577"/>
      </g>
     </g>
     <g id="text_7">
      <!-- -0.5 -->
      <g transform="translate(7.2 196.559796)scale(0.1 -0.1)">
       <use xlink:href="#DejaVuSans-2d"/>
       <use x="36.083984" xlink:href="#DejaVuSans-30"/>
       <use x="99.707031" xlink:href="#DejaVuSans-2e"/>
       <use x="131.494141" xlink:href="#DejaVuSans-35"/>
      </g>
     </g>
    </g>
    <g id="ytick_3">
     <g id="line2d_24">
      <g>
       <use style="stroke:#000000;stroke-width:0.8;" x="33.710938" xlink:href="#mba5202f807" y="133.65"/>
      </g>
     </g>
     <g id="text_8">
      <!-- 0 -->
      <g transform="translate(20.348437 137.449219)scale(0.1 -0.1)">
       <use xlink:href="#DejaVuSans-30"/>
      </g>
     </g>
    </g>
    <g id="ytick_4">
     <g id="line2d_25">
      <g>
       <use style="stroke:#000000;stroke-width:0.8;" x="33.710938" xlink:href="#mba5202f807" y="74.539423"/>
      </g>
     </g>
     <g id="text_9">
      <!-- 0.5 -->
      <g transform="translate(10.807812 78.338642)scale(0.1 -0.1)">
       <use xlink:href="#DejaVuSans-30"/>
       <use x="63.623047" xlink:href="#DejaVuSans-2e"/>
       <use x="95.410156" xlink:href="#DejaVuSans-35"/>
      </g>
     </g>
    </g>
    <g id="ytick_5">
     <g id="line2d_26">
      <g>
       <use style="stroke:#000000;stroke-width:0.8;" x="33.710938" xlink:href="#mba5202f807" y="15.428846"/>
      </g>
     </g>
     <g id="text_10">
      <!-- 1 -->
      <g transform="translate(20.348437 19.228065)scale(0.1 -0.1)">
       <use xlink:href="#DejaVuSans-31"/>
      </g>
     </g>
    </g>
    <g id="ytick_6">
     <g id="line2d_27">
      <defs>
       <path d="M 0 0 
L -2 0 
" id="m7819864b06" style="stroke:#000000;stroke-width:0.6;"/>
      </defs>
      <g>
       <use style="stroke:#000000;stroke-width:0.6;" x="33.710938" xlink:href="#m7819864b06" y="240.049038"/>
      </g>
     </g>
    </g>
    <g id="ytick_7">
     <g id="line2d_28">
      <g>
       <use style="stroke:#000000;stroke-width:0.6;" x="33.710938" xlink:href="#m7819864b06" y="228.226923"/>
      </g>
     </g>
    </g>
    <g id="ytick_8">
     <g id="line2d_29">
      <g>
       <use style="stroke:#000000;stroke-width:0.6;" x="33.710938" xlink:href="#m7819864b06" y="216.404808"/>
      </g>
     </g>
    </g>
    <g id="ytick_9">
     <g id="line2d_30">
      <g>
       <use style="stroke:#000000;stroke-width:0.6;" x="33.710938" xlink:href="#m7819864b06" y="204.582692"/>
      </g>
     </g>
    </g>
    <g id="ytick_10">
     <g id="line2d_31">
      <g>
       <use style="stroke:#000000;stroke-width:0.6;" x="33.710938" xlink:href="#m7819864b06" y="180.938462"/>
      </g>
     </g>
    </g>
    <g id="ytick_11">
     <g id="line2d_32">
      <g>
       <use style="stroke:#000000;stroke-width:0.6;" x="33.710938" xlink:href="#m7819864b06" y="169.116346"/>
      </g>
     </g>
    </g>
    <g id="ytick_12">
     <g id="line2d_33">
      <g>
       <use style="stroke:#000000;stroke-width:0.6;" x="33.710938" xlink:href="#m7819864b06" y="157.294231"/>
      </g>
     </g>
    </g>
    <g id="ytick_13">
     <g id="line2d_34">
      <g>
       <use style="stroke:#000000;stroke-width:0.6;" x="33.710938" xlink:href="#m7819864b06" y="145.472115"/>
      </g>
     </g>
    </g>
    <g id="ytick_14">
     <g id="line2d_35">
      <g>
       <use style="stroke:#000000;stroke-width:0.6;" x="33.710938" xlink:href="#m7819864b06" y="121.827885"/>
      </g>
     </g>
    </g>
    <g id="ytick_15">
     <g id="line2d_36">
      <g>
       <use style="stroke:#000000;stroke-width:0.6;" x="33.710938" xlink:href="#m7819864b06" y="110.005769"/>
      </g>
     </g>
    </g>
    <g id="ytick_16">
     <g id="line2d_37">
      <g>
       <use style="stroke:#000000;stroke-width:0.6;" x="33.710938" xlink:href="#m7819864b06" y="98.183654"/>
      </g>
     </g>
    </g>
    <g id="ytick_17">
     <g id="line2d_38">
      <g>
       <use style="stroke:#000000;stroke-width:0.6;" x="33.710938" xlink:href="#m7819864b06" y="86.361538"/>
      </g>
     </g>
    </g>
    <g id="ytick_18">
     <g id="line2d_39">
      <g>
       <use style="stroke:#000000;stroke-width:0.6;" x="33.710938" xlink:href="#m7819864b06" y="62.717308"/>
      </g>
     </g>
    </g>
    <g id="ytick_19">
     <g id="line2d_40">
      <g>
       <use style="stroke:#000000;stroke-width:0.6;" x="33.710938" xlink:href="#m7819864b06" y="50.895192"/>
      </g>
     </g>
    </g>
    <g id="ytick_20">
     <g id="line2d_41">
      <g>
       <use style="stroke:#000000;stroke-width:0.6;" x="33.710938" xlink:href="#m7819864b06" y="39.073077"/>
      </g>
     </g>
    </g>
    <g id="ytick_21">
     <g id="line2d_42">
      <g>
       <use style="stroke:#000000;stroke-width:0.6;" x="33.710938" xlink:href="#m7819864b06" y="27.250962"/>
      </g>
     </g>
    </g>
   </g>
   <g id="LineCollection_1">
    <path clip-path="url(#pb561c6e6f6)" d="M 143.172618 250.328605 
L 141.585757 249.924442 
L 136.825173 248.495209 
L 132.06459 246.6189 
L 128.890868 245.126785 
L 125.717146 243.410389 
L 122.543423 241.460916 
L 120.956562 240.403637 
L 117.78284 238.054347 
L 116.195979 236.760043 
L 113.516265 234.415681 
L 109.848534 230.607599 
L 107.736404 228.068237 
L 106.588615 226.481376 
L 105.087951 223.825798 
L 104.809585 223.307654 
L 104.278992 221.720792 
L 104.179533 220.133931 
L 105.237897 218.54707 
L 106.674812 218.096977 
L 108.261673 217.940067 
L 111.435395 218.056999 
L 116.195979 218.612772 
L 128.890868 220.444298 
L 135.238312 221.193159 
L 143.172618 221.865559 
L 149.520062 222.20038 
L 155.867507 222.328268 
L 162.214951 222.251591 
L 168.562396 221.968958 
L 176.496702 221.349739 
L 182.844146 220.650026 
L 192.365313 219.333304 
L 200.299618 218.213181 
L 203.473341 217.952948 
L 205.060202 217.940067 
L 206.647063 218.096977 
L 208.233924 218.655689 
L 209.142342 220.133931 
L 209.042883 221.720792 
L 208.233924 223.825798 
L 207.703495 224.894515 
L 206.647063 226.594212 
L 204.320316 229.655098 
L 201.433523 232.82882 
L 198.047489 236.002543 
L 193.952174 239.284525 
L 189.424809 242.349987 
L 186.017868 244.299983 
L 182.844146 245.901106 
L 179.670424 247.302172 
L 174.90984 249.014445 
L 170.149257 250.328605 
L 165.388674 251.203088 
L 162.214951 251.596515 
L 159.041229 251.820279 
L 155.867507 251.865491 
L 152.693785 251.730317 
L 149.520062 251.420202 
L 146.34634 250.94721 
L 143.172618 250.328605 
L 143.172618 250.328605 
" style="fill:none;stroke:#0000ff;stroke-width:1.5;"/>
    <path clip-path="url(#pb561c6e6f6)" d="M 67.003284 185.501352 
L 63.716726 183.636125 
L 60.655839 181.309378 
L 57.482117 178.422586 
L 54.308395 175.036552 
L 51.026412 170.941236 
L 47.96095 166.413871 
L 46.010954 163.006931 
L 44.409831 159.833209 
L 43.008765 156.659486 
L 41.296493 151.898903 
L 39.982333 147.13832 
L 39.107849 142.377736 
L 38.714423 139.204014 
L 38.490658 136.030292 
L 38.445446 132.856569 
L 38.580621 129.682847 
L 38.890735 126.509125 
L 39.363727 123.335403 
L 40.026645 119.968038 
L 41.296493 115.401097 
L 42.404678 112.227375 
L 43.692037 109.053653 
L 45.184153 105.87993 
L 46.900549 102.706208 
L 48.850022 99.532486 
L 49.9073 97.945625 
L 52.256591 94.771902 
L 53.550895 93.185041 
L 55.895256 90.505327 
L 59.703338 86.837597 
L 62.242701 84.725466 
L 63.829562 83.577678 
L 66.485139 82.077013 
L 67.003284 81.798648 
L 68.590145 81.268055 
L 70.177006 81.168595 
L 71.763867 82.22696 
L 72.213961 83.663875 
L 72.37087 85.250736 
L 72.253938 88.424458 
L 71.698166 93.185041 
L 69.866639 105.87993 
L 69.117778 112.227375 
L 68.445379 120.16168 
L 68.110558 126.509125 
L 67.98267 132.856569 
L 68.059347 139.204014 
L 68.34198 145.551458 
L 68.961198 153.485764 
L 69.660912 159.833209 
L 70.977634 169.354375 
L 72.097757 177.288681 
L 72.35799 180.462403 
L 72.37087 182.049264 
L 72.213961 183.636125 
L 71.655249 185.222987 
L 70.177006 186.131405 
L 68.590145 186.031945 
L 67.003284 185.501352 
L 67.003284 185.501352 
" style="fill:none;stroke:#0000ff;stroke-width:1.5;"/>
    <path clip-path="url(#pb561c6e6f6)" d="M 243.144869 186.131405 
L 241.558008 185.07304 
L 241.107914 183.636125 
L 240.951005 182.049264 
L 241.067937 178.875542 
L 241.623709 174.114959 
L 243.455236 161.42007 
L 244.204097 155.072625 
L 244.876496 147.13832 
L 245.211317 140.790875 
L 245.339205 134.443431 
L 245.262528 128.095986 
L 244.979895 121.748542 
L 244.360677 113.814236 
L 243.660963 107.466791 
L 242.344241 97.945625 
L 241.224118 90.011319 
L 240.963885 86.837597 
L 240.951005 85.250736 
L 241.107914 83.663875 
L 241.666626 82.077013 
L 243.144869 81.168595 
L 244.73173 81.268055 
L 246.836736 82.077013 
L 247.905452 82.607443 
L 249.605149 83.663875 
L 252.666036 85.990622 
L 255.839758 88.877414 
L 259.01348 92.263448 
L 262.295463 96.358764 
L 265.360925 100.886129 
L 267.310921 104.293069 
L 268.912044 107.466791 
L 270.31311 110.640514 
L 272.025382 115.401097 
L 273.339542 120.16168 
L 274.214026 124.922264 
L 274.607452 128.095986 
L 274.831217 131.269708 
L 274.876429 134.443431 
L 274.741254 137.617153 
L 274.43114 140.790875 
L 273.958148 143.964597 
L 273.29523 147.331962 
L 272.025382 151.898903 
L 270.917197 155.072625 
L 269.629838 158.246347 
L 268.137722 161.42007 
L 266.421326 164.593792 
L 264.471853 167.767514 
L 263.414575 169.354375 
L 261.065284 172.528098 
L 259.77098 174.114959 
L 257.426619 176.794673 
L 253.618537 180.462403 
L 251.079174 182.574534 
L 249.492313 183.722322 
L 246.836736 185.222987 
L 246.318591 185.501352 
L 244.73173 186.031945 
L 243.144869 186.131405 
L 243.144869 186.131405 
" style="fill:none;stroke:#0000ff;stroke-width:1.5;"/>
    <path clip-path="url(#pb561c6e6f6)" d="M 106.674812 49.203023 
L 105.087951 48.644311 
L 104.179533 47.166069 
L 104.278992 45.579208 
L 105.087951 43.474202 
L 105.61838 42.405485 
L 106.674812 40.705788 
L 109.001559 37.644902 
L 111.888352 34.47118 
L 115.274386 31.297457 
L 119.369701 28.015475 
L 123.897066 24.950013 
L 127.304007 23.000017 
L 130.477729 21.398894 
L 133.651451 19.997828 
L 138.412035 18.285555 
L 143.172618 16.971395 
L 147.933201 16.096912 
L 151.106924 15.703485 
L 154.280646 15.479721 
L 157.454368 15.434509 
L 160.62809 15.569683 
L 163.801813 15.879798 
L 166.975535 16.35279 
L 170.3429 17.015707 
L 174.90984 18.285555 
L 178.083563 19.393741 
L 181.257285 20.6811 
L 184.431007 22.173215 
L 187.604729 23.889611 
L 190.778452 25.839084 
L 192.365313 26.896363 
L 195.539035 29.245653 
L 197.125896 30.539957 
L 199.80561 32.884319 
L 203.473341 36.692401 
L 205.585471 39.231763 
L 206.73326 40.818624 
L 208.233924 43.474202 
L 208.51229 43.992346 
L 209.042883 45.579208 
L 209.142342 47.166069 
L 208.083978 48.75293 
L 206.647063 49.203023 
L 205.060202 49.359933 
L 201.88648 49.243001 
L 197.125896 48.687228 
L 184.431007 46.855702 
L 178.083563 46.106841 
L 170.149257 45.434441 
L 163.801813 45.09962 
L 157.454368 44.971732 
L 151.106924 45.048409 
L 144.759479 45.331042 
L 136.825173 45.950261 
L 130.477729 46.649974 
L 120.956562 47.966696 
L 113.022257 49.086819 
L 109.848534 49.347052 
L 108.261673 49.359933 
L 106.674812 49.203023 
L 106.674812 49.203023 
" style="fill:none;stroke:#0000ff;stroke-width:1.5;"/>
   </g>
   <g id="patch_3">
    <path d="M 33.710938 256.6 
L 33.710938 10.7 
" style="fill:none;stroke:#000000;stroke-linecap:square;stroke-linejoin:miter;stroke-width:0.8;"/>
   </g>
   <g id="patch_4">
    <path d="M 279.610937 256.6 
L 279.610937 10.7 
" style="fill:none;stroke:#000000;stroke-linecap:square;stroke-linejoin:miter;stroke-width:0.8;"/>
   </g>
   <g id="patch_5">
    <path d="M 33.710938 256.6 
L 279.610937 256.6 
" style="fill:none;stroke:#000000;stroke-linecap:square;stroke-linejoin:miter;stroke-width:0.8;"/>
   </g>
   <g id="patch_6">
    <path d="M 33.710938 10.7 
L 279.610937 10.7 
" style="fill:none;stroke:#000000;stroke-linecap:square;stroke-linejoin:miter;stroke-width:0.8;"/>
   </g>
  </g>
 </g>
 <defs>
  <clipPath id="pb561c6e6f6">
   <rect height="245.9" width="245.9" x="33.710938" y="10.7"/>
  </clipPath>
 </defs>
</svg>
