<?xml version="1.0" encoding="UTF-8" standalone="no"?>
<svg
   width="320.01202mm"
   height="370.86865mm"
   viewBox="0 0 320.01202 370.86865"
   version="1.1"
   id="svg8"
   sodipodi:docname="2021-10-14_13-32.svg"
   inkscape:version="1.1.1 (3bf5ae0d25, 2021-09-20)"
   xmlns:inkscape="http://www.inkscape.org/namespaces/inkscape"
   xmlns:sodipodi="http://sodipodi.sourceforge.net/DTD/sodipodi-0.dtd"
   xmlns="http://www.w3.org/2000/svg"
   xmlns:svg="http://www.w3.org/2000/svg"
   xmlns:rdf="http://www.w3.org/1999/02/22-rdf-syntax-ns#"
   xmlns:cc="http://creativecommons.org/ns#"
   xmlns:dc="http://purl.org/dc/elements/1.1/">
  <defs
     id="defs2">
    <marker
       style="overflow:visible"
       id="Arrow1Lend"
       refX="0"
       refY="0"
       orient="auto"
       inkscape:stockid="Arrow1Lend"
       inkscape:isstock="true">
      <path
         transform="matrix(-0.8,0,0,-0.8,-10,0)"
         style="fill:context-stroke;fill-rule:evenodd;stroke:context-stroke;stroke-width:1pt"
         d="M 0,0 5,-5 -12.5,0 5,5 Z"
         id="path1613" />
    </marker>
    <marker
       style="overflow:visible"
       id="Arrow1Lend-2"
       refX="0"
       refY="0"
       orient="auto"
       inkscape:stockid="Arrow1Lend"
       inkscape:isstock="true">
      <path
         transform="matrix(-0.8,0,0,-0.8,-10,0)"
         style="fill:context-stroke;fill-rule:evenodd;stroke:context-stroke;stroke-width:1pt"
         d="M 0,0 5,-5 -12.5,0 5,5 Z"
         id="path1613-9" />
    </marker>
  </defs>
  <sodipodi:namedview
     id="base"
     pagecolor="#ffffff"
     bordercolor="#000000"
     borderopacity="1"
     inkscape:pageopacity="0.0"
     inkscape:pageshadow="2"
     inkscape:zoom="0.7"
     inkscape:cx="487.14286"
     inkscape:cy="566.42857"
     inkscape:document-units="mm"
     inkscape:current-layer="layer1"
     inkscape:document-rotation="0"
     showgrid="true"
     showborder="true"
     borderlayer="true"
     inkscape:showpageshadow="false"
     objecttolerance="10000"
     guidetolerance="10000"
     inkscape:snap-perpendicular="true"
     inkscape:snap-tangential="true"
     inkscape:window-width="1920"
     inkscape:window-height="1080"
     inkscape:window-x="0"
     inkscape:window-y="0"
     inkscape:window-maximized="0"
     inkscape:pagecheckerboard="1">
    <sodipodi:guide
       position="0.24999949,227.66032"
       orientation="0,793.70079"
       id="guide10" />
    <sodipodi:guide
       position="210.25,227.66032"
       orientation="559.37008,0"
       id="guide12" />
    <sodipodi:guide
       position="210.25,79.660325"
       orientation="0,-793.70079"
       id="guide14" />
    <sodipodi:guide
       position="0.24999949,79.660325"
       orientation="-559.37008,0"
       id="guide16" />
    <inkscape:grid
       type="xygrid"
       id="grid20"
       dotted="true"
       units="px"
       originx="105.25"
       originy="217.20834" />
  </sodipodi:namedview>
  <metadata
     id="metadata5">
    <rdf:RDF>
      <cc:Work
         rdf:about="">
        <dc:format>image/svg+xml</dc:format>
        <dc:type
           rdf:resource="http://purl.org/dc/dcmitype/StillImage" />
        <dc:title />
        <cc:license
           rdf:resource="" />
      </cc:Work>
    </rdf:RDF>
  </metadata>
  <g
     inkscape:label="Layer 1"
     inkscape:groupmode="layer"
     id="layer1"
     transform="translate(0.24999949,143.20833)">
    <path
       style="fill:#6699ff;stroke:#000000;stroke-width:0.264583px;stroke-linecap:butt;stroke-linejoin:miter;stroke-opacity:1;opacity:0.26830186"
       d="M 73.249998,15.79167 C 63.481349,14.502928 52.907088,15.768808 43.384509,18.341684 30.882616,21.719532 11.145114,34.083492 5.0597109,45.892156 2.779708,50.316479 1.0581936,55.541581 0.37305654,60.501704 -1.6623997,75.237609 8.892488,79.171643 18.62835,87.01394 c 7.51276,6.051577 12.333604,11.293295 16.327722,20.28278 4.108215,9.24628 4.310848,20.16855 5.518166,30.07192 1.508305,12.3723 4.348512,25.42967 11.452087,35.93058 7.06732,10.44732 16.623766,19.05304 26.608135,26.62347 13.70467,10.39126 28.40282,18.68355 44.93904,23.65708 14.21953,4.27674 29.93561,4.6673 44.59886,3.11472 4.18377,-0.44298 16.98978,-2.09725 22.14824,-3.30014 19.77662,-4.61165 40.14841,-15.02445 54.72811,-29.36739 33.04045,-32.50392 42.50063,-81.82172 19.35137,-122.772047 -7.44174,-13.164206 -18.05707,-25.667967 -31.48378,-33.075409 -9.20848,-5.080272 -18.55353,-8.641749 -28.6113,-11.531893 -14.98961,-4.307332 -26.00243,-7.031102 -41.61302,-7.11937 -10.39119,-0.05876 -21.17997,1.19444 -31.44599,2.743926 -4.71647,0.711874 -9.31472,2.077409 -14.02216,2.818079 -7.77937,1.224005 -15.07766,0.0072 -22.450623,-2.33604 -4.950619,-1.573364 -7.218357,-2.137246 -11.75445,-4.783323 -2.712887,-1.582531 -4.805741,-1.469686 -7.861496,-1.854002 -0.607314,-0.07638 -1.201841,-0.415366 -1.807263,-0.325211 -2.028812,0.302113 -3.122917,2.186161 -2.425856,0"
       id="path1062" />
    <path
       style="fill:none;stroke:#000000;stroke-width:0.7;stroke-linecap:butt;stroke-linejoin:miter;stroke-miterlimit:4;stroke-dasharray:none;stroke-opacity:1"
       d="m 52.083332,79.291668 c -0.09013,0.114446 -0.384842,0.253207 -0.270397,0.34334 0.114446,0.09013 0.195946,-0.218125 0.270397,-0.34334 3.755863,-6.316707 0.686773,-1.685358 3.169004,-4.996185 2.095085,-2.794447 3.696846,-6.199002 6.274086,-8.60258 1.083342,-1.010349 2.381779,-1.762469 3.552788,-2.669757 1.285949,-0.996341 2.418114,-2.210819 3.817355,-3.040571 2.944059,-1.745829 6.533864,-2.624021 9.864672,-3.151801 18.504395,-2.932096 30.988563,4.446823 46.035103,14.127496 1.70241,1.095296 7.20804,4.402116 8.80638,5.524936 13.66948,9.602687 26.69022,20.144714 39.83663,30.442714 13.63948,10.68425 27.77987,22.63967 44.97681,26.84595 13.26857,3.24542 27.77419,1.10782 39.64764,-5.67324 2.33414,-1.33306 12.81272,-7.8237 12.81272,-11.01278 0,-0.39287 -0.60473,-0.50168 -0.90709,-0.75252"
       id="path1064" />
    <rect
       style="opacity:0.33766691;fill:#ff9900;fill-rule:evenodd;stroke:#ff9900;stroke-width:0.499999;stop-color:#000000"
       id="rect1088"
       width="295.49997"
       height="142.875"
       x="0"
       y="-142.95833" />
    <text
       xml:space="preserve"
       style="font-size:10.5833px;line-height:1.25;font-family:sans-serif;letter-spacing:0px;word-spacing:0px;stroke-width:0.264583"
       x="158.45975"
       y="-93.397133"
       id="text6818-2"><tspan
         sodipodi:role="line"
         id="tspan6816-7"
         style="stroke-width:0.264583"
         x="158.45975"
         y="-93.397133">$\tilde\gamma$</tspan></text>
    <path
       style="fill:none;stroke:#000000;stroke-width:0.264583px;stroke-linecap:butt;stroke-linejoin:miter;stroke-opacity:1"
       d="M 73.25,-58.291667 V -142.95833"
       id="path1339-5" />
    <path
       style="fill:none;stroke:#000000;stroke-width:0.264583px;stroke-linecap:butt;stroke-linejoin:miter;stroke-opacity:1"
       d="M 99.708333,-52.999995 V -137.66666"
       id="path1339-3" />
    <path
       style="fill:none;stroke:#000000;stroke-width:0.264583px;stroke-linecap:butt;stroke-linejoin:miter;stroke-opacity:1"
       d="M 126.16667,-42.416667 V -127.08333"
       id="path1339-56" />
    <path
       style="fill:none;stroke:#000000;stroke-width:0.7;stroke-linecap:butt;stroke-linejoin:miter;stroke-miterlimit:4;stroke-dasharray:none;stroke-opacity:1"
       d="m 30.916667,-79.45833 c -0.09013,0.114446 -0.384842,0.253207 -0.270397,0.34334 0.114446,0.09013 0.195946,-0.218125 0.270397,-0.34334 3.755863,-6.316707 0.686773,-1.685358 3.169004,-4.996185 2.095085,-2.794447 3.696846,-6.199002 6.274086,-8.60258 1.083342,-1.010349 2.381779,-1.762469 3.552788,-2.669757 1.285949,-0.996341 2.418114,-2.210819 3.817355,-3.040571 2.944059,-1.745827 6.533864,-2.624017 9.864672,-3.151797 18.504395,-2.9321 30.988563,4.446819 46.035098,14.127492 1.70241,1.095296 7.20804,4.402116 8.80638,5.524936 13.66948,9.602687 26.69022,20.144714 39.83663,30.442714 13.63948,10.684242 27.77987,22.639596 44.97681,26.845852 13.26857,3.24542 27.77419,1.10782 39.64764,-5.67321 2.33414,-1.333051 12.81272,-7.823655 12.81272,-11.012717 0,-0.392867 -0.60473,-0.501677 -0.90709,-0.752514"
       id="path1064-3" />
    <path
       style="fill:none;stroke:#000000;stroke-width:0.264583px;stroke-linecap:butt;stroke-linejoin:miter;stroke-opacity:1"
       d="M 30.916665,-42.416663 V -127.08333"
       id="path1339" />
    <path
       style="fill:none;stroke:#000000;stroke-width:0.264583px;stroke-linecap:butt;stroke-linejoin:miter;stroke-opacity:1"
       d="M 52.083333,-47.708328 V -132.375"
       id="path1339-6" />
    <path
       style="fill:none;stroke:#cc0000;stroke-width:0.5;stroke-linecap:butt;stroke-linejoin:miter;stroke-miterlimit:4;stroke-dasharray:none;stroke-opacity:1;marker-end:url(#Arrow1Lend)"
       d="M 30.916665,-79.45833 57.374998,-132.375"
       id="path1528" />
    <path
       style="fill:none;stroke:#cc0000;stroke-width:0.5;stroke-linecap:butt;stroke-linejoin:miter;stroke-miterlimit:4;stroke-dasharray:none;stroke-opacity:1;marker-end:url(#Arrow1Lend-2)"
       d="M 52.083333,79.29167 78.541663,26.375"
       id="path1528-1" />
    <text
       xml:space="preserve"
       style="font-size:10.5833px;line-height:1.25;font-family:sans-serif;letter-spacing:0px;word-spacing:0px;stroke-width:0.264583"
       x="298.87149"
       y="47.541668"
       id="text2550"><tspan
         sodipodi:role="line"
         id="tspan2548"
         style="stroke-width:0.264583"
         x="298.87149"
         y="47.541668">$X$</tspan></text>
    <text
       xml:space="preserve"
       style="font-size:10.5833px;line-height:1.25;font-family:sans-serif;letter-spacing:0px;word-spacing:0px;stroke-width:0.264583"
       x="298.87149"
       y="-105.91666"
       id="text3910"><tspan
         sodipodi:role="line"
         id="tspan3908"
         style="stroke-width:0.264583"
         x="298.87149"
         y="-105.91666">$P$</tspan></text>
    <text
       xml:space="preserve"
       style="font-size:10.5833px;line-height:1.25;font-family:sans-serif;letter-spacing:0px;word-spacing:0px;stroke-width:0.264583"
       x="153.91478"
       y="73.042076"
       id="text6818"><tspan
         sodipodi:role="line"
         id="tspan6816"
         style="stroke-width:0.264583"
         x="153.91478"
         y="73.042076">$\gamma$</tspan></text>
    <text
       xml:space="preserve"
       style="font-size:10.5833px;line-height:1.25;font-family:sans-serif;letter-spacing:0px;word-spacing:0px;stroke-width:0.264583"
       x="41.499996"
       y="52.833332"
       id="text13594"><tspan
         sodipodi:role="line"
         id="tspan13592"
         style="stroke-width:0.264583"
         x="41.499996"
         y="52.833332">$v$</tspan></text>
    <text
       xml:space="preserve"
       style="font-size:10.5833px;line-height:1.25;font-family:sans-serif;letter-spacing:0px;word-spacing:0px;stroke-width:0.264583"
       x="36.208332"
       y="-132.375"
       id="text16556"><tspan
         sodipodi:role="line"
         id="tspan16554"
         style="stroke-width:0.264583"
         x="36.208332"
         y="-132.375">$\tilde v$</tspan></text>
  </g>
</svg>
