<?xml version="1.0" encoding="UTF-8" standalone="no"?>
<svg
   width="238.18045mm"
   height="181.26578mm"
   viewBox="0 0 238.18045 181.26578"
   version="1.1"
   id="svg8"
   sodipodi:docname="2021-10-18_12-16.svg"
   inkscape:version="1.1.1 (3bf5ae0d25, 2021-09-20)"
   xmlns:inkscape="http://www.inkscape.org/namespaces/inkscape"
   xmlns:sodipodi="http://sodipodi.sourceforge.net/DTD/sodipodi-0.dtd"
   xmlns:xlink="http://www.w3.org/1999/xlink"
   xmlns="http://www.w3.org/2000/svg"
   xmlns:svg="http://www.w3.org/2000/svg"
   xmlns:rdf="http://www.w3.org/1999/02/22-rdf-syntax-ns#"
   xmlns:cc="http://creativecommons.org/ns#"
   xmlns:dc="http://purl.org/dc/elements/1.1/">
  <defs
     id="defs2">
    <symbol
       id="use6671">
      <g
         id="use6671_transform"
         transform="matrix(1.3333329,0,0,1.3333329,-2.406743,-1.370003)">
        <g
           id="use6820">
          <path
             d="M 3.2266766,61.275846 45.113525,3.2266758 M 9.5694418,62.831307 51.456291,4.7821374 M 15.91324,64.386768 57.799057,6.3375963 M 22.256006,65.942228 64.141821,7.8940925 M 28.59877,67.497689 70.484587,9.4485195 M 34.941536,69.053149 76.827351,11.003978 M 41.284303,70.60861 83.171152,12.55944 M 47.627066,72.164071 89.513915,14.114902 M 53.970867,73.719531 95.856682,15.670361 M 60.313631,75.274992 102.19945,17.225822 M 66.656397,76.830453 108.54221,18.781281 M 3.2266766,61.275846 66.656397,76.830453 M 7.4155681,55.471549 70.845288,71.025122 M 11.60446,49.666218 75.033145,65.220825 M 15.793351,43.861921 79.222039,59.415495 M 19.981209,38.056592 83.41093,53.611198 M 24.170101,32.251261 87.599822,47.805867 M 28.358992,26.446964 91.787678,42.000538 M 32.546851,20.641633 95.97657,36.196241 M 36.735742,14.837336 100.16546,30.390909 M 40.924633,9.0320072 104.35435,24.586613 M 45.113525,3.2266758 108.54221,18.781281"
             fill="none"
             stroke-width="0.105436"
             stroke-linecap="round"
             stroke-linejoin="round"
             stroke="#a5a5a6"
             stroke-miterlimit="10"
             id="path6824" />
          <path
             d="M 25.45581,32.56752 86.314111,47.490642"
             fill="none"
             stroke-width="0.210873"
             stroke-linecap="round"
             stroke-linejoin="round"
             stroke="#000000"
             stroke-miterlimit="10"
             id="path6826" />
          <path
             d="m 24.462589,32.323609 1.276408,0.875397 -0.333829,-0.644921 0.594279,-0.416513"
             id="path6828"
             style="stroke-width:0.264583" />
          <path
             d="m 24.462589,32.323609 1.276408,0.875397 -0.333829,-0.644921 0.594279,-0.416513 z m 0,0"
             fill="none"
             stroke-width="0.211138"
             stroke-linecap="round"
             stroke="#000000"
             stroke-miterlimit="10"
             id="path6830" />
          <path
             d="m 87.307333,47.734553 -1.276409,-0.876432 0.333831,0.644922 -0.594281,0.417547"
             id="path6832"
             style="stroke-width:0.264583" />
          <path
             d="m 87.307333,47.734553 -1.276409,-0.876432 0.333831,0.644922 -0.594278,0.417547 z m 0,0"
             fill="none"
             stroke-width="0.211138"
             stroke-linecap="round"
             stroke="#000000"
             stroke-miterlimit="10"
             id="path6834" />
          <path
             d="m 89.618301,47.612596 h -0.0093 l -0.03514,-0.14986 c -0.04134,-0.159162 -0.09715,-0.289388 -0.168463,-0.37207 h -0.04444 l -0.410311,0.04754 v 0.08785 c 0,0 0.04444,-0.0083 0.09198,-0.0083 0.194304,-0.0031 0.244945,0.07648 0.324527,0.324527 l 0.08268,0.268716 -0.212905,0.31006 c -0.114723,0.165365 -0.167433,0.168465 -0.179834,0.168465 -0.04961,0 -0.120923,-0.03824 -0.186037,-0.03824 -0.07131,0 -0.114721,0.06408 -0.114721,0.122989 0,0.07441 0.04341,0.144695 0.170532,0.144695 0.177769,0 0.274918,-0.138493 0.36897,-0.292488 l 0.190169,-0.305925 h 0.01138 l 0.07338,0.297656 c 0.04134,0.192236 0.106453,0.303856 0.241845,0.303856 0.201539,0 0.325562,-0.200504 0.411345,-0.330729 l -0.06305,-0.04651 c -0.07958,0.106455 -0.13539,0.165365 -0.211873,0.165365 -0.09198,0 -0.150895,-0.109554 -0.233577,-0.381371 l -0.06201,-0.200506 0.179832,-0.286287 c 0.05064,-0.08268 0.09198,-0.124024 0.160197,-0.124024 0.03824,0 0.10542,0.02997 0.152963,0.02997 0.07958,0 0.136425,-0.06821 0.136425,-0.139525 0,-0.08268 -0.03617,-0.129191 -0.147794,-0.129191 -0.174667,0 -0.292489,0.144693 -0.37207,0.286287 l -0.144695,0.247013"
             id="path6836"
             style="stroke-width:0.264583" />
          <path
             d="M 35.715649,67.980347 76.053238,12.077816"
             fill="none"
             stroke-width="0.210873"
             stroke-linecap="round"
             stroke-linejoin="round"
             stroke="#000000"
             stroke-miterlimit="10"
             id="path6838" />
          <path
             d="m 35.117236,68.809238 1.290878,-0.853697 -0.723471,0.06718 -0.163296,-0.706935"
             id="path6840"
             style="stroke-width:0.264583" />
          <path
             d="m 35.117236,68.809237 1.290878,-0.853695 -0.723471,0.06718 -0.163296,-0.706933 z m 0,0"
             fill="none"
             stroke-width="0.211032"
             stroke-linecap="round"
             stroke="#000000"
             stroke-miterlimit="10"
             id="path6842" />
          <path
             d="m 76.652686,11.247892 -1.290878,0.854729 0.722437,-0.06821 0.163298,0.707967"
             id="path6844"
             style="stroke-width:0.264583" />
          <path
             d="m 76.652686,11.247893 -1.290878,0.854728 0.722437,-0.06821 0.163298,0.70797 z m 0,0"
             fill="none"
             stroke-width="0.211032"
             stroke-linecap="round"
             stroke="#000000"
             stroke-miterlimit="10"
             id="path6846" />
          <path
             d="m 76.808748,8.3488445 c -0.03617,-0.2366782 -0.05581,-0.3307291 -0.120922,-0.443384 h -0.04444 l -0.419613,0.033073 v 0.085783 c 0,0 0.06201,-0.0062 0.103354,-0.0062 0.180867,0 0.195337,0.144694 0.216006,0.2769856 l 0.173633,1.0397297 c -0.08268,0.1271241 -0.294555,0.4072105 -0.350364,0.4072105 -0.06511,0 -0.09819,-0.1570964 -0.209807,-0.1570964 -0.06821,0 -0.115755,0.039274 -0.115755,0.1271238 0,0.1095542 0.103352,0.1922365 0.227375,0.1922365 0.224277,0 0.430983,-0.3338298 0.652158,-0.6407878 0.153996,-0.2118733 0.322461,-0.4661215 0.481624,-0.7472413 0.09405,-0.1581298 0.129191,-0.2914549 0.129191,-0.4072101 0,-0.1260906 -0.07648,-0.2242759 -0.185002,-0.2242759 -0.08578,0 -0.130225,0.053743 -0.130225,0.1157552 0,0.1116211 0.144695,0.1943034 0.144695,0.2718181 0,0.07028 -0.02687,0.1415933 -0.09715,0.2563151 L 76.923469,9.0754142 H 76.9059 L 76.880051,8.7798251 76.808737,8.3488437 M 56.559855,40.028564 c 0,-0.372071 -0.301789,-0.674894 -0.674894,-0.674894 -0.373105,0 -0.674894,0.302823 -0.674894,0.674894 0,0.373105 0.301789,0.674894 0.674894,0.674894 0.373105,0 0.674894,-0.301789 0.674894,-0.674894 z m 0,0"
             id="path6848"
             style="stroke-width:0.264583" />
        </g>
      </g>
    </symbol>
  </defs>
  <sodipodi:namedview
     id="base"
     pagecolor="#ffffff"
     bordercolor="#000000"
     borderopacity="1"
     inkscape:pageopacity="0.0"
     inkscape:pageshadow="2"
     inkscape:zoom="0.7"
     inkscape:cx="467.14286"
     inkscape:cy="314.28571"
     inkscape:document-units="mm"
     inkscape:current-layer="layer1"
     inkscape:document-rotation="0"
     showgrid="true"
     showborder="true"
     borderlayer="true"
     inkscape:showpageshadow="false"
     objecttolerance="10000"
     guidetolerance="10000"
     inkscape:snap-perpendicular="true"
     inkscape:snap-tangential="true"
     inkscape:window-width="1920"
     inkscape:window-height="1080"
     inkscape:window-x="0"
     inkscape:window-y="0"
     inkscape:window-maximized="0"
     inkscape:pagecheckerboard="1">
    <sodipodi:guide
       position="-227.80046,157.26662"
       orientation="0,793.70079"
       id="guide10" />
    <sodipodi:guide
       position="-17.800466,157.26662"
       orientation="559.37008,0"
       id="guide12" />
    <sodipodi:guide
       position="-17.800466,9.2666201"
       orientation="0,-793.70079"
       id="guide14" />
    <sodipodi:guide
       position="-227.80046,9.2666201"
       orientation="-559.37008,0"
       id="guide16" />
    <inkscape:grid
       type="xygrid"
       id="grid20"
       dotted="true"
       units="px"
       originx="-122.80046"
       originy="97.999162" />
  </sodipodi:namedview>
  <metadata
     id="metadata5">
    <rdf:RDF>
      <cc:Work
         rdf:about="">
        <dc:format>image/svg+xml</dc:format>
        <dc:type
           rdf:resource="http://purl.org/dc/dcmitype/StillImage" />
        <dc:title />
        <cc:license
           rdf:resource="" />
      </cc:Work>
    </rdf:RDF>
  </metadata>
  <g
     inkscape:label="Layer 1"
     inkscape:groupmode="layer"
     id="layer1"
     transform="translate(-227.80046,23.999157)">
    <use
       xlink:href="#use6671"
       id="use1128"
       x="0"
       y="0"
       width="100%"
       height="100%"
       transform="matrix(1.6944959,0,0,1.6944959,224.70767,-14.116153)" />
    <path
       style="fill:none;stroke:#000000;stroke-width:0.264583px;stroke-linecap:butt;stroke-linejoin:miter;stroke-opacity:1"
       d="m 390.75,5.2083363 c -17.54052,2.8663978 -51.29418,26.0931147 -24.35203,40.8412577 17.68126,5.901382 49.69647,11.114023 39.66654,37.610112 -9.51378,29.187814 -44.41136,24.035054 -68.31473,22.185424 -22.0027,-3.67584 -65.90173,-5.82611 -57.04387,28.61171 5.8084,11.78023 20.17654,8.33638 30.66909,8.33483"
       id="path1300" />
    <text
       xml:space="preserve"
       style="font-size:10.5833px;line-height:1.25;font-family:sans-serif;letter-spacing:0px;word-spacing:0px;stroke-width:0.264583"
       x="327.24997"
       y="-15.95833"
       id="text4160"><tspan
         sodipodi:role="line"
         id="tspan4158"
         style="stroke-width:0.264583"
         x="327.24997"
         y="-15.95833">$\AA^2$</tspan></text>
    <text
       xml:space="preserve"
       style="font-size:10.5833px;line-height:1.25;font-family:sans-serif;letter-spacing:0px;word-spacing:0px;stroke-width:0.264583"
       x="411.91666"
       y="42.25"
       id="text5836"><tspan
         sodipodi:role="line"
         id="tspan5834"
         style="stroke-width:0.264583"
         x="411.91666"
         y="42.25">$V(f)$</tspan></text>
  </g>
</svg>
