<?xml version="1.0" encoding="UTF-8" standalone="no"?>
<svg
   width="271.88971mm"
   height="265.36829mm"
   viewBox="0 0 271.88971 265.36829"
   version="1.1"
   id="svg8"
   sodipodi:docname="2021-09-24_10-14.svg"
   inkscape:version="1.1 (c4e8f9ed74, 2021-05-24)"
   xmlns:inkscape="http://www.inkscape.org/namespaces/inkscape"
   xmlns:sodipodi="http://sodipodi.sourceforge.net/DTD/sodipodi-0.dtd"
   xmlns:xlink="http://www.w3.org/1999/xlink"
   xmlns="http://www.w3.org/2000/svg"
   xmlns:svg="http://www.w3.org/2000/svg"
   xmlns:rdf="http://www.w3.org/1999/02/22-rdf-syntax-ns#"
   xmlns:cc="http://creativecommons.org/ns#"
   xmlns:dc="http://purl.org/dc/elements/1.1/">
  <defs
     id="defs2">
    <linearGradient
       inkscape:collect="always"
       id="linearGradient9346">
      <stop
         style="stop-color:#8aa678;stop-opacity:1;"
         offset="0"
         id="stop9342" />
      <stop
         style="stop-color:#8aa678;stop-opacity:0;"
         offset="1"
         id="stop9344" />
    </linearGradient>
    <linearGradient
       inkscape:collect="always"
       xlink:href="#linearGradient9346"
       id="linearGradient9348"
       x1="30.916666"
       y1="280.375"
       x2="184.375"
       y2="232.75"
       gradientUnits="userSpaceOnUse" />
    <linearGradient
       inkscape:collect="always"
       xlink:href="#linearGradient9346"
       id="linearGradient20147"
       gradientUnits="userSpaceOnUse"
       x1="30.916666"
       y1="280.375"
       x2="184.375"
       y2="232.75"
       gradientTransform="translate(-17.197917,26.458341)" />
    <meshgradient
       inkscape:collect="always"
       id="meshgradient24245"
       gradientUnits="userSpaceOnUse"
       x="79.049339"
       y="760.21051"
       type="coons"
       gradientTransform="matrix(0.26458333,0,0,0.26458333,-0.213892,-3.8931117)">
      <meshrow
         id="meshrow25103">
        <meshpatch
           id="meshpatch25105">
          <stop
             path="c 219.983,0  439.967,0  659.95,0"
             style="stop-color:#ffffff;stop-opacity:1"
             id="stop25107" />
          <stop
             path="c 0,99.3243  0,198.649  0,297.974"
             style="stop-color:#800080;stop-opacity:1"
             id="stop25109" />
          <stop
             path="c -219.983,0  -439.967,0  -659.95,0"
             style="stop-color:#ffffff;stop-opacity:1"
             id="stop25111" />
          <stop
             path="c 0,-99.3243  0,-198.649  0,-297.974"
             style="stop-color:#800080;stop-opacity:1"
             id="stop25113" />
        </meshpatch>
      </meshrow>
    </meshgradient>
  </defs>
  <sodipodi:namedview
     id="base"
     pagecolor="#ffffff"
     bordercolor="#000000"
     borderopacity="1"
     inkscape:pageopacity="0.0"
     inkscape:pageshadow="2"
     inkscape:zoom="1.4356772"
     inkscape:cx="618.52344"
     inkscape:cy="848.03186"
     inkscape:document-units="mm"
     inkscape:current-layer="layer1"
     inkscape:document-rotation="0"
     showgrid="true"
     showborder="true"
     borderlayer="true"
     inkscape:showpageshadow="false"
     objecttolerance="10000"
     guidetolerance="10000"
     inkscape:snap-perpendicular="true"
     inkscape:snap-tangential="true"
     inkscape:window-width="1920"
     inkscape:window-height="1080"
     inkscape:window-x="-1"
     inkscape:window-y="-1"
     inkscape:window-maximized="0"
     inkscape:pagecheckerboard="1">
    <sodipodi:guide
       position="56.896843,280.30234"
       orientation="0,793.70079"
       id="guide10" />
    <sodipodi:guide
       position="266.89685,280.30234"
       orientation="559.37008,0"
       id="guide12" />
    <sodipodi:guide
       position="266.89685,132.30234"
       orientation="0,-793.70079"
       id="guide14" />
    <sodipodi:guide
       position="56.896843,132.30234"
       orientation="-559.37008,0"
       id="guide16" />
    <inkscape:grid
       type="xygrid"
       id="grid20"
       dotted="true"
       units="px"
       originx="161.89685"
       originy="59.065959" />
  </sodipodi:namedview>
  <metadata
     id="metadata5">
    <rdf:RDF>
      <cc:Work
         rdf:about="">
        <dc:format>image/svg+xml</dc:format>
        <dc:type
           rdf:resource="http://purl.org/dc/dcmitype/StillImage" />
        <dc:title />
        <cc:license
           rdf:resource="" />
      </cc:Work>
    </rdf:RDF>
  </metadata>
  <g
     inkscape:label="Layer 1"
     inkscape:groupmode="layer"
     id="layer1"
     style="display:inline"
     transform="translate(56.896842,-14.934046)">
    <circle
       style="fill:none;fill-opacity:0.4;fill-rule:evenodd;stroke:#bc2122;stroke-width:1;stop-color:#000000"
       id="path856"
       cx="-1.0482337"
       cy="77.994232"
       r="55.5625" />
    <g
       id="g1283"
       transform="translate(10.075203,-107.0806)">
      <path
         style="fill:none;fill-opacity:0.4;fill-rule:evenodd;stroke:#bc2122;stroke-width:0.536094;stop-color:#000000"
         id="path856-3"
         sodipodi:type="arc"
         sodipodi:cx="105.04599"
         sodipodi:cy="174.9099"
         sodipodi:rx="55.794453"
         sodipodi:ry="15.902127"
         sodipodi:start="0"
         sodipodi:end="3.1179522"
         sodipodi:open="true"
         sodipodi:arc-type="arc"
         d="M 160.84044,174.9099 A 55.794453,15.902127 0 0 1 105.70548,190.81091 55.794453,15.902127 0 0 1 49.267128,175.2858" />
      <path
         style="fill:none;fill-opacity:0.4;fill-rule:evenodd;stroke:#bc2122;stroke-width:0.536;stroke-miterlimit:4;stroke-dasharray:0.536, 0.536;stroke-dashoffset:0;stop-color:#000000"
         id="path856-3-6"
         sodipodi:type="arc"
         sodipodi:cx="-105.0625"
         sodipodi:cy="-174.49841"
         sodipodi:rx="55.794453"
         sodipodi:ry="15.902127"
         sodipodi:start="0"
         sodipodi:end="3.1443124"
         sodipodi:open="true"
         sodipodi:arc-type="arc"
         d="m -49.268047,-174.49841 a 55.794453,15.902127 0 0 1 -27.941044,13.77885 55.794453,15.902127 0 0 1 -55.838199,-0.0216 55.794453,15.902127 0 0 1 -27.80946,-13.80045"
         transform="scale(-1)" />
    </g>
    <path
       id="path1318"
       style="fill:none;stroke:#000000;stroke-width:0.264583px;stroke-linecap:butt;stroke-linejoin:miter;stroke-opacity:1"
       d="m 116.67561,32.764563 c -2.24736,-0.731825 -5.46975,-1.105946 -6.8624,1.280716 -1.44174,3.044312 0.0261,6.620264 1.87979,9.14979 10.31014,2.63139 8.56244,14.219112 15.50223,20.137711 3.59407,2.99427 8.74074,3.563073 13.07307,1.993217 1.82893,-0.818991 3.7766,-1.250111 5.60183,-2.069608 4.14464,-1.959936 5.84194,-6.817976 5.65217,-11.143542 -0.0644,-2.896436 -0.67567,-5.778086 -1.75702,-8.464287 1.29394,-3.41861 0.93965,-7.64733 -1.74461,-10.314639 -3.78095,-3.793287 -9.52208,-4.792288 -14.67818,-4.394792 -2.70473,0.209161 -5.34778,1.003333 -7.74207,2.260206 -2.86817,0.955886 -5.86392,1.872434 -8.92481,1.565228 z"
       sodipodi:nodetypes="cccccccccccc" />
    <path
       style="fill:none;stroke:#000000;stroke-width:0.264583px;stroke-linecap:butt;stroke-linejoin:miter;stroke-opacity:1"
       d="m 106.10904,35.711059 c 0,0 -2.62483,-6.100825 -14.552091,2.645834 -19.843747,14.552083 -11.906249,2.645833 -13.229166,0"
       id="path2267"
       sodipodi:nodetypes="csc" />
    <path
       style="fill:none;stroke:#000000;stroke-width:0.264583px;stroke-linecap:butt;stroke-linejoin:miter;stroke-opacity:1"
       d="m 99.494449,96.565228 c 0,0 1.083401,10.843742 10.583331,9.260412 15.87501,-2.64583 13.22917,10e-6 14.55209,2.64584 3.186,6.37201 14.55208,-1.32292 14.55208,-1.32292"
       id="path2455"
       sodipodi:nodetypes="cssc" />
    <path
       style="fill:none;stroke:#3139ae;stroke-width:1;stroke-linecap:butt;stroke-linejoin:miter;stroke-miterlimit:4;stroke-dasharray:none;stroke-opacity:1"
       d="M 118.01527,11.898558 C 73.47717,6.2663933 39.754918,68.656474 71.877146,101.61297 95.113929,131.94025 150.6641,129.50796 165.82218,92.254149 183.20445,58.269963 158.73133,9.6185483 118.01527,11.898558 Z"
       id="path3706"
       sodipodi:nodetypes="sssssssssss" />
    <g
       id="g10795"
       style="fill:none"
       transform="translate(-0.213892,-3.8931117)">
      <path
         style="fill:none;stroke:#000000;stroke-width:0.264583px;stroke-linecap:butt;stroke-linejoin:miter;stroke-opacity:1"
         d="m 20.811811,227.39147 c -2.633042,39.35498 47.690266,49.36884 79.393349,51.63092 33.85223,2.9174 90.05058,2.84515 95.20421,-32.54775 10.27219,-70.54503 -172.90709,-44.3499 -174.597559,-19.08317 z"
         id="path8676"
         sodipodi:nodetypes="scss" />
      <path
         style="fill:none;stroke:#000000;stroke-width:0.264583px;stroke-linecap:butt;stroke-linejoin:miter;stroke-opacity:1"
         d="m 36.208332,224.8125 c 0.334198,0.77102 0.737997,1.51548 1.002588,2.31308 0.193913,0.58454 0.214315,1.21407 0.365546,1.81108 0.897758,3.54401 2.912763,7.00331 5.245658,9.77267 3.415435,4.05443 7.861284,6.79415 12.520112,9.21678 13.601528,7.07289 30.466691,8.05355 45.163804,4.08837 1.95928,-0.5286 6.35468,-2.15031 8.33455,-2.81524 1.59695,-0.53632 3.21636,-1.00528 4.807,-1.56004 0.79267,-0.27646 1.57167,-0.59308 2.33952,-0.93244 0.46422,-0.20518 0.90784,-0.45469 1.35253,-0.69933 0.20767,-0.11424 0.36627,-0.36903 0.60317,-0.37655 0.15022,-0.005 0.1909,0.23219 0.28635,0.34829"
         id="path8968" />
      <g
         id="g10784"
         style="fill:none">
        <path
           style="fill:none;stroke:#000000;stroke-width:0.264583px;stroke-linecap:butt;stroke-linejoin:miter;stroke-opacity:1"
           d="m 44.15688,240.17099 c 1.513872,-0.17547 0.958613,-3.07559 18.105593,-5.41914 9.929231,0.13828 19.513014,3.42762 28.692191,6.9326 4.898133,2.36506 10.212716,-13.89885 14.259236,-10.333 0.3374,0.40334 8.2999,1.08266 6.22299,16.95765"
           id="path8970"
           sodipodi:nodetypes="ccssc" />
      </g>
    </g>
    <path
       style="fill:none;fill-opacity:0.4;fill-rule:evenodd;stroke:none;stroke-width:0.613614;stroke-miterlimit:4;stroke-dasharray:none;stroke-dashoffset:0;stop-color:#000000"
       d="m 117.10177,275.93866 c -9.54186,-0.28162 -21.940912,-1.25063 -30.513468,-2.38469 -28.119487,-3.71988 -48.001686,-12.1824 -58.158329,-24.7541 -1.62125,-2.00676 -3.046868,-4.27071 -4.230939,-6.71896 -2.292496,-4.74008 -3.287411,-8.96978 -3.459109,-14.70578 -0.143931,-4.80833 0.275365,-6.22668 2.550355,-8.62708 6.231327,-6.57483 23.507312,-12.95008 46.547604,-17.17717 24.641719,-4.52091 51.923066,-5.52979 73.364326,-2.71306 28.01187,3.67991 45.50838,13.47945 50.6239,28.3537 1.03162,2.99957 1.38135,5.14743 1.46746,9.01211 0.11385,5.11024 -0.471,8.85263 -2.02839,12.97945 -1.5838,4.19684 -3.8156,7.50668 -7.37597,10.93878 -9.13183,8.80286 -24.63508,13.90421 -47.04956,15.48165 -3.1841,0.22408 -13.64791,0.5428 -15.8938,0.48408 -0.58036,-0.0151 -3.21019,-0.0912 -5.84408,-0.16893 z M 89.563754,250.27648 c 4.136784,-0.42826 8.414297,-1.25093 11.568686,-2.22492 2.90676,-0.89754 13.10223,-4.38346 14.3175,-4.89528 0.63397,-0.267 1.36902,-0.63829 1.63343,-0.82509 0.26441,-0.18681 0.58525,-0.29909 0.71298,-0.24954 0.31939,0.12393 0.45204,-0.14149 0.18311,-0.36638 -0.16879,-0.14114 -0.53343,-0.0194 -1.58311,0.52841 -1.24307,0.64878 -4.29804,1.86847 -4.67644,1.86706 -0.0984,-2.6e-4 -0.11783,-1.14403 -0.0523,-3.07431 0.16734,-4.93194 -0.41492,-7.8644 -2.05123,-10.33067 -0.98152,-1.47935 -1.91317,-2.22155 -4.09162,-3.25958 -1.86198,-0.88724 -2.14621,-0.88713 -3.45064,0.001 -0.93971,0.64006 -1.96379,1.82705 -4.456074,5.16497 -2.12599,2.84734 -3.867565,4.61352 -4.947483,5.01736 -0.951302,0.35575 -0.60193,0.44514 -6.05427,-1.54901 -8.829691,-3.2294 -15.471767,-4.82923 -21.966605,-5.29094 -2.175296,-0.15465 -2.577431,-0.137 -4.871379,0.21375 -7.608239,1.16331 -11.94463,2.47125 -14.832372,4.47374 l -0.954585,0.66195 -0.345127,-0.42298 c -0.189818,-0.23264 -0.681911,-0.81713 -1.093537,-1.29886 -1.6052,-1.8786 -3.428637,-4.96064 -4.339529,-7.33483 -0.181787,-0.47382 -0.508457,-1.61501 -0.725932,-2.53598 -0.435319,-1.84352 -1.255842,-3.8519 -1.510032,-3.69611 -0.09881,0.0606 0.0028,0.46292 0.2595,1.02807 0.232019,0.51071 0.524833,1.3673 0.650698,1.90353 0.76653,3.26565 1.749332,5.63037 3.379145,8.13055 2.437982,3.73995 5.017026,6.28099 9.102037,8.96791 8.858297,5.82654 18.07112,8.82823 29.674647,9.66848 1.786575,0.12937 8.257037,-0.0383 10.520572,-0.27264 z"
       id="path20399" />
    <path
       style="fill:none;fill-opacity:0.4;fill-rule:evenodd;stroke:none;stroke-width:0.613614;stroke-miterlimit:4;stroke-dasharray:none;stroke-dashoffset:0;stop-color:#000000"
       d="m 76.123182,249.91604 c -8.050215,-0.87792 -14.601697,-2.81967 -21.324215,-6.32014 -4.19145,-2.18252 -7.139789,-4.14081 -9.702466,-6.44437 l -0.792655,-0.71251 0.878898,-0.65173 c 2.48612,-1.84352 6.59017,-3.09995 14.037397,-4.29749 2.824795,-0.45423 4.241112,-0.47763 7.494077,-0.1238 6.08108,0.66146 12.441669,2.34471 21.526881,5.69683 1.680469,0.62004 3.285879,1.12659 3.567581,1.12568 1.524717,-0.005 3.252718,-1.56427 6.536063,-5.89803 2.335407,-3.08256 3.773837,-4.63574 4.570707,-4.93533 0.74963,-0.28182 1.22342,-0.17483 2.91201,0.65761 2.09309,1.03184 3.19321,2.12706 4.14213,4.12365 0.97962,2.06118 1.32624,3.97688 1.32912,7.34571 0.003,3.1894 -0.17093,4.95113 -0.48794,4.94995 -0.11703,-5.3e-4 -2.32395,0.72871 -4.90427,1.62032 -6.466676,2.23451 -9.329246,2.94142 -14.902519,3.68016 -3.169793,0.42016 -11.741459,0.52586 -14.880799,0.18349 z"
       id="path20438" />
    <path
       style="fill:url(#meshgradient24245);fill-opacity:1;fill-rule:evenodd;stroke:none;stroke-width:0.43389;stroke-miterlimit:4;stroke-dasharray:none;stroke-dashoffset:0;stop-color:#000000"
       d="m 118.48351,276.01076 c -8.32565,-0.21686 -21.351575,-1.14004 -28.922177,-2.04981 -32.039399,-3.85011 -53.759981,-13.47882 -63.24011,-28.03423 -3.969343,-6.09437 -5.83345,-12.96643 -5.600585,-20.64665 0.07421,-2.44747 0.172778,-2.9866 0.757021,-4.14048 4.216432,-8.32751 28.356161,-17.03156 59.060144,-21.29528 26.879467,-3.73263 53.472347,-3.43281 73.501707,0.82868 23.16971,4.92964 36.98613,14.77707 40.50215,28.86727 0.67091,2.68857 0.78239,3.79227 0.77054,7.6284 -0.0126,4.07949 -0.1969,5.69775 -1.00709,8.8434 -0.57806,2.24437 -1.08506,3.59236 -2.19619,5.8392 -7.04066,14.23691 -25.89817,22.32853 -55.83053,23.95646 -4.99176,0.27149 -12.06759,0.35221 -17.79488,0.20304 z M 86.893335,250.48201 c 3.543049,-0.24348 6.748285,-0.68734 10.149999,-1.40559 2.399159,-0.50656 3.938546,-0.94755 7.082876,-2.02904 1.39087,-0.47839 4.26162,-1.44811 6.37945,-2.15493 3.91936,-1.30807 5.32508,-1.84862 6.41481,-2.46674 0.36399,-0.20646 0.70342,-0.32153 0.84084,-0.28505 0.30026,0.0797 0.42211,-0.22404 0.1855,-0.46241 -0.16159,-0.16279 -0.21442,-0.15669 -0.56125,0.0649 -1.10336,0.70478 -5.20673,2.40657 -5.79746,2.40437 -0.14789,-5.2e-4 -0.17266,-0.0784 -0.11885,-0.37354 0.0374,-0.20507 0.12557,-1.22503 0.196,-2.26659 0.26504,-3.92011 -0.24279,-7.3262 -1.45569,-9.76347 -0.90594,-1.82045 -2.15888,-3.0912 -3.78914,-3.843 -0.46421,-0.21407 -0.97296,-0.44838 -1.13054,-0.52068 -0.15759,-0.0723 -0.46613,-0.23576 -0.68567,-0.36325 -1.38875,-0.80652 -3.0354,0.35869 -5.872062,4.1552 -3.254666,4.35597 -4.479467,5.70699 -5.727634,6.31794 -1.084506,0.53083 -1.167738,0.51819 -4.326768,-0.65741 -9.770409,-3.63595 -16.30849,-5.33453 -22.892356,-5.94739 -2.885895,-0.26863 -4.137146,-0.21611 -7.150936,0.30018 -4.980619,0.85323 -8.465282,1.73715 -10.938247,2.77457 -1.032794,0.43327 -1.801411,0.88045 -3.213016,1.86935 l -0.448659,0.3143 -0.678138,-0.74683 c -3.005322,-3.30975 -5.247909,-7.52547 -5.99563,-11.27085 -0.240742,-1.20591 -1.040125,-3.13925 -1.322713,-3.19905 -0.239165,-0.0506 -0.233034,-0.0197 0.173173,0.87258 0.517125,1.13597 0.65111,1.5529 0.90144,2.80504 0.742482,3.71387 3.197916,8.08802 6.439496,11.4714 2.928424,3.05653 6.291646,5.41985 11.494907,8.07742 7.345182,3.75156 14.510287,5.67321 23.637973,6.3396 1.308592,0.0955 6.764432,0.0882 8.208295,-0.011 z"
       id="path20764" />
    <path
       style="fill:none;fill-opacity:0.4;fill-rule:evenodd;stroke:none;stroke-width:0.306806;stroke-miterlimit:4;stroke-dasharray:none;stroke-dashoffset:0;stop-color:#000000"
       d="m 78.638769,250.15315 c -7.339655,-0.49505 -13.898263,-2.02641 -20.168724,-4.70918 -1.273723,-0.54495 -4.882864,-2.38481 -6.305936,-3.21462 -2.947596,-1.71879 -5.432041,-3.5134 -7.286323,-5.26318 -0.493837,-0.46601 -0.583404,-0.58665 -0.481476,-0.64853 0.06887,-0.0418 0.416819,-0.28962 0.773221,-0.55069 0.356399,-0.26107 0.867664,-0.60561 1.136139,-0.76565 2.23138,-1.33014 6.71177,-2.56877 12.798428,-3.53819 3.003457,-0.47837 2.97978,-0.47658 4.845851,-0.36599 7.288557,0.43191 14.423644,2.20023 24.924303,6.17709 2.189948,0.82938 2.342311,0.87507 2.925313,0.87724 0.562911,0.002 0.676537,-0.0277 1.340718,-0.35205 0.651221,-0.31798 0.8388,-0.46722 1.828101,-1.45439 1.112692,-1.11029 1.440852,-1.51355 3.859514,-4.74274 2.003352,-2.6747 3.056592,-3.78675 4.042312,-4.26802 0.57162,-0.27909 1.24218,-0.24904 1.76575,0.0791 0.22442,0.14067 0.61327,0.33342 0.86411,0.42833 1.64939,0.62411 2.92481,1.63904 3.8801,3.08765 1.77559,2.69252 2.40502,7.138 1.78274,12.59107 l -0.0949,0.83201 -1.22823,0.39325 c -0.67553,0.21628 -2.12438,0.70778 -3.21966,1.0922 -5.36876,1.88436 -7.441533,2.48762 -10.848779,3.15742 -2.604098,0.51192 -5.258157,0.86937 -8.284136,1.11571 -1.375386,0.11197 -7.388423,0.1406 -8.848386,0.0421 z"
       id="path21064" />
    <text
       xml:space="preserve"
       style="font-size:10.5833px;line-height:1.25;font-family:sans-serif;letter-spacing:0px;word-spacing:0px;stroke-width:0.264583"
       x="-3.554347"
       y="176.81371"
       id="text26991"><tspan
         sodipodi:role="line"
         id="tspan26989"
         style="stroke-width:0.264583"
         x="-3.554347"
         y="176.81371">$ax+b = \int g(s) ds$</tspan></text>
  </g>
  <g
     inkscape:groupmode="layer"
     id="layer3"
     inkscape:label="Layer 2"
     style="display:inline"
     transform="translate(56.896842,-14.934046)">
    <path
       style="fill:url(#linearGradient20147);fill-opacity:1;stroke:#000000;stroke-width:0.264583px;stroke-linecap:butt;stroke-linejoin:miter;stroke-opacity:1"
       d="m 119.55208,251.27084 c -3.77415,9.92676 2.64583,26.45834 23.8125,21.16668 21.16667,-5.29167 18.52083,-18.52083 7.9375,-21.16668 -10.58333,-2.64583 -27.98889,-9.89247 -31.75,0 z"
       id="path9005-9"
       sodipodi:nodetypes="ssss" />
    <path
       style="display:inline;fill:url(#linearGradient9348);fill-opacity:1;stroke:#000000;stroke-width:0.264583px;stroke-linecap:butt;stroke-linejoin:miter;stroke-opacity:1"
       d="m 136.75,224.8125 c -3.77415,9.92676 2.64583,26.45834 23.8125,21.16667 21.16667,-5.29167 18.52083,-18.52083 7.9375,-21.16667 -10.58333,-2.64583 -27.98889,-9.89247 -31.75,0 z"
       id="path9005"
       sodipodi:nodetypes="ssss" />
  </g>
  <script
     id="mesh_polyfill"
     type="text/javascript">
!function(){const t=&quot;http://www.w3.org/2000/svg&quot;,e=&quot;http://www.w3.org/1999/xlink&quot;,s=&quot;http://www.w3.org/1999/xhtml&quot;,r=2;if(document.createElementNS(t,&quot;meshgradient&quot;).x)return;const n=(t,e,s,r)=&gt;{let n=new x(.5*(e.x+s.x),.5*(e.y+s.y)),o=new x(.5*(t.x+e.x),.5*(t.y+e.y)),i=new x(.5*(s.x+r.x),.5*(s.y+r.y)),a=new x(.5*(n.x+o.x),.5*(n.y+o.y)),h=new x(.5*(n.x+i.x),.5*(n.y+i.y)),l=new x(.5*(a.x+h.x),.5*(a.y+h.y));return[[t,o,a,l],[l,h,i,r]]},o=t=&gt;{let e=t[0].distSquared(t[1]),s=t[2].distSquared(t[3]),r=.25*t[0].distSquared(t[2]),n=.25*t[1].distSquared(t[3]),o=e&gt;s?e:s,i=r&gt;n?r:n;return 18*(o&gt;i?o:i)},i=(t,e)=&gt;Math.sqrt(t.distSquared(e)),a=(t,e)=&gt;t.scale(2/3).add(e.scale(1/3)),h=t=&gt;{let e,s,r,n,o,i,a,h=new g;return t.match(/(\w+\(\s*[^)]+\))+/g).forEach(t=&gt;{let l=t.match(/[\w.-]+/g),d=l.shift();switch(d){case&quot;translate&quot;:2===l.length?e=new g(1,0,0,1,l[0],l[1]):(console.error(&quot;mesh.js: translate does not have 2 arguments!&quot;),e=new g(1,0,0,1,0,0)),h=h.append(e);break;case&quot;scale&quot;:1===l.length?s=new g(l[0],0,0,l[0],0,0):2===l.length?s=new g(l[0],0,0,l[1],0,0):(console.error(&quot;mesh.js: scale does not have 1 or 2 arguments!&quot;),s=new g(1,0,0,1,0,0)),h=h.append(s);break;case&quot;rotate&quot;:if(3===l.length&amp;&amp;(e=new g(1,0,0,1,l[1],l[2]),h=h.append(e)),l[0]){r=l[0]*Math.PI/180;let t=Math.cos(r),e=Math.sin(r);Math.abs(t)&lt;1e-16&amp;&amp;(t=0),Math.abs(e)&lt;1e-16&amp;&amp;(e=0),a=new g(t,e,-e,t,0,0),h=h.append(a)}else console.error(&quot;math.js: No argument to rotate transform!&quot;);3===l.length&amp;&amp;(e=new g(1,0,0,1,-l[1],-l[2]),h=h.append(e));break;case&quot;skewX&quot;:l[0]?(r=l[0]*Math.PI/180,n=Math.tan(r),o=new g(1,0,n,1,0,0),h=h.append(o)):console.error(&quot;math.js: No argument to skewX transform!&quot;);break;case&quot;skewY&quot;:l[0]?(r=l[0]*Math.PI/180,n=Math.tan(r),i=new g(1,n,0,1,0,0),h=h.append(i)):console.error(&quot;math.js: No argument to skewY transform!&quot;);break;case&quot;matrix&quot;:6===l.length?h=h.append(new g(...l)):console.error(&quot;math.js: Incorrect number of arguments for matrix!&quot;);break;default:console.error(&quot;mesh.js: Unhandled transform type: &quot;+d)}}),h},l=t=&gt;{let e=[],s=t.split(/[ ,]+/);for(let t=0,r=s.length-1;t&lt;r;t+=2)e.push(new x(parseFloat(s[t]),parseFloat(s[t+1])));return e},d=(t,e)=&gt;{for(let s in e)t.setAttribute(s,e[s])},c=(t,e,s,r,n)=&gt;{let o,i,a=[0,0,0,0];for(let h=0;h&lt;3;++h)e[h]&lt;t[h]&amp;&amp;e[h]&lt;s[h]||t[h]&lt;e[h]&amp;&amp;s[h]&lt;e[h]?a[h]=0:(a[h]=.5*((e[h]-t[h])/r+(s[h]-e[h])/n),o=Math.abs(3*(e[h]-t[h])/r),i=Math.abs(3*(s[h]-e[h])/n),a[h]&gt;o?a[h]=o:a[h]&gt;i&amp;&amp;(a[h]=i));return a},u=[[1,0,0,0,0,0,0,0,0,0,0,0,0,0,0,0],[0,0,0,0,1,0,0,0,0,0,0,0,0,0,0,0],[-3,3,0,0,-2,-1,0,0,0,0,0,0,0,0,0,0],[2,-2,0,0,1,1,0,0,0,0,0,0,0,0,0,0],[0,0,0,0,0,0,0,0,1,0,0,0,0,0,0,0],[0,0,0,0,0,0,0,0,0,0,0,0,1,0,0,0],[0,0,0,0,0,0,0,0,-3,3,0,0,-2,-1,0,0],[0,0,0,0,0,0,0,0,2,-2,0,0,1,1,0,0],[-3,0,3,0,0,0,0,0,-2,0,-1,0,0,0,0,0],[0,0,0,0,-3,0,3,0,0,0,0,0,-2,0,-1,0],[9,-9,-9,9,6,3,-6,-3,6,-6,3,-3,4,2,2,1],[-6,6,6,-6,-3,-3,3,3,-4,4,-2,2,-2,-2,-1,-1],[2,0,-2,0,0,0,0,0,1,0,1,0,0,0,0,0],[0,0,0,0,2,0,-2,0,0,0,0,0,1,0,1,0],[-6,6,6,-6,-4,-2,4,2,-3,3,-3,3,-2,-1,-2,-1],[4,-4,-4,4,2,2,-2,-2,2,-2,2,-2,1,1,1,1]],f=t=&gt;{let e=[];for(let s=0;s&lt;16;++s){e[s]=0;for(let r=0;r&lt;16;++r)e[s]+=u[s][r]*t[r]}return e},p=(t,e,s)=&gt;{const r=e*e,n=s*s,o=e*e*e,i=s*s*s;return t[0]+t[1]*e+t[2]*r+t[3]*o+t[4]*s+t[5]*s*e+t[6]*s*r+t[7]*s*o+t[8]*n+t[9]*n*e+t[10]*n*r+t[11]*n*o+t[12]*i+t[13]*i*e+t[14]*i*r+t[15]*i*o},y=t=&gt;{let e=[],s=[],r=[];for(let s=0;s&lt;4;++s)e[s]=[],e[s][0]=n(t[0][s],t[1][s],t[2][s],t[3][s]),e[s][1]=[],e[s][1].push(...n(...e[s][0][0])),e[s][1].push(...n(...e[s][0][1])),e[s][2]=[],e[s][2].push(...n(...e[s][1][0])),e[s][2].push(...n(...e[s][1][1])),e[s][2].push(...n(...e[s][1][2])),e[s][2].push(...n(...e[s][1][3]));for(let t=0;t&lt;8;++t){s[t]=[];for(let r=0;r&lt;4;++r)s[t][r]=[],s[t][r][0]=n(e[0][2][t][r],e[1][2][t][r],e[2][2][t][r],e[3][2][t][r]),s[t][r][1]=[],s[t][r][1].push(...n(...s[t][r][0][0])),s[t][r][1].push(...n(...s[t][r][0][1])),s[t][r][2]=[],s[t][r][2].push(...n(...s[t][r][1][0])),s[t][r][2].push(...n(...s[t][r][1][1])),s[t][r][2].push(...n(...s[t][r][1][2])),s[t][r][2].push(...n(...s[t][r][1][3]))}for(let t=0;t&lt;8;++t){r[t]=[];for(let e=0;e&lt;8;++e)r[t][e]=[],r[t][e][0]=s[t][0][2][e],r[t][e][1]=s[t][1][2][e],r[t][e][2]=s[t][2][2][e],r[t][e][3]=s[t][3][2][e]}return r};class x{constructor(t,e){this.x=t||0,this.y=e||0}toString(){return`(x=${this.x}, y=${this.y})`}clone(){return new x(this.x,this.y)}add(t){return new x(this.x+t.x,this.y+t.y)}scale(t){return void 0===t.x?new x(this.x*t,this.y*t):new x(this.x*t.x,this.y*t.y)}distSquared(t){let e=this.x-t.x,s=this.y-t.y;return e*e+s*s}transform(t){let e=this.x*t.a+this.y*t.c+t.e,s=this.x*t.b+this.y*t.d+t.f;return new x(e,s)}}class g{constructor(t,e,s,r,n,o){void 0===t?(this.a=1,this.b=0,this.c=0,this.d=1,this.e=0,this.f=0):(this.a=t,this.b=e,this.c=s,this.d=r,this.e=n,this.f=o)}toString(){return`affine: ${this.a} ${this.c} ${this.e} \n       ${this.b} ${this.d} ${this.f}`}append(t){t instanceof g||console.error(&quot;mesh.js: argument to Affine.append is not affine!&quot;);let e=this.a*t.a+this.c*t.b,s=this.b*t.a+this.d*t.b,r=this.a*t.c+this.c*t.d,n=this.b*t.c+this.d*t.d,o=this.a*t.e+this.c*t.f+this.e,i=this.b*t.e+this.d*t.f+this.f;return new g(e,s,r,n,o,i)}}class w{constructor(t,e){this.nodes=t,this.colors=e}paintCurve(t,e){if(o(this.nodes)&gt;r){const s=n(...this.nodes);let r=[[],[]],o=[[],[]];for(let t=0;t&lt;4;++t)r[0][t]=this.colors[0][t],r[1][t]=(this.colors[0][t]+this.colors[1][t])/2,o[0][t]=r[1][t],o[1][t]=this.colors[1][t];let i=new w(s[0],r),a=new w(s[1],o);i.paintCurve(t,e),a.paintCurve(t,e)}else{let s=Math.round(this.nodes[0].x);if(s&gt;=0&amp;&amp;s&lt;e){let r=4*(~~this.nodes[0].y*e+s);t[r]=Math.round(this.colors[0][0]),t[r+1]=Math.round(this.colors[0][1]),t[r+2]=Math.round(this.colors[0][2]),t[r+3]=Math.round(this.colors[0][3])}}}}class m{constructor(t,e){this.nodes=t,this.colors=e}split(){let t=[[],[],[],[]],e=[[],[],[],[]],s=[[[],[]],[[],[]]],r=[[[],[]],[[],[]]];for(let s=0;s&lt;4;++s){const r=n(this.nodes[0][s],this.nodes[1][s],this.nodes[2][s],this.nodes[3][s]);t[0][s]=r[0][0],t[1][s]=r[0][1],t[2][s]=r[0][2],t[3][s]=r[0][3],e[0][s]=r[1][0],e[1][s]=r[1][1],e[2][s]=r[1][2],e[3][s]=r[1][3]}for(let t=0;t&lt;4;++t)s[0][0][t]=this.colors[0][0][t],s[0][1][t]=this.colors[0][1][t],s[1][0][t]=(this.colors[0][0][t]+this.colors[1][0][t])/2,s[1][1][t]=(this.colors[0][1][t]+this.colors[1][1][t])/2,r[0][0][t]=s[1][0][t],r[0][1][t]=s[1][1][t],r[1][0][t]=this.colors[1][0][t],r[1][1][t]=this.colors[1][1][t];return[new m(t,s),new m(e,r)]}paint(t,e){let s,n=!1;for(let t=0;t&lt;4;++t)if((s=o([this.nodes[0][t],this.nodes[1][t],this.nodes[2][t],this.nodes[3][t]]))&gt;r){n=!0;break}if(n){let s=this.split();s[0].paint(t,e),s[1].paint(t,e)}else{new w([...this.nodes[0]],[...this.colors[0]]).paintCurve(t,e)}}}class b{constructor(t){this.readMesh(t),this.type=t.getAttribute(&quot;type&quot;)||&quot;bilinear&quot;}readMesh(t){let e=[[]],s=[[]],r=Number(t.getAttribute(&quot;x&quot;)),n=Number(t.getAttribute(&quot;y&quot;));e[0][0]=new x(r,n);let o=t.children;for(let t=0,r=o.length;t&lt;r;++t){e[3*t+1]=[],e[3*t+2]=[],e[3*t+3]=[],s[t+1]=[];let r=o[t].children;for(let n=0,o=r.length;n&lt;o;++n){let o=r[n].children;for(let r=0,i=o.length;r&lt;i;++r){let i=r;0!==t&amp;&amp;++i;let h,d=o[r].getAttribute(&quot;path&quot;),c=&quot;l&quot;;null!=d&amp;&amp;(c=(h=d.match(/\s*([lLcC])\s*(.*)/))[1]);let u=l(h[2]);switch(c){case&quot;l&quot;:0===i?(e[3*t][3*n+3]=u[0].add(e[3*t][3*n]),e[3*t][3*n+1]=a(e[3*t][3*n],e[3*t][3*n+3]),e[3*t][3*n+2]=a(e[3*t][3*n+3],e[3*t][3*n])):1===i?(e[3*t+3][3*n+3]=u[0].add(e[3*t][3*n+3]),e[3*t+1][3*n+3]=a(e[3*t][3*n+3],e[3*t+3][3*n+3]),e[3*t+2][3*n+3]=a(e[3*t+3][3*n+3],e[3*t][3*n+3])):2===i?(0===n&amp;&amp;(e[3*t+3][3*n+0]=u[0].add(e[3*t+3][3*n+3])),e[3*t+3][3*n+1]=a(e[3*t+3][3*n],e[3*t+3][3*n+3]),e[3*t+3][3*n+2]=a(e[3*t+3][3*n+3],e[3*t+3][3*n])):(e[3*t+1][3*n]=a(e[3*t][3*n],e[3*t+3][3*n]),e[3*t+2][3*n]=a(e[3*t+3][3*n],e[3*t][3*n]));break;case&quot;L&quot;:0===i?(e[3*t][3*n+3]=u[0],e[3*t][3*n+1]=a(e[3*t][3*n],e[3*t][3*n+3]),e[3*t][3*n+2]=a(e[3*t][3*n+3],e[3*t][3*n])):1===i?(e[3*t+3][3*n+3]=u[0],e[3*t+1][3*n+3]=a(e[3*t][3*n+3],e[3*t+3][3*n+3]),e[3*t+2][3*n+3]=a(e[3*t+3][3*n+3],e[3*t][3*n+3])):2===i?(0===n&amp;&amp;(e[3*t+3][3*n+0]=u[0]),e[3*t+3][3*n+1]=a(e[3*t+3][3*n],e[3*t+3][3*n+3]),e[3*t+3][3*n+2]=a(e[3*t+3][3*n+3],e[3*t+3][3*n])):(e[3*t+1][3*n]=a(e[3*t][3*n],e[3*t+3][3*n]),e[3*t+2][3*n]=a(e[3*t+3][3*n],e[3*t][3*n]));break;case&quot;c&quot;:0===i?(e[3*t][3*n+1]=u[0].add(e[3*t][3*n]),e[3*t][3*n+2]=u[1].add(e[3*t][3*n]),e[3*t][3*n+3]=u[2].add(e[3*t][3*n])):1===i?(e[3*t+1][3*n+3]=u[0].add(e[3*t][3*n+3]),e[3*t+2][3*n+3]=u[1].add(e[3*t][3*n+3]),e[3*t+3][3*n+3]=u[2].add(e[3*t][3*n+3])):2===i?(e[3*t+3][3*n+2]=u[0].add(e[3*t+3][3*n+3]),e[3*t+3][3*n+1]=u[1].add(e[3*t+3][3*n+3]),0===n&amp;&amp;(e[3*t+3][3*n+0]=u[2].add(e[3*t+3][3*n+3]))):(e[3*t+2][3*n]=u[0].add(e[3*t+3][3*n]),e[3*t+1][3*n]=u[1].add(e[3*t+3][3*n]));break;case&quot;C&quot;:0===i?(e[3*t][3*n+1]=u[0],e[3*t][3*n+2]=u[1],e[3*t][3*n+3]=u[2]):1===i?(e[3*t+1][3*n+3]=u[0],e[3*t+2][3*n+3]=u[1],e[3*t+3][3*n+3]=u[2]):2===i?(e[3*t+3][3*n+2]=u[0],e[3*t+3][3*n+1]=u[1],0===n&amp;&amp;(e[3*t+3][3*n+0]=u[2])):(e[3*t+2][3*n]=u[0],e[3*t+1][3*n]=u[1]);break;default:console.error(&quot;mesh.js: &quot;+c+&quot; invalid path type.&quot;)}if(0===t&amp;&amp;0===n||r&gt;0){let e=window.getComputedStyle(o[r]).stopColor.match(/^rgb\s*\(\s*(\d+)\s*,\s*(\d+)\s*,\s*(\d+)\s*\)$/i),a=window.getComputedStyle(o[r]).stopOpacity,h=255;a&amp;&amp;(h=Math.floor(255*a)),e&amp;&amp;(0===i?(s[t][n]=[],s[t][n][0]=Math.floor(e[1]),s[t][n][1]=Math.floor(e[2]),s[t][n][2]=Math.floor(e[3]),s[t][n][3]=h):1===i?(s[t][n+1]=[],s[t][n+1][0]=Math.floor(e[1]),s[t][n+1][1]=Math.floor(e[2]),s[t][n+1][2]=Math.floor(e[3]),s[t][n+1][3]=h):2===i?(s[t+1][n+1]=[],s[t+1][n+1][0]=Math.floor(e[1]),s[t+1][n+1][1]=Math.floor(e[2]),s[t+1][n+1][2]=Math.floor(e[3]),s[t+1][n+1][3]=h):3===i&amp;&amp;(s[t+1][n]=[],s[t+1][n][0]=Math.floor(e[1]),s[t+1][n][1]=Math.floor(e[2]),s[t+1][n][2]=Math.floor(e[3]),s[t+1][n][3]=h))}}e[3*t+1][3*n+1]=new x,e[3*t+1][3*n+2]=new x,e[3*t+2][3*n+1]=new x,e[3*t+2][3*n+2]=new x,e[3*t+1][3*n+1].x=(-4*e[3*t][3*n].x+6*(e[3*t][3*n+1].x+e[3*t+1][3*n].x)+-2*(e[3*t][3*n+3].x+e[3*t+3][3*n].x)+3*(e[3*t+3][3*n+1].x+e[3*t+1][3*n+3].x)+-1*e[3*t+3][3*n+3].x)/9,e[3*t+1][3*n+2].x=(-4*e[3*t][3*n+3].x+6*(e[3*t][3*n+2].x+e[3*t+1][3*n+3].x)+-2*(e[3*t][3*n].x+e[3*t+3][3*n+3].x)+3*(e[3*t+3][3*n+2].x+e[3*t+1][3*n].x)+-1*e[3*t+3][3*n].x)/9,e[3*t+2][3*n+1].x=(-4*e[3*t+3][3*n].x+6*(e[3*t+3][3*n+1].x+e[3*t+2][3*n].x)+-2*(e[3*t+3][3*n+3].x+e[3*t][3*n].x)+3*(e[3*t][3*n+1].x+e[3*t+2][3*n+3].x)+-1*e[3*t][3*n+3].x)/9,e[3*t+2][3*n+2].x=(-4*e[3*t+3][3*n+3].x+6*(e[3*t+3][3*n+2].x+e[3*t+2][3*n+3].x)+-2*(e[3*t+3][3*n].x+e[3*t][3*n+3].x)+3*(e[3*t][3*n+2].x+e[3*t+2][3*n].x)+-1*e[3*t][3*n].x)/9,e[3*t+1][3*n+1].y=(-4*e[3*t][3*n].y+6*(e[3*t][3*n+1].y+e[3*t+1][3*n].y)+-2*(e[3*t][3*n+3].y+e[3*t+3][3*n].y)+3*(e[3*t+3][3*n+1].y+e[3*t+1][3*n+3].y)+-1*e[3*t+3][3*n+3].y)/9,e[3*t+1][3*n+2].y=(-4*e[3*t][3*n+3].y+6*(e[3*t][3*n+2].y+e[3*t+1][3*n+3].y)+-2*(e[3*t][3*n].y+e[3*t+3][3*n+3].y)+3*(e[3*t+3][3*n+2].y+e[3*t+1][3*n].y)+-1*e[3*t+3][3*n].y)/9,e[3*t+2][3*n+1].y=(-4*e[3*t+3][3*n].y+6*(e[3*t+3][3*n+1].y+e[3*t+2][3*n].y)+-2*(e[3*t+3][3*n+3].y+e[3*t][3*n].y)+3*(e[3*t][3*n+1].y+e[3*t+2][3*n+3].y)+-1*e[3*t][3*n+3].y)/9,e[3*t+2][3*n+2].y=(-4*e[3*t+3][3*n+3].y+6*(e[3*t+3][3*n+2].y+e[3*t+2][3*n+3].y)+-2*(e[3*t+3][3*n].y+e[3*t][3*n+3].y)+3*(e[3*t][3*n+2].y+e[3*t+2][3*n].y)+-1*e[3*t][3*n].y)/9}}this.nodes=e,this.colors=s}paintMesh(t,e){let s=(this.nodes.length-1)/3,r=(this.nodes[0].length-1)/3;if(&quot;bilinear&quot;===this.type||s&lt;2||r&lt;2){let n;for(let o=0;o&lt;s;++o)for(let s=0;s&lt;r;++s){let r=[];for(let t=3*o,e=3*o+4;t&lt;e;++t)r.push(this.nodes[t].slice(3*s,3*s+4));let i=[];i.push(this.colors[o].slice(s,s+2)),i.push(this.colors[o+1].slice(s,s+2)),(n=new m(r,i)).paint(t,e)}}else{let n,o,a,h,l,d,u;const x=s,g=r;s++,r++;let w=new Array(s);for(let t=0;t&lt;s;++t){w[t]=new Array(r);for(let e=0;e&lt;r;++e)w[t][e]=[],w[t][e][0]=this.nodes[3*t][3*e],w[t][e][1]=this.colors[t][e]}for(let t=0;t&lt;s;++t)for(let e=0;e&lt;r;++e)0!==t&amp;&amp;t!==x&amp;&amp;(n=i(w[t-1][e][0],w[t][e][0]),o=i(w[t+1][e][0],w[t][e][0]),w[t][e][2]=c(w[t-1][e][1],w[t][e][1],w[t+1][e][1],n,o)),0!==e&amp;&amp;e!==g&amp;&amp;(n=i(w[t][e-1][0],w[t][e][0]),o=i(w[t][e+1][0],w[t][e][0]),w[t][e][3]=c(w[t][e-1][1],w[t][e][1],w[t][e+1][1],n,o));for(let t=0;t&lt;r;++t){w[0][t][2]=[],w[x][t][2]=[];for(let e=0;e&lt;4;++e)n=i(w[1][t][0],w[0][t][0]),o=i(w[x][t][0],w[x-1][t][0]),w[0][t][2][e]=n&gt;0?2*(w[1][t][1][e]-w[0][t][1][e])/n-w[1][t][2][e]:0,w[x][t][2][e]=o&gt;0?2*(w[x][t][1][e]-w[x-1][t][1][e])/o-w[x-1][t][2][e]:0}for(let t=0;t&lt;s;++t){w[t][0][3]=[],w[t][g][3]=[];for(let e=0;e&lt;4;++e)n=i(w[t][1][0],w[t][0][0]),o=i(w[t][g][0],w[t][g-1][0]),w[t][0][3][e]=n&gt;0?2*(w[t][1][1][e]-w[t][0][1][e])/n-w[t][1][3][e]:0,w[t][g][3][e]=o&gt;0?2*(w[t][g][1][e]-w[t][g-1][1][e])/o-w[t][g-1][3][e]:0}for(let s=0;s&lt;x;++s)for(let r=0;r&lt;g;++r){let n=i(w[s][r][0],w[s+1][r][0]),o=i(w[s][r+1][0],w[s+1][r+1][0]),c=i(w[s][r][0],w[s][r+1][0]),x=i(w[s+1][r][0],w[s+1][r+1][0]),g=[[],[],[],[]];for(let t=0;t&lt;4;++t){(d=[])[0]=w[s][r][1][t],d[1]=w[s+1][r][1][t],d[2]=w[s][r+1][1][t],d[3]=w[s+1][r+1][1][t],d[4]=w[s][r][2][t]*n,d[5]=w[s+1][r][2][t]*n,d[6]=w[s][r+1][2][t]*o,d[7]=w[s+1][r+1][2][t]*o,d[8]=w[s][r][3][t]*c,d[9]=w[s+1][r][3][t]*x,d[10]=w[s][r+1][3][t]*c,d[11]=w[s+1][r+1][3][t]*x,d[12]=0,d[13]=0,d[14]=0,d[15]=0,u=f(d);for(let e=0;e&lt;9;++e){g[t][e]=[];for(let s=0;s&lt;9;++s)g[t][e][s]=p(u,e/8,s/8),g[t][e][s]&gt;255?g[t][e][s]=255:g[t][e][s]&lt;0&amp;&amp;(g[t][e][s]=0)}}h=[];for(let t=3*s,e=3*s+4;t&lt;e;++t)h.push(this.nodes[t].slice(3*r,3*r+4));l=y(h);for(let s=0;s&lt;8;++s)for(let r=0;r&lt;8;++r)(a=new m(l[s][r],[[[g[0][s][r],g[1][s][r],g[2][s][r],g[3][s][r]],[g[0][s][r+1],g[1][s][r+1],g[2][s][r+1],g[3][s][r+1]]],[[g[0][s+1][r],g[1][s+1][r],g[2][s+1][r],g[3][s+1][r]],[g[0][s+1][r+1],g[1][s+1][r+1],g[2][s+1][r+1],g[3][s+1][r+1]]]])).paint(t,e)}}}transform(t){if(t instanceof x)for(let e=0,s=this.nodes.length;e&lt;s;++e)for(let s=0,r=this.nodes[0].length;s&lt;r;++s)this.nodes[e][s]=this.nodes[e][s].add(t);else if(t instanceof g)for(let e=0,s=this.nodes.length;e&lt;s;++e)for(let s=0,r=this.nodes[0].length;s&lt;r;++s)this.nodes[e][s]=this.nodes[e][s].transform(t)}scale(t){for(let e=0,s=this.nodes.length;e&lt;s;++e)for(let s=0,r=this.nodes[0].length;s&lt;r;++s)this.nodes[e][s]=this.nodes[e][s].scale(t)}}document.querySelectorAll(&quot;rect,circle,ellipse,path,text&quot;).forEach((r,n)=&gt;{let o=r.getAttribute(&quot;id&quot;);o||(o=&quot;patchjs_shape&quot;+n,r.setAttribute(&quot;id&quot;,o));const i=r.style.fill.match(/^url\(\s*&quot;?\s*#([^\s&quot;]+)&quot;?\s*\)/),a=r.style.stroke.match(/^url\(\s*&quot;?\s*#([^\s&quot;]+)&quot;?\s*\)/);if(i&amp;&amp;i[1]){const a=document.getElementById(i[1]);if(a&amp;&amp;&quot;meshgradient&quot;===a.nodeName){const i=r.getBBox();let l=document.createElementNS(s,&quot;canvas&quot;);d(l,{width:i.width,height:i.height});const c=l.getContext(&quot;2d&quot;);let u=c.createImageData(i.width,i.height);const f=new b(a);&quot;objectBoundingBox&quot;===a.getAttribute(&quot;gradientUnits&quot;)&amp;&amp;f.scale(new x(i.width,i.height));const p=a.getAttribute(&quot;gradientTransform&quot;);null!=p&amp;&amp;f.transform(h(p)),&quot;userSpaceOnUse&quot;===a.getAttribute(&quot;gradientUnits&quot;)&amp;&amp;f.transform(new x(-i.x,-i.y)),f.paintMesh(u.data,l.width),c.putImageData(u,0,0);const y=document.createElementNS(t,&quot;image&quot;);d(y,{width:i.width,height:i.height,x:i.x,y:i.y});let g=l.toDataURL();y.setAttributeNS(e,&quot;xlink:href&quot;,g),r.parentNode.insertBefore(y,r),r.style.fill=&quot;none&quot;;const w=document.createElementNS(t,&quot;use&quot;);w.setAttributeNS(e,&quot;xlink:href&quot;,&quot;#&quot;+o);const m=&quot;patchjs_clip&quot;+n,M=document.createElementNS(t,&quot;clipPath&quot;);M.setAttribute(&quot;id&quot;,m),M.appendChild(w),r.parentElement.insertBefore(M,r),y.setAttribute(&quot;clip-path&quot;,&quot;url(#&quot;+m+&quot;)&quot;),u=null,l=null,g=null}}if(a&amp;&amp;a[1]){const o=document.getElementById(a[1]);if(o&amp;&amp;&quot;meshgradient&quot;===o.nodeName){const i=parseFloat(r.style.strokeWidth.slice(0,-2))*(parseFloat(r.style.strokeMiterlimit)||parseFloat(r.getAttribute(&quot;stroke-miterlimit&quot;))||1),a=r.getBBox(),l=Math.trunc(a.width+i),c=Math.trunc(a.height+i),u=Math.trunc(a.x-i/2),f=Math.trunc(a.y-i/2);let p=document.createElementNS(s,&quot;canvas&quot;);d(p,{width:l,height:c});const y=p.getContext(&quot;2d&quot;);let g=y.createImageData(l,c);const w=new b(o);&quot;objectBoundingBox&quot;===o.getAttribute(&quot;gradientUnits&quot;)&amp;&amp;w.scale(new x(l,c));const m=o.getAttribute(&quot;gradientTransform&quot;);null!=m&amp;&amp;w.transform(h(m)),&quot;userSpaceOnUse&quot;===o.getAttribute(&quot;gradientUnits&quot;)&amp;&amp;w.transform(new x(-u,-f)),w.paintMesh(g.data,p.width),y.putImageData(g,0,0);const M=document.createElementNS(t,&quot;image&quot;);d(M,{width:l,height:c,x:0,y:0});let S=p.toDataURL();M.setAttributeNS(e,&quot;xlink:href&quot;,S);const k=&quot;pattern_clip&quot;+n,A=document.createElementNS(t,&quot;pattern&quot;);d(A,{id:k,patternUnits:&quot;userSpaceOnUse&quot;,width:l,height:c,x:u,y:f}),A.appendChild(M),o.parentNode.appendChild(A),r.style.stroke=&quot;url(#&quot;+k+&quot;)&quot;,g=null,p=null,S=null}}})}();
</script>
</svg>
