<?xml version="1.0" encoding="UTF-8" standalone="no"?>
<svg
   width="390.61075mm"
   height="203.36696mm"
   viewBox="0 0 390.61074 203.36696"
   version="1.1"
   id="svg8"
   sodipodi:docname="2021-09-15_11-49.svg"
   inkscape:version="1.1 (c4e8f9ed74, 2021-05-24)"
   xmlns:inkscape="http://www.inkscape.org/namespaces/inkscape"
   xmlns:sodipodi="http://sodipodi.sourceforge.net/DTD/sodipodi-0.dtd"
   xmlns="http://www.w3.org/2000/svg"
   xmlns:svg="http://www.w3.org/2000/svg"
   xmlns:rdf="http://www.w3.org/1999/02/22-rdf-syntax-ns#"
   xmlns:cc="http://creativecommons.org/ns#"
   xmlns:dc="http://purl.org/dc/elements/1.1/">
  <defs
     id="defs2">
    <marker
       style="overflow:visible"
       id="Arrow1Lend"
       refX="0"
       refY="0"
       orient="auto"
       inkscape:stockid="Arrow1Lend"
       inkscape:isstock="true">
      <path
         transform="matrix(-0.8,0,0,-0.8,-10,0)"
         style="fill:context-stroke;fill-rule:evenodd;stroke:context-stroke;stroke-width:1pt"
         d="M 0,0 5,-5 -12.5,0 5,5 Z"
         id="path10396" />
    </marker>
    <marker
       style="overflow:visible"
       id="Arrow1Mend"
       refX="0"
       refY="0"
       orient="auto"
       inkscape:stockid="Arrow1Mend"
       inkscape:isstock="true">
      <path
         transform="matrix(-0.4,0,0,-0.4,-4,0)"
         style="fill:context-stroke;fill-rule:evenodd;stroke:context-stroke;stroke-width:1pt"
         d="M 0,0 5,-5 -12.5,0 5,5 Z"
         id="path10402" />
    </marker>
  </defs>
  <sodipodi:namedview
     id="base"
     pagecolor="#ffffff"
     bordercolor="#000000"
     borderopacity="1"
     inkscape:pageopacity="0.0"
     inkscape:pageshadow="2"
     inkscape:zoom="0.61833403"
     inkscape:cx="534.50075"
     inkscape:cy="422.91057"
     inkscape:document-units="mm"
     inkscape:current-layer="layer1"
     inkscape:document-rotation="0"
     showgrid="true"
     showborder="true"
     borderlayer="true"
     inkscape:showpageshadow="false"
     objecttolerance="10000"
     guidetolerance="10000"
     inkscape:snap-perpendicular="true"
     inkscape:snap-tangential="true"
     inkscape:window-width="1920"
     inkscape:window-height="1080"
     inkscape:window-x="-1"
     inkscape:window-y="14"
     inkscape:window-maximized="0"
     inkscape:pagecheckerboard="0">
    <sodipodi:guide
       position="37.085438,243.84382"
       orientation="0,793.70079"
       id="guide10" />
    <sodipodi:guide
       position="247.08543,243.84382"
       orientation="559.37008,0"
       id="guide12" />
    <sodipodi:guide
       position="247.08543,95.843827"
       orientation="0,-793.70079"
       id="guide14" />
    <sodipodi:guide
       position="37.085438,95.843827"
       orientation="-559.37008,0"
       id="guide16" />
    <inkscape:grid
       type="xygrid"
       id="grid20"
       dotted="true"
       units="px"
       originx="142.08543"
       originy="33.523131" />
  </sodipodi:namedview>
  <metadata
     id="metadata5">
    <rdf:RDF>
      <cc:Work
         rdf:about="">
        <dc:format>image/svg+xml</dc:format>
        <dc:type
           rdf:resource="http://purl.org/dc/dcmitype/StillImage" />
        <dc:title />
        <cc:license
           rdf:resource="" />
      </cc:Work>
    </rdf:RDF>
  </metadata>
  <g
     inkscape:label="Layer 1"
     inkscape:groupmode="layer"
     id="layer1"
     transform="translate(37.085439,-40.476868)">
    <path
       id="path893"
       style="fill:#ca4436;fill-opacity:0.4;stroke:#000000;stroke-width:1;stroke-linecap:butt;stroke-linejoin:miter;stroke-miterlimit:4;stroke-dasharray:none;stroke-opacity:1"
       d="m -28.057766,102.81511 c -9.300837,7.76175 -10.817253,21.91682 -5.388573,32.36147 3.914707,9.20627 11.429811,16.03148 17.919584,23.35352 10.9917135,15.31124 6.5174691,35.92612 15.58442865,52.00669 4.60949545,8.14934 13.96955735,12.23167 23.07831635,12.19247 13.519355,0.23152 27.346997,-3.7729 38.3739,-11.66304 C 77.217288,199.53276 87.408898,178.57089 81.942322,159.17037 77.802275,147.56913 72.928606,135.88687 65.18595,126.19636 60.071666,120.11712 52.703733,116.19943 44.856948,115.16942 21.565261,105.94528 -9.1236661,79.200406 -28.057766,102.81511 Z"
       sodipodi:nodetypes="cccccccccc" />
    <path
       id="path895"
       style="fill:#ca4436;fill-opacity:0.4;stroke:#000000;stroke-width:1;stroke-linecap:butt;stroke-linejoin:miter;stroke-miterlimit:4;stroke-dasharray:none;stroke-opacity:1"
       d="m 196.29724,69.815475 c -8.97389,16.544829 -33.60782,-0.863513 -41.37971,15.664891 -5.75332,18.781774 5.39759,37.825464 3.75786,57.005694 -0.66237,18.08743 -16.17596,37.72202 1.70826,52.98597 25.48269,26.59736 61.26707,43.20566 97.70243,47.672 38.45613,2.93953 69.21443,-27.10379 88.62188,-56.98265 17.58462,-32.60216 -4.07604,-73.60688 -33.68154,-90.750751 -30.46543,-8.614346 -40.19969,-48.089408 -72.81028,-52.798601 -17.53625,-6.263884 -31.40129,6.432243 -39.08036,20.806881 -1.61285,2.132188 -3.22569,4.264377 -4.83854,6.396566 z"
       sodipodi:nodetypes="sssssssss" />
    <path
       id="path897"
       style="fill:#26e3d5;stroke:#000000;stroke-width:0.5;stroke-linecap:butt;stroke-linejoin:miter;stroke-opacity:1;font-variation-settings:normal;opacity:1;vector-effect:none;fill-opacity:0.4;stroke-miterlimit:4;stroke-dasharray:none;stroke-dashoffset:0;-inkscape-stroke:none;stop-color:#000000;stop-opacity:1"
       d="m 200.43557,170.95589 c -2.86009,12.07172 7.11526,22.53315 16.24119,28.92447 16.31695,9.72724 36.22887,9.94177 53.14438,18.33389 13.9131,3.57757 25.62096,-7.59403 33.16081,-17.90405 4.72107,-6.50347 11.77603,-17.09927 4.6311,-24.30517 -13.26651,-10.1963 -30.80587,-11.41818 -46.9231,-12.45275 -15.56387,-1.68498 -48.93852,-17.39973 -60.25438,7.40361 z"
       sodipodi:nodetypes="ccccccc" />
    <path
       id="path876"
       style="fill:#26e3d5;fill-opacity:0.4;stroke:#000000;stroke-width:0.5;stroke-linecap:butt;stroke-linejoin:miter;stroke-miterlimit:4;stroke-dasharray:none;stroke-opacity:1"
       d="m -3.7064117,129.673 c -4.085043,7.08677 1.304513,14.26515 2.3155362,21.33922 1.78867223,10.56938 2.8954159,22.96463 12.5980785,29.58655 13.13606,9.58212 32.940327,6.42209 43.407589,-5.65781 3.764588,-6.98021 -1.983613,-15.95568 3.530037,-22.43467 4.625562,-3.64548 9.760532,-10.51241 4.418479,-15.87391 C 57.355883,129.7042 48.436209,128.14889 41.642831,123.34634 34.999728,120.1171 27.200548,121.56159 20.333326,118.97917 5.9711293,114.95966 3.9807242,113.60376 -3.7064117,129.673 Z"
       sodipodi:nodetypes="ccccccccc" />
    <path
       style="opacity:1;fill:#ca4436;fill-rule:evenodd;stroke:#ca4436;stroke-width:3.77953;stroke-linejoin:round"
       id="path9701"
       sodipodi:type="arc"
       sodipodi:cx="33.562504"
       sodipodi:cy="134.85417"
       sodipodi:rx="2.6458333"
       sodipodi:ry="2.6458333"
       sodipodi:start="6.2696241"
       sodipodi:end="6.2634456"
       sodipodi:arc-type="slice"
       d="m 36.208094,134.81829 a 2.6458333,2.6458333 0 0 1 -2.605624,2.68141 2.6458333,2.6458333 0 0 1 -2.685433,-2.60148 2.6458333,2.6458333 0 0 1 2.597328,-2.68944 2.6458333,2.6458333 0 0 1 2.693457,2.59317 l -2.645318,0.0522 z" />
    <text
       xml:space="preserve"
       style="font-size:10.5833px;line-height:1.25;font-family:sans-serif;letter-spacing:0px;word-spacing:0px;stroke-width:0.264583"
       x="27.373079"
       y="97.436852"
       id="text2023"><tspan
         sodipodi:role="line"
         id="tspan2021"
         style="stroke-width:0.264583"
         x="27.373079"
         y="97.436852">$X$</tspan></text>
    <path
       style="opacity:1;fill:#ca4436;fill-rule:evenodd;stroke:#ca4436;stroke-width:3.77953;stroke-linejoin:round"
       id="path9701-3"
       sodipodi:type="arc"
       sodipodi:cx="237.29167"
       sodipodi:cy="174.54167"
       sodipodi:rx="2.6458333"
       sodipodi:ry="2.6458333"
       sodipodi:start="6.2696241"
       sodipodi:end="6.2634456"
       sodipodi:arc-type="slice"
       d="m 239.93726,174.50579 a 2.6458333,2.6458333 0 0 1 -2.60562,2.68141 2.6458333,2.6458333 0 0 1 -2.68543,-2.60148 2.6458333,2.6458333 0 0 1 2.59732,-2.68944 2.6458333,2.6458333 0 0 1 2.69346,2.59317 l -2.64532,0.0522 z" />
    <text
       xml:space="preserve"
       style="font-size:10.5833px;line-height:1.25;font-family:sans-serif;letter-spacing:0px;word-spacing:0px;stroke-width:0.264583"
       x="25.625"
       y="153.375"
       id="text2555"><tspan
         sodipodi:role="line"
         id="tspan2553"
         style="stroke-width:0.264583"
         x="25.625"
         y="153.375">$p$</tspan></text>
    <text
       xml:space="preserve"
       style="font-size:10.5833px;line-height:1.25;font-family:sans-serif;letter-spacing:0px;word-spacing:0px;stroke-width:0.264583"
       x="247.875"
       y="185.125"
       id="text3911"><tspan
         sodipodi:role="line"
         id="tspan3909"
         style="stroke-width:0.264583"
         x="247.875"
         y="185.125">$f(p)$</tspan></text>
    <text
       xml:space="preserve"
       style="font-size:10.5833px;line-height:1.25;font-family:sans-serif;letter-spacing:0px;word-spacing:0px;stroke-width:0.264583"
       x="290.83264"
       y="70.732025"
       id="text5111"><tspan
         sodipodi:role="line"
         id="tspan5109"
         style="stroke-width:0.264583"
         x="290.83264"
         y="70.732025">$Y$</tspan></text>
    <text
       xml:space="preserve"
       style="font-size:10.5833px;line-height:1.25;font-family:sans-serif;letter-spacing:0px;word-spacing:0px;stroke-width:0.264583"
       x="216.125"
       y="142.79167"
       id="text6963"><tspan
         sodipodi:role="line"
         id="tspan6961"
         style="stroke-width:0.264583"
         x="216.125"
         y="142.79167">$U$</tspan></text>
    <path
       style="fill:none;stroke:#000000;stroke-width:0.5;stroke-linecap:butt;stroke-linejoin:miter;stroke-miterlimit:4;stroke-dasharray:0.5, 0.5;stroke-dashoffset:0;stroke-opacity:1;marker-end:url(#Arrow1Lend)"
       d="M 33.562493,134.85417 C 115.58697,112.42495 157.91666,112.36458 237.29166,174.54167"
       id="path10298"
       sodipodi:nodetypes="cc" />
    <text
       xml:space="preserve"
       style="font-size:10.5833px;line-height:1.25;font-family:sans-serif;letter-spacing:0px;word-spacing:0px;stroke-width:0.264583"
       x="8.8137083"
       y="205.06573"
       id="text1804"><tspan
         sodipodi:role="line"
         id="tspan1802"
         style="stroke-width:0.264583"
         x="8.8137083"
         y="205.06573">$f\inv(U)$</tspan></text>
  </g>
</svg>
