<?xml version="1.0" encoding="UTF-8" standalone="no"?>
<svg
   width="287.09659mm"
   height="153.46843mm"
   viewBox="0 0 287.09659 153.46843"
   version="1.1"
   id="svg8"
   sodipodi:docname="2021-09-22_11-41.svg"
   inkscape:version="1.1.1 (3bf5ae0d25, 2021-09-20)"
   xmlns:inkscape="http://www.inkscape.org/namespaces/inkscape"
   xmlns:sodipodi="http://sodipodi.sourceforge.net/DTD/sodipodi-0.dtd"
   xmlns="http://www.w3.org/2000/svg"
   xmlns:svg="http://www.w3.org/2000/svg"
   xmlns:rdf="http://www.w3.org/1999/02/22-rdf-syntax-ns#"
   xmlns:cc="http://creativecommons.org/ns#"
   xmlns:dc="http://purl.org/dc/elements/1.1/">
  <defs
     id="defs2">
    <marker
       style="overflow:visible;"
       id="Arrow1Lend"
       refX="0.0"
       refY="0.0"
       orient="auto"
       inkscape:stockid="Arrow1Lend"
       inkscape:isstock="true">
      <path
         transform="scale(0.8) rotate(180) translate(12.5,0)"
         style="fill-rule:evenodd;fill:context-stroke;stroke:context-stroke;stroke-width:1.0pt;"
         d="M 0.0,0.0 L 5.0,-5.0 L -12.5,0.0 L 5.0,5.0 L 0.0,0.0 z "
         id="path19592" />
    </marker>
  </defs>
  <sodipodi:namedview
     id="base"
     pagecolor="#ffffff"
     bordercolor="#000000"
     borderopacity="1"
     inkscape:pageopacity="0.0"
     inkscape:pageshadow="2"
     inkscape:zoom="0.7"
     inkscape:cx="204.28571"
     inkscape:cy="300.71429"
     inkscape:document-units="mm"
     inkscape:current-layer="layer2"
     inkscape:document-rotation="0"
     showgrid="true"
     showborder="true"
     borderlayer="true"
     inkscape:showpageshadow="false"
     objecttolerance="10000"
     guidetolerance="10000"
     inkscape:snap-perpendicular="true"
     inkscape:snap-tangential="true"
     inkscape:window-width="1920"
     inkscape:window-height="1080"
     inkscape:window-x="-1"
     inkscape:window-y="30"
     inkscape:window-maximized="0"
     inkscape:pagecheckerboard="1">
    <sodipodi:guide
       position="12.894461,155.92761"
       orientation="0,793.70079"
       id="guide10" />
    <sodipodi:guide
       position="222.89446,155.92761"
       orientation="559.37008,0"
       id="guide12" />
    <sodipodi:guide
       position="222.89446,7.9276052"
       orientation="0,-793.70079"
       id="guide14" />
    <sodipodi:guide
       position="12.894461,7.9276052"
       orientation="-559.37008,0"
       id="guide16" />
    <inkscape:grid
       type="xygrid"
       id="grid20"
       dotted="true"
       units="px"
       originx="117.89446"
       originy="71.540829" />
  </sodipodi:namedview>
  <metadata
     id="metadata5">
    <rdf:RDF>
      <cc:Work
         rdf:about="">
        <dc:format>image/svg+xml</dc:format>
        <dc:type
           rdf:resource="http://purl.org/dc/dcmitype/StillImage" />
        <dc:title />
        <cc:license
           rdf:resource="" />
      </cc:Work>
    </rdf:RDF>
  </metadata>
  <g
     inkscape:label="Layer 1"
     inkscape:groupmode="layer"
     id="layer1"
     transform="translate(12.89446,-2.4591756)">
    <path
       style="fill:none;stroke:#000000;stroke-width:0.264583px;stroke-linecap:butt;stroke-linejoin:miter;stroke-opacity:1"
       d="M 5.8502795,38.84455 C -5.5601873,49.848542 -20.401803,71.914776 -7.7279777,84.745367 4.9458475,97.575958 17.494607,109.38301 15.795814,126.36668 c -1.698793,16.98367 12.81426,25.62088 26.779137,27.85172 24.287404,6.7521 53.316964,-9.20111 56.812808,-34.99805 C 103.50414,94.59822 91.312555,66.367185 66.558439,57.939245 52.388284,52.295577 37.522699,46.52248 27.317564,34.651957 20.469551,29.351609 10.636853,32.256937 5.8502795,38.84455 Z"
       id="path900"
       sodipodi:nodetypes="szzsssss" />
    <path
       style="fill:none;stroke:#000000;stroke-width:0.264583px;stroke-linecap:butt;stroke-linejoin:miter;stroke-opacity:1"
       d="m 112.20723,50.636005 c 1.19238,17.241353 10.84525,33.23543 27.90019,38.457775 15.52056,11.11901 23.50772,33.03053 44.60216,35.54142 20.36784,1.56504 42.39545,3.97508 61.74804,-4.06125 16.93425,-9.02466 28.277,-29.258937 27.04631,-48.398086 -5.58681,-23.498768 -31.06988,-37.06083 -54.01856,-36.573496 -19.94278,-0.729481 -37.64258,-9.92812 -55.75777,-16.871334 -14.88998,-6.8019 -37.28274,-13.3672285 -47.97264,3.722821 -5.54902,8.367487 -5.73452,18.710417 -3.54773,28.18215 z"
       id="path902"
       sodipodi:nodetypes="sssssssssssssssscs" />
    <path
       style="fill:none;stroke:#000000;stroke-width:0.264583px;stroke-linecap:butt;stroke-linejoin:miter;stroke-opacity:1"
       d="M 87.892491,73.43912 C 71.900948,84.387325 37.964598,60.593832 35.518103,80.038121 25.625,158.66667 75.098369,105.62561 98.385417,95.166671"
       id="path948"
       sodipodi:nodetypes="csc" />
    <path
       style="fill:none;stroke:#000000;stroke-width:0.264583px;stroke-linecap:butt;stroke-linejoin:miter;stroke-opacity:1"
       d="m 115.58333,66.062505 c 36.05231,-20.490747 99.26487,-37.461158 123.44129,1.430834 3.34778,11.281366 -8.41042,20.591168 -17.9406,23.857721 -23.86096,8.380338 -46.6874,6.723058 -68.7236,9.63644"
       id="path1016"
       sodipodi:nodetypes="cccc" />
    <path
       style="opacity:0.372407;fill:#6699ff;fill-opacity:1;fill-rule:evenodd;stroke:none;stroke-width:1.90895;stroke-miterlimit:4;stroke-dasharray:none;stroke-opacity:0.154655;stop-color:#000000"
       d="m 219.70029,264.06611 c -12.92587,-0.3292 -27.88019,4.52729 -32.87139,17.63229 -5.83678,16.42661 -5.22527,34.34678 -6.76526,51.5237 -0.65074,27.24748 -2.77612,55.34143 5.00132,81.82763 4.55749,15.20766 13.86969,31.19799 30.25931,35.53947 20.78944,5.64478 41.88427,-3.73394 60.48486,-12.24218 39.10548,-19.68709 74.13006,-46.31336 111.20824,-69.39967 10.37303,-7.00343 21.60843,-13.05856 32.25907,-19.31225 -5.65444,-27.02302 -18.32689,-52.35946 -33.9231,-75.00466 -1.56507,-2.53536 -3.50877,-6.30036 -6.90127,-3.68267 -25.30966,13.53344 -55.2046,9.8722 -82.29825,4.9095 -25.43924,-3.9609 -50.59226,-11.3356 -76.45353,-11.79116 z"
       id="path11700"
       transform="matrix(0.26458333,0,0,0.26458333,-12.89446,2.4591756)" />
    <path
       style="opacity:0.372407;fill:#6699ff;fill-opacity:1;fill-rule:evenodd;stroke:#000000;stroke-width:1.90895;stroke-miterlimit:4;stroke-dasharray:none;stroke-opacity:0.154655;stop-color:#000000"
       d="m 757.46446,158.67089 c -68.69638,2.17355 -135.95388,20.93814 -199.18091,47.08018 -24.39359,10.23378 -48.34759,21.869 -71.34859,34.80729 16.20601,37.75491 46.33864,70.96526 85.9774,84.21357 18.30441,8.20625 30.68805,25.04884 44.936,38.53772 3.30737,3.05719 6.94925,8.41555 12.13464,5.93878 75.41335,-9.25119 152.74082,-5.1286 226.56488,-25.56826 27.66876,-6.97709 55.61272,-17.59491 75.85068,-38.52741 14.98275,-14.34748 25.99505,-36.69142 18.94812,-57.47796 -6.65768,-14.54912 -18.16024,-26.40647 -29.42302,-37.5402 -38.87865,-36.22058 -93.32003,-50.88194 -145.45743,-51.35156 -6.33257,-0.1613 -12.66774,-0.19631 -19.00177,-0.11215 z"
       id="path12264"
       transform="matrix(0.26458333,0,0,0.26458333,-12.89446,2.4591756)" />
    <path
       style="opacity:0.372407;fill:#003399;fill-opacity:1;fill-rule:evenodd;stroke:#000000;stroke-width:1.34983;stroke-miterlimit:4;stroke-dasharray:none;stroke-opacity:1;stop-color:#000000"
       d="m 234.90234,183.41239 c -5.40234,5.8132 -9.69057,12.97643 -14.38339,19.4815 -15.23789,23.03267 -29.06861,47.74931 -35.42408,74.82235 0.28087,2.26132 2.63761,-0.83294 3.0399,-1.5639 7.31317,-11.06778 21.59229,-14.10128 34.03738,-13.34821 22.12431,0.25672 43.61243,6.36649 65.30421,10.06268 16.80049,3.53061 33.87058,6.17603 51.09506,5.40153 10.44832,0.41102 21.08568,-0.3782 30.71569,-4.79318 3.30832,-1.74145 7.98994,-2.57438 10.16741,-5.66266 -3.74971,-7.25214 -10.50646,-12.54976 -16.06446,-18.4096 -15.97462,-15.83269 -35.2111,-28.16563 -56.18503,-36.26166 -23.21718,-9.36075 -46.54248,-18.49861 -69.29069,-28.95737 -0.97313,-0.33058 -1.96712,-0.76743 -3.012,-0.77148 z"
       id="path17281"
       transform="matrix(0.26458333,0,0,0.26458333,-12.89446,2.4591756)" />
    <path
       style="opacity:0.372407;fill:#003399;fill-opacity:1;fill-rule:evenodd;stroke:#000000;stroke-width:1.34983;stroke-miterlimit:4;stroke-dasharray:none;stroke-opacity:1;stop-color:#000000"
       d="m 419.91351,351.86105 c -13.73896,5.45555 -25.9692,14.18194 -38.4445,22.0182 -32.33383,20.58047 -63.21219,43.59366 -97.05942,61.6918 -18.66704,9.76984 -38.87229,18.53564 -60.33872,18.20127 -1.24318,-0.18118 -3.09983,0.7915 -0.93331,1.47879 25.77527,13.2945 52.16285,25.53586 79.23183,35.97378 28.41682,10.6406 58.08172,18.4192 88.29467,21.52065 4.60065,-0.43193 5.90033,-6.19057 8.76394,-9.04804 19.65826,-28.20911 27.22008,-63.28429 26.7369,-97.27451 0.46736,-16.19977 -1.00292,-32.37257 -4.38867,-48.21981 -0.8251,-1.6708 -0.15967,-5.4639 -1.86272,-6.34213 z"
       id="path17320"
       transform="matrix(0.26458333,0,0,0.26458333,-12.89446,2.4591756)" />
    <path
       style="opacity:0.372407;fill:#003399;fill-opacity:1;fill-rule:evenodd;stroke:#000000;stroke-width:1.34983;stroke-miterlimit:4;stroke-dasharray:none;stroke-opacity:1;stop-color:#000000"
       d="m 617.19169,138.79604 c -33.61092,-0.21491 -67.1693,1.64882 -100.68958,3.91008 -16.00561,0.98734 -32.13665,1.93313 -48.08135,2.658 0.89906,17.39236 4.92191,34.36407 6.81143,51.6352 2.12134,14.01152 5.50691,27.99829 10.94248,41.07685 1.38729,1.72103 3.5847,-1.55808 5.16095,-1.64941 51.85066,-28.32548 107.28693,-50.23881 164.57817,-64.69406 53.045,-12.9087 108.50925,-19.22967 162.80831,-11.06724 1.03584,0.58295 3.00547,-0.21424 1.21373,-0.89286 -44.6436,-11.00073 -90.45397,-16.91953 -136.29157,-20.0371 -22.13488,-0.95079 -44.30121,-0.96976 -66.45257,-0.93946 z"
       id="path17359"
       transform="matrix(0.26458333,0,0,0.26458333,-12.89446,2.4591756)" />
    <path
       style="opacity:0.372407;fill:#ff6600;fill-opacity:1;fill-rule:evenodd;stroke:#000000;stroke-width:1.90895;stroke-miterlimit:4;stroke-dasharray:none;stroke-opacity:1;stop-color:#000000"
       d="m 563.77561,35.744011 c -25.85087,-0.713002 -52.49509,9.346845 -68.8933,29.855103 -18.82841,21.02667 -26.16144,49.842546 -26.43985,77.438096 61.1393,-3.20678 122.26892,-8.35465 183.54955,-6.6557 70.87717,1.14784 141.6516,12.01583 209.68873,31.81444 27.79808,10.60116 53.42527,27.33143 74.40908,48.40877 14.20097,14.55102 25.99274,35.77894 19.23038,56.47187 -9.41581,23.09005 -28.06132,40.96304 -46.39993,57.19989 -34.11605,29.15288 -76.53922,46.28557 -111.04036,74.8543 -16.86925,14.34001 -28.98146,34.89923 -31.09916,57.06136 42.42716,4.22926 85.27194,5.93329 127.86664,3.07909 31.18737,-3.39494 63.15298,-8.49262 91.29109,-23.07498 36.43752,-22.29076 65.43712,-56.42901 81.26122,-96.14403 10.412,-26.09978 16.6181,-54.58146 14.1291,-82.74373 C 1069.7891,213.12577 1031.027,172.81358 985.62281,150.62124 951.72872,133.38675 913.5944,125.59292 875.69351,125.86847 814.49232,123.21127 757.58145,98.203271 701.52753,75.814024 670.17422,63.73633 639.57925,49.145715 606.9616,40.709937 592.80909,37.294741 578.34938,35.487309 563.77561,35.744011 Z"
       id="path18918"
       transform="matrix(0.26458333,0,0,0.26458333,-12.89446,2.4591756)" />
    <path
       style="opacity:0.372407;fill:#ff6600;fill-opacity:1;fill-rule:evenodd;stroke:#000000;stroke-width:1.90895;stroke-miterlimit:4;stroke-dasharray:none;stroke-opacity:1;stop-color:#000000"
       d="m 120.64812,112.15653 c -18.70882,0.33941 -36.312735,10.05123 -48.071027,24.36993 -30.40981,31.44243 -59.202347,67.73823 -68.6408026,111.4308 -4.53984238,20.3482 -1.3382159,43.63248 13.6802176,59.0502 30.46931,34.01025 67.398035,64.84776 84.260932,108.56574 5.9893,14.23656 8.22054,29.63971 7.33606,45.02476 -0.31816,18.55589 -1.0851,38.22126 8.35681,54.96259 16.09792,31.1111 49.84072,48.58517 83.05151,55.26047 20.51021,4.87811 41.46123,9.40464 62.67691,7.20284 45.51789,-2.32429 89.7664,-22.7926 121.08571,-55.89778 1.46449,-2.07762 5.15032,-4.10197 5.34899,-6.53791 -28.04789,-4.32793 -55.93508,-10.31404 -82.61079,-20.19838 -37.09996,-13.45448 -72.41785,-31.35865 -107.40246,-49.47453 -14.46392,-11.80852 -18.36487,-31.52893 -21.39669,-48.99041 -5.19048,-38.08965 -1.01827,-76.72129 3.75672,-114.63428 4.90013,-29.51099 20.55101,-55.94736 36.5404,-80.75889 4.15382,-6.91974 10.05714,-13.07766 13.63753,-20.16984 -25.52545,-12.72386 -50.10157,-27.9002 -70.21363,-48.337 -9.7175,-9.87657 -21.03052,-20.02908 -35.67482,-20.64142 -1.9001,-0.18943 -3.81211,-0.25834 -5.72157,-0.22689 z"
       id="path18957"
       transform="matrix(0.26458333,0,0,0.26458333,-12.89446,2.4591756)" />
  </g>
  <g
     inkscape:groupmode="layer"
     id="layer2"
     inkscape:label="Layer 2"
     style="display:inline">
    <path
       style="fill:none;stroke:#000000;stroke-width:0.5;stroke-linecap:butt;stroke-linejoin:miter;stroke-miterlimit:4;stroke-dasharray:none;stroke-opacity:1"
       d="m 124.15437,38.164693 c 25.49009,-1.019697 59.88592,-6.311364 104.86509,6.917803 16.04587,7.497172 26.8872,17.678804 23.23502,28.042869 -15.85536,27.002225 -47.11568,25.596119 -49.76151,49.408615"
       id="path904"
       sodipodi:nodetypes="cccc" />
    <path
       style="fill:none;stroke:#000000;stroke-width:0.5;stroke-linecap:butt;stroke-linejoin:miter;stroke-miterlimit:4;stroke-dasharray:none;stroke-opacity:1"
       d="m 62.33196,47.728329 c -5.509421,6.766904 -13.062607,19.024254 -14.042642,27.987348 -1.100161,10.061732 -4.404194,36.261543 5.496926,42.547433 20.451966,10.16314 32.153889,15.78809 49.855136,17.7681"
       id="path906"
       sodipodi:nodetypes="cscc" />
    <path
       style="fill:none;stroke:#000000;stroke-width:0.5;stroke-linecap:butt;stroke-linejoin:miter;stroke-miterlimit:4;stroke-dasharray:none;stroke-opacity:1;marker-end:url(#Arrow1Lend)"
       d="M 72.915291,87.415827 C 86.14446,66.249162 112.60279,50.374162 152.29029,60.015646"
       id="path9430"
       sodipodi:nodetypes="cc" />
    <path
       style="opacity:0.372407;fill:#003399;fill-opacity:1;fill-rule:evenodd;stroke:#000000;stroke-width:0.954475;stroke-miterlimit:4;stroke-dasharray:none;stroke-opacity:1;stop-color:#000000"
       d="m 911.80078,323.70753 c -6.27534,3.22282 -12.33939,7.02695 -19.00304,9.51961 -51.16202,20.0801 -106.26841,26.8542 -160.73233,30.84029 -35.0514,2.65205 -70.26192,4.14712 -105.12272,8.6828 -0.74604,1.35688 1.88572,2.52388 2.27285,3.73876 19.2284,22.67111 38.35579,46.11886 62.85536,63.36339 16.97934,11.74697 36.74589,19.77101 57.43204,21.43964 4.828,0.44044 9.72664,0.95267 14.5216,1.18521 2.16219,-10.34246 4.25455,-20.86122 9.33996,-30.25427 11.61254,-22.74024 32.99581,-38.17904 54.28023,-51.15273 28.68324,-17.91727 59.11985,-33.71671 84.39872,-56.48474 0.36345,-0.243 0.27397,-0.97149 -0.24267,-0.87796 z"
       id="path18615"
       transform="scale(0.26458333)" />
  </g>
  <g
     inkscape:groupmode="layer"
     id="layer3"
     inkscape:label="Text"
     style="display:inline">
    <text
       xml:space="preserve"
       style="font-size:10.5833px;line-height:1.25;font-family:sans-serif;letter-spacing:0px;word-spacing:0px;stroke-width:0.264583"
       x="95.280144"
       y="148.76831"
       id="text1328"><tspan
         sodipodi:role="line"
         id="tspan1326"
         style="stroke-width:0.264583"
         x="95.280144"
         y="148.76831">$U_1$</tspan></text>
    <text
       xml:space="preserve"
       style="font-size:10.5833px;line-height:1.25;font-family:sans-serif;letter-spacing:0px;word-spacing:0px;stroke-width:0.264583"
       x="198.7345"
       y="24.286097"
       id="text4309"><tspan
         sodipodi:role="line"
         id="tspan4307"
         style="stroke-width:0.264583"
         x="198.7345"
         y="24.286097">$X_2$</tspan></text>
    <text
       xml:space="preserve"
       style="font-size:10.5833px;line-height:1.25;font-family:sans-serif;letter-spacing:0px;word-spacing:0px;stroke-width:0.264583"
       x="13.526156"
       y="18.994429"
       id="text5501"><tspan
         sodipodi:role="line"
         id="tspan5499"
         style="stroke-width:0.264583"
         x="13.526156"
         y="18.994429">$X_1$</tspan></text>
    <text
       xml:space="preserve"
       style="font-size:10.5833px;line-height:1.25;font-family:sans-serif;letter-spacing:0px;word-spacing:0px;stroke-width:0.264583"
       x="92.901154"
       y="61.327755"
       id="text11084"><tspan
         sodipodi:role="line"
         id="tspan11082"
         style="stroke-width:0.264583"
         x="92.901154"
         y="61.327755">$\phi$</tspan></text>
    <text
       xml:space="preserve"
       style="font-size:10.5833px;line-height:1.25;font-family:sans-serif;letter-spacing:0px;word-spacing:0px;stroke-width:0.264583"
       x="12.539919"
       y="135.73764"
       id="text3575"><tspan
         sodipodi:role="line"
         id="tspan3573"
         style="stroke-width:0.264583"
         x="12.539919"
         y="135.73764">$U \intersect X_1$</tspan></text>
    <text
       xml:space="preserve"
       style="font-size:10.5833px;line-height:1.25;font-family:sans-serif;letter-spacing:0px;word-spacing:0px;stroke-width:0.264583"
       x="216.17856"
       y="106.27693"
       id="text5613"><tspan
         sodipodi:role="line"
         id="tspan5611"
         style="stroke-width:0.264583"
         x="216.17856"
         y="106.27693">$U\intersect X_2$</tspan></text>
    <text
       xml:space="preserve"
       style="font-size:10.5833px;line-height:1.25;font-family:sans-serif;letter-spacing:0px;word-spacing:0px;stroke-width:0.264583"
       x="82.317818"
       y="98.369431"
       id="text9451"><tspan
         sodipodi:role="line"
         id="tspan9449"
         style="stroke-width:0.264583"
         x="82.317818"
         y="98.369431">$U\intersect U_1$</tspan></text>
    <text
       xml:space="preserve"
       style="font-size:10.5833px;line-height:1.25;font-family:sans-serif;letter-spacing:0px;word-spacing:0px;stroke-width:0.264583"
       x="156.40117"
       y="77.202766"
       id="text10703"><tspan
         sodipodi:role="line"
         id="tspan10701"
         style="stroke-width:0.264583"
         x="156.40117"
         y="77.202766">$U\intersect U_2$</tspan></text>
    <text
       xml:space="preserve"
       style="font-size:10.5833px;line-height:1.25;font-family:sans-serif;letter-spacing:0px;word-spacing:0px;stroke-width:0.264583"
       x="178.71677"
       y="127.85522"
       id="text1328-3"><tspan
         sodipodi:role="line"
         id="tspan1326-6"
         style="stroke-width:0.264583"
         x="178.71677"
         y="127.85522">$U_2$</tspan></text>
  </g>
</svg>
