<?xml version="1.0" encoding="UTF-8" standalone="no"?>
<svg
   width="275.29437mm"
   height="147.82558mm"
   viewBox="0 0 275.29437 147.82558"
   version="1.1"
   id="svg8"
   sodipodi:docname="2021-10-19_10-38.svg"
   inkscape:version="1.1.1 (3bf5ae0d25, 2021-09-20)"
   xmlns:inkscape="http://www.inkscape.org/namespaces/inkscape"
   xmlns:sodipodi="http://sodipodi.sourceforge.net/DTD/sodipodi-0.dtd"
   xmlns:xlink="http://www.w3.org/1999/xlink"
   xmlns="http://www.w3.org/2000/svg"
   xmlns:svg="http://www.w3.org/2000/svg"
   xmlns:rdf="http://www.w3.org/1999/02/22-rdf-syntax-ns#"
   xmlns:cc="http://creativecommons.org/ns#"
   xmlns:dc="http://purl.org/dc/elements/1.1/">
  <defs
     id="defs2">
    <symbol
       id="symbol24856">
      <path
         style="fill:#b0b0ff;fill-opacity:0.4;stroke:#000000;stroke-width:0.210876;stroke-linecap:butt;stroke-linejoin:miter;stroke-miterlimit:10;stroke-dasharray:1.05439, 1.05439;stroke-opacity:1"
         d="m 201.41681,29.44191 c 0,-9.388575 -7.6109,-16.99948 -16.99948,-16.99948 -9.38995,0 -17.00086,7.610905 -17.00086,16.99948 0,9.388575 7.61091,16.999479 17.00086,16.999479 9.38858,0 16.99948,-7.610904 16.99948,-16.999479 z m 0,0"
         id="path12439" />
    </symbol>
  </defs>
  <sodipodi:namedview
     id="base"
     pagecolor="#ffffff"
     bordercolor="#000000"
     borderopacity="1"
     inkscape:pageopacity="0.0"
     inkscape:pageshadow="2"
     inkscape:zoom="0.7"
     inkscape:cx="435.71429"
     inkscape:cy="412.14286"
     inkscape:document-units="mm"
     inkscape:current-layer="layer1"
     inkscape:document-rotation="0"
     showgrid="true"
     showborder="true"
     borderlayer="true"
     inkscape:showpageshadow="false"
     objecttolerance="10000"
     guidetolerance="10000"
     inkscape:snap-perpendicular="true"
     inkscape:snap-tangential="true"
     inkscape:window-width="1920"
     inkscape:window-height="1080"
     inkscape:window-x="0"
     inkscape:window-y="0"
     inkscape:window-maximized="0"
     inkscape:pagecheckerboard="1">
    <sodipodi:guide
       position="28.747532,160.86809"
       orientation="0,793.70079"
       id="guide10" />
    <sodipodi:guide
       position="238.74754,160.86809"
       orientation="559.37008,0"
       id="guide12" />
    <sodipodi:guide
       position="238.74754,12.868086"
       orientation="0,-793.70079"
       id="guide14" />
    <sodipodi:guide
       position="28.747532,12.868086"
       orientation="-559.37008,0"
       id="guide16" />
    <inkscape:grid
       type="xygrid"
       id="grid20"
       dotted="true"
       units="px"
       originx="133.74753"
       originy="60.957499" />
  </sodipodi:namedview>
  <metadata
     id="metadata5">
    <rdf:RDF>
      <cc:Work
         rdf:about="">
        <dc:format>image/svg+xml</dc:format>
        <dc:type
           rdf:resource="http://purl.org/dc/dcmitype/StillImage" />
        <dc:title />
        <cc:license
           rdf:resource="" />
      </cc:Work>
    </rdf:RDF>
  </metadata>
  <g
     inkscape:label="Layer 1"
     inkscape:groupmode="layer"
     id="layer1"
     transform="translate(28.747532,-13.042509)">
    <path
       style="fill:none;stroke:#000000;stroke-width:0.264583px;stroke-linecap:butt;stroke-linejoin:miter;stroke-opacity:1"
       d="m -27.291667,148 c 11.187113,-30.75398 49.270731,-39.72528 77.755475,-41.64231 41.50097,-2.79302 70.414052,41.07007 112.740792,39.33134 21.9967,0.0867 49.09005,-6.93298 58.21206,-29.3557"
       id="path867"
       sodipodi:nodetypes="cscc" />
    <path
       style="fill:none;stroke:#000000;stroke-width:0.264583px;stroke-linecap:butt;stroke-linejoin:miter;stroke-opacity:1"
       d="m -0.83333332,21.083336 c -0.59207808,0.249024 -1.36495888,0.253694 -1.77623418,0.747073 -0.8251017,0.989817 0.8662117,10.33474 1.0076443,11.860767 1.01084415,10.906797 -0.8061178,21.557771 -0.8061178,32.41943 0,4.190629 -0.033511,8.278624 0.4030531,12.4538 0.2346562,2.244188 0.4281461,4.496556 0.8061178,6.721096 0.080475,0.473636 0.181213,1.809901 0.40305305,1.383763 0.32111855,-0.616842 -0.0250108,-1.390621 -0.0375163,-2.08593"
       id="path869" />
    <path
       style="fill:none;stroke:#000000;stroke-width:0.264583px;stroke-linecap:butt;stroke-linejoin:miter;stroke-opacity:1"
       d="m 46.791665,21.083336 c 0.461296,0.973848 1.158822,1.867731 1.383885,2.921543 0.749742,3.510528 -0.568415,13.509793 -0.806117,17.395798 -0.719428,11.76134 -1.170342,23.59435 -0.806109,35.384617 0.10767,3.485193 0.670317,7.002886 1.007634,10.477006 0.204264,2.103752 0.08104,1.675182 0.604592,3.558233 0.05593,0.201149 0.201525,0.801814 0.201525,0.593034 0,-0.517237 -0.13435,-1.02571 -0.201525,-1.538565"
       id="path871" />
    <path
       style="fill:none;stroke:#000000;stroke-width:0.264583px;stroke-linecap:butt;stroke-linejoin:miter;stroke-opacity:1"
       d="m 89.124998,36.958336 c -0.58549,17.6262 -1.746823,35.316952 0,52.916666"
       id="path873" />
    <path
       style="fill:none;stroke:#000000;stroke-width:0.264583px;stroke-linecap:butt;stroke-linejoin:miter;stroke-opacity:1"
       d="m 126.16666,31.666669 c 0.26744,15.845763 -1.10914,31.863128 0.40339,47.688455 0.41139,4.304395 0.6865,8.647358 1.81375,12.849161 0.31941,1.190617 0.611,2.391068 1.00764,3.558233 0.0952,0.280106 0.56881,1.035756 0.40305,0.790718 -0.29955,-0.44282 -0.53742,-0.924378 -0.80613,-1.386568"
       id="path875" />
    <path
       style="fill:none;stroke:#000000;stroke-width:0.264583px;stroke-linecap:butt;stroke-linejoin:miter;stroke-opacity:1"
       d="m 168.5,42.250002 c 4.05769,20.995797 -4.96177,43.396294 4.62306,63.499998"
       id="path877" />
    <path
       style="fill:none;stroke:#000000;stroke-width:0.264583px;stroke-linecap:butt;stroke-linejoin:miter;stroke-opacity:1"
       d="M 210.83333,42.250002 C 204.86079,66.540718 207.83985,91.766834 210,116.33333"
       id="path879" />
    <text
       xml:space="preserve"
       style="font-size:10.5833px;line-height:1.25;font-family:sans-serif;letter-spacing:0px;word-spacing:0px;stroke-width:0.264583"
       x="157.91667"
       y="21.083336"
       id="text2533"><tspan
         sodipodi:role="line"
         id="tspan2531"
         style="stroke-width:0.264583"
         x="157.91667"
         y="21.083336">$X_p \cong G$</tspan></text>
    <text
       xml:space="preserve"
       style="font-size:10.5833px;line-height:1.25;font-family:sans-serif;letter-spacing:0px;word-spacing:0px;stroke-width:0.264583"
       x="226.70833"
       y="132.20834"
       id="text6563"><tspan
         sodipodi:role="line"
         id="tspan6561"
         style="stroke-width:0.264583"
         x="226.70833"
         y="132.20834">$X$</tspan></text>
    <text
       xml:space="preserve"
       style="font-size:10.5833px;line-height:1.25;font-family:sans-serif;letter-spacing:0px;word-spacing:0px;stroke-width:0.264583"
       x="163.20833"
       y="158.66667"
       id="text12023"><tspan
         sodipodi:role="line"
         id="tspan12021"
         style="stroke-width:0.264583"
         x="163.20833"
         y="158.66667">$p$</tspan></text>
    <use
       xlink:href="#symbol24856"
       id="use14314"
       x="0"
       y="0"
       width="100%"
       height="100%"
       transform="matrix(0.28365938,0,0,0.28365938,119.30375,138.59019)" />
  </g>
</svg>
