<?xml version="1.0" encoding="UTF-8" standalone="no"?>
<svg
   width="210mm"
   height="148mm"
   viewBox="0 0 210 148"
   version="1.1"
   id="svg8"
   sodipodi:docname="2021-09-29_14-17.svg"
   inkscape:version="1.1.1 (3bf5ae0d25, 2021-09-20)"
   xmlns:inkscape="http://www.inkscape.org/namespaces/inkscape"
   xmlns:sodipodi="http://sodipodi.sourceforge.net/DTD/sodipodi-0.dtd"
   xmlns:xlink="http://www.w3.org/1999/xlink"
   xmlns="http://www.w3.org/2000/svg"
   xmlns:svg="http://www.w3.org/2000/svg"
   xmlns:rdf="http://www.w3.org/1999/02/22-rdf-syntax-ns#"
   xmlns:cc="http://creativecommons.org/ns#"
   xmlns:dc="http://purl.org/dc/elements/1.1/">
  <defs
     id="defs2">
    <symbol
       id="g1400">
      <g
         id="g1400_transform"
         transform="matrix(4.3598402,0,0,4.3255295,1.8462247,104.30036)">
        <path
           d="M 13.229167,1.3229167 A 11.90625,11.90625 0 1 0 25.135401,13.229167 11.906311,11.906311 0 0 0 13.229167,1.3229167 Z M 24.56344,12.275479 c -0.0018,-0.0015 -0.0026,-0.0037 -0.0044,-0.0051 a 3.4914046,3.4914046 0 0 0 -0.482642,-0.306747 0.26458333,0.26458333 0 1 0 -0.24992,0.466428 2.968625,2.968625 0 0 1 0.409424,0.259377 0.26254604,0.26254604 0 0 0 0.355841,-0.03474 q 0.01419,0.285461 0.01455,0.574487 a 0.54074483,0.54074483 0 0 1 -0.168561,0.356195 3.5456151,3.5456151 0 0 1 -1.344946,0.767961 19.519371,19.519371 0 0 1 -4.103124,0.908778 c -0.912865,0.119327 -1.907587,0.210097 -2.957668,0.269478 a 0.259715,0.259715 0 0 0 -0.202716,-0.118856 0.26358321,0.26358321 0 0 0 -0.246385,0.142901 c -0.759982,0.03567 -1.546852,0.05481 -2.353683,0.05479 -0.797399,6.3e-5 -1.57597,-0.01831 -2.327831,-0.05321 -0.0349,-0.751946 -0.05345,-1.530381 -0.05345,-2.328039 -2.64e-4,-3.198019 0.29554,-6.09409 0.768411,-8.1732441 A 10.093254,10.093254 0 0 1 12.432387,2.6275982 2.2606,2.2606 0 0 1 12.872993,2.0206441 0.54045115,0.54045115 0 0 1 13.229167,1.8520833 0.499745,0.499745 0 0 1 13.540825,1.982761 0.26246667,0.26246667 0 0 0 13.950117,1.8771923 11.366794,11.366794 0 0 1 24.56344,12.275479 Z M 5.1843252,5.1843808 A 11.33819,11.33819 0 0 1 12.278545,1.8946812 4.9021709,4.9021709 0 0 0 11.609432,3.1802282 20.006112,20.006112 0 0 0 10.671537,7.4001921 45.680455,45.680455 0 0 0 10.31875,13.229167 c 6.3e-5,0.787453 0.01802,1.556252 0.05171,2.300263 A 33.387882,33.387882 0 0 1 5.0558779,14.842043 10.092777,10.092777 0 0 1 2.6275771,14.025986 2.2609519,2.2609519 0 0 1 2.0206229,13.585362 0.54065223,0.54065223 0 0 1 1.8520622,13.229214 l 2.11e-5,-4.7e-5 h -1.58e-5 A 0.49993021,0.49993021 0 0 1 1.9827452,12.917487 0.26458333,0.26458333 0 0 0 1.9417347,12.545579 0.25638125,0.25638125 0 0 0 1.876896,12.512135 11.337999,11.337999 0 0 1 5.1843252,5.1843728 Z M 1.8949458,14.18355 a 4.9543996,4.9543996 0 0 0 1.28524,0.665398 20.004728,20.004728 0 0 0 4.2199454,0.937864 c 0.9273355,0.121163 1.9349932,0.213085 2.9974278,0.273124 a 34.023446,34.023446 0 0 0 0.702752,5.459793 10.574044,10.574044 0 0 0 0.865952,2.561487 3.4427583,3.4427583 0 0 0 0.310525,0.48232 A 11.365378,11.365378 0 0 1 1.8949458,14.18355 Z m 19.3790492,7.09041 a 11.33825,11.33825 0 0 1 -7.09114,3.28948 c 0.0015,-0.0018 0.0036,-0.0025 0.0051,-0.0044 a 3.4937885,3.4937885 0 0 0 0.306731,-0.48264 0.26458333,0.26458333 0 1 0 -0.466413,-0.24992 l -2.1e-5,-1.6e-5 a 2.9712708,2.9712708 0 0 1 -0.259368,0.409437 0.26255133,0.26255133 0 0 0 0.03467,0.355809 q -0.285396,0.01419 -0.574347,0.01453 a 0.54052787,0.54052787 0 0 1 -0.356164,-0.168561 3.545877,3.545877 0 0 1 -0.767945,-1.344946 19.518103,19.518103 0 0 1 -0.908809,-4.103124 c -0.117211,-0.896672 -0.207029,-1.872075 -0.266473,-2.901534 0.743744,0.03367 1.51239,0.05148 2.299391,0.0515 0.787355,-6.3e-5 1.556041,-0.01799 2.299972,-0.05169 -0.002,0.03377 -0.0035,0.06821 -0.0055,0.101864 a 0.26458333,0.26458333 0 1 0 0.528196,0.03165 c 0.0032,-0.05308 0.0057,-0.107293 0.0087,-0.160665 a 34.020935,34.020935 0 0 0 5.459185,-0.702686 10.573544,10.573544 0 0 0 2.561487,-0.865934 3.3889315,3.3889315 0 0 0 0.482418,-0.311779 11.338354,11.338354 0 0 1 -3.289642,7.093616 z"
           id="path1338"
           style="stroke-width:0.264583" />
        <path
           d="m 9.3509042,10.999134 h 1.58e-5 q 0.2595272,-0.02098 0.5247111,-0.03918 a 0.26458333,0.26458333 0 0 0 -0.036248,-0.527923 q -0.2682716,0.01841 -0.5310875,0.03965 a 0.26458617,0.26458617 0 0 0 0.042598,0.527455 z"
           id="path1340"
           style="stroke-width:0.264583" />
        <path
           d="m 7.2604101,11.224104 q 0.2561881,-0.03512 0.5210122,-0.06731 A 0.26458466,0.26458466 0 0 0 7.7175995,10.63149 q -0.2686844,0.03265 -0.5290529,0.06834 a 0.26458721,0.26458721 0 1 0 0.071864,0.524272 z"
           id="path1342"
           style="stroke-width:0.264583" />
        <path
           d="m 5.1957261,11.585017 h 1.59e-5 Q 5.4445138,11.530367 5.7080018,11.47903 A 0.26458333,0.26458333 0 0 0 5.6068436,10.959634 q -0.2692638,0.05244 -0.5246449,0.108538 a 0.26458333,0.26458333 0 1 0 0.1135274,0.516845 z"
           id="path1344"
           style="stroke-width:0.264583" />
        <path
           d="m 3.2066839,12.166335 q 0.225036,-0.08969 0.4830788,-0.175683 A 0.26458355,0.26458355 0 0 0 3.5225461,11.4886 q -0.2706688,0.09016 -0.5118232,0.186179 a 0.26458648,0.26458648 0 1 0 0.1959504,0.491556 z"
           id="path1346"
           style="stroke-width:0.264583" />
        <path
           d="m 11.966115,10.334059 q -0.267817,0.0065 -0.531929,0.01578 a 0.26458392,0.26458392 0 1 0 0.01851,0.528844 q 0.261271,-0.0091 0.526307,-0.01561 a 0.26458333,0.26458333 0 1 0 -0.01288,-0.529005 z"
           id="path1348"
           style="stroke-width:0.264583" />
        <path
           d="m 14.094166,10.325894 q -0.264445,-0.0044 -0.532042,-0.0061 a 0.26458866,0.26458866 0 0 0 -0.0034,0.529166 v -1.5e-5 q 0.264832,0.0017 0.526613,0.006 a 0.26458333,0.26458333 0 0 0 0.0088,-0.529084 z"
           id="path1350"
           style="stroke-width:0.264583" />
        <path
           d="m 21.897975,11.736186 h 1.6e-5 q 0.261271,0.06734 0.501121,0.13846 a 0.26459253,0.26459253 0 0 0 0.150442,-0.50735 q -0.249523,-0.07395 -0.519475,-0.143531 a 0.26458717,0.26458717 0 1 0 -0.132099,0.512421 z"
           id="path1352"
           style="stroke-width:0.264583" />
        <path
           d="m 19.847933,11.320126 h 1.6e-5 q 0.264155,0.04195 0.517086,0.08708 a 0.26458422,0.26458422 0 0 0 0.09292,-0.520946 Q 20.200003,10.84022 19.930937,10.7975 a 0.26458864,0.26458864 0 1 0 -0.08301,0.522626 z"
           id="path1354"
           style="stroke-width:0.264583" />
        <path
           d="m 17.763257,11.057318 h 1.6e-5 q 0.265001,0.02567 0.522997,0.05418 a 0.26458333,0.26458333 0 0 0 0.05817,-0.525955 q -0.261588,-0.02892 -0.530151,-0.05494 a 0.26458879,0.26458879 0 1 0 -0.05103,0.526711 z"
           id="path1356"
           style="stroke-width:0.264583" />
        <path
           d="m 14.291924,3.2067315 q 0.08972,0.225036 0.175683,0.4830789 A 0.26458333,0.26458333 0 0 0 14.969643,3.5225937 Q 14.879505,3.251925 14.783477,3.0107864 a 0.26458333,0.26458333 0 1 0 -0.49154,0.1959345 z"
           id="path1358"
           style="stroke-width:0.264583" />
        <path
           d="m 14.873269,5.1958081 -1.6e-5,-1.85e-5 q 0.05467,0.2488009 0.105984,0.5122598 A 0.26458622,0.26458622 0 1 0 15.498651,5.6068939 Q 15.446206,5.3376248 15.390098,5.082249 a 0.26458333,0.26458333 0 1 0 -0.516829,0.1135591 z"
           id="path1360"
           style="stroke-width:0.264583" />
        <path
           d="m 15.234195,7.2604736 q 0.0351,0.2561616 0.06729,0.5209963 a 0.26459143,0.26459143 0 0 0 0.525322,-0.063804 q -0.03265,-0.2687081 -0.06836,-0.5290714 a 0.26458333,0.26458333 0 1 0 -0.524259,0.071879 z"
           id="path1362"
           style="stroke-width:0.264583" />
        <path
           d="m 15.8662,12.237109 a 0.2646045,0.2646045 0 0 0 0.258059,-0.270963 q -0.0065,-0.267787 -0.01578,-0.531913 a 0.26458392,0.26458392 0 0 0 -0.528844,0.01851 q 0.0091,0.261247 0.01561,0.526309 a 0.26458333,0.26458333 0 0 0 0.270952,0.258059 z"
           id="path1364"
           style="stroke-width:0.264583" />
        <path
           d="m 15.459165,9.3509809 h 1.8e-5 q 0.02095,0.2595298 0.03918,0.5247084 a 0.26458333,0.26458333 0 1 0 0.527908,-0.036248 q -0.01839,-0.2682875 -0.03965,-0.5310902 a 0.26458825,0.26458825 0 0 0 -0.527457,0.042619 z"
           id="path1366"
           style="stroke-width:0.264583" />
        <path
           d="m 15.440951,19.628178 a 0.26458333,0.26458333 0 0 0 -0.302792,0.219803 q -0.04195,0.264178 -0.08709,0.517104 a 0.26459515,0.26459515 0 0 0 0.520965,0.09294 q 0.046,-0.257969 0.08874,-0.527037 A 0.26458333,0.26458333 0 0 0 15.440953,19.62818 Z"
           id="path1368"
           style="stroke-width:0.264583" />
        <path
           d="m 15.875614,13.29591 a 0.26458333,0.26458333 0 0 0 -0.266264,0.262904 h 8e-6 q -0.0017,0.264834 -0.006,0.526616 a 0.26458672,0.26458672 0 1 0 0.5291,0.0088 q 0.0044,-0.264446 0.0061,-0.53204 a 0.26460979,0.26460979 0 0 0 -0.262944,-0.26628 z"
           id="path1370"
           style="stroke-width:0.264583" />
        <path
           d="m 15.689837,17.525471 a 0.26456481,0.26456481 0 0 0 -0.288854,0.237839 q -0.02567,0.265004 -0.0542,0.522999 a 0.26458775,0.26458775 0 1 0 0.52597,0.05815 q 0.02889,-0.261564 0.05494,-0.530138 a 0.26458333,0.26458333 0 0 0 -0.237857,-0.288853 z"
           id="path1372"
           style="stroke-width:0.264583" />
        <path
           d="m 15.044317,21.70788 a 0.26458333,0.26458333 0 0 0 -0.322234,0.190169 h -1.5e-5 q -0.06734,0.261252 -0.138462,0.501121 a 0.26458333,0.26458333 0 0 0 0.507333,0.150429 q 0.07398,-0.249502 0.143547,-0.519478 A 0.26458333,0.26458333 0 0 0 15.044317,21.70788 Z"
           id="path1374"
           style="stroke-width:0.264583" />
      </g>
    </symbol>
    <symbol
       id="symbol24856">
      <path
         style="fill:#b0b0ff;fill-opacity:0.4;stroke:#000000;stroke-width:0.210876;stroke-linecap:butt;stroke-linejoin:miter;stroke-miterlimit:10;stroke-dasharray:1.05439, 1.05439;stroke-opacity:1"
         d="m 201.41681,29.44191 c 0,-9.388575 -7.6109,-16.99948 -16.99948,-16.99948 -9.38995,0 -17.00086,7.610905 -17.00086,16.99948 0,9.388575 7.61091,16.999479 17.00086,16.999479 9.38858,0 16.99948,-7.610904 16.99948,-16.999479 z m 0,0"
         id="path12439" />
    </symbol>
  </defs>
  <sodipodi:namedview
     id="base"
     pagecolor="#ffffff"
     bordercolor="#000000"
     borderopacity="1"
     inkscape:pageopacity="0.0"
     inkscape:pageshadow="2"
     inkscape:zoom="1.6993493"
     inkscape:cx="506.07608"
     inkscape:cy="79.442175"
     inkscape:document-units="mm"
     inkscape:current-layer="layer1"
     inkscape:document-rotation="0"
     showgrid="true"
     showborder="true"
     borderlayer="true"
     inkscape:showpageshadow="false"
     objecttolerance="10000"
     guidetolerance="10000"
     inkscape:snap-perpendicular="true"
     inkscape:snap-tangential="true"
     inkscape:window-width="1920"
     inkscape:window-height="1080"
     inkscape:window-x="0"
     inkscape:window-y="0"
     inkscape:window-maximized="0"
     inkscape:pagecheckerboard="1">
    <sodipodi:guide
       position="0,148"
       orientation="0,793.70079"
       id="guide10" />
    <sodipodi:guide
       position="210,148"
       orientation="559.37008,0"
       id="guide12" />
    <sodipodi:guide
       position="210,0"
       orientation="0,-793.70079"
       id="guide14" />
    <sodipodi:guide
       position="0,0"
       orientation="-559.37008,0"
       id="guide16" />
    <inkscape:grid
       type="xygrid"
       id="grid20"
       dotted="true"
       units="px"
       originx="105"
       originy="74.000003" />
  </sodipodi:namedview>
  <metadata
     id="metadata5">
    <rdf:RDF>
      <cc:Work
         rdf:about="">
        <dc:format>image/svg+xml</dc:format>
        <dc:type
           rdf:resource="http://purl.org/dc/dcmitype/StillImage" />
        <dc:title />
        <cc:license
           rdf:resource="" />
      </cc:Work>
    </rdf:RDF>
  </metadata>
  <g
     inkscape:label="Layer 1"
     inkscape:groupmode="layer"
     id="layer1">
    <use
       xlink:href="#g1400"
       id="use1020"
       x="0"
       y="0"
       width="100%"
       height="100%"
       transform="translate(-7.2249072,-101.45897)" />
    <use
       xlink:href="#g1400"
       id="use1020-3"
       x="0"
       y="0"
       width="100%"
       height="100%"
       transform="translate(130.69904,-99.888978)" />
    <circle
       style="opacity:0.372407;fill:#ff6600;fill-rule:evenodd;stroke:#000000;stroke-width:0.499999;stop-color:#000000"
       id="path1248"
       cx="40.97937"
       cy="71.130844"
       r="7.9375" />
    <circle
       style="opacity:0.372407;fill:#ff6600;fill-rule:evenodd;stroke:#000000;stroke-width:0.499999;stop-color:#000000"
       id="path1248-6"
       cx="63.77689"
       cy="49.729595"
       r="7.9375" />
    <circle
       style="opacity:0.372407;fill:#ff6600;fill-rule:evenodd;stroke:#000000;stroke-width:0.499999;stop-color:#000000"
       id="path1248-7"
       cx="179.39874"
       cy="73.219826"
       r="7.9375" />
    <circle
       style="opacity:0.372407;fill:#ff6600;fill-rule:evenodd;stroke:#000000;stroke-width:0.499999;stop-color:#000000"
       id="path1248-5"
       cx="201.70859"
       cy="51.742481"
       r="7.9375" />
    <text
       xml:space="preserve"
       style="font-size:10.5833px;line-height:1.25;font-family:sans-serif;letter-spacing:0px;word-spacing:0px;stroke-width:0.264583"
       x="21.65625"
       y="87.229172"
       id="text3542"><tspan
         sodipodi:role="line"
         id="tspan3540"
         style="stroke-width:0.264583"
         x="21.65625"
         y="87.229172">$s$</tspan></text>
    <text
       xml:space="preserve"
       style="font-size:10.5833px;line-height:1.25;font-family:sans-serif;letter-spacing:0px;word-spacing:0px;stroke-width:0.264583"
       x="77.21875"
       y="36.958332"
       id="text5856"><tspan
         sodipodi:role="line"
         id="tspan5854"
         style="stroke-width:0.264583"
         x="77.21875"
         y="36.958332">$e$</tspan></text>
    <text
       xml:space="preserve"
       style="font-size:10.5833px;line-height:1.25;font-family:sans-serif;letter-spacing:0px;word-spacing:0px;stroke-width:0.264583"
       x="159.23958"
       y="88.552086"
       id="text7752"><tspan
         sodipodi:role="line"
         id="tspan7750"
         style="stroke-width:0.264583"
         x="159.23958"
         y="88.552086">$e$</tspan></text>
    <text
       xml:space="preserve"
       style="font-size:10.5833px;line-height:1.25;font-family:sans-serif;letter-spacing:0px;word-spacing:0px;stroke-width:0.264583"
       x="210.83333"
       y="38.28125"
       id="text8730"><tspan
         sodipodi:role="line"
         id="tspan8728"
         style="stroke-width:0.264583"
         x="210.83333"
         y="38.28125">$s$</tspan></text>
    <text
       xml:space="preserve"
       style="font-size:10.5833px;line-height:1.25;font-family:sans-serif;letter-spacing:0px;word-spacing:0px;stroke-width:0.264583"
       x="42.822914"
       y="-5.3749967"
       id="text10670"><tspan
         sodipodi:role="line"
         id="tspan10668"
         style="stroke-width:0.264583"
         x="42.822914"
         y="-5.3749967">$U_s$</tspan></text>
    <text
       xml:space="preserve"
       style="font-size:10.5833px;line-height:1.25;font-family:sans-serif;letter-spacing:0px;word-spacing:0px;stroke-width:0.264583"
       x="177.76042"
       y="-5.3749967"
       id="text11620"><tspan
         sodipodi:role="line"
         id="tspan11618"
         style="stroke-width:0.264583"
         x="177.76042"
         y="-5.3749967">$U_e$</tspan></text>
  </g>
</svg>
