<?xml version="1.0" encoding="UTF-8" standalone="no"?>
<svg
   width="168.27359mm"
   height="166.94933mm"
   viewBox="0 0 168.27359 166.94933"
   version="1.1"
   id="svg8"
   sodipodi:docname="2021-09-27_14-18.svg"
   inkscape:version="1.1.1 (3bf5ae0d25, 2021-09-20)"
   xmlns:inkscape="http://www.inkscape.org/namespaces/inkscape"
   xmlns:sodipodi="http://sodipodi.sourceforge.net/DTD/sodipodi-0.dtd"
   xmlns:xlink="http://www.w3.org/1999/xlink"
   xmlns="http://www.w3.org/2000/svg"
   xmlns:svg="http://www.w3.org/2000/svg"
   xmlns:rdf="http://www.w3.org/1999/02/22-rdf-syntax-ns#"
   xmlns:cc="http://creativecommons.org/ns#"
   xmlns:dc="http://purl.org/dc/elements/1.1/">
  <defs
     id="defs2">
    <symbol
       id="g1400">
      <g
         id="g1400_transform"
         transform="matrix(4.3598402,0,0,4.3255295,1.8462247,104.30036)">
        <path
           d="M 13.229167,1.3229167 A 11.90625,11.90625 0 1 0 25.135401,13.229167 11.906311,11.906311 0 0 0 13.229167,1.3229167 Z M 24.56344,12.275479 c -0.0018,-0.0015 -0.0026,-0.0037 -0.0044,-0.0051 a 3.4914046,3.4914046 0 0 0 -0.482642,-0.306747 0.26458333,0.26458333 0 1 0 -0.24992,0.466428 2.968625,2.968625 0 0 1 0.409424,0.259377 0.26254604,0.26254604 0 0 0 0.355841,-0.03474 q 0.01419,0.285461 0.01455,0.574487 a 0.54074483,0.54074483 0 0 1 -0.168561,0.356195 3.5456151,3.5456151 0 0 1 -1.344946,0.767961 19.519371,19.519371 0 0 1 -4.103124,0.908778 c -0.912865,0.119327 -1.907587,0.210097 -2.957668,0.269478 a 0.259715,0.259715 0 0 0 -0.202716,-0.118856 0.26358321,0.26358321 0 0 0 -0.246385,0.142901 c -0.759982,0.03567 -1.546852,0.05481 -2.353683,0.05479 -0.797399,6.3e-5 -1.57597,-0.01831 -2.327831,-0.05321 -0.0349,-0.751946 -0.05345,-1.530381 -0.05345,-2.328039 -2.64e-4,-3.198019 0.29554,-6.09409 0.768411,-8.1732441 A 10.093254,10.093254 0 0 1 12.432387,2.6275982 2.2606,2.2606 0 0 1 12.872993,2.0206441 0.54045115,0.54045115 0 0 1 13.229167,1.8520833 0.499745,0.499745 0 0 1 13.540825,1.982761 0.26246667,0.26246667 0 0 0 13.950117,1.8771923 11.366794,11.366794 0 0 1 24.56344,12.275479 Z M 5.1843252,5.1843808 A 11.33819,11.33819 0 0 1 12.278545,1.8946812 4.9021709,4.9021709 0 0 0 11.609432,3.1802282 20.006112,20.006112 0 0 0 10.671537,7.4001921 45.680455,45.680455 0 0 0 10.31875,13.229167 c 6.3e-5,0.787453 0.01802,1.556252 0.05171,2.300263 A 33.387882,33.387882 0 0 1 5.0558779,14.842043 10.092777,10.092777 0 0 1 2.6275771,14.025986 2.2609519,2.2609519 0 0 1 2.0206229,13.585362 0.54065223,0.54065223 0 0 1 1.8520622,13.229214 l 2.11e-5,-4.7e-5 h -1.58e-5 A 0.49993021,0.49993021 0 0 1 1.9827452,12.917487 0.26458333,0.26458333 0 0 0 1.9417347,12.545579 0.25638125,0.25638125 0 0 0 1.876896,12.512135 11.337999,11.337999 0 0 1 5.1843252,5.1843728 Z M 1.8949458,14.18355 a 4.9543996,4.9543996 0 0 0 1.28524,0.665398 20.004728,20.004728 0 0 0 4.2199454,0.937864 c 0.9273355,0.121163 1.9349932,0.213085 2.9974278,0.273124 a 34.023446,34.023446 0 0 0 0.702752,5.459793 10.574044,10.574044 0 0 0 0.865952,2.561487 3.4427583,3.4427583 0 0 0 0.310525,0.48232 A 11.365378,11.365378 0 0 1 1.8949458,14.18355 Z m 19.3790492,7.09041 a 11.33825,11.33825 0 0 1 -7.09114,3.28948 c 0.0015,-0.0018 0.0036,-0.0025 0.0051,-0.0044 a 3.4937885,3.4937885 0 0 0 0.306731,-0.48264 0.26458333,0.26458333 0 1 0 -0.466413,-0.24992 l -2.1e-5,-1.6e-5 a 2.9712708,2.9712708 0 0 1 -0.259368,0.409437 0.26255133,0.26255133 0 0 0 0.03467,0.355809 q -0.285396,0.01419 -0.574347,0.01453 a 0.54052787,0.54052787 0 0 1 -0.356164,-0.168561 3.545877,3.545877 0 0 1 -0.767945,-1.344946 19.518103,19.518103 0 0 1 -0.908809,-4.103124 c -0.117211,-0.896672 -0.207029,-1.872075 -0.266473,-2.901534 0.743744,0.03367 1.51239,0.05148 2.299391,0.0515 0.787355,-6.3e-5 1.556041,-0.01799 2.299972,-0.05169 -0.002,0.03377 -0.0035,0.06821 -0.0055,0.101864 a 0.26458333,0.26458333 0 1 0 0.528196,0.03165 c 0.0032,-0.05308 0.0057,-0.107293 0.0087,-0.160665 a 34.020935,34.020935 0 0 0 5.459185,-0.702686 10.573544,10.573544 0 0 0 2.561487,-0.865934 3.3889315,3.3889315 0 0 0 0.482418,-0.311779 11.338354,11.338354 0 0 1 -3.289642,7.093616 z"
           id="path1338"
           style="stroke-width:0.264583" />
        <path
           d="m 9.3509042,10.999134 h 1.58e-5 q 0.2595272,-0.02098 0.5247111,-0.03918 a 0.26458333,0.26458333 0 0 0 -0.036248,-0.527923 q -0.2682716,0.01841 -0.5310875,0.03965 a 0.26458617,0.26458617 0 0 0 0.042598,0.527455 z"
           id="path1340"
           style="stroke-width:0.264583" />
        <path
           d="m 7.2604101,11.224104 q 0.2561881,-0.03512 0.5210122,-0.06731 A 0.26458466,0.26458466 0 0 0 7.7175995,10.63149 q -0.2686844,0.03265 -0.5290529,0.06834 a 0.26458721,0.26458721 0 1 0 0.071864,0.524272 z"
           id="path1342"
           style="stroke-width:0.264583" />
        <path
           d="m 5.1957261,11.585017 h 1.59e-5 Q 5.4445138,11.530367 5.7080018,11.47903 A 0.26458333,0.26458333 0 0 0 5.6068436,10.959634 q -0.2692638,0.05244 -0.5246449,0.108538 a 0.26458333,0.26458333 0 1 0 0.1135274,0.516845 z"
           id="path1344"
           style="stroke-width:0.264583" />
        <path
           d="m 3.2066839,12.166335 q 0.225036,-0.08969 0.4830788,-0.175683 A 0.26458355,0.26458355 0 0 0 3.5225461,11.4886 q -0.2706688,0.09016 -0.5118232,0.186179 a 0.26458648,0.26458648 0 1 0 0.1959504,0.491556 z"
           id="path1346"
           style="stroke-width:0.264583" />
        <path
           d="m 11.966115,10.334059 q -0.267817,0.0065 -0.531929,0.01578 a 0.26458392,0.26458392 0 1 0 0.01851,0.528844 q 0.261271,-0.0091 0.526307,-0.01561 a 0.26458333,0.26458333 0 1 0 -0.01288,-0.529005 z"
           id="path1348"
           style="stroke-width:0.264583" />
        <path
           d="m 14.094166,10.325894 q -0.264445,-0.0044 -0.532042,-0.0061 a 0.26458866,0.26458866 0 0 0 -0.0034,0.529166 v -1.5e-5 q 0.264832,0.0017 0.526613,0.006 a 0.26458333,0.26458333 0 0 0 0.0088,-0.529084 z"
           id="path1350"
           style="stroke-width:0.264583" />
        <path
           d="m 21.897975,11.736186 h 1.6e-5 q 0.261271,0.06734 0.501121,0.13846 a 0.26459253,0.26459253 0 0 0 0.150442,-0.50735 q -0.249523,-0.07395 -0.519475,-0.143531 a 0.26458717,0.26458717 0 1 0 -0.132099,0.512421 z"
           id="path1352"
           style="stroke-width:0.264583" />
        <path
           d="m 19.847933,11.320126 h 1.6e-5 q 0.264155,0.04195 0.517086,0.08708 a 0.26458422,0.26458422 0 0 0 0.09292,-0.520946 Q 20.200003,10.84022 19.930937,10.7975 a 0.26458864,0.26458864 0 1 0 -0.08301,0.522626 z"
           id="path1354"
           style="stroke-width:0.264583" />
        <path
           d="m 17.763257,11.057318 h 1.6e-5 q 0.265001,0.02567 0.522997,0.05418 a 0.26458333,0.26458333 0 0 0 0.05817,-0.525955 q -0.261588,-0.02892 -0.530151,-0.05494 a 0.26458879,0.26458879 0 1 0 -0.05103,0.526711 z"
           id="path1356"
           style="stroke-width:0.264583" />
        <path
           d="m 14.291924,3.2067315 q 0.08972,0.225036 0.175683,0.4830789 A 0.26458333,0.26458333 0 0 0 14.969643,3.5225937 Q 14.879505,3.251925 14.783477,3.0107864 a 0.26458333,0.26458333 0 1 0 -0.49154,0.1959345 z"
           id="path1358"
           style="stroke-width:0.264583" />
        <path
           d="m 14.873269,5.1958081 -1.6e-5,-1.85e-5 q 0.05467,0.2488009 0.105984,0.5122598 A 0.26458622,0.26458622 0 1 0 15.498651,5.6068939 Q 15.446206,5.3376248 15.390098,5.082249 a 0.26458333,0.26458333 0 1 0 -0.516829,0.1135591 z"
           id="path1360"
           style="stroke-width:0.264583" />
        <path
           d="m 15.234195,7.2604736 q 0.0351,0.2561616 0.06729,0.5209963 a 0.26459143,0.26459143 0 0 0 0.525322,-0.063804 q -0.03265,-0.2687081 -0.06836,-0.5290714 a 0.26458333,0.26458333 0 1 0 -0.524259,0.071879 z"
           id="path1362"
           style="stroke-width:0.264583" />
        <path
           d="m 15.8662,12.237109 a 0.2646045,0.2646045 0 0 0 0.258059,-0.270963 q -0.0065,-0.267787 -0.01578,-0.531913 a 0.26458392,0.26458392 0 0 0 -0.528844,0.01851 q 0.0091,0.261247 0.01561,0.526309 a 0.26458333,0.26458333 0 0 0 0.270952,0.258059 z"
           id="path1364"
           style="stroke-width:0.264583" />
        <path
           d="m 15.459165,9.3509809 h 1.8e-5 q 0.02095,0.2595298 0.03918,0.5247084 a 0.26458333,0.26458333 0 1 0 0.527908,-0.036248 q -0.01839,-0.2682875 -0.03965,-0.5310902 a 0.26458825,0.26458825 0 0 0 -0.527457,0.042619 z"
           id="path1366"
           style="stroke-width:0.264583" />
        <path
           d="m 15.440951,19.628178 a 0.26458333,0.26458333 0 0 0 -0.302792,0.219803 q -0.04195,0.264178 -0.08709,0.517104 a 0.26459515,0.26459515 0 0 0 0.520965,0.09294 q 0.046,-0.257969 0.08874,-0.527037 A 0.26458333,0.26458333 0 0 0 15.440953,19.62818 Z"
           id="path1368"
           style="stroke-width:0.264583" />
        <path
           d="m 15.875614,13.29591 a 0.26458333,0.26458333 0 0 0 -0.266264,0.262904 h 8e-6 q -0.0017,0.264834 -0.006,0.526616 a 0.26458672,0.26458672 0 1 0 0.5291,0.0088 q 0.0044,-0.264446 0.0061,-0.53204 a 0.26460979,0.26460979 0 0 0 -0.262944,-0.26628 z"
           id="path1370"
           style="stroke-width:0.264583" />
        <path
           d="m 15.689837,17.525471 a 0.26456481,0.26456481 0 0 0 -0.288854,0.237839 q -0.02567,0.265004 -0.0542,0.522999 a 0.26458775,0.26458775 0 1 0 0.52597,0.05815 q 0.02889,-0.261564 0.05494,-0.530138 a 0.26458333,0.26458333 0 0 0 -0.237857,-0.288853 z"
           id="path1372"
           style="stroke-width:0.264583" />
        <path
           d="m 15.044317,21.70788 a 0.26458333,0.26458333 0 0 0 -0.322234,0.190169 h -1.5e-5 q -0.06734,0.261252 -0.138462,0.501121 a 0.26458333,0.26458333 0 0 0 0.507333,0.150429 q 0.07398,-0.249502 0.143547,-0.519478 A 0.26458333,0.26458333 0 0 0 15.044317,21.70788 Z"
           id="path1374"
           style="stroke-width:0.264583" />
      </g>
    </symbol>
  </defs>
  <sodipodi:namedview
     id="base"
     pagecolor="#ffffff"
     bordercolor="#000000"
     borderopacity="1"
     inkscape:pageopacity="0.0"
     inkscape:pageshadow="2"
     inkscape:zoom="0.78977724"
     inkscape:cx="315.91187"
     inkscape:cy="245.0058"
     inkscape:document-units="mm"
     inkscape:current-layer="layer1"
     inkscape:document-rotation="0"
     showgrid="true"
     showborder="true"
     borderlayer="true"
     inkscape:showpageshadow="false"
     objecttolerance="10000"
     guidetolerance="10000"
     inkscape:snap-perpendicular="true"
     inkscape:snap-tangential="true"
     inkscape:window-width="1920"
     inkscape:window-height="1080"
     inkscape:window-x="-1"
     inkscape:window-y="14"
     inkscape:window-maximized="0"
     inkscape:pagecheckerboard="1">
    <sodipodi:guide
       position="-16.145987,151.73602"
       orientation="0,793.70079"
       id="guide10" />
    <sodipodi:guide
       position="193.85401,151.73602"
       orientation="559.37008,0"
       id="guide12" />
    <sodipodi:guide
       position="193.85401,3.7360185"
       orientation="0,-793.70079"
       id="guide14" />
    <sodipodi:guide
       position="-16.145987,3.7360185"
       orientation="-559.37008,0"
       id="guide16" />
    <inkscape:grid
       type="xygrid"
       id="grid20"
       dotted="true"
       units="px"
       originx="88.854011"
       originy="89.213314" />
  </sodipodi:namedview>
  <metadata
     id="metadata5">
    <rdf:RDF>
      <cc:Work
         rdf:about="">
        <dc:format>image/svg+xml</dc:format>
        <dc:type
           rdf:resource="http://purl.org/dc/dcmitype/StillImage" />
        <dc:title />
        <cc:license
           rdf:resource="" />
      </cc:Work>
    </rdf:RDF>
  </metadata>
  <g
     inkscape:label="Layer 1"
     inkscape:groupmode="layer"
     id="layer1"
     transform="translate(-16.145986,15.213307)">
    <use
       xlink:href="#g1400"
       id="use1020"
       x="0"
       y="0"
       width="100%"
       height="100%"
       transform="matrix(1.620841,0,0,1.620841,3.8051273,-193.54257)"
       style="stroke-width:0.308482;stroke-miterlimit:4;stroke-dasharray:none;stroke:none;stroke-opacity:1" />
    <circle
       style="fill:#ff0001;fill-rule:evenodd;stroke:none;stroke-width:0.499999;stroke-miterlimit:4;stroke-dasharray:none;stop-color:#000000;stroke-opacity:1"
       id="path1870-3"
       cx="81.635185"
       cy="85.797462"
       r="9.260417" />
    <circle
       style="opacity:0.433807;fill:#ff0001;fill-rule:evenodd;stroke:none;stroke-width:0.499999;stroke-miterlimit:4;stroke-dasharray:none;stop-color:#000000;stroke-opacity:1"
       id="path1870"
       cx="119.27821"
       cy="51.335209"
       r="9.260417" />
    <text
       xml:space="preserve"
       style="font-size:10.5833px;line-height:1.25;font-family:sans-serif;letter-spacing:0px;word-spacing:0px;stroke-width:0.264583;stroke:none;stroke-opacity:1"
       x="126.16666"
       y="26.375002"
       id="text5339"><tspan
         sodipodi:role="line"
         id="tspan5337"
         style="stroke-width:0.264583;stroke:none;stroke-opacity:1"
         x="126.16666"
         y="26.375002">$P/P$</tspan></text>
    <text
       xml:space="preserve"
       style="font-size:10.5833px;line-height:1.25;font-family:sans-serif;letter-spacing:0px;word-spacing:0px;stroke-width:0.264583;stroke:none;stroke-opacity:1"
       x="38.67482"
       y="109.37388"
       id="text10809"><tspan
         sodipodi:role="line"
         id="tspan10807"
         style="stroke-width:0.264583;stroke:none;stroke-opacity:1"
         x="38.67482"
         y="109.37388">$wP/P$</tspan></text>
    <path
       style="opacity:0.433807;fill:#cccdea;fill-rule:evenodd;stroke:none;stroke-width:2.39278;stroke-miterlimit:4;stroke-dasharray:none;stroke-opacity:1;stop-color:#000000"
       d="M 185.49534,371.51737 C 98.671522,361.17739 41.103855,345.2758 21.398736,326.18989 c -7.621174,-7.38169 -8.360593,-10.29703 -4.300575,-16.95607 3.007742,-4.93315 3.180218,-7.80239 0.668625,-11.12301 -2.388136,-3.1574 -2.395218,-8.93698 -0.03024,-24.68272 C 34.196087,163.84226 105.18954,75.299111 209.20502,34.628318 231.8127,25.788553 277.14355,15.35301 287.15357,16.683907 c 3.07198,0.408438 3.06421,0.437202 -2.93806,10.883828 C 277.81289,38.71115 269.18173,62.920221 262.89573,87.366408 248.46518,143.4866 239.98329,226.67987 239.95318,312.39467 l -0.0127,34.4682 -6.28501,2.70375 c -7.45645,3.20768 -16.78402,12.69336 -18.95739,19.27877 -1.52455,4.61946 -1.62525,4.67597 -8.09301,4.54187 -3.60154,-0.0747 -13.10118,-0.91613 -21.10977,-1.86989 z M 56.337763,285.64575 c 5.001179,-1.82534 9.190787,-4.29756 10.693207,-6.30988 2.454518,-3.28756 2.453755,-3.33088 -0.119794,-6.79066 -3.506172,-4.71357 -5.960668,-4.81498 -16.263329,-0.67189 -7.047372,2.83403 -9.064376,4.2642 -10.077768,7.14576 -1.114393,3.16877 -0.842249,3.96794 2.259865,6.63627 1.939757,1.6685 3.922395,3.02419 4.40586,3.01263 0.483466,-0.0114 4.579346,-1.37155 9.101959,-3.02223 z m 59.819337,-15.9985 c 5.3712,-1.50691 7.87271,-5.07558 6.73508,-9.60829 -1.23015,-4.90131 -5.15728,-5.90391 -15.01022,-3.83212 -12.565712,2.64221 -16.793289,7.80452 -11.335749,13.84212 1.84193,2.0377 3.284059,2.32265 8.546719,1.68878 3.48199,-0.41941 8.46087,-1.36013 11.06417,-2.09049 z m 52.87791,-8.25119 c 6.54682,-0.96369 10.13791,-3.59456 10.11005,-7.40671 -0.0242,-3.31637 -1.17628,-5.07683 -4.41224,-6.74247 -3.41899,-1.75984 -19.55514,0.47544 -22.4747,3.11334 -5.50335,4.97244 0.0961,13.75879 7.91363,12.41761 1.74099,-0.29868 5.72946,-0.92047 8.86326,-1.38177 z m 56.77181,-5.50732 c 7.26103,-1.03246 9.01973,-2.58802 9.05015,-8.00485 0.0314,-5.58921 -4.05569,-7.35151 -14.93432,-6.43948 -7.80603,0.65443 -9.59511,1.25432 -11.69234,3.9205 -3.07936,3.91477 -3.07362,4.23755 0.14817,8.33339 2.84775,3.62032 5.24945,3.92218 17.42834,2.19044 z"
       id="path13118"
       transform="matrix(0.26458333,0,0,0.26458333,16.145986,-15.213307)" />
    <path
       style="opacity:0.433807;fill:#cccdea;fill-rule:evenodd;stroke:none;stroke-width:2.39278;stroke-miterlimit:4;stroke-dasharray:none;stroke-opacity:1;stop-color:#000000"
       d="m 294.61117,377.43633 -11.80434,-0.74783 -2.28198,-6.75487 c -2.83709,-8.39808 -10.78965,-16.79001 -19.43557,-20.50939 l -6.32492,-2.72091 0.7776,-49.58259 c 0.97917,-62.43599 3.47853,-97.41231 10.45146,-146.25899 11.34668,-79.485612 32.97744,-135.78859 52.10597,-135.627323 2.62706,0.02215 5.88248,0.876819 7.23428,1.899269 3.21253,2.429837 8.17692,2.367134 10.94533,-0.138245 1.92836,-1.745139 3.77895,-1.818567 14.66077,-0.581718 57.03503,6.482715 108.88543,27.354625 153.63289,61.843525 14.18217,10.930846 38.42374,34.725402 50.06132,49.138202 34.82158,43.1255 58.65858,99.73851 64.62108,153.4755 l 0.88868,8.00921 -6.32875,-3.89413 c -3.48081,-2.14177 -7.74432,-3.89412 -9.47447,-3.89412 -5.35043,0 -9.23531,6.63254 -6.36771,10.87145 0.51163,0.75631 4.29771,3.51405 8.41351,6.12831 5.38306,3.41921 8.49243,4.60509 11.07907,4.22545 l 3.59581,-0.52774 v 7.95129 c 0,4.37321 -0.66165,9.40346 -1.47034,11.17834 -1.9032,4.17709 -12.65659,12.25889 -23.51275,17.6712 -14.76967,7.36339 -51.44595,17.94402 -83.27528,24.02385 -39.94166,7.62938 -112.3272,14.3823 -124.25937,11.59228 -2.707,-0.63296 -4.92524,-0.32962 -6.96399,0.95232 -2.40394,1.51156 -10.0814,1.99354 -39.07783,2.45331 -19.84737,0.3147 -41.39808,0.23567 -47.89047,-0.17565 z m 98.75451,-33.86475 c 1.88986,-1.71031 2.31551,-4.03248 2.31551,-12.6326 0,-9.88767 -0.19829,-10.66704 -3.21731,-12.64518 -4.10893,-2.69226 -8.88859,-0.81929 -10.84553,4.24995 -2.14376,5.55327 -0.84084,19.27841 2.02935,21.37714 3.19537,2.33651 6.89721,2.20344 9.71798,-0.34931 z m -0.80451,-55.37319 c 1.37948,-0.96623 4.81025,-2.4465 7.62391,-3.28949 7.98856,-2.39344 15.95793,-8.93872 20.18662,-16.57934 3.33902,-6.03314 3.7964,-8.08881 3.78085,-16.99287 -0.02,-11.44267 -1.7592,-15.90182 -9.30162,-23.84815 -5.27998,-5.56273 -11.52466,-9.10678 -18.27899,-10.3739 -4.09045,-0.76738 -4.68929,-1.33526 -4.68929,-4.4469 0,-4.5869 -3.00353,-7.54661 -7.65833,-7.54661 -4.64063,0 -8.15332,4.82615 -7.15302,9.82768 0.61928,3.09645 0.0372,3.83359 -5.44331,6.89345 -10.47326,5.84741 -16.46455,17.01919 -16.46455,30.70095 0,13.37715 8.003,25.38997 20.82764,31.26313 2.82097,1.29189 6.23507,3.20388 7.58687,4.24886 3.06191,2.36696 5.74724,2.40977 8.98322,0.14319 z m 178.69796,-11.684 c 3.44195,-5.25308 0.43675,-9.25956 -9.08279,-12.10901 -4.17426,-1.24947 -8.96917,-2.27949 -10.65533,-2.28896 -5.86879,-0.0329 -9.63068,6.36635 -6.57606,11.18643 1.46196,2.30689 13.59115,6.32432 19.42552,6.43409 3.74584,0.0705 5.16641,-0.59406 6.88866,-3.22255 z m -56.01439,-11.34016 c 1.09435,-1.09433 1.98972,-3.28516 1.98972,-4.86848 0,-4.7496 -4.1711,-7.24153 -14.6475,-8.7508 -9.43893,-1.35982 -9.76877,-1.31758 -12.08916,1.54798 -3.06865,3.78961 -3.02205,6.76154 0.15102,9.63313 4.65704,4.21456 21.18148,5.85261 24.59592,2.43817 z m -55.54582,-8.71056 c 4.41581,-6.73939 -0.76585,-11.47765 -13.73065,-12.5557 -7.42886,-0.61772 -8.92678,-0.37781 -11.07907,1.77448 -3.0839,3.0839 -3.20702,7.78231 -0.27298,10.41679 2.44205,2.19271 6.44724,2.99172 16.43116,3.27791 5.73645,0.16444 6.88915,-0.22375 8.65154,-2.91348 z m -170.15999,-5.32322 c 3.0818,-2.78899 2.93095,-7.41849 -0.34858,-10.69803 -2.32644,-2.32644 -3.83682,-2.60487 -11.91672,-2.19686 -6.82385,0.34459 -9.94674,1.09541 -11.89696,2.86034 -3.18286,2.88044 -3.39477,6.66984 -0.54885,9.81455 2.90757,3.21283 21.22389,3.3759 24.71111,0.22 z m 54.98897,1.12649 c 1.6596,-1.10814 4.30464,-5.90771 4.30464,-7.811 0,-0.74218 -1.13956,-2.48898 -2.53236,-3.88177 -3.4037,-3.4037 -20.65292,-3.71413 -24.27426,-0.43685 -3.23427,2.92698 -2.97588,8.69397 0.49858,11.12758 2.95379,2.06891 19.29134,2.81293 22.0034,1.00204 z m 41.73449,-78.10786 c 1.75429,-2.67738 1.83883,-4.37163 0.6125,-12.27548 -0.78248,-5.04317 -2.03983,-9.91303 -2.79412,-10.82189 -1.88078,-2.2662 -9.25662,-2.08379 -11.21622,0.27739 -2.35569,2.83844 -0.8434,20.33502 2.03227,23.51261 3.14182,3.47166 8.86557,3.12285 11.36557,-0.69263 z m 43.60566,-13.98733 c 0,-2.30903 0.67724,-3.16545 2.50317,-3.16545 1.37675,0 3.4518,-1.44779 4.61124,-3.21731 2.63364,-4.01947 0.84468,-8.88813 -3.9334,-10.70476 -2.42158,-0.92067 -3.18101,-2.11628 -3.18101,-5.00795 0,-3.52859 0.22496,-3.71301 3.16545,-2.59504 2.7143,1.03198 3.16545,0.84705 3.16545,-1.29752 0,-1.69418 -0.85519,-2.50102 -2.6509,-2.50102 -1.58604,0 -2.91691,-1.01724 -3.31313,-2.53236 -0.77615,-2.96803 -2.89923,-3.40868 -2.89923,-0.60175 0,1.06184 -1.30542,2.42693 -2.90095,3.03354 -7.20689,2.74006 -7.70712,10.57964 -0.84045,13.17152 3.0744,1.16046 3.7414,2.13702 3.7414,5.47786 0,3.98317 -0.0833,4.04176 -4.10673,2.88786 -5.10686,-1.46463 -4.75653,-1.50778 -4.75653,0.58601 0,1.93601 2.66061,3.30092 6.43446,3.30092 1.74659,0 2.4288,0.88911 2.4288,3.16545 0,1.74099 0.56978,3.16545 1.26618,3.16545 0.6964,0 1.26618,-1.42446 1.26618,-3.16545 z m 87.36641,0.13726 c 0,-2.18535 0.8935,-3.25244 3.21023,-3.8339 6.63778,-1.66598 6.55415,-10.88788 -0.12181,-13.42606 -2.32656,-0.88456 -3.08846,-2.1113 -3.08846,-4.97277 0,-3.52859 0.22496,-3.71301 3.16545,-2.59504 2.7143,1.03198 3.16545,0.84705 3.16545,-1.29752 4e-5,-1.69418 -0.85515,-2.50102 -2.65086,-2.50102 -1.58605,0 -2.91691,-1.01724 -3.31313,-2.53236 -0.36423,-1.3928 -1.2189,-2.53236 -1.89927,-2.53236 -0.68037,0 -1.53504,1.13956 -1.89927,2.53236 -0.36423,1.3928 -1.40975,2.53236 -2.32337,2.53236 -2.68286,0 -5.64058,3.72997 -5.64058,7.11332 0,2.15619 1.18256,3.80681 3.79054,5.29082 2.82615,1.60817 3.79256,3.08308 3.79853,5.7972 0.008,3.38931 -0.26008,3.58664 -3.88075,2.86251 -3.23452,-0.6469 -3.8185,-0.40725 -3.47117,1.42445 0.25075,1.32231 1.80449,2.36229 3.88876,2.60285 2.32325,0.26815 3.47117,1.14051 3.47117,2.63789 0,1.23047 0.37985,2.61708 0.84412,3.08133 1.69848,1.69848 2.95442,0.77003 2.95442,-2.18406 z m -42.92304,-15.87766 c 2.69516,-8.65723 4.64838,-15.99233 4.34049,-16.30022 -1.99861,-1.9986 -4.49464,2.62816 -8.61864,15.97585 -2.5917,8.38829 -4.71219,15.61865 -4.71219,16.06749 0,0.44882 0.92026,0.63182 2.04502,0.40666 1.40584,-0.28142 3.57663,-5.32911 6.94532,-16.14978 z m -24.43166,7.1823 c 0.37533,-5.8382 0.49792,-6.00297 4.46643,-6.00297 6.36345,0 9.70871,-3.05395 9.70871,-8.86326 0,-6.45418 -3.34604,-8.86326 -12.31044,-8.86326 h -6.68225 v 15.287 c 0,13.87522 0.20464,15.24814 2.21581,14.86623 1.6696,-0.31706 2.31094,-1.90057 2.60174,-6.42374 z m 36.96638,0.32793 v -6.3309 h 5.06472 c 6.187,0 10.12944,-3.44963 10.12944,-8.86326 0,-6.19725 -3.80858,-8.86326 -12.6618,-8.86326 h -7.59708 v 14.35004 c 0,14.49972 0.3239,16.03828 3.37649,16.03828 1.18176,0 1.68823,-1.89927 1.68823,-6.3309 z M 377.63813,119.28414 c 1.95996,-2.49331 1.93417,-3.90658 -0.25794,-14.13283 -1.01535,-4.73665 -2.69516,-8.861643 -3.99607,-9.81289 -3.24729,-2.374481 -7.35908,-2.016453 -9.96955,0.868083 -2.3924,2.643569 -2.20253,8.563017 0.60964,19.006627 1.92424,7.14607 9.43187,9.3911 13.61392,4.07101 z M 363.71015,64.838403 c 2.29554,-2.920204 1.98392,-5.565336 -1.75634,-14.908326 -2.38783,-5.964704 -4.21499,-8.673866 -6.4138,-9.509852 -3.62128,-1.376809 -7.25846,0.193849 -9.30526,4.018331 -1.9311,3.60829 4.18704,20.555948 8.09734,22.430172 3.28144,1.572812 7.21514,0.721178 9.37806,-2.030325 z"
       id="path13178"
       transform="matrix(0.26458333,0,0,0.26458333,16.145986,-15.213307)" />
    <path
       style="opacity:0.433807;fill:#cccdea;fill-rule:evenodd;stroke:none;stroke-width:2.39278;stroke-miterlimit:4;stroke-dasharray:none;stroke-opacity:1;stop-color:#000000"
       d="m 312.74642,614.64268 c -8.6036,-4.36963 -18.76608,-21.2545 -25.89487,-43.02408 -13.43226,-41.01886 -19.59745,-72.67612 -26.03706,-133.69616 -2.48625,-23.5591 -2.64836,-22.17237 2.92437,-25.01536 5.88129,-3.00042 15.07558,-12.74575 16.18124,-17.15105 l 0.81326,-3.24029 46.39484,-0.0173 c 25.51717,-0.01 47.67685,-0.36085 49.24375,-0.78076 2.47775,-0.66401 2.84891,-0.28235 2.84891,2.9295 0,4.76881 2.05934,6.73181 7.06219,6.73181 4.482,0 6.25331,-1.55045 7.51518,-6.57817 0.97425,-3.88172 -1.99467,-3.36231 38.60218,-6.75342 46.53489,-3.88713 105.18585,-13.7901 134.75431,-22.7527 17.28185,-5.23836 36.84858,-13.40157 45.99286,-19.18815 7.86215,-4.97523 7.60762,-5.76579 4.63598,14.39981 -10.577,71.77552 -50.5466,141.67755 -107.29081,187.63878 -34.92211,28.28591 -83.29433,51.73086 -125.57408,60.86298 -11.7272,2.53298 -38.78,6.6158 -39.44305,5.95276 -0.15942,-0.15942 1.38534,-2.9813 3.4328,-6.27083 6.04556,-9.71307 4.66912,-16.1179 -3.46385,-16.1179 -3.69676,0 -4.70515,0.86034 -9.27531,7.91362 -3.86069,5.95833 -5.02607,8.93038 -4.71659,12.02871 l 0.41103,4.11508 -7.65937,-0.0289 c -4.29859,-0.0161 -9.3261,-0.87529 -11.45791,-1.95802 z m 53.86692,-49.3588 c 1.70622,-2.05586 4.97465,-13.96032 4.99541,-18.1945 0.0351,-7.16845 -7.99693,-10.15506 -12.36756,-4.5987 -2.59693,3.30146 -5.91122,16.44548 -5.14715,20.41293 0.93217,4.84037 9.17668,6.40789 12.5193,2.38027 z m 13.48452,-56.31921 c 0.84045,-1.7628 1.9092,-6.92498 2.37501,-11.47153 1.005,-9.80936 -0.91003,-12.94237 -7.51711,-12.2981 -4.95829,0.48349 -6.70371,3.87139 -7.87265,15.28091 -1.05725,10.31935 0.27691,12.63532 6.95566,12.07435 3.39525,-0.28517 4.91404,-1.18395 6.05909,-3.58563 z m 7.30287,-54.89166 c 0.92725,-1.47395 2.08001,-6.56837 2.5617,-11.32094 0.735,-7.25187 0.5211,-9.03298 -1.33059,-11.07907 -2.75214,-3.04109 -8.37968,-3.15485 -10.99325,-0.22223 -2.19292,2.46061 -4.23391,20.31049 -2.58218,22.58291 3.29632,4.53499 9.50372,4.55477 12.34432,0.0393 z"
       id="path13238"
       transform="matrix(0.26458333,0,0,0.26458333,16.145986,-15.213307)" />
    <path
       style="opacity:0.433807;fill:#cccdea;fill-rule:evenodd;stroke:none;stroke-width:2.39278;stroke-miterlimit:4;stroke-dasharray:none;stroke-opacity:1;stop-color:#000000"
       d="M 283.62428,614.51733 C 173.77382,601.02269 81.528103,532.58519 38.753528,432.84668 28.225248,408.29763 19.337976,374.71681 16.575516,349.0464 l -0.794528,-7.38323 3.505124,2.47614 c 10.868117,7.6776 31.883735,16.0034 59.307545,23.49601 32.729403,8.94217 60.749203,13.83234 107.333323,18.73241 l 27.00433,2.84052 2.05789,5.76883 c 1.13184,3.17286 4.2177,7.9931 6.85744,10.71165 4.72892,4.87007 15.47563,10.84791 19.54538,10.87206 1.69446,0.01 2.24636,1.96501 2.95247,10.45835 4.05378,48.76008 15.89203,113.97013 26.02509,143.35711 5.47295,15.87214 13.52738,34.08173 17.61268,39.81899 3.014,4.23277 3.22142,5.24192 1.02328,4.97844 -0.87049,-0.10433 -3.29206,-0.39971 -5.38126,-0.65635 z M 99.395116,474.32161 c 0,-2.18535 0.893504,-3.25245 3.210234,-3.8339 4.38719,-1.10113 6.3622,-6.42805 3.82113,-10.30622 -1.04455,-1.59418 -3.05392,-3.26501 -4.46527,-3.71296 -1.81381,-0.57568 -2.566094,-1.9101 -2.566094,-4.55178 0,-3.35424 0.324481,-3.6559 3.165454,-2.94286 2.38195,0.59783 3.16544,0.29638 3.16544,-1.21794 0,-1.10682 -1.42445,-2.36992 -3.16544,-2.80688 -1.741,-0.43697 -3.165454,-1.55376 -3.165454,-2.48176 0,-3.22609 -2.544701,-3.23531 -3.769572,-0.0136 -0.677858,1.7829 -2.081196,3.24164 -3.118529,3.24164 -2.652383,0 -4.869742,4.7153 -3.946729,8.39288 0.426865,1.70077 2.184657,3.62783 3.906204,4.28236 2.401524,0.91306 3.130086,2.10492 3.130086,5.12054 0,3.70848 -0.214547,3.88335 -3.798539,3.09618 -2.988929,-0.65648 -3.79854,-0.4013 -3.79854,1.19723 0,1.24431 1.471936,2.32592 3.79854,2.79124 2.441771,0.48835 3.798539,1.53232 3.798539,2.92276 0,1.18969 0.379854,2.54292 0.844121,3.00718 1.698477,1.69848 2.954419,0.77003 2.954419,-2.18406 z m 119.048304,0.17928 c 0.0189,-1.96004 1.30278,-3.44149 4.11508,-4.74818 3.46575,-1.6103 4.08769,-2.57353 4.08769,-6.3309 0,-3.75736 -0.62194,-4.72059 -4.08769,-6.3309 -3.18097,-1.47798 -4.09376,-2.69394 -4.11508,-5.48186 -0.0254,-3.3256 0.24509,-3.52275 3.77114,-2.7483 2.90316,0.63764 3.79854,0.38661 3.79854,-1.06497 0,-1.07204 -1.62089,-2.25528 -3.72144,-2.71664 -2.45515,-0.53924 -3.9084,-1.75829 -4.27089,-3.5826 -0.53313,-2.68307 -0.57509,-2.6895 -1.41251,-0.21627 -0.47469,1.40192 -2.54126,3.5121 -4.59237,4.68928 -5.29094,3.03658 -5.26032,9.10177 0.0613,12.12989 2.82615,1.60817 3.79256,3.08307 3.79854,5.79719 0.008,3.37057 -0.27342,3.58399 -3.79054,2.88056 -2.87001,-0.574 -3.79854,-0.29544 -3.79854,1.13956 0,1.09736 1.60383,2.22003 3.79854,2.65898 2.9411,0.58822 3.79854,1.43852 3.79854,3.76689 0,1.65394 0.56978,3.00717 1.26618,3.00717 0.6964,0 1.27851,-1.282 1.29358,-2.8489 z m -42.18616,-16.15973 c 3.06053,-9.79879 4.64775,-16.7843 3.91636,-17.23633 -2.08046,-1.2858 -3.15164,0.90555 -7.8588,16.07723 -5.0541,16.28992 -5.27344,17.63537 -2.87486,17.63537 1.03477,0 3.63073,-6.27398 6.8173,-16.47627 z m -51.48805,4.84269 c 1.78868,-8.42862 2.33237,-8.15531 5.03818,2.53266 1.14565,4.52534 1.84522,5.39246 4.08613,5.06472 2.17592,-0.31823 3.11146,-2.00229 4.79176,-8.6256 1.14838,-4.52659 2.50254,-9.51217 3.00928,-11.07907 0.7472,-2.3105 0.44377,-2.8489 -1.60556,-2.8489 -2.02986,0 -2.83342,1.36977 -4.08535,6.96399 -0.85716,3.83019 -1.94692,6.96398 -2.42168,6.96398 -0.47476,0 -1.56452,-3.13379 -2.42168,-6.96398 -1.24022,-5.54192 -2.06516,-6.96399 -4.03976,-6.96399 -1.36471,0 -2.71357,0.71222 -2.99746,1.58272 -0.2839,0.8705 -1.30787,4.43163 -2.2755,7.91362 l -1.75932,6.3309 -1.71345,-7.40858 c -1.51804,-6.56366 -3.94018,-9.95225 -5.79091,-8.10152 -0.34649,0.34649 0.60272,5.54491 2.10935,11.55204 2.42124,9.65376 3.06877,10.92205 5.5763,10.92205 2.45372,0 3.06158,-1.05842 4.49967,-7.83504 z m 26.53928,2.13723 c 0,-5.51393 0.12522,-5.69781 3.88178,-5.69781 4.07987,0 8.77332,-1.95329 10.34336,-4.30463 1.6606,-2.48699 1.02292,-8.01039 -1.2468,-10.79925 -1.76272,-2.16592 -3.76925,-2.77714 -9.81289,-2.98918 l -7.59708,-0.26654 -0.35673,14.87761 c -0.34115,14.22801 -0.2444,14.87761 2.21581,14.87761 2.20482,0 2.57255,-0.81445 2.57255,-5.69781 z m 37.98539,0 c 0,-5.68157 0.0128,-5.69781 4.48918,-5.69781 6.42676,0 11.27993,-5.01195 10.19632,-10.52991 -0.989,-5.03618 -3.39615,-6.8675 -10.40928,-7.91918 -9.24712,-1.38669 -9.34094,-1.2336 -9.34094,15.24391 0,13.75668 0.14641,14.6008 2.53236,14.6008 2.15719,0 2.53236,-0.84412 2.53236,-5.69781 z"
       id="path13298"
       transform="matrix(0.26458333,0,0,0.26458333,16.145986,-15.213307)" />
  </g>
</svg>
