<?xml version="1.0" encoding="UTF-8" standalone="no"?>
<svg
   width="524.87036mm"
   height="333.1741mm"
   viewBox="0 0 524.87036 333.17411"
   version="1.1"
   id="svg8"
   sodipodi:docname="2021-09-15_14-18.svg"
   inkscape:version="1.1 (c4e8f9ed74, 2021-05-24)"
   xmlns:inkscape="http://www.inkscape.org/namespaces/inkscape"
   xmlns:sodipodi="http://sodipodi.sourceforge.net/DTD/sodipodi-0.dtd"
   xmlns="http://www.w3.org/2000/svg"
   xmlns:svg="http://www.w3.org/2000/svg"
   xmlns:rdf="http://www.w3.org/1999/02/22-rdf-syntax-ns#"
   xmlns:cc="http://creativecommons.org/ns#"
   xmlns:dc="http://purl.org/dc/elements/1.1/">
  <defs
     id="defs2">
    <linearGradient
       id="linearGradient2850"
       inkscape:swatch="solid">
      <stop
         style="stop-color:#ca4436;stop-opacity:1;"
         offset="0"
         id="stop2848" />
    </linearGradient>
  </defs>
  <sodipodi:namedview
     id="base"
     pagecolor="#ffffff"
     bordercolor="#000000"
     borderopacity="1"
     inkscape:pageopacity="0.0"
     inkscape:pageshadow="2"
     inkscape:zoom="0.76123869"
     inkscape:cx="1080.4758"
     inkscape:cy="503.78416"
     inkscape:document-units="mm"
     inkscape:current-layer="layer1"
     inkscape:document-rotation="0"
     showgrid="true"
     showborder="true"
     borderlayer="true"
     inkscape:showpageshadow="false"
     objecttolerance="10000"
     guidetolerance="10000"
     inkscape:snap-perpendicular="true"
     inkscape:snap-tangential="true"
     inkscape:window-width="1920"
     inkscape:window-height="1080"
     inkscape:window-x="-1"
     inkscape:window-y="14"
     inkscape:window-maximized="0"
     inkscape:pagecheckerboard="0">
    <sodipodi:guide
       position="480.46152,145.33705"
       orientation="0,793.70079"
       id="guide10" />
    <sodipodi:guide
       position="690.46152,145.33705"
       orientation="559.37008,0"
       id="guide12" />
    <sodipodi:guide
       position="690.46152,-2.6629477"
       orientation="0,-793.70079"
       id="guide14" />
    <sodipodi:guide
       position="480.46152,-2.6629477"
       orientation="-559.37008,0"
       id="guide16" />
    <inkscape:grid
       type="xygrid"
       id="grid20"
       dotted="true"
       units="px"
       originx="585.46152"
       originy="261.83706" />
  </sodipodi:namedview>
  <metadata
     id="metadata5">
    <rdf:RDF>
      <cc:Work
         rdf:about="">
        <dc:format>image/svg+xml</dc:format>
        <dc:type
           rdf:resource="http://purl.org/dc/dcmitype/StillImage" />
        <dc:title />
        <cc:license
           rdf:resource="" />
      </cc:Work>
    </rdf:RDF>
  </metadata>
  <g
     inkscape:label="Layer 1"
     inkscape:groupmode="layer"
     id="layer1"
     transform="translate(480.46151,187.83705)">
    <path
       d="m -480.21541,74.78565 201.94656,-262.3766 m -171.36656,269.40713 201.94656,-262.37659 m -171.36159,269.40712 201.94159,-262.3766 m -171.36159,269.40713 201.94157,-262.37192 m -171.36158,269.40245 201.94158,-262.37659 M -327.31045,109.9383 -125.36888,-152.4383 M -296.73045,116.96883 -94.783887,-145.40776 M -266.15046,123.99936 -64.203901,-138.37723 M -235.56548,131.02989 -33.623901,-131.3467 M -204.98549,138.06042 -3.0439007,-124.31617 M -174.40549,145.09096 27.536086,-117.28565 m -507.751496,192.0713 305.80992,70.30531 m -285.61427,-96.54017 305.80992,70.30064 M -439.8241,22.31126 -134.01918,92.61657 M -419.62845,-3.9236 -113.82351,66.37704 M -399.43778,-30.163117 -93.627857,40.14219 M -379.24213,-56.402649 -73.432206,13.90265 M -359.04648,-82.637506 -53.241543,-12.33687 M -338.8558,-108.87704 -33.045892,-38.571725 M -318.66015,-135.11189 -12.850229,-64.811257 M -298.4645,-161.35142 7.3454227,-91.046114 m -285.6142727,-96.544836 305.804936,70.3053"
       fill="none"
       stroke-width="0.492192"
       stroke-linecap="round"
       stroke-linejoin="round"
       stroke="#a5a5a6"
       stroke-miterlimit="10"
       id="path1167" />
    <path
       style="fill:none;stroke:#000000;stroke-width:0.264583px;stroke-linecap:butt;stroke-linejoin:miter;stroke-opacity:1"
       d="m -72.27085,-137.66666 c 0,0 0,0 -153.45833,116.41666 185.20833,-15.87499 185.20833,-15.87499 185.20833,-15.87499 v 0 0"
       id="path860" />
    <text
       xml:space="preserve"
       style="font-size:10.5833px;line-height:1.25;font-family:sans-serif;letter-spacing:0px;word-spacing:0px;stroke-width:0.264583"
       x="-227.53285"
       y="-0.48428398"
       id="text2976"><tspan
         sodipodi:role="line"
         id="tspan2974"
         style="stroke-width:0.264583"
         x="-227.53285"
         y="-0.48428398">$D^0_{\ts{1, 2}}$</tspan></text>
    <path
       d="M -373.04341,-54.973189 -79.630928,12.47787"
       fill="none"
       stroke-width="0.984384"
       stroke-linecap="round"
       stroke-linejoin="round"
       stroke="#000000"
       stroke-miterlimit="10"
       id="path1169" />
    <text
       xml:space="preserve"
       style="font-size:10.5833px;line-height:1.25;font-family:sans-serif;letter-spacing:0px;word-spacing:0px;stroke-width:0.264583"
       x="-110.51053"
       y="-12.242724"
       id="text9392"><tspan
         sodipodi:role="line"
         style="stroke-width:0.264583"
         x="-110.51053"
         y="-12.242724"
         id="tspan9394">$D^0_{\ts{1}}$</tspan></text>
    <path
       d="m -377.83197,-56.07564 6.15387,3.956712 -1.60948,-2.914984 2.86517,-1.882595"
       id="path1171"
       style="stroke-width:1.23511" />
    <path
       d="m -377.83197,-56.075645 6.15387,3.956713 -1.60948,-2.914984 2.86517,-1.882596 z m 0,0"
       fill="none"
       stroke-width="0.98562"
       stroke-linecap="round"
       stroke="#000000"
       stroke-miterlimit="10"
       id="path1173" />
    <path
       d="m -74.842366,13.58033 -6.15387,-3.96139 1.609475,2.91498 -2.86517,1.88728"
       id="path1175"
       style="stroke-width:1.23511" />
    <path
       d="m -74.842366,13.58032 -6.15387,-3.96138 1.609475,2.91498 -2.865157,1.88727 z m 0,0"
       fill="none"
       stroke-width="0.98562"
       stroke-linecap="round"
       stroke="#000000"
       stroke-miterlimit="10"
       id="path1177" />
    <path
       d="m -63.700631,13.02909 h -0.04477 l -0.169428,-0.67735 c -0.199315,-0.7194 -0.468382,-1.308 -0.8122,-1.68172 h -0.214265 l -1.978206,0.21489 v 0.39707 c 0,0 0.214253,-0.0373 0.443469,-0.0373 0.93679,-0.014 1.180943,0.34568 1.564624,1.46683 l 0.398632,1.21457 -1.026466,1.40144 c -0.553109,0.74744 -0.807238,0.76145 -0.867026,0.76145 -0.239179,0 -0.582997,-0.17284 -0.896927,-0.17284 -0.343818,0 -0.553096,0.28962 -0.553096,0.5559 0,0.33634 0.209278,0.65401 0.822176,0.65401 0.857063,0 1.325445,-0.62598 1.77889,-1.32203 l 0.916851,-1.38274 h 0.05485 l 0.353793,1.34537 c 0.199316,0.86889 0.513233,1.3734 1.165993,1.3734 0.971665,0 1.569612,-0.90626 1.983194,-1.49486 l -0.303968,-0.21022 c -0.383681,0.48117 -0.652747,0.74743 -1.021491,0.74743 -0.443469,0 -0.727498,-0.49517 -1.12613,-1.72375 l -0.298967,-0.90627 0.867014,-1.29399 c 0.244166,-0.37372 0.443482,-0.56058 0.772349,-0.56058 0.184365,0 0.508258,0.13547 0.737474,0.13547 0.383681,0 0.657735,-0.30831 0.657735,-0.63064 0,-0.37371 -0.174402,-0.58393 -0.712548,-0.58393 -0.842113,0 -1.41016,0.654 -1.793841,1.29399 l -0.69761,1.11647"
       id="path1179"
       style="stroke-width:1.23511" />
    <path
       d="m -323.57827,105.08934 194.47721,-252.67399"
       fill="none"
       stroke-width="0.984384"
       stroke-linecap="round"
       stroke-linejoin="round"
       stroke="#000000"
       stroke-miterlimit="10"
       id="path1181" />
    <path
       d="m -326.46336,108.83585 6.22363,-3.85863 -3.48803,0.30365 -0.78728,-3.19527"
       id="path1183"
       style="stroke-width:1.23511" />
    <path
       d="m -326.46336,108.83584 6.22363,-3.85862 -3.48803,0.30365 -0.78728,-3.19527 z m 0,0"
       fill="none"
       stroke-width="0.985125"
       stroke-linecap="round"
       stroke="#000000"
       stroke-miterlimit="10"
       id="path1185" />
    <path
       d="m -126.21098,-151.33583 -6.22363,3.86329 3.48304,-0.30831 0.7873,3.19994"
       id="path1187"
       style="stroke-width:1.23511" />
    <path
       d="m -126.21098,-151.33583 -6.22363,3.86329 3.48304,-0.30832 0.7873,3.19995 z m 0,0"
       fill="none"
       stroke-width="0.985125"
       stroke-linecap="round"
       stroke="#000000"
       stroke-miterlimit="10"
       id="path1189" />
    <path
       d="m -125.45857,-164.43924 c -0.1744,-1.06976 -0.26908,-1.49486 -0.58299,-2.00405 h -0.21427 l -2.02306,0.14948 v 0.38774 c 0,0 0.29898,-0.028 0.4983,-0.028 0.872,0 0.94176,0.654 1.04142,1.25194 l 0.83712,4.69948 c -0.39863,0.57459 -1.42012,1.84055 -1.68919,1.84055 -0.31393,0 -0.47338,-0.71006 -1.01153,-0.71006 -0.32888,0 -0.55808,0.17752 -0.55808,0.57459 0,0.49517 0.49828,0.86889 1.09623,0.86889 1.08129,0 2.07787,-1.50888 3.14421,-2.8963 0.74245,-0.95765 1.55466,-2.10682 2.32202,-3.37746 0.45345,-0.71473 0.62286,-1.31734 0.62286,-1.84055 0,-0.56991 -0.36873,-1.0137 -0.89193,-1.0137 -0.41359,0 -0.62785,0.24291 -0.62785,0.5232 0,0.50452 0.69761,0.87823 0.69761,1.22859 0,0.31766 -0.12955,0.63999 -0.4684,1.15852 l -1.63937,2.4712 h -0.0847 l -0.12463,-1.33604 -0.34382,-1.94799 m -97.62472,143.18925 c 0,-1.68173 -1.455,-3.050456 -3.25383,-3.050456 -1.79883,0 -3.25383,1.368726 -3.25383,3.050456 0,1.68639 1.455,3.05045 3.25383,3.05045 1.79883,0 3.25383,-1.36406 3.25383,-3.05045 z m 0,0"
       id="path1191"
       style="stroke-width:1.23511" />
    <path
       style="fill:#8f93cd;fill-opacity:1;stroke:none;stroke-width:0.264583px;stroke-linecap:butt;stroke-linejoin:miter;stroke-opacity:1;opacity:0.52531302"
       d="m -225.72918,-21.24999 185.208,-15.875 -31.74995,-100.54167 z"
       id="path869" />
    <text
       xml:space="preserve"
       style="font-size:10.5833px;line-height:1.25;font-family:sans-serif;letter-spacing:0px;word-spacing:0px;stroke-width:0.264583"
       x="-147.20634"
       y="-106.5228"
       id="text10192"><tspan
         sodipodi:role="line"
         id="tspan10190"
         style="stroke-width:0.264583"
         x="-147.20634"
         y="-106.5228">$D^0_{\ts{2}}$</tspan></text>
    <text
       xml:space="preserve"
       style="font-size:10.5833px;line-height:1.25;font-family:sans-serif;letter-spacing:0px;word-spacing:0px;stroke-width:0.264583"
       x="-130.25751"
       y="-56.841187"
       id="text11252"><tspan
         sodipodi:role="line"
         id="tspan11250"
         style="stroke-width:0.264583"
         x="-130.25751"
         y="-56.841187">$D^0_{\emptyset} = D^0$</tspan></text>
  </g>
</svg>
